<svg width="564" height="557" viewBox="0 0 564 557" fill="none" xmlns="http://www.w3.org/2000/svg">
<path d="M281.71 556.298C437.294 556.298 563.42 486.465 563.42 400.321C563.42 314.177 437.294 244.343 281.71 244.343C126.126 244.343 0 314.177 0 400.321C0 486.465 126.126 556.298 281.71 556.298Z" fill="#F0F0F0"/>
<path d="M306.735 493.364C358.783 493.364 400.976 470.006 400.976 441.191C400.976 412.376 358.783 389.018 306.735 389.018C254.688 389.018 212.495 412.376 212.495 441.191C212.495 470.006 254.688 493.364 306.735 493.364Z" fill="#E0E0E0"/>
<path d="M476.213 436.009C502.397 436.009 523.623 424.257 523.623 409.761C523.623 395.265 502.397 383.514 476.213 383.514C450.029 383.514 428.803 395.265 428.803 409.761C428.803 424.257 450.029 436.009 476.213 436.009Z" fill="#E0E0E0"/>
<path d="M107.148 468.685C156.715 468.685 196.897 446.436 196.897 418.992C196.897 391.547 156.715 369.298 107.148 369.298C57.5813 369.298 17.3994 391.547 17.3994 418.992C17.3994 446.436 57.5813 468.685 107.148 468.685Z" fill="#E0E0E0"/>
<path d="M452.335 415.685C439.637 402.74 432.184 350.011 444.561 339.732H507.569C519.909 350.011 512.505 402.666 499.819 415.672L499.474 416.03L499.03 416.462C498.672 416.808 498.289 417.153 497.882 417.486L497.586 417.721L496.623 418.449C496.095 418.827 495.547 419.177 494.982 419.498C484.542 425.52 467.6 425.52 457.16 419.498C456.605 419.177 456.049 418.819 455.506 418.436C455.198 418.214 454.902 417.992 454.618 417.758L454.235 417.462C453.853 417.141 453.483 416.82 453.137 416.487L452.631 415.993L452.335 415.685Z" fill="#37474F"/>
<path d="M502.102 335.598C516.478 343.903 516.478 357.353 502.102 365.658C487.726 373.963 464.416 373.963 450.04 365.658C435.664 357.353 435.664 343.903 450.04 335.598C464.416 327.293 487.726 327.293 502.102 335.598Z" fill="#455A64"/>
<path d="M495.192 339.596C505.742 345.692 505.742 355.564 495.192 361.66C484.641 367.756 467.513 367.756 456.938 361.66C446.362 355.564 446.387 345.692 456.938 339.596C467.488 333.5 484.629 333.5 495.192 339.596Z" fill="#263238"/>
<path d="M456.95 350.048C467.513 343.952 484.629 343.952 495.204 350.048C497.757 351.424 499.928 353.413 501.522 355.835C499.932 358.265 497.76 360.258 495.204 361.635C484.641 367.731 467.526 367.731 456.95 361.635C454.397 360.255 452.226 358.262 450.632 355.835C452.23 353.416 454.4 351.428 456.95 350.048Z" fill="#F5F5F5"/>
<path d="M482.21 333.414L473.227 326.985C473.227 326.985 465.823 288.151 472.227 271.455C478.632 254.759 490.392 254.82 496.006 259.3C501.621 263.779 498.549 277.81 496.253 285.905C493.477 295.666 484.654 339.399 490.873 354.91L482.21 333.414Z" fill="#BA68C8"/>
<g opacity="0.2">
<path opacity="0.2" d="M482.21 333.414L473.227 326.985C473.227 326.985 465.823 288.151 472.227 271.455C478.632 254.759 490.392 254.82 496.006 259.3C501.621 263.779 498.549 277.81 496.253 285.905C493.477 295.666 484.654 339.399 490.873 354.91L482.21 333.414Z" fill="black"/>
</g>
<path d="M480.409 328.897C480.573 328.829 480.709 328.705 480.793 328.548C480.876 328.39 480.902 328.208 480.865 328.033C473.535 294.826 488.664 263.964 488.812 263.656C488.902 263.477 488.918 263.27 488.855 263.081C488.793 262.891 488.657 262.734 488.479 262.644C488.301 262.554 488.094 262.538 487.904 262.601C487.714 262.663 487.557 262.799 487.467 262.977C487.307 263.285 471.943 294.617 479.384 328.379C479.429 328.574 479.548 328.745 479.716 328.853C479.885 328.961 480.089 328.999 480.285 328.959L480.409 328.897Z" fill="white"/>
<path d="M478.335 323.307C478.335 323.307 477.324 320.259 481.815 319.482C486.307 318.705 487.985 314.966 488.454 308.697C488.923 302.428 490.774 297.936 496.401 297.011C502.028 296.085 506.569 298.924 510.234 296.098C513.899 293.272 523.364 286.46 531.212 289.57C539.061 292.68 536.506 299.442 532.446 303.761C528.387 308.08 527.165 309.598 530.299 316.693C533.434 323.789 531.151 330.415 523.907 332.081C516.664 333.747 512.604 332.883 512.493 340.843C512.382 347.95 510.938 354.602 503.521 357.292C497.652 359.417 491.344 360.04 485.172 359.106C483.095 358.924 481.126 358.105 479.532 356.761C478.027 355.243 478.298 353.553 478.298 351.578V323.307H478.335Z" fill="#BA68C8"/>
<g opacity="0.1">
<path opacity="0.1" d="M478.335 323.307C478.335 323.307 477.324 320.259 481.815 319.482C486.307 318.705 487.985 314.966 488.454 308.697C488.923 302.428 490.774 297.936 496.401 297.011C502.028 296.085 506.569 298.924 510.234 296.098C513.899 293.272 523.364 286.46 531.212 289.57C539.061 292.68 536.506 299.442 532.446 303.761C528.387 308.08 527.165 309.598 530.299 316.693C533.434 323.789 531.151 330.415 523.907 332.081C516.664 333.747 512.604 332.883 512.493 340.843C512.382 347.95 510.938 354.602 503.521 357.292C497.652 359.417 491.344 360.04 485.172 359.106C483.095 358.924 481.126 358.105 479.532 356.761C478.027 355.243 478.298 353.553 478.298 351.578V323.307H478.335Z" fill="black"/>
</g>
<path d="M478.335 356.083C478.467 356.083 478.596 356.042 478.703 355.964C478.809 355.886 478.888 355.777 478.928 355.651C492.119 316.471 521.994 300.639 522.29 300.491C522.437 300.414 522.547 300.284 522.598 300.127C522.648 299.97 522.636 299.799 522.562 299.652C522.525 299.578 522.474 299.513 522.412 299.459C522.35 299.405 522.277 299.365 522.199 299.34C522.121 299.314 522.039 299.305 521.957 299.312C521.875 299.319 521.795 299.342 521.723 299.38C521.414 299.541 491.107 315.57 477.743 355.256C477.716 355.333 477.705 355.416 477.71 355.498C477.716 355.58 477.737 355.66 477.774 355.734C477.811 355.807 477.862 355.873 477.925 355.926C477.987 355.98 478.06 356.02 478.138 356.046C478.201 356.071 478.268 356.084 478.335 356.083Z" fill="white"/>
<path d="M497.265 321.925H497.401C506.039 319.963 519.81 321.024 519.946 321.037C520.111 321.05 520.275 320.998 520.402 320.892C520.529 320.786 520.609 320.634 520.625 320.469C520.631 320.386 520.622 320.303 520.596 320.224C520.571 320.145 520.53 320.072 520.476 320.009C520.422 319.946 520.356 319.894 520.282 319.857C520.208 319.819 520.128 319.796 520.045 319.79C519.477 319.79 505.928 318.704 497.129 320.716C496.986 320.756 496.862 320.846 496.778 320.97C496.695 321.093 496.659 321.242 496.675 321.39C496.691 321.538 496.759 321.676 496.867 321.778C496.975 321.881 497.116 321.941 497.265 321.95V321.925Z" fill="white"/>
<path d="M490.243 340.756C494.18 340.756 498.351 340.497 498.622 340.484C498.704 340.48 498.785 340.459 498.859 340.422C498.933 340.386 498.999 340.336 499.053 340.274C499.107 340.211 499.148 340.139 499.173 340.061C499.199 339.983 499.209 339.9 499.202 339.818C499.199 339.735 499.179 339.654 499.144 339.579C499.108 339.504 499.057 339.438 498.995 339.383C498.932 339.329 498.859 339.288 498.78 339.263C498.701 339.238 498.618 339.23 498.536 339.238C498.449 339.238 488.824 339.83 485.061 339.238C484.898 339.216 484.733 339.258 484.599 339.354C484.466 339.451 484.375 339.595 484.345 339.756C484.32 339.92 484.36 340.087 484.457 340.22C484.554 340.354 484.7 340.445 484.863 340.472C486.648 340.692 488.446 340.786 490.243 340.756Z" fill="white"/>
<path d="M501.313 317.323C501.395 317.318 501.475 317.297 501.549 317.261C501.623 317.224 501.689 317.174 501.743 317.112C501.797 317.05 501.838 316.977 501.864 316.899C501.89 316.821 501.899 316.738 501.893 316.656C501.593 312.177 500.667 307.761 499.141 303.539C499.077 303.385 498.957 303.263 498.806 303.196C498.654 303.129 498.482 303.124 498.326 303.181C498.249 303.211 498.179 303.256 498.12 303.313C498.061 303.371 498.014 303.439 497.981 303.515C497.949 303.591 497.932 303.673 497.932 303.755C497.932 303.838 497.949 303.919 497.981 303.995C499.462 308.097 500.375 312.381 500.696 316.73C500.702 316.89 500.77 317.04 500.885 317.151C501 317.261 501.153 317.323 501.313 317.323Z" fill="white"/>
<path d="M478.163 360.327C471.95 362.23 465.347 362.472 459.011 361.03C448.028 358.673 445.375 351.961 445.375 351.961C445.375 351.961 453.199 343.828 460.122 343.323C453.211 342.293 446.176 342.443 439.316 343.767C439.316 343.767 432.961 341.422 434.158 330.797C434.158 330.797 440.143 326.441 453.902 328.144C453.902 328.144 447.004 323.282 434.899 321.839C433.948 321.839 435.244 308.018 436.392 301.848C437.539 295.678 439.835 296.64 444.783 297.171C449.731 297.702 465.304 302.847 467.155 306.389C469.006 309.931 467.155 318.926 467.155 318.926C467.155 318.926 471.684 315.224 472.684 310.683C476.158 310.998 479.455 312.363 482.136 314.595C486.492 318.297 485.233 320.629 483.814 324.294C482.414 327.997 480.49 331.479 478.101 334.635C478.101 334.635 482.741 332.957 487.146 321.9C487.146 321.9 491.7 330.366 492.502 336.424C493.304 342.483 487.553 355.379 478.163 360.327Z" fill="#BA68C8"/>
<path d="M477.879 360.907C477.768 360.866 477.671 360.794 477.599 360.7C477.527 360.606 477.483 360.494 477.472 360.376C475.818 339.806 452.533 307.66 442.241 301.206C442.101 301.117 442.001 300.977 441.964 300.815C441.927 300.653 441.956 300.483 442.044 300.342C442.136 300.207 442.277 300.112 442.437 300.075C442.597 300.038 442.765 300.063 442.907 300.145C453.372 306.71 477.027 339.374 478.693 360.278C478.7 360.359 478.691 360.44 478.666 360.518C478.641 360.595 478.601 360.667 478.548 360.729C478.495 360.791 478.431 360.842 478.358 360.879C478.286 360.916 478.207 360.938 478.126 360.944C478.042 360.953 477.957 360.94 477.879 360.907Z" fill="white"/>
<path d="M107.963 462.971C107.462 462.971 106.982 462.772 106.628 462.418C106.274 462.064 106.075 461.584 106.075 461.083V339.769C106.075 339.268 106.274 338.788 106.628 338.434C106.982 338.08 107.462 337.881 107.963 337.881C108.463 337.881 108.944 338.08 109.298 338.434C109.652 338.788 109.851 339.268 109.851 339.769V461.108C109.844 461.604 109.642 462.078 109.289 462.427C108.936 462.776 108.459 462.971 107.963 462.971Z" fill="#455A64"/>
<path d="M182.99 418.819C182.607 418.815 182.235 418.695 181.922 418.474C181.609 418.254 181.37 417.944 181.238 417.585L144.045 323.43C143.9 322.974 143.934 322.48 144.139 322.048C144.345 321.616 144.707 321.278 145.152 321.103C145.597 320.927 146.092 320.927 146.537 321.103C146.982 321.278 147.344 321.616 147.549 322.048L184.742 416.203C184.838 416.434 184.886 416.682 184.884 416.932C184.883 417.183 184.831 417.43 184.732 417.66C184.633 417.89 184.489 418.098 184.309 418.272C184.128 418.445 183.915 418.581 183.681 418.671C183.462 418.762 183.227 418.813 182.99 418.819Z" fill="#455A64"/>
<path d="M178.523 407.503C178.266 407.504 178.012 407.452 177.776 407.35C177.54 407.248 177.328 407.098 177.153 406.91L107.963 333.672L38.8586 406.602C38.6925 406.797 38.4884 406.956 38.2587 407.07C38.0291 407.183 37.7788 407.249 37.523 407.263C37.2671 407.276 37.0112 407.238 36.7707 407.15C36.5302 407.061 36.3102 406.925 36.1241 406.749C35.938 406.573 35.7897 406.361 35.6882 406.126C35.5866 405.89 35.534 405.637 35.5336 405.381C35.5331 405.125 35.5848 404.871 35.6854 404.635C35.7861 404.4 35.9337 404.187 36.1191 404.011L106.581 329.625C106.762 329.445 106.978 329.303 107.215 329.207C107.453 329.112 107.707 329.065 107.963 329.07C108.219 329.072 108.472 329.125 108.708 329.227C108.943 329.328 109.155 329.476 109.332 329.662L179.892 404.344C180.145 404.612 180.314 404.948 180.378 405.311C180.443 405.673 180.399 406.047 180.254 406.386C180.108 406.724 179.866 407.012 179.559 407.215C179.251 407.418 178.891 407.527 178.523 407.527V407.503Z" fill="#455A64"/>
<path d="M32.8861 418.819C32.6493 418.817 32.415 418.77 32.195 418.683C31.9613 418.593 31.7479 418.458 31.5673 418.284C31.3868 418.111 31.2429 417.903 31.144 417.673C31.045 417.443 30.9932 417.195 30.9914 416.945C30.9897 416.694 31.0381 416.446 31.1338 416.215L68.3266 322.061C68.5098 321.594 68.8709 321.22 69.3302 321.02C69.7896 320.819 70.3097 320.81 70.776 320.993C71.2424 321.176 71.6169 321.538 71.8171 321.997C72.0172 322.456 72.0267 322.976 71.8435 323.443L34.6384 417.597C34.5038 417.954 34.2644 418.261 33.9516 418.479C33.6388 418.697 33.2673 418.816 32.8861 418.819Z" fill="#455A64"/>
<path d="M180.423 404.603L185.359 417.572C185.371 417.683 185.371 417.795 185.359 417.906C185.371 417.983 185.371 418.062 185.359 418.14C185.228 418.5 184.963 418.797 184.619 418.967C184.155 419.198 183.644 419.319 183.126 419.319C182.607 419.319 182.096 419.198 181.632 418.967C181.375 418.832 181.171 418.615 181.052 418.35V418.177L176.499 406.01L180.423 404.603Z" fill="#BA68C8"/>
<path d="M35.4528 404.603L30.5168 417.572C30.5047 417.683 30.5047 417.795 30.5168 417.906C30.5045 417.983 30.5045 418.062 30.5168 418.14C30.6482 418.5 30.9133 418.797 31.2572 418.967C31.7209 419.198 32.2321 419.319 32.7503 419.319C33.2686 419.319 33.7797 419.198 34.2435 418.967C34.5004 418.832 34.7047 418.615 34.8234 418.35V418.177L39.3893 406.01L35.4528 404.603Z" fill="#BA68C8"/>
<path d="M110.11 451.692V462.428C110.092 462.619 110.025 462.801 109.915 462.957C109.804 463.113 109.654 463.237 109.48 463.317C109.001 463.554 108.473 463.677 107.938 463.677C107.403 463.677 106.875 463.554 106.395 463.317C106.222 463.237 106.072 463.113 105.961 462.957C105.851 462.801 105.784 462.619 105.766 462.428V451.692C106.434 451.334 107.18 451.146 107.938 451.146C108.696 451.146 109.442 451.334 110.11 451.692Z" fill="#BA68C8"/>
<path d="M185.285 322.086C185.285 318.989 182.57 315.682 176.832 311.968C166.232 305.082 142.539 291.273 127.707 283.055C127.699 283.025 127.683 282.998 127.662 282.976C127.64 282.955 127.613 282.939 127.583 282.932C116.156 276.009 105.495 243.012 97.6094 217.924C94.9193 209.385 91.6121 204.548 87.7374 202.277C86.8119 201.734 83.3937 199.809 82.6286 199.39C74.8791 194.75 64.6986 200.328 52.0254 207.263C40.3394 213.655 31.2202 221.836 29.3815 243.542C28.2709 256.771 29.3815 282.031 32.0223 301.17C35.9094 333.143 40.6603 333.254 47.6077 338.548C59.5281 347.766 86.38 360.76 97.6958 365.165C118.217 373.236 134.987 360.785 147.488 354.615C158.953 348.812 170.021 342.258 180.621 334.994C183.743 332.711 185.371 330.416 185.334 327.997C185.273 327.022 185.297 323.086 185.285 322.086Z" fill="#263238"/>
<path d="M147.451 348.653C158.909 342.86 169.973 336.318 180.571 329.07C187.679 323.912 187.025 318.63 176.869 312.016C169.268 307.08 169.663 306.648 112.417 275.181C112.417 275.181 39.4263 318.248 42.573 326.207C45.7197 334.166 83.4554 353.651 97.6834 359.254C118.168 367.324 134.938 354.823 147.451 348.653Z" fill="#37474F"/>
<path d="M87.2561 201.968C79.5683 197.933 69.5852 203.412 57.2329 210.174C49.323 214.518 42.5853 219.651 38.4884 229.264L33.281 226.253C37.3655 216.677 44.1031 211.544 51.9884 207.212C64.6616 200.277 74.8421 194.7 82.5916 199.339C83.2826 199.784 85.9728 201.289 87.2561 201.968Z" fill="#455A64"/>
<path d="M57.2329 210.235C76.1995 199.845 89.5884 192.466 97.6094 217.923C105.507 243.01 116.119 276.008 127.583 282.93C127.583 282.93 123.881 279.796 95.4992 301.255C86.4664 308.079 75.4961 313.682 68.3512 317.976C54.2466 326.38 45.6826 329.748 44.3376 328.625C36.8719 322.455 32.8367 268.221 34.6754 246.515C36.514 224.809 45.5593 216.628 57.2329 210.235Z" fill="#37474F"/>
<g opacity="0.5">
<path opacity="0.5" d="M57.2329 210.235C76.1995 199.845 89.5884 192.466 97.6094 217.923C105.507 243.01 116.119 276.008 127.583 282.93C127.583 282.93 108 282.93 79.6177 298.244C50.1251 314.175 45.6086 329.748 44.2636 328.625C36.7979 322.455 32.7627 268.221 34.6013 246.515C36.44 224.809 45.5593 216.628 57.2329 210.235Z" fill="#455A64"/>
</g>
<path d="M420.485 149.399C425.508 148.277 429.938 147.228 433.344 146.352C451.459 141.724 456.913 135.727 457.468 127.718C458.369 114.934 453.581 114.835 445.326 120.549C441.893 122.985 438.133 124.925 434.158 126.311C435.539 124.733 436.69 122.968 437.576 121.067C438.81 117.883 437.132 115.847 436.034 115.304C435.17 114.885 434.294 117.093 431.308 119.537C427.458 122.659 424.348 123.239 421.164 127.595C419.946 129.198 418.196 130.314 416.228 130.741C414.426 131.149 384.848 139.244 370.99 141.625C362.858 131.272 355.306 120.228 346.705 109.233C333.464 92.2777 327.17 89.9084 319.742 91.2534L313.288 112.528C313.288 112.528 356.897 163.887 357.416 164.528C358.897 166.53 360.971 168.013 363.344 168.769C365.716 169.524 368.266 169.513 370.632 168.736C389.413 163.22 409.293 154.57 420.485 149.399Z" fill="#FFA8A7"/>
<path d="M318.014 86.9712C333.488 87.6499 338.079 96.3249 346.026 105.95C353.973 115.575 371.274 140.268 371.274 140.268L413.513 131.432C413.513 131.432 411.773 143.562 417.215 150.868C417.215 150.868 394.806 162.171 381.232 167.366C364.079 173.956 362.956 172.45 359.859 169.612C356.762 166.774 319.137 124.189 319.137 124.189L318.014 86.9712Z" fill="#37474F"/>
<path d="M143.403 115.588C147.414 103.421 151.844 102.915 157.31 111.331C159.566 114.886 162.307 118.109 165.455 120.906C164.758 118.917 164.342 116.841 164.221 114.736C164.221 111.318 166.615 110.06 167.836 109.986C168.799 109.986 168.762 112.293 170.613 115.687C172.982 120.043 175.635 121.77 176.943 126.99C177.437 128.952 178.72 132.852 180.361 134.012C188.753 139.91 204.005 147.178 219.171 153.04C224.551 141.675 231.646 127.496 237.051 117.562C247.343 98.6821 254.155 96.5843 261.645 97.4728L269.271 118.34C269.271 118.34 228.549 172.056 228.13 172.722C225.008 177.115 218.615 180.126 213.642 178.09C199.439 172.266 188.888 162.048 176.832 153.83C169.675 148.968 162.913 145.192 158.594 141.958C143.65 130.828 140.886 123.214 143.403 115.588Z" fill="#FFA8A7"/>
<path d="M251.859 350.406C252.192 334.364 257.017 322.456 257.4 318.001C257.4 318.001 256.166 222.576 256.166 207.089L337.536 203.77C337.536 203.77 336.401 299.442 336.401 312.707C336.401 325.973 334.414 382.354 332.316 408.305L332.082 416.844L313.917 422.496C313.917 422.496 314.263 420.028 313.917 407.885C313.572 395.743 305.415 353.812 304.65 343.162C303.675 329.378 305.884 323.813 305.6 314.607C305.316 305.402 299.948 245.158 299.948 245.158C299.948 245.158 289.755 304.39 287.213 324.442C284.313 347.469 274.984 407.824 274.96 421.854C274.96 424.322 274.96 427.284 274.96 430.431C274.96 438.032 274.75 440.031 275.972 442.968C278.094 448.101 259.93 451.335 259.066 447.682L257.104 432.602V432.171V422.607C257.128 408.305 251.366 373.679 251.859 350.406Z" fill="#FFA8A7"/>
<path d="M367.658 440.66C368.153 442.134 368.064 443.741 367.411 445.152C366.782 446.472 359.921 450.347 350.653 449.718C343.788 449.234 337.176 446.925 331.502 443.03C327.972 440.685 324.295 440.253 319.705 439.982C315.114 439.71 309.092 437.44 308.093 435.292C307.093 433.145 308.241 429.456 308.241 429.456L367.658 440.66Z" fill="#37474F"/>
<path d="M330.28 411.748L331.02 411.588C331.423 411.479 331.843 411.458 332.254 411.526C332.701 411.668 333.096 411.938 333.39 412.303C334.302 413.454 335.096 414.695 335.759 416.005C337.696 419.164 341.781 421.793 346.223 424.187C349.259 425.816 352.221 427.074 355.343 428.481C358.465 429.888 362.747 430.789 365.215 432.467C368.855 434.935 369.324 441.105 365.215 443.499C361.648 445.597 352.245 447.867 342.386 445.078C337.018 443.561 331.057 437.822 324.011 437.267C319.52 436.922 311.042 435.663 308.154 432.257C307.093 430.739 308.512 425.951 309.685 421.83C310.919 417.313 312.486 410.255 313.979 410.65C314.041 411.538 313.868 411.76 314.448 412.365C315.028 412.97 315.744 413.29 316.348 413.809C317.383 414.836 318.22 416.045 318.816 417.375C319.05 417.968 319.488 418.458 320.05 418.757C320.815 419.041 321.371 418.56 322.037 418.263C322.877 417.878 323.827 417.808 324.715 418.066C324.627 417.175 324.47 416.292 324.246 415.425C324.143 415.154 324.117 414.859 324.172 414.574C324.291 414.3 324.494 414.071 324.752 413.92C326.422 412.816 328.305 412.076 330.28 411.748Z" fill="#455A64"/>
<path d="M293.643 466.908C294.186 467.426 294.025 470.955 293.42 471.844C292.816 472.732 289.04 476.039 282.314 476.533C275.885 476.99 270.135 476.126 266.359 473.719C262.583 471.313 260.744 468.672 260.399 465.007C260.053 461.342 260.399 457.801 258.696 454.987C257.079 452.384 254.512 449.447 253.957 448.028C252.723 444.955 253.957 440.562 253.957 440.562L293.643 466.908Z" fill="#37474F"/>
<path d="M276.021 434.898C276.069 436.288 276.318 437.664 276.761 438.982C277.753 441.82 279.079 444.529 280.71 447.053C281.511 448.374 282.406 449.636 283.388 450.829C285.338 453.149 287.756 455.049 289.817 457.27C292.014 459.37 293.418 462.164 293.791 465.18C294.062 470.227 288.583 471.943 284.363 472.683C279.8 473.484 275.115 473.252 270.653 472.004C268.312 471.39 266.196 470.116 264.56 468.333C262.923 466.549 261.834 464.333 261.423 461.947C261.188 460.54 261.275 459.109 261.114 457.702C260.55 454.48 259.203 451.446 257.19 448.867C256.015 447.377 255.005 445.763 254.179 444.054C252.859 440.932 253.908 437.415 254.759 434.306C255.487 431.615 256.302 428.58 257.227 428.827C257.227 430.221 257.227 430.369 258.227 431.295C259.461 432.529 259.535 434.293 260.88 435.342C260.445 434.18 260.13 432.977 259.942 431.751C259.852 431.259 259.954 430.752 260.226 430.332C260.665 429.935 261.194 429.651 261.768 429.505C263.77 428.823 265.838 428.356 267.938 428.111C269.92 427.784 271.942 427.784 273.923 428.111C274.511 428.221 275.042 428.531 275.429 428.987C275.777 429.491 275.963 430.09 275.959 430.702C276.046 431.492 275.984 433.565 276.021 434.898Z" fill="#455A64"/>
<path d="M281.389 448.101C279.501 446.695 275.293 446.682 272.985 446.929C270.647 447.133 268.398 447.922 266.445 449.224C266.159 449.432 265.808 449.53 265.455 449.503C265.103 449.476 264.772 449.325 264.52 449.076C264.372 448.935 264.257 448.762 264.182 448.571C264.108 448.381 264.076 448.176 264.089 447.971C264.102 447.767 264.159 447.567 264.257 447.387C264.355 447.207 264.491 447.051 264.656 446.929C266.815 445.335 269.383 444.39 272.06 444.202C277.736 443.795 279.39 444.77 279.39 444.77C279.39 444.77 281.957 446.436 281.389 448.101Z" fill="#F5F5F5"/>
<path d="M285.659 453.272C283.289 451.878 278.662 452.038 276.354 452.334C274.052 452.584 271.856 453.436 269.987 454.802C269.7 455.01 269.348 455.109 268.995 455.079C268.641 455.05 268.31 454.895 268.062 454.642C267.915 454.501 267.8 454.329 267.727 454.138C267.653 453.948 267.623 453.743 267.637 453.54C267.651 453.336 267.71 453.138 267.809 452.96C267.908 452.781 268.045 452.627 268.21 452.507C270.394 450.839 273.002 449.817 275.737 449.558C281.401 449.151 282.882 450.311 282.882 450.311C283.537 450.565 284.126 450.964 284.606 451.476C285.087 451.989 285.446 452.602 285.659 453.272Z" fill="#F5F5F5"/>
<path d="M269.765 438.772C272.154 438.357 274.609 438.561 276.897 439.365C277.897 439.932 278.551 441.512 277.909 441.907C275.907 441.101 273.736 440.804 271.591 441.043C269.453 441.244 267.366 441.812 265.421 442.721C264.94 442.943 264.372 443.239 263.866 443.523C263.706 443.611 263.531 443.665 263.35 443.683C263.168 443.701 262.985 443.682 262.812 443.628C262.638 443.574 262.477 443.486 262.338 443.368C262.199 443.25 262.085 443.106 262.003 442.943C261.86 442.66 261.832 442.333 261.924 442.03C262.016 441.727 262.221 441.471 262.496 441.314C264.709 439.955 267.188 439.088 269.765 438.772Z" fill="#F5F5F5"/>
<path d="M342.028 421.768C341.706 421.152 341.234 420.627 340.656 420.241C340.078 419.855 339.413 419.62 338.721 419.559C336.684 419.176 333.081 420.682 330.835 422.521C330.624 422.694 330.458 422.916 330.352 423.169C330.246 423.421 330.203 423.695 330.227 423.968C330.252 424.24 330.342 424.503 330.491 424.732C330.64 424.962 330.843 425.151 331.082 425.285C331.384 425.45 331.729 425.519 332.072 425.481C332.414 425.444 332.736 425.302 332.995 425.075C335.458 422.834 338.7 421.647 342.028 421.768Z" fill="#F5F5F5"/>
<path d="M348.346 425.322C347.905 424.694 347.319 424.183 346.638 423.831C345.957 423.478 345.201 423.295 344.434 423.298C344.434 423.298 339.103 423.458 335.796 426.531C335.594 426.698 335.435 426.912 335.333 427.154C335.231 427.397 335.189 427.66 335.211 427.922C335.232 428.184 335.317 428.436 335.458 428.658C335.599 428.88 335.791 429.065 336.018 429.196C336.308 429.359 336.641 429.427 336.971 429.389C337.302 429.351 337.611 429.211 337.857 428.987C339.218 427.627 340.867 426.592 342.683 425.958C344.499 425.323 346.434 425.106 348.346 425.322Z" fill="#F5F5F5"/>
<path d="M355.33 428.505C354.824 427.924 354.198 427.46 353.495 427.144C352.792 426.829 352.029 426.67 351.258 426.679C348.231 426.864 345.34 428.004 343.003 429.937C342.8 430.104 342.641 430.318 342.539 430.56C342.437 430.803 342.395 431.066 342.417 431.328C342.439 431.59 342.524 431.842 342.664 432.064C342.805 432.286 342.997 432.471 343.225 432.602C343.515 432.763 343.848 432.83 344.178 432.792C344.507 432.754 344.817 432.615 345.063 432.393C346.352 430.987 347.951 429.903 349.735 429.228C351.518 428.553 353.434 428.305 355.33 428.505Z" fill="#F5F5F5"/>
<path d="M337.585 203.77C337.585 203.77 338.671 271.183 338.819 283.029C338.967 294.876 338.819 317.581 338.819 329.156C338.819 329.156 335.821 334.216 318.717 334.203C301.614 334.191 299.146 329.465 299.146 329.465L296.617 274.971L291.829 331.538C288.368 333.893 284.462 335.513 280.351 336.301C276.24 337.088 272.012 337.025 267.926 336.116C253.846 333.08 251.773 328.885 251.773 328.885L254.549 203.992L337.585 203.77Z" fill="#37474F"/>
<path d="M296.592 274.971L299.06 252.093C299.06 252.093 310.795 249.23 318.643 243.319C316.116 246.388 313.107 249.026 309.734 251.131C304.971 253.808 302.675 254.907 302.675 254.907L299.245 277.045L298.64 320.235L296.592 274.971Z" fill="#263238"/>
<path d="M253.575 215.455C264.742 223.587 315.373 232.608 338.869 215.455C338.869 215.455 338.326 149.831 336.475 115.094C336.388 113.515 336.29 111.984 336.129 110.504C336.129 110.01 336.006 109.516 335.956 109.023C335.685 106.941 335.273 104.879 334.722 102.853C334.636 102.52 334.525 102.187 334.426 101.853C334.192 101.101 333.957 100.373 333.649 99.6445C333.501 99.262 333.34 98.8794 333.168 98.5092C332.995 98.139 332.847 97.8058 332.649 97.4727C332.633 97.4057 332.604 97.3427 332.563 97.2876C332.39 96.9544 332.193 96.6212 332.008 96.3004C331.823 95.9795 331.588 95.597 331.341 95.2515C331.095 94.9059 330.885 94.5974 330.65 94.3013C330.416 94.0051 330.107 93.6349 329.811 93.3141C329.543 93.003 329.259 92.7064 328.96 92.4256L328.343 91.8456L327.726 91.3397C327.467 91.1052 327.17 90.8954 326.887 90.6857C325.946 90.0262 324.956 89.4403 323.925 88.9334C323.641 88.7976 323.345 88.6496 323.049 88.5385C322.977 88.5104 322.907 88.4774 322.839 88.4398L321.778 88.0449C321.184 87.812 320.579 87.6102 319.964 87.4402C319.339 87.2675 318.685 87.1071 318.002 86.959C317.237 86.959 316.398 86.959 315.534 86.959H313.683L311.684 87.033C302.898 87.4156 290.286 88.8347 280.167 90.1304L278.193 90.4018L276.453 90.6116C269.506 91.5248 264.36 92.2775 263.57 92.4009H263.447C261.176 92.9809 259.066 93.5239 257.363 94.0298C252.723 95.3995 256.129 94.2272 255.154 98.719C252.156 111.898 255.648 159.839 255.648 159.839L253.575 215.455Z" fill="#455A64"/>
<path d="M273.775 50.9141C273.775 50.9141 277.391 67.8816 278.835 70.6581C279.804 72.3748 281.393 73.6554 283.277 74.2367L283.018 62.3039L273.775 50.9141Z" fill="#263238"/>
<path d="M278.255 26.6163C276.991 26.4737 275.711 26.6219 274.513 27.0497C273.316 27.4775 272.232 28.1734 271.344 29.0843C268.383 32.0953 270.073 41.5477 273.775 50.9138L280.574 51.7036L278.255 26.6163Z" fill="#263238"/>
<path d="M282.61 51.7036C281.253 52.5181 279.303 49.902 277.674 48.1374C276.046 46.3727 270.505 43.9788 267.802 49.7416C265.1 55.5043 270.27 63.3896 274.54 64.747C281.944 67.0916 283.104 62.279 283.104 62.279L283.524 89.6738C291.323 103.803 317.718 96.5719 307.821 87.2058V80.2584C311.564 80.5242 315.32 80.5242 319.063 80.2584C324.542 79.4069 326.788 75.6185 328.454 69.683C331.119 60.1565 332.156 52.4687 329.873 33.7366C327.405 13.2152 303.515 13.0054 290.619 21.1128C277.724 29.2202 282.61 51.7036 282.61 51.7036Z" fill="#FFA8A7"/>
<path d="M279.488 15.3994C284.01 13.4681 288.733 12.0444 293.568 11.1544C303.983 8.8962 314.546 6.81074 324.098 2.01048C325.199 1.29641 326.487 0.922985 327.8 0.936899C330.268 1.27008 331.403 4.30572 331.502 6.82308C331.588 9.16959 331.279 11.5139 330.589 13.7582C331.346 13.0325 332.359 12.6347 333.407 12.6509C334.456 12.667 335.456 13.0959 336.191 13.8445C336.889 14.6316 337.399 15.5675 337.681 16.581C337.963 17.5945 338.011 18.6591 337.82 19.6937C337.203 24.3582 333.636 28.2453 329.404 30.3184C325.171 32.3916 320.383 32.8975 315.682 33.0332C309.112 33.2303 302.54 32.7381 296.073 31.5648C294.522 31.1748 292.914 31.0578 291.323 31.2193C290.527 31.3081 289.774 31.6192 289.147 32.1168C288.521 32.6144 288.047 33.2784 287.781 34.0328C287.09 36.6242 286.362 54.258 282.746 54.3321C282.068 54.3321 279.501 49.902 277.81 48.3225C275.712 46.3234 273.59 31.2193 273.22 28.4304C273.174 28.2132 273.076 28.0101 272.936 27.8381C270.567 24.5186 273.343 18.9286 276.268 17.1023C277.307 16.4727 278.383 15.9041 279.488 15.3994Z" fill="#263238"/>
<path d="M274.232 28.0726C273.809 28.5693 273.292 28.9778 272.711 29.2748C272.131 29.5718 271.497 29.7515 270.847 29.8037C270.196 29.8558 269.542 29.7794 268.921 29.5787C268.301 29.378 267.726 29.057 267.229 28.6341C266.732 28.2111 266.324 27.6945 266.027 27.1136C265.73 26.5328 265.55 25.8991 265.498 25.2489C265.446 24.5986 265.522 23.9444 265.723 23.3237C265.923 22.7029 266.244 22.1278 266.667 21.6311L274.232 28.0726Z" fill="#263238"/>
<path d="M307.797 80.2829C307.797 80.2829 295.58 79.0489 291.298 76.8277C288.783 75.5188 286.722 73.4798 285.387 70.9785C286.033 73.4792 287.175 75.8248 288.744 77.8766C291.878 81.8747 307.797 84.824 307.797 84.824V80.2829Z" fill="#F28F8F"/>
<path d="M304.86 48.6432C304.843 49.1273 304.684 49.5957 304.402 49.9901C304.121 50.3844 303.73 50.6872 303.278 50.8609C302.826 51.0345 302.332 51.0712 301.859 50.9665C301.386 50.8617 300.955 50.6201 300.618 50.2717C300.282 49.9234 300.055 49.4837 299.967 49.0075C299.878 48.5312 299.932 48.0395 300.121 47.5935C300.31 47.1476 300.626 46.7671 301.03 46.4996C301.434 46.232 301.907 46.0892 302.392 46.0889C302.723 46.0887 303.051 46.1552 303.356 46.2846C303.662 46.414 303.938 46.6036 304.168 46.842C304.398 47.0804 304.578 47.3628 304.697 47.6722C304.816 47.9817 304.871 48.3119 304.86 48.6432Z" fill="#263238"/>
<path d="M302.268 39.4008L297.024 42.2883C296.65 41.5685 296.569 40.7318 296.8 39.954C297.03 39.1762 297.552 38.5178 298.258 38.1174C298.603 37.9293 298.984 37.8132 299.375 37.7761C299.767 37.7391 300.163 37.7818 300.537 37.9017C300.912 38.0217 301.259 38.2164 301.556 38.474C301.854 38.7316 302.096 39.0469 302.268 39.4008Z" fill="#263238"/>
<path d="M306.698 65.5737L312.288 67.6715C312.166 68.0468 311.97 68.3936 311.711 68.6913C311.452 68.989 311.136 69.2315 310.781 69.4043C310.426 69.577 310.04 69.6765 309.646 69.6968C309.252 69.7172 308.858 69.6579 308.488 69.5225C307.736 69.2242 307.13 68.6458 306.796 67.9093C306.462 67.1728 306.427 66.3355 306.698 65.5737Z" fill="#F28F8F"/>
<path d="M326.714 41.4368L321.938 37.7348C322.161 37.4116 322.448 37.1372 322.781 36.9286C323.113 36.7199 323.485 36.5813 323.873 36.5213C324.261 36.4612 324.658 36.4809 325.038 36.5793C325.418 36.6776 325.774 36.8524 326.084 37.0931C326.729 37.5963 327.155 38.3291 327.272 39.1385C327.389 39.9479 327.189 40.7713 326.714 41.4368Z" fill="#263238"/>
<path d="M325.245 47.9523C325.228 48.4364 325.069 48.9048 324.788 49.2991C324.507 49.6935 324.116 49.9963 323.663 50.17C323.211 50.3436 322.718 50.3803 322.245 50.2755C321.772 50.1708 321.341 49.9292 321.004 49.5808C320.667 49.2325 320.441 48.7928 320.352 48.3165C320.264 47.8403 320.318 47.3486 320.507 46.9026C320.696 46.4567 321.012 46.0762 321.416 45.8086C321.819 45.5411 322.293 45.3982 322.777 45.3979C323.109 45.3977 323.437 45.4643 323.742 45.5937C324.047 45.7231 324.323 45.9127 324.554 46.1511C324.784 46.3895 324.964 46.6718 325.083 46.9813C325.202 47.2908 325.257 47.621 325.245 47.9523Z" fill="#263238"/>
<path d="M314.781 46.2002L315.595 60.9342L323.283 58.3057L314.781 46.2002Z" fill="#F28F8F"/>
<path d="M264.372 92.3887C246.294 92.6725 241.605 103.322 236.274 114.601C230.943 125.879 217.418 151.374 217.418 151.374L183.385 135.986C181.432 142.059 177.376 147.236 171.946 150.584C171.946 150.584 187.988 164.072 201.833 173.956C213.544 182.323 220.343 186.666 224.847 183.668C228.179 181.446 261.398 138.01 261.398 138.01C269.863 124.806 271.665 102.384 264.372 92.3887Z" fill="#37474F"/>
<path d="M321.938 54.6158L320.001 53.6286L318.1 50.9138C318.407 50.7838 318.741 50.7283 319.073 50.7519C319.406 50.7755 319.728 50.8775 320.013 51.0495C320.877 51.6665 321.938 54.6158 321.938 54.6158Z" fill="#BA68C8"/>
<path opacity="0.65" d="M321.938 54.6158L320.001 53.6286L318.1 50.9138C318.407 50.7838 318.741 50.7283 319.073 50.7519C319.406 50.7755 319.728 50.8775 320.013 51.0495C320.877 51.6665 321.938 54.6158 321.938 54.6158Z" fill="black"/>
<path d="M339.955 46.1384C339.834 48.1523 339.059 50.0717 337.747 51.6043C336.435 53.1369 334.658 54.1988 332.686 54.6283L329.638 55.1466C328.304 55.3923 326.947 55.4999 325.591 55.4674H325.184C324.961 55.4674 324.739 55.4674 324.53 55.4674C324.152 55.4308 323.776 55.369 323.407 55.2823C323.213 55.2453 323.023 55.1916 322.839 55.1219C322.668 55.0733 322.503 55.0071 322.345 54.9245C322.273 54.8997 322.207 54.8621 322.148 54.8134C322.064 54.773 321.986 54.7233 321.913 54.6653C321.79 54.5611 321.685 54.4358 321.605 54.2951L320.556 52.148C320.314 51.7199 319.95 51.3737 319.511 51.1538C319.071 50.934 318.576 50.8505 318.088 50.914L315.916 51.2965C315.379 51.4372 314.879 51.6949 314.452 52.0511C314.025 52.4073 313.683 52.8533 313.448 53.3573C313.448 53.3573 312.992 54.4926 312.412 55.8253C311.832 57.158 308.228 58.898 304.378 59.5273L301.33 60.0703C300.713 60.1616 300.085 60.1616 299.467 60.0703C299.12 60.0468 298.776 59.9847 298.443 59.8852L297.974 59.7494L297.678 59.626C297.411 59.5235 297.155 59.3954 296.913 59.2435C296.086 58.9103 282.796 53.5054 280.969 49.1494C278.057 42.1402 290.015 34.9213 294.321 33.5516C294.815 33.3511 295.327 33.2022 295.851 33.1073L327.244 27.7271C328.807 27.4154 330.43 27.7205 331.773 28.5786C332.575 29.0845 335.537 30.8368 336.771 31.5772C336.88 31.6269 336.984 31.689 337.079 31.7623C337.252 31.861 337.425 31.9844 337.598 32.0955C337.656 32.1345 337.71 32.18 337.758 32.2312C337.931 32.3669 338.091 32.515 338.252 32.6631C338.445 32.8583 338.623 33.0688 338.782 33.2924C338.905 33.4463 339.012 33.6116 339.103 33.786C339.257 34.0292 339.389 34.2852 339.498 34.5511C339.597 34.7856 339.671 35.02 339.745 35.2545C339.81 35.4763 339.856 35.7034 339.881 35.9332C339.892 35.9861 339.892 36.0408 339.881 36.0936C339.899 36.3524 339.899 36.6122 339.881 36.871C340.02 39.989 340.045 43.0781 339.955 46.1384Z" fill="#BA68C8"/>
<g opacity="0.2">
<path opacity="0.2" d="M339.955 46.1384C339.834 48.1523 339.059 50.0717 337.747 51.6043C336.435 53.1369 334.658 54.1988 332.686 54.6283L329.638 55.1466C328.304 55.3923 326.947 55.4999 325.591 55.4674H325.184C324.961 55.4674 324.739 55.4674 324.53 55.4674C324.152 55.4308 323.776 55.369 323.407 55.2823C323.213 55.2453 323.023 55.1916 322.839 55.1219C322.668 55.0733 322.503 55.0071 322.345 54.9245C322.273 54.8997 322.207 54.8621 322.148 54.8134C322.064 54.773 321.986 54.7233 321.913 54.6653C321.79 54.5611 321.685 54.4358 321.605 54.2951L320.556 52.148C320.314 51.7199 319.95 51.3737 319.511 51.1538C319.071 50.934 318.576 50.8505 318.088 50.914L315.916 51.2965C315.379 51.4372 314.879 51.6949 314.452 52.0511C314.025 52.4073 313.683 52.8533 313.448 53.3573C313.448 53.3573 312.992 54.4926 312.412 55.8253C311.832 57.158 308.228 58.898 304.378 59.5273L301.33 60.0703C300.713 60.1616 300.085 60.1616 299.467 60.0703C299.12 60.0468 298.776 59.9847 298.443 59.8852L297.974 59.7494L297.678 59.626C297.411 59.5235 297.155 59.3954 296.913 59.2435C296.086 58.9103 282.796 53.5054 280.969 49.1494C278.057 42.1402 290.015 34.9213 294.321 33.5516C294.815 33.3511 295.327 33.2022 295.851 33.1073L327.244 27.7271C328.807 27.4154 330.43 27.7205 331.773 28.5786C332.575 29.0845 335.537 30.8368 336.771 31.5772C336.88 31.6269 336.984 31.689 337.079 31.7623C337.252 31.861 337.425 31.9844 337.598 32.0955C337.656 32.1345 337.71 32.18 337.758 32.2312C337.931 32.3669 338.091 32.515 338.252 32.6631C338.445 32.8583 338.623 33.0688 338.782 33.2924C338.905 33.4463 339.012 33.6116 339.103 33.786C339.257 34.0292 339.389 34.2852 339.498 34.5511C339.597 34.7856 339.671 35.02 339.745 35.2545C339.81 35.4763 339.856 35.7034 339.881 35.9332C339.892 35.9861 339.892 36.0408 339.881 36.0936C339.899 36.3524 339.899 36.6122 339.881 36.871C340.02 39.989 340.045 43.0781 339.955 46.1384Z" fill="black"/>
</g>
<path d="M336.771 31.5772C335.521 30.9336 334.093 30.7252 332.711 30.9849L301.318 36.5255C299.435 36.9342 297.726 37.9189 296.428 39.3429C295.13 40.767 294.307 42.5598 294.074 44.4725L285.066 39.2773C287.785 36.8819 290.911 34.9928 294.297 33.6997C294.79 33.4992 295.303 33.3503 295.827 33.2554L327.244 27.7271C328.807 27.4154 330.43 27.7205 331.773 28.5786C332.551 29.0845 335.537 30.8368 336.771 31.5772Z" fill="#BA68C8"/>
<path opacity="0.35" d="M336.771 31.5772C335.521 30.9336 334.093 30.7252 332.711 30.9849L301.318 36.5255C299.435 36.9342 297.726 37.9189 296.428 39.3429C295.13 40.767 294.307 42.5598 294.074 44.4725L285.066 39.2773C287.785 36.8819 290.911 34.9928 294.297 33.6997C294.79 33.4992 295.303 33.3503 295.827 33.2554L327.244 27.7271C328.807 27.4154 330.43 27.7205 331.773 28.5786C332.551 29.0845 335.537 30.8368 336.771 31.5772Z" fill="white"/>
<path d="M339.955 36.8957C340.029 39.9725 340.029 43.0575 339.955 46.1507C339.835 48.1622 339.059 50.079 337.747 51.6079C336.434 53.1367 334.657 54.1933 332.686 54.6159L329.638 55.1589C325.776 55.8376 322.234 55.418 321.605 54.2457L320.556 52.0986C320.314 51.6705 319.95 51.3243 319.511 51.1044C319.071 50.8846 318.576 50.8011 318.088 50.8646L315.904 51.2595C315.364 51.3953 314.862 51.6511 314.435 52.0079C314.007 52.3647 313.666 52.8133 313.436 53.3202L312.387 55.7882C311.807 57.1703 308.216 58.8486 304.366 59.4902L301.318 60.0332C300.438 60.2212 299.528 60.2098 298.653 59.9997C297.779 59.7897 296.962 59.3864 296.264 58.8194C295.565 58.2525 295.003 57.5363 294.618 56.7235C294.232 55.9106 294.034 55.0218 294.037 54.1223C293.963 51.0497 293.963 47.9523 294.037 44.8797C294.159 42.8656 294.937 40.9467 296.251 39.416C297.566 37.8852 299.346 36.8267 301.318 36.4021L332.711 30.8738C333.598 30.6875 334.515 30.7041 335.394 30.9223C336.273 31.1405 337.092 31.5546 337.789 32.1337C338.485 32.7129 339.042 33.442 339.417 34.2666C339.792 35.0913 339.976 35.99 339.955 36.8957Z" fill="#BA68C8"/>
<path opacity="0.5" d="M339.955 46.1384C339.834 48.1523 339.059 50.0717 337.747 51.6043C336.435 53.1369 334.658 54.1988 332.686 54.6283L329.638 55.1466C328.304 55.3923 326.947 55.4999 325.591 55.4674H325.184C324.962 55.4674 324.739 55.4674 324.53 55.4674C324.152 55.4308 323.776 55.369 323.407 55.2823C323.213 55.2453 323.023 55.1916 322.839 55.1219C322.668 55.0733 322.503 55.0071 322.345 54.9245C322.273 54.8997 322.207 54.8621 322.148 54.8134C322.065 54.773 321.986 54.7233 321.914 54.6653C321.79 54.5611 321.685 54.4358 321.605 54.2951L320.556 52.148C320.314 51.7199 319.95 51.3737 319.511 51.1538C319.071 50.934 318.576 50.8505 318.088 50.914L315.916 51.2965C315.379 51.4372 314.879 51.6949 314.452 52.0511C314.025 52.4073 313.683 52.8533 313.448 53.3573C313.448 53.3573 312.992 54.4926 312.412 55.8253C311.832 57.158 308.229 58.8979 304.378 59.5273L301.33 60.0703C300.713 60.1616 300.085 60.1616 299.467 60.0703C299.12 60.0468 298.776 59.9847 298.443 59.8852L297.974 59.7494L297.678 59.626C297.411 59.5235 297.155 59.3954 296.913 59.2435C296.037 58.7037 295.314 57.9484 294.812 57.0498C294.311 56.1511 294.049 55.139 294.05 54.11C293.976 51.025 293.976 47.94 294.05 44.855C294.172 42.841 294.949 40.9221 296.264 39.3913C297.578 37.8606 299.358 36.8021 301.33 36.3775L332.723 30.8368C334.105 30.5771 335.534 30.7855 336.783 31.4291C336.893 31.4789 336.996 31.541 337.092 31.6142C337.265 31.7129 337.437 31.8363 337.61 31.9474C337.668 31.9864 337.722 32.0319 337.77 32.0831C337.943 32.2189 338.104 32.367 338.264 32.515C338.458 32.7102 338.635 32.9207 338.795 33.1444C338.917 33.2982 339.025 33.4635 339.116 33.638C339.269 33.8812 339.401 34.1371 339.51 34.403C339.609 34.6375 339.683 34.872 339.757 35.1064C339.823 35.3282 339.868 35.5553 339.893 35.7851C339.904 35.838 339.904 35.8927 339.893 35.9455C339.912 36.2043 339.912 36.4642 339.893 36.723C340.025 39.9396 340.045 43.0781 339.955 46.1384Z" fill="white"/>
<g opacity="0.7">
<path opacity="0.7" d="M339.955 36.8956C339.973 36.6368 339.973 36.3769 339.955 36.1181C339.966 36.0653 339.966 36.0106 339.955 35.9577C339.93 35.7279 339.884 35.5008 339.819 35.279C339.745 35.0446 339.671 34.8101 339.572 34.5756C339.463 34.3097 339.331 34.0538 339.177 33.8106C339.086 33.6361 338.979 33.4708 338.856 33.317C338.697 33.0933 338.519 32.8828 338.326 32.6876C338.165 32.5395 338.005 32.3915 337.832 32.2557C337.789 32.2081 337.739 32.1666 337.684 32.1323L318.816 50.9015C319.187 50.9522 319.541 51.0906 319.848 51.3052C320.155 51.5198 320.406 51.8044 320.581 52.1355L321.63 54.2826C321.71 54.4233 321.814 54.5486 321.938 54.6528C322.011 54.7109 322.089 54.7605 322.173 54.8009C322.231 54.8496 322.298 54.8872 322.37 54.912C322.527 54.9946 322.693 55.0608 322.864 55.1094C323.048 55.1791 323.238 55.2328 323.431 55.2698C323.801 55.3565 324.176 55.4183 324.554 55.4549C324.764 55.4549 324.986 55.4549 325.208 55.4549H325.616C326.44 55.4729 327.264 55.4358 328.084 55.3439L340.053 43.3864C340.041 41.2269 340.029 39.0797 339.955 36.8956Z" fill="#BA68C8"/>
<path opacity="0.7" d="M325.073 32.3422L297.641 59.7617L297.937 59.8851L298.406 60.0208C298.739 60.1204 299.083 60.1824 299.43 60.2059C300.048 60.2973 300.676 60.2973 301.293 60.2059L303.28 59.8481L331.971 31.1699L325.073 32.3422Z" fill="#BA68C8"/>
<path opacity="0.7" d="M305.551 35.7727L294.013 47.3229C294.013 49.6305 294.013 51.938 294.013 54.258C294.027 55.318 294.307 56.3576 294.827 57.2812L318.643 33.4651L305.551 35.7727Z" fill="#BA68C8"/>
</g>
<path d="M286.769 47.8908C286.789 48.0576 286.771 48.2268 286.716 48.3855C286.661 48.5443 286.57 48.6885 286.452 48.8073C286.333 48.9261 286.189 49.0164 286.03 49.0714C285.871 49.1264 285.702 49.1446 285.535 49.1248C285.178 49.0378 284.86 48.8314 284.636 48.5397C284.412 48.248 284.294 47.8885 284.301 47.5206C284.281 47.3537 284.3 47.1846 284.355 47.0258C284.41 46.8671 284.5 46.7229 284.619 46.6041C284.737 46.4853 284.882 46.395 285.04 46.34C285.199 46.285 285.368 46.2667 285.535 46.2866C285.892 46.3756 286.208 46.5825 286.432 46.8738C286.656 47.165 286.775 47.5234 286.769 47.8908Z" fill="#263238"/>
<g opacity="0.5">
<path opacity="0.5" d="M333.908 31.54C334.8 31.5393 335.68 31.7508 336.475 32.157C336.566 32.2025 336.653 32.2562 336.734 32.3175C336.896 32.4117 337.052 32.5147 337.203 32.626H337.265H337.326L337.758 33.0085C337.935 33.1878 338.096 33.3819 338.239 33.5885C338.34 33.7103 338.427 33.8427 338.499 33.9834C338.624 34.1936 338.736 34.4121 338.832 34.6374C338.905 34.8144 338.966 34.9957 339.017 35.1803V35.2791C339.075 35.4593 339.112 35.6456 339.128 35.8344V36.0195C339.145 36.2495 339.145 36.4805 339.128 36.7105C339.214 39.7708 339.214 42.8805 339.128 45.9285C339.053 47.8016 338.371 49.5996 337.184 51.051C335.998 52.5024 334.372 53.5284 332.551 53.9742L329.503 54.5048C328.369 54.701 327.222 54.8042 326.072 54.8133H325.542H325.159H324.567C324.209 54.7735 323.855 54.7117 323.505 54.6282C323.33 54.593 323.157 54.5477 322.987 54.4924C322.868 54.4529 322.752 54.4033 322.642 54.3444H322.555L322.432 54.2703C322.375 54.2195 322.325 54.1614 322.284 54.0976L321.235 51.9504C320.988 51.4252 320.597 50.9808 320.108 50.6685C319.619 50.3562 319.051 50.1888 318.471 50.1858C318.31 50.1735 318.15 50.1735 317.989 50.1858L315.805 50.5683C315.155 50.7283 314.55 51.0335 314.035 51.4609C313.52 51.8884 313.108 52.427 312.831 53.0363L311.782 55.5043C311.35 56.5285 308.154 58.1574 304.243 58.8485L301.207 59.3791C300.848 59.4403 300.485 59.4733 300.121 59.4778C299.916 59.4901 299.71 59.4901 299.504 59.4778C299.196 59.4502 298.89 59.3966 298.591 59.3174L298.221 59.194L298.06 59.1323H297.912C297.678 59.0462 297.455 58.9345 297.246 58.7991C296.462 58.3169 295.816 57.6415 295.369 56.8377C294.921 56.0338 294.688 55.1285 294.691 54.2086C294.63 51.1606 294.63 48.0386 294.691 44.9906C294.82 43.1328 295.545 41.3661 296.759 39.954C297.973 38.5419 299.611 37.56 301.429 37.1547L332.834 31.6758C333.189 31.6123 333.548 31.5793 333.908 31.5771V31.54ZM333.908 30.923C333.495 30.9239 333.082 30.9569 332.674 31.0218L301.281 36.5624C299.308 36.9871 297.529 38.0456 296.214 39.5763C294.9 41.107 294.122 43.0259 294 45.04C293.926 48.1373 293.926 51.21 294 54.295C293.999 55.324 294.262 56.3361 294.763 57.2347C295.264 58.1334 295.987 58.8887 296.863 59.4284C297.105 59.5803 297.362 59.7085 297.628 59.811L297.925 59.9344L298.393 60.0701C298.727 60.1696 299.07 60.2317 299.418 60.2552C299.64 60.2682 299.862 60.2682 300.084 60.2552C300.498 60.2599 300.911 60.2269 301.318 60.1565L304.366 59.6135C308.216 58.9472 311.77 57.2689 312.399 55.9115C313.029 54.5541 313.436 53.4435 313.436 53.4435C313.67 52.9396 314.013 52.4936 314.44 52.1373C314.866 51.7811 315.366 51.5235 315.904 51.3828L318.076 51.0002C318.199 50.9881 318.323 50.9881 318.446 51.0002C318.875 51.005 319.295 51.1212 319.665 51.3376C320.035 51.554 320.342 51.863 320.556 52.2342L321.605 54.3814C321.685 54.522 321.79 54.6474 321.914 54.7516C321.986 54.8096 322.065 54.8593 322.148 54.8997C322.207 54.9483 322.273 54.986 322.345 55.0107C322.503 55.0934 322.668 55.1595 322.839 55.2082C323.023 55.2778 323.213 55.3315 323.407 55.3686C323.776 55.4552 324.152 55.5171 324.53 55.5537C324.739 55.5537 324.962 55.5537 325.184 55.5537H326.097C327.285 55.5467 328.47 55.4352 329.638 55.2205L332.686 54.7022C334.669 54.2692 336.455 53.1964 337.768 51.6489C339.082 50.1015 339.85 48.1652 339.955 46.1383C340.029 43.0533 340.029 39.9724 339.955 36.8956C339.973 36.6368 339.973 36.377 339.955 36.1182C339.966 36.0653 339.966 36.0106 339.955 35.9578C339.93 35.7279 339.884 35.5008 339.819 35.2791C339.745 35.0446 339.671 34.8101 339.572 34.5757C339.463 34.3098 339.331 34.0538 339.177 33.8106C339.086 33.6361 338.979 33.4708 338.856 33.317C338.697 33.0933 338.519 32.8829 338.326 32.6877C338.165 32.5396 338.005 32.3915 337.832 32.2558C337.784 32.2046 337.73 32.159 337.672 32.12C337.499 32.009 337.326 31.8856 337.153 31.7868C337.058 31.7136 336.955 31.6515 336.845 31.6017C335.96 31.1437 334.978 30.9066 333.982 30.9107L333.908 30.923Z" fill="black"/>
</g>
<path d="M294.037 54.258L293.877 47.6067C293.877 46.4961 293.791 45.4102 293.877 44.2626C294.009 43.1278 294.361 42.0297 294.914 41.0295C295.999 39.0033 297.778 37.4353 299.924 36.6118C301.001 36.2825 302.103 36.0391 303.218 35.8837L306.489 35.2914L319.581 33.0578C323.95 32.3339 328.326 31.647 332.711 30.9971C328.367 31.8856 324.02 32.7411 319.668 33.5638L306.637 35.9331L303.367 36.4884C302.286 36.6281 301.217 36.8509 300.17 37.1547C298.145 37.9326 296.453 39.3894 295.383 41.2763C294.841 42.2112 294.485 43.242 294.334 44.3119C294.21 45.3732 294.272 46.5085 294.235 47.6067L294.037 54.258Z" fill="white"/>
<g opacity="0.3">
<path opacity="0.3" d="M516.54 0.924663V160.678C513.801 177.399 505.2 193.824 490.626 208.903C485.369 214.311 479.7 219.303 473.671 223.834C467.781 228.186 461.65 232.203 455.309 235.866C431.147 249.859 402.531 259.707 372.125 265.482C367.288 266.411 362.401 267.234 357.465 267.95V107.53C391.647 102.002 423.854 91.8211 450.83 76.9761C484.308 58.4661 504.731 35.6247 512.135 11.7345C513.54 8.20377 514.682 4.57418 515.553 0.875304C515.591 0.772028 515.662 0.683671 515.754 0.623061C515.846 0.562452 515.955 0.532742 516.065 0.538245C516.175 0.543747 516.28 0.584174 516.366 0.653659C516.451 0.723144 516.512 0.818072 516.54 0.924663Z" fill="#BA68C8"/>
</g>
<path d="M356.762 268.715V106.95L357.317 106.863C392.289 101.212 424.496 90.6734 450.459 76.3837C482.679 58.6387 503.768 36.2416 511.419 11.6233V11.068H511.641C512.956 7.69141 514.037 4.22796 514.874 0.702435C514.985 0.470052 515.166 0.27819 515.391 0.153727C515.617 0.0292641 515.876 -0.021564 516.131 0.00836458C516.387 0.0382932 516.627 0.147478 516.818 0.320623C517.008 0.493769 517.14 0.722202 517.194 0.973917V160.678C514.368 178.041 505.57 194.391 491.058 209.359C485.777 214.794 480.079 219.807 474.017 224.353C468.107 228.728 461.951 232.762 455.581 236.433C431.962 250.094 403.901 260.114 372.199 266.136C367.374 267.061 362.426 267.888 357.515 268.604L356.762 268.715ZM358.082 108.036V267.222C362.722 266.543 367.387 265.753 371.952 264.889C403.506 258.88 431.431 248.934 454.927 235.273C461.243 231.625 467.353 227.629 473.227 223.304C479.226 218.809 484.87 213.858 490.108 208.496C504.435 193.688 513.11 177.646 515.886 160.617V2.12154C515.038 5.45557 513.979 8.73229 512.715 11.9318C504.953 36.8957 483.654 59.5642 451.101 77.4819C425.101 91.784 393.017 102.347 358.082 108.036Z" fill="#BA68C8"/>
<path d="M394.51 228.116C394.159 228.116 393.824 227.977 393.576 227.729C393.328 227.482 393.189 227.146 393.189 226.796V132.444C393.2 132.162 393.3 131.89 393.475 131.668C393.651 131.446 393.892 131.286 394.164 131.21C401.975 129.112 409.182 126.879 416.191 124.361C416.394 124.282 416.613 124.256 416.829 124.284C417.044 124.312 417.249 124.394 417.425 124.522C417.6 124.643 417.744 124.806 417.843 124.995C417.941 125.184 417.993 125.394 417.993 125.608V219.959C417.989 220.23 417.903 220.492 417.747 220.713C417.59 220.933 417.371 221.101 417.117 221.193C410.021 223.735 402.753 225.994 394.905 228.104C394.774 228.124 394.641 228.128 394.51 228.116ZM395.83 133.456V225.068C402.666 223.205 409.071 221.206 415.315 218.984V127.434C409.059 129.618 402.691 131.63 395.83 133.456Z" fill="white"/>
<path d="M436.959 212.95C436.705 212.956 436.455 212.883 436.244 212.741C436.057 212.622 435.904 212.457 435.798 212.263C435.692 212.069 435.638 211.851 435.639 211.63V117.278C435.636 117.02 435.708 116.766 435.846 116.547C435.984 116.328 436.182 116.154 436.416 116.044C442.634 113.258 448.701 110.148 454.593 106.728C455.938 106.012 457.185 105.247 458.382 104.494C458.581 104.367 458.812 104.299 459.048 104.299C459.284 104.299 459.516 104.367 459.714 104.494C459.922 104.605 460.096 104.771 460.218 104.973C460.34 105.175 460.404 105.406 460.405 105.642V199.993C460.406 200.219 460.349 200.441 460.239 200.638C460.128 200.834 459.969 200.999 459.776 201.116C458.542 201.894 457.246 202.708 455.864 203.436C449.893 206.892 443.743 210.031 437.441 212.839C437.289 212.906 437.125 212.944 436.959 212.95ZM438.28 118.142V209.594C443.438 207.212 448.793 204.436 454.593 201.104C455.704 200.524 456.74 199.87 457.765 199.253V107.937C457.148 108.307 456.531 108.665 455.864 109.011C449.633 112.651 443.857 115.588 438.28 118.142Z" fill="white"/>
<path d="M479.323 186.999C479.13 187.002 478.94 186.96 478.767 186.876C478.533 186.768 478.336 186.593 478.2 186.374C478.064 186.154 477.995 185.9 478.002 185.642V91.3273C478.003 91.1336 478.047 90.9426 478.13 90.7677C478.213 90.5929 478.334 90.4384 478.484 90.3154C482.366 87.1067 486.073 83.6918 489.59 80.0855C493.533 76.0956 497.141 71.7866 500.375 67.2026C500.535 66.971 500.765 66.7967 501.031 66.7051C501.297 66.6135 501.586 66.6094 501.855 66.6935C502.124 66.7776 502.358 66.9454 502.525 67.1724C502.692 67.3994 502.781 67.6737 502.781 67.9553V162.307C502.779 162.579 502.698 162.845 502.546 163.072C499.24 167.767 495.559 172.187 491.539 176.288C487.941 179.958 484.152 183.434 480.186 186.703C479.942 186.9 479.636 187.004 479.323 186.999ZM480.643 91.9813V182.841C483.851 180.089 486.875 177.275 489.639 174.437C493.462 170.539 496.97 166.342 500.128 161.887V72.0028C497.455 75.4682 494.57 78.7652 491.49 81.8748C488.049 85.4196 484.425 88.7808 480.631 91.9443L480.643 91.9813Z" fill="white"/>
<g opacity="0.3">
<path opacity="0.3" d="M373.408 244.479L427.075 145.339L469.994 201.104C469.994 201.104 451.903 226.993 373.408 244.479Z" fill="#BA68C8"/>
</g>
<g opacity="0.3">
<path opacity="0.3" d="M273.726 250.439C224.724 247.823 177.067 236.187 139.491 215.542C97.2639 192.281 75.7799 161.925 75.0642 131.457V128.421L74.6447 25.7279C74.6447 18.398 87.5523 39.1785 114.589 60.4897C115.231 61.008 115.823 61.4893 116.527 61.9952C118.032 63.1552 119.575 64.2904 121.179 65.4257C127.089 69.6118 133.236 73.4519 139.59 76.9266C177.067 97.5221 224.502 109.146 273.319 111.799L273.726 250.439Z" fill="#BA68C8"/>
</g>
<path d="M76.0514 25.8759C78.7825 28.2159 81.351 30.7391 83.7392 33.428C93.0668 43.5223 103.131 52.91 113.849 61.5138C114.318 61.8964 114.799 62.2666 115.293 62.6368L115.799 63.044C117.242 64.1546 118.772 65.2899 120.5 66.5115C126.446 70.7136 132.626 74.574 139.01 78.0741C174.796 97.8181 221.935 110.158 272.023 113.046L272.418 249.045C222.564 246.194 175.648 233.904 140.158 214.369C99.7565 192.096 77.1127 162.665 76.3846 131.432V128.397L76.0021 25.8759H76.0514ZM75.4344 24.2717C74.9285 24.2717 74.6817 24.753 74.6817 25.7772L75.0642 128.446V131.482C75.7799 161.949 97.2762 192.305 139.491 215.566C177.017 236.236 224.724 247.872 273.726 250.489L273.319 111.799C224.514 109.146 177.067 97.5219 139.639 76.9265C133.285 73.4518 127.138 69.6117 121.228 65.4256C119.624 64.2903 118.081 63.1551 116.576 61.9951C115.922 61.4892 115.342 61.0079 114.639 60.4896C91.3777 42.1647 78.5564 24.2717 75.4344 24.2717Z" fill="#BA68C8"/>
<path d="M226.34 230.745H226.168C225.76 230.745 186.063 224.995 147.438 205.386C103.187 182.927 85.8124 148.116 85.6396 147.758C85.5477 147.579 85.5011 147.38 85.5039 147.178V120.524C85.5012 120.253 85.5879 119.988 85.7507 119.771L114.762 78.7531C114.903 78.563 115.09 78.4128 115.307 78.3176C115.523 78.2224 115.761 78.1853 115.996 78.2101C116.229 78.2335 116.452 78.3191 116.641 78.458C116.83 78.597 116.978 78.7841 117.07 78.9999L153.065 162.912L149.919 147.438C149.87 147.185 149.895 146.923 149.991 146.685C150.087 146.446 150.251 146.24 150.462 146.092L179.535 125.67C179.681 125.56 179.85 125.485 180.029 125.448C180.209 125.412 180.394 125.416 180.571 125.46C180.75 125.498 180.919 125.573 181.067 125.679C181.216 125.785 181.341 125.92 181.435 126.077L227.537 203.523C227.659 203.728 227.723 203.963 227.722 204.202V229.425C227.726 229.599 227.694 229.772 227.629 229.934C227.564 230.095 227.466 230.242 227.343 230.366C227.22 230.489 227.073 230.586 226.911 230.651C226.75 230.716 226.576 230.748 226.402 230.745H226.34ZM88.1323 146.833C89.8105 150.054 107.222 181.99 148.598 203.005C182.595 220.281 217.418 226.623 224.983 227.857V204.559L179.794 128.644L152.646 147.758L158.112 174.906C158.144 175.209 158.07 175.514 157.903 175.768C157.736 176.023 157.486 176.212 157.196 176.303C156.906 176.394 156.593 176.383 156.31 176.27C156.027 176.157 155.792 175.95 155.644 175.684L115.564 82.27L88.1446 120.968L88.1323 146.833Z" fill="white"/>
<path d="M225.834 152.608C225.006 152.603 224.179 152.521 223.366 152.361C215.407 150.806 208.941 142.094 208.941 132.95C208.859 130.741 209.267 128.541 210.135 126.508C211.004 124.475 212.311 122.659 213.963 121.19C215.317 120.063 216.908 119.255 218.617 118.828C220.326 118.401 222.11 118.365 223.835 118.722C231.782 120.277 238.248 128.989 238.248 138.133C238.332 140.343 237.925 142.543 237.056 144.577C236.188 146.61 234.88 148.426 233.226 149.893C231.157 151.638 228.541 152.599 225.834 152.608ZM221.38 121.19C219.283 121.172 217.247 121.893 215.629 123.227C214.281 124.45 213.218 125.956 212.516 127.636C211.815 129.317 211.491 131.131 211.569 132.95C211.569 140.897 217.085 148.437 223.909 149.77C225.251 150.06 226.642 150.045 227.977 149.724C229.312 149.404 230.558 148.787 231.622 147.919C232.97 146.695 234.033 145.19 234.735 143.509C235.436 141.829 235.76 140.014 235.682 138.195C235.682 130.248 230.178 122.708 223.342 121.376C222.695 121.251 222.038 121.184 221.38 121.178V121.19Z" fill="white"/>
<g opacity="0.3">
<path opacity="0.3" d="M84.2945 57.1084C84.2945 57.1084 96.326 78.2469 121.203 87.4402V75.495C97.3502 64.2163 84.2945 43.1025 84.2945 43.1025V57.1084Z" fill="#BA68C8"/>
</g>
<g opacity="0.3">
<path opacity="0.3" d="M84.2945 78.753C84.2945 78.753 96.326 99.8914 121.203 109.085V97.1396C97.3502 85.8608 84.2945 64.7471 84.2945 64.7471V78.753Z" fill="#BA68C8"/>
</g>
<g opacity="0.3">
<path opacity="0.3" d="M84.2945 100.398C84.2945 100.398 96.326 121.536 121.203 130.729V118.784C97.3502 107.505 84.2945 86.3916 84.2945 86.3916V100.398Z" fill="#BA68C8"/>
</g>
</svg>
