<svg width="76" height="75" viewBox="0 0 76 75" fill="none" xmlns="http://www.w3.org/2000/svg">
<path d="M37.7307 69.6429C41.9518 69.6429 46.1315 68.8115 50.0313 67.1961C53.931 65.5808 57.4744 63.2132 60.4591 60.2284C63.4439 57.2437 65.8115 53.7003 67.4268 49.8005C69.0422 45.9008 69.8736 41.7211 69.8736 37.5C69.8736 33.2789 69.0422 29.0992 67.4268 25.1995C65.8115 21.2997 63.4439 17.7563 60.4591 14.7716C57.4744 11.7868 53.931 9.4192 50.0313 7.80387C46.1315 6.18854 41.9518 5.35714 37.7307 5.35714C29.2059 5.35714 21.0302 8.74361 15.0023 14.7716C8.97433 20.7995 5.58786 28.9752 5.58786 37.5C5.58786 46.0248 8.97433 54.2005 15.0023 60.2284C21.0302 66.2564 29.2059 69.6429 37.7307 69.6429ZM37.7307 75C27.7851 75 18.2468 71.0491 11.2142 64.0165C4.18159 56.9839 0.230713 47.4456 0.230713 37.5C0.230713 27.5544 4.18159 18.0161 11.2142 10.9835C18.2468 3.95088 27.7851 0 37.7307 0C47.6763 0 57.2146 3.95088 64.2472 10.9835C71.2798 18.0161 75.2307 27.5544 75.2307 37.5C75.2307 47.4456 71.2798 56.9839 64.2472 64.0165C57.2146 71.0491 47.6763 75 37.7307 75Z" fill="black"/>
<path d="M35.0524 16.0714C35.7628 16.0714 36.4441 16.3536 36.9464 16.856C37.4487 17.3583 37.7309 18.0396 37.7309 18.75V40.1786C37.7309 40.889 37.4487 41.5703 36.9464 42.0726C36.4441 42.5749 35.7628 42.8571 35.0524 42.8571C34.3419 42.8571 33.6606 42.5749 33.1583 42.0726C32.656 41.5703 32.3738 40.889 32.3738 40.1786V18.75C32.3738 18.0396 32.656 17.3583 33.1583 16.856C33.6606 16.3536 34.3419 16.0714 35.0524 16.0714Z" fill="black"/>
<path d="M35.0524 37.5H56.4809C58.2666 37.5 59.1595 38.3929 59.1595 40.1786C59.1595 41.9643 58.2666 42.8571 56.4809 42.8571H35.0524C33.2666 42.8571 32.3738 41.9643 32.3738 40.1786C32.3738 38.3929 33.2666 37.5 35.0524 37.5Z" fill="black"/>
</svg>
