<svg width="19" height="25" viewBox="0 0 19 25" fill="none" xmlns="http://www.w3.org/2000/svg">
<path d="M18.1231 9.4739C17.4174 13.7083 14.5945 15.1198 13.8887 18.6484C12.7553 24.3183 9.46591 25 6.12569 25C0.656265 25 3.40438 19.659 1.18556 13.0026C-0.931632 6.65097 -0.731204 1.78213 6.12569 0.299387C12.6537 -1.11208 19.2763 2.55349 18.1231 9.4739Z" fill="#D5AB88"/>
<path d="M13.1824 15.1198C13.0483 15.1198 12.9121 15.0809 12.7914 15.0012C12.4668 14.7845 12.3793 14.347 12.5959 14.0223C12.9425 13.5022 13.2791 13.0767 13.6044 12.6652C14.5889 11.4189 15.3003 10.5191 15.3003 8.06244C15.3003 6.50277 14.7484 5.25715 13.6609 4.36017C12.1132 3.08562 9.54859 2.60572 6.96702 3.10891C5.65366 3.36509 4.71292 3.96637 4.09187 4.94663C2.63736 7.24238 3.50823 10.764 3.51741 10.7993C3.61339 11.1768 3.38473 11.5615 3.00716 11.6567C2.62748 11.7548 2.24497 11.5241 2.1497 11.1465C2.10665 10.9785 1.12356 6.99467 2.89989 4.19079C3.72842 2.88307 5.00579 2.05313 6.69743 1.72285C9.68056 1.14062 12.6933 1.73343 14.5593 3.26981C15.9665 4.43145 16.7118 6.08851 16.7118 8.06244C16.7118 11.0089 15.74 12.2383 14.711 13.541C14.4033 13.9306 14.085 14.3329 13.7703 14.8057C13.6348 15.0097 13.4104 15.1198 13.1824 15.1198Z" fill="#B78B60"/>
<path d="M4.4214 18.5898C4.16239 18.5898 3.91327 18.4473 3.78906 18.1996C3.4002 17.4211 3.53006 16.7916 3.7072 16.4007C4.09182 15.5524 5.05938 15.0351 5.77076 14.8488C7.1801 14.3773 7.87031 12.4916 7.49415 11.1924C7.09048 9.79924 5.62326 9.30594 3.47078 9.83594C3.09674 9.93051 2.71 9.69903 2.61684 9.32005C2.52369 8.94178 2.75446 8.55927 3.13273 8.46612C6.6007 7.60936 8.36009 9.11116 8.84916 10.8007C9.41233 12.745 8.45113 15.4423 6.17161 16.2016C5.75664 16.3117 5.15959 16.6145 4.99163 16.9843C4.94364 17.0895 4.89847 17.2638 5.05021 17.5686C5.22452 17.9173 5.08337 18.3414 4.73474 18.5157C4.63453 18.5658 4.52655 18.5898 4.4214 18.5898Z" fill="#B78B60"/>
</svg>
