<svg width="65" height="75" viewBox="0 0 65 75" fill="none" xmlns="http://www.w3.org/2000/svg">
<path d="M32.3736 0C40.8984 0 49.074 3.38647 55.102 9.41442C61.13 15.4424 64.5164 23.618 64.5164 32.1429C64.5164 45.45 54.3736 59.3929 34.5164 74.2857C33.8982 74.7494 33.1463 75 32.3736 75C31.6008 75 30.8489 74.7494 30.2307 74.2857C10.3736 59.3929 0.230713 45.45 0.230713 32.1429C0.230713 23.618 3.61718 15.4424 9.64514 9.41442C15.6731 3.38647 23.8488 0 32.3736 0ZM32.3736 21.4286C29.532 21.4286 26.8067 22.5574 24.7974 24.5667C22.7881 26.576 21.6593 29.3013 21.6593 32.1429C21.6593 34.9845 22.7881 37.7097 24.7974 39.719C26.8067 41.7283 29.532 42.8571 32.3736 42.8571C35.2152 42.8571 37.9404 41.7283 39.9497 39.719C41.959 37.7097 43.0879 34.9845 43.0879 32.1429C43.0879 29.3013 41.959 26.576 39.9497 24.5667C37.9404 22.5574 35.2152 21.4286 32.3736 21.4286Z" fill="black"/>
</svg>
