<svg width="30" height="20" viewBox="0 0 30 20" fill="none" xmlns="http://www.w3.org/2000/svg">
<path d="M29.3576 3.138C29.1878 2.53242 28.8571 1.98415 28.4006 1.55149C27.9313 1.10552 27.356 0.786505 26.7292 0.624561C24.3831 0.00619463 14.984 0.00619477 14.984 0.00619477C11.0656 -0.0383868 7.14812 0.157694 3.25375 0.59333C2.62688 0.767239 2.0527 1.09338 1.58229 1.54274C1.12008 1.98747 0.785284 2.53588 0.610393 3.13675C0.19027 5.40003 -0.0138549 7.6981 0.000771001 9.99999C-0.0142197 12.2998 0.189404 14.5971 0.610393 16.8632C0.781536 17.4616 1.11508 18.0075 1.57854 18.4485C2.042 18.8895 2.61915 19.208 3.25375 19.3767C5.63103 19.9938 14.984 19.9938 14.984 19.9938C18.9074 20.0384 22.8298 19.8424 26.7292 19.4067C27.356 19.2447 27.9313 18.9257 28.4006 18.4797C28.8629 18.0388 29.1914 17.4903 29.3563 16.8932C29.7874 14.6308 29.997 12.3318 29.9822 10.0287C30.0146 7.71592 29.8052 5.40605 29.3576 3.13675V3.138ZM11.9958 14.2773V5.7239L19.816 10.0012L11.9958 14.2773Z" fill="black"/>
</svg>
