<svg width="70" height="75" viewBox="0 0 70 75" fill="none" xmlns="http://www.w3.org/2000/svg">
<path d="M63.4615 5.76923H51.9231V0H46.1539V5.76923H23.0769V0H17.3077V5.76923H5.76923C4.2396 5.77076 2.77307 6.37908 1.69146 7.46069C0.609846 8.5423 0.00152734 10.0088 0 11.5385V69.2308C0.00152734 70.7604 0.609846 72.2269 1.69146 73.3085C2.77307 74.3902 4.2396 74.9985 5.76923 75H63.4615C64.9912 74.9985 66.4577 74.3902 67.5393 73.3085C68.6209 72.2269 69.2292 70.7604 69.2308 69.2308V11.5385C69.2292 10.0088 68.6209 8.5423 67.5393 7.46069C66.4577 6.37908 64.9912 5.77076 63.4615 5.76923ZM5.76923 11.5385H17.3077V17.3077H23.0769V11.5385H46.1539V17.3077H51.9231V11.5385H63.4615V23.0769H5.76923V11.5385ZM5.76923 28.8462H20.1923V46.1538H5.76923V28.8462ZM43.2692 69.2308H25.9615V51.9231H43.2692V69.2308ZM43.2692 46.1538H25.9615V28.8462H43.2692V46.1538ZM49.0385 69.2308V51.9231H63.4615L63.4644 69.2308H49.0385Z" fill="black"/>
</svg>
