<svg width="36" height="32" viewBox="0 0 36 32" fill="none" xmlns="http://www.w3.org/2000/svg">
<path d="M0 10C0 10 0 6 4 6H32C32 6 36 6 36 10V28C36 28 36 32 32 32H4C4 32 0 32 0 28V10Z" fill="#31373D"/>
<path d="M21 29C26.5228 29 31 24.5228 31 19C31 13.4772 26.5228 9 21 9C15.4772 9 11 13.4772 11 19C11 24.5228 15.4772 29 21 29Z" fill="#CCD6DD"/>
<path d="M21 27C25.4183 27 29 23.4183 29 19C29 14.5817 25.4183 11 21 11C16.5817 11 13 14.5817 13 19C13 23.4183 16.5817 27 21 27Z" fill="#31373D"/>
<path d="M21 24C23.7614 24 26 21.7614 26 19C26 16.2386 23.7614 14 21 14C18.2386 14 16 16.2386 16 19C16 21.7614 18.2386 24 21 24Z" fill="#3B88C3"/>
<path d="M32.5 11C33.3284 11 34 10.3284 34 9.5C34 8.67157 33.3284 8 32.5 8C31.6716 8 31 8.67157 31 9.5C31 10.3284 31.6716 11 32.5 11Z" fill="white"/>
<path d="M16 9L19 3L13 5L9 0L7 5L1 4L5 10L0 14H6L4 20L10 17L16 22L15 14L21 13L16 9Z" fill="#FFAC33"/>
<path d="M10 14L7 16L8 13L5 12L8 10L5 7H9L10 4L12 7L15 6L13 9L16 12L13 13L14 17L10 14Z" fill="white"/>
</svg>
