<svg width="20" height="21" viewBox="0 0 20 21" fill="none" xmlns="http://www.w3.org/2000/svg">
<path fill-rule="evenodd" clip-rule="evenodd" d="M5.87727 0.0680111C6.94364 0.0185579 7.28364 0.00756836 10 0.00756836C12.7164 0.00756836 13.0564 0.0194737 14.1218 0.0680111C15.1873 0.116548 15.9145 0.287803 16.5509 0.535985C17.2173 0.789661 17.8218 1.1862 18.3218 1.69905C18.8309 2.20182 19.2236 2.80991 19.4745 3.48211C19.7218 4.12317 19.8909 4.85581 19.94 5.92729C19.9891 7.00336 20 7.34587 20 10.0814C20 12.8178 19.9882 13.1603 19.94 14.2345C19.8918 15.306 19.7218 16.0386 19.4745 16.6797C19.2236 17.352 18.8303 17.9611 18.3218 18.4646C17.8218 18.9774 17.2173 19.3731 16.5509 19.6258C15.9145 19.8749 15.1873 20.0453 14.1236 20.0947C13.0564 20.1442 12.7164 20.1552 10 20.1552C7.28364 20.1552 6.94364 20.1432 5.87727 20.0947C4.81364 20.0462 4.08636 19.8749 3.45 19.6258C2.78266 19.373 2.17802 18.9768 1.67818 18.4646C1.16944 17.9615 0.775741 17.3527 0.524545 16.6806C0.278182 16.0395 0.109091 15.3069 0.06 14.2354C0.0109091 13.1594 0 12.8169 0 10.0814C0 7.34495 0.0118182 7.00244 0.06 5.92913C0.108182 4.85581 0.278182 4.12317 0.524545 3.48211C0.776112 2.80999 1.17011 2.20119 1.67909 1.69813C2.17822 1.18575 2.78225 0.789151 3.44909 0.535985C4.08545 0.287803 4.81273 0.117464 5.87636 0.0680111H5.87727ZM14.0409 1.88129C12.9864 1.83276 12.67 1.82268 10 1.82268C7.33 1.82268 7.01364 1.83276 5.95909 1.88129C4.98364 1.92617 4.45455 2.0901 4.10182 2.22838C3.63545 2.41154 3.30182 2.62859 2.95182 2.98117C2.62004 3.30632 2.36471 3.70216 2.20455 4.13965C2.06727 4.49498 1.90455 5.02798 1.86 6.01063C1.81182 7.07296 1.80182 7.39166 1.80182 10.0814C1.80182 12.7711 1.81182 13.0898 1.86 14.1521C1.90455 15.1347 2.06727 15.6677 2.20455 16.0231C2.36455 16.4599 2.62 16.8564 2.95182 17.1816C3.27455 17.5158 3.66818 17.7732 4.10182 17.9343C4.45455 18.0726 4.98364 18.2366 5.95909 18.2814C7.01364 18.33 7.32909 18.34 10 18.34C12.6709 18.34 12.9864 18.33 14.0409 18.2814C15.0164 18.2366 15.5455 18.0726 15.8982 17.9343C16.3645 17.7512 16.6982 17.5341 17.0482 17.1816C17.38 16.8564 17.6355 16.4599 17.7955 16.0231C17.9327 15.6677 18.0955 15.1347 18.14 14.1521C18.1882 13.0898 18.1982 12.7711 18.1982 10.0814C18.1982 7.39166 18.1882 7.07296 18.14 6.01063C18.0955 5.02798 17.9327 4.49498 17.7955 4.13965C17.6136 3.66985 17.3982 3.33375 17.0482 2.98117C16.7254 2.64697 16.3325 2.38976 15.8982 2.22838C15.5455 2.0901 15.0164 1.92617 14.0409 1.88129ZM8.72273 13.1868C9.43605 13.486 10.2303 13.5263 10.9699 13.3011C11.7095 13.0758 12.3485 12.5988 12.7778 11.9516C13.2071 11.3045 13.4001 10.5272 13.3237 9.75268C13.2473 8.97813 12.9064 8.25432 12.3591 7.70486C12.0102 7.35363 11.5884 7.08469 11.1239 6.91741C10.6595 6.75012 10.164 6.68865 9.67318 6.73742C9.18233 6.7862 8.70832 6.94399 8.28528 7.19946C7.86223 7.45492 7.50068 7.8017 7.22664 8.21482C6.9526 8.62795 6.7729 9.09714 6.70047 9.58862C6.62804 10.0801 6.66468 10.5817 6.80776 11.0572C6.95084 11.5327 7.1968 11.9703 7.52793 12.3385C7.85906 12.7068 8.26711 12.9965 8.72273 13.1868ZM6.36545 6.41999C6.84275 5.93918 7.40938 5.55777 8.033 5.29756C8.65662 5.03734 9.325 4.90341 10 4.90341C10.675 4.90341 11.3434 5.03734 11.967 5.29755C12.5906 5.55777 13.1573 5.93918 13.6345 6.41999C14.1118 6.90081 14.4905 7.47162 14.7488 8.09984C15.0071 8.72806 15.14 9.40138 15.14 10.0814C15.14 10.7613 15.0071 11.4347 14.7488 12.0629C14.4905 12.6911 14.1118 13.2619 13.6345 13.7427C12.6706 14.7138 11.3632 15.2593 10 15.2593C8.63678 15.2593 7.3294 14.7138 6.36545 13.7427C5.40151 12.7717 4.85998 11.4546 4.85998 10.0814C4.85998 8.70808 5.40151 7.39105 6.36545 6.41999ZM16.28 5.67453C16.3983 5.56214 16.493 5.42698 16.5585 5.27705C16.624 5.12713 16.6589 4.96549 16.6613 4.80171C16.6637 4.63793 16.6334 4.47534 16.5723 4.32356C16.5111 4.17177 16.4204 4.03389 16.3054 3.91807C16.1904 3.80224 16.0536 3.71084 15.9029 3.64926C15.7522 3.58768 15.5908 3.55718 15.4282 3.55957C15.2657 3.56196 15.1052 3.59718 14.9564 3.66316C14.8076 3.72914 14.6734 3.82452 14.5618 3.94367C14.3448 4.1754 14.226 4.48319 14.2306 4.80171C14.2352 5.12024 14.3629 5.42441 14.5865 5.64966C14.8101 5.87492 15.1121 6.00352 15.4282 6.00816C15.7444 6.0128 16.05 5.89313 16.28 5.67453Z" fill="#364C5C"/>
</svg>
