<svg width="55" height="55" viewBox="0 0 55 55" fill="none" xmlns="http://www.w3.org/2000/svg">
<path d="M22.7497 37.1475V23.554H18.2646V37.1475H22.7497ZM20.5078 21.6969C22.0718 21.6969 23.0453 20.6531 23.0453 19.3487C23.0162 18.0148 22.0719 17 20.5374 17C19.0033 17 18 18.0149 18 19.3487C18 20.6532 18.9733 21.6969 20.4785 21.6969H20.5076H20.5078ZM25.2322 37.1475H29.7173V29.5562C29.7173 29.1499 29.7465 28.7441 29.8649 28.4537C30.1892 27.6419 30.9271 26.8012 32.1661 26.8012C33.7891 26.8012 34.4384 28.0478 34.4384 29.8752V37.1474H38.9232V29.353C38.9232 25.1776 36.7105 23.2349 33.7596 23.2349C31.34 23.2349 30.2777 24.5973 29.6875 25.5252H29.7174V23.5537H25.2323C25.2912 24.8293 25.2323 37.1472 25.2323 37.1472L25.2322 37.1475Z" fill="#364C5C"/>
</svg>
