<svg width="21" height="21" viewBox="0 0 21 21" fill="none" xmlns="http://www.w3.org/2000/svg">
<path d="M4.74974 20.1475V6.554H0.26462V20.1475H4.74974ZM2.50776 4.69693C4.0718 4.69693 5.04533 3.65311 5.04533 2.34869C5.01619 1.01485 4.07186 0 2.53744 0C1.00326 0 0 1.01487 0 2.34869C0 3.65317 0.973299 4.69693 2.47848 4.69693H2.50762H2.50776ZM7.23223 20.1475H11.7173V12.5562C11.7173 12.1499 11.7465 11.7441 11.8649 11.4537C12.1892 10.6419 12.9271 9.80123 14.1661 9.80123C15.7891 9.80123 16.4384 11.0478 16.4384 12.8752V20.1474H20.9232V12.353C20.9232 8.17762 18.7105 6.23487 15.7596 6.23487C13.34 6.23487 12.2777 7.59728 11.6875 8.52521H11.7174V6.55372H7.23233C7.29119 7.82926 7.23233 20.1472 7.23233 20.1472L7.23223 20.1475Z" fill="#364C5C"/>
</svg>
