<svg width="23" height="18" viewBox="0 0 23 18" fill="none" xmlns="http://www.w3.org/2000/svg">
<path d="M20.25 18H2.25C1.65326 18 1.08097 17.7629 0.65901 17.341C0.237053 16.919 0 16.3467 0 15.75V2.15213C0.0252367 1.57252 0.273385 1.02505 0.692638 0.624038C1.11189 0.223023 1.66984 -0.000548144 2.25 1.00926e-06H20.25C20.8467 1.00926e-06 21.419 0.237054 21.841 0.659011C22.2629 1.08097 22.5 1.65326 22.5 2.25V15.75C22.5 16.3467 22.2629 16.919 21.841 17.341C21.419 17.7629 20.8467 18 20.25 18ZM2.25 4.3515V15.75H20.25V4.3515L11.25 10.35L2.25 4.3515ZM3.15 2.25L11.25 7.65L19.35 2.25H3.15Z" fill="#364C5C"/>
</svg>
