<svg width="25" height="21" viewBox="0 0 25 21" fill="none" xmlns="http://www.w3.org/2000/svg">
<path d="M24.6022 2.39744C23.6974 2.8013 22.7255 3.07417 21.7038 3.19751C22.758 2.56203 23.5468 1.56186 23.9228 0.383612C22.9323 0.976288 21.8483 1.39347 20.7178 1.61701C19.9576 0.799329 18.9507 0.257353 17.8533 0.0752334C16.756 -0.106887 15.6297 0.0810375 14.6493 0.60983C13.6689 1.13862 12.8892 1.9787 12.4313 2.99963C11.9734 4.02056 11.8628 5.16523 12.1169 6.25591C10.1099 6.1544 8.14651 5.6289 6.35416 4.71351C4.56182 3.79813 2.98056 2.51332 1.71303 0.942463C1.27962 1.6956 1.03042 2.56881 1.03042 3.49877C1.02993 4.33595 1.23459 5.1603 1.62622 5.8987C2.01785 6.63709 2.58435 7.26669 3.27545 7.73163C2.47395 7.70594 1.69014 7.48777 0.989245 7.09528V7.16077C0.989164 8.33495 1.39235 9.47299 2.13038 10.3818C2.86841 11.2906 3.89584 11.9142 5.03832 12.1468C4.2948 12.3495 3.51527 12.3793 2.75862 12.2341C3.08096 13.2444 3.70885 14.1279 4.55439 14.7608C5.39993 15.3938 6.42079 15.7446 7.47405 15.764C5.68608 17.178 3.47794 17.9449 1.20486 17.9416C0.80221 17.9417 0.399898 17.918 0 17.8706C2.30731 19.3651 4.99318 20.1582 7.73626 20.1551C17.0219 20.1551 22.0982 12.4076 22.0982 5.68833C22.0982 5.47003 22.0928 5.24954 22.083 5.03124C23.0704 4.31191 23.9227 3.42116 24.6 2.40071L24.6022 2.39744Z" fill="#364C5C"/>
</svg>
