<svg width="25" height="20" viewBox="0 0 25 20" fill="none" xmlns="http://www.w3.org/2000/svg">
<path d="M24.6022 2.37236C23.6974 2.77326 22.7255 3.04414 21.7038 3.16658C22.758 2.53575 23.5468 1.5429 23.9228 0.373289C22.9323 0.961624 21.8483 1.37575 20.7178 1.59766C19.9576 0.78596 18.9507 0.247955 17.8533 0.0671694C16.756 -0.113617 15.6297 0.0729309 14.6493 0.59785C13.6689 1.12277 12.8892 1.95669 12.4313 2.97014C11.9734 3.98359 11.8628 5.11988 12.1169 6.20257C10.1099 6.1018 8.14651 5.58015 6.35416 4.67147C4.56182 3.76279 2.98056 2.48739 1.71303 0.928046C1.27963 1.67567 1.03042 2.54248 1.03042 3.46563C1.02993 4.29667 1.23459 5.11499 1.62622 5.84798C2.01785 6.58096 2.58435 7.20594 3.27545 7.66748C2.47395 7.64198 1.69014 7.42541 0.989245 7.03579V7.1008C0.989164 8.26638 1.39235 9.39609 2.13038 10.2982C2.86841 11.2004 3.89584 11.8194 5.03832 12.0503C4.2948 12.2515 3.51527 12.2811 2.75862 12.137C3.08096 13.1399 3.70885 14.0169 4.55439 14.6452C5.39993 15.2735 6.42079 15.6217 7.47405 15.641C5.68608 17.0446 3.47794 17.806 1.20486 17.8026C0.80221 17.8027 0.399898 17.7792 0 17.7322C2.30731 19.2157 4.99318 20.003 7.73626 20C17.0219 20 22.0982 12.3092 22.0982 5.63915C22.0982 5.42245 22.0928 5.20358 22.083 4.98687C23.0704 4.27281 23.9227 3.38858 24.6 2.37562L24.6022 2.37236Z" fill="black"/>
</svg>
