<svg width="20" height="21" viewBox="0 0 20 21" fill="none" xmlns="http://www.w3.org/2000/svg">
<path fill-rule="evenodd" clip-rule="evenodd" d="M5.87727 0.889544C6.94364 0.840091 7.28364 0.829102 10 0.829102C12.7164 0.829102 13.0564 0.841007 14.1218 0.889544C15.1873 0.938082 15.9145 1.10934 16.5509 1.35752C17.2173 1.61119 17.8218 2.00774 18.3218 2.52058C18.8309 3.02336 19.2236 3.63145 19.4745 4.30364C19.7218 4.9447 19.8909 5.67734 19.94 6.74883C19.9891 7.82489 20 8.1674 20 10.9029C20 13.6393 19.9882 13.9818 19.94 15.056C19.8918 16.1275 19.7218 16.8602 19.4745 17.5012C19.2236 18.1735 18.8303 18.7826 18.3218 19.2861C17.8218 19.799 17.2173 20.1946 16.5509 20.4474C15.9145 20.6965 15.1873 20.8668 14.1236 20.9162C13.0564 20.9657 12.7164 20.9767 10 20.9767C7.28364 20.9767 6.94364 20.9648 5.87727 20.9162C4.81364 20.8677 4.08636 20.6965 3.45 20.4474C2.78266 20.1946 2.17802 19.7983 1.67818 19.2861C1.16944 18.783 0.775741 18.1742 0.524545 17.5021C0.278182 16.8611 0.109091 16.1284 0.06 15.057C0.0109091 13.9809 0 13.6384 0 10.9029C0 8.16648 0.0118182 7.82398 0.06 6.75066C0.108182 5.67734 0.278182 4.9447 0.524545 4.30364C0.776112 3.63152 1.17011 3.02273 1.67909 2.51967C2.17822 2.00728 2.78225 1.61068 3.44909 1.35752C4.08545 1.10934 4.81273 0.938997 5.87636 0.889544H5.87727ZM14.0409 2.70283C12.9864 2.65429 12.67 2.64422 10 2.64422C7.33 2.64422 7.01364 2.65429 5.95909 2.70283C4.98364 2.7477 4.45455 2.91163 4.10182 3.04991C3.63545 3.23307 3.30182 3.45012 2.95182 3.8027C2.62004 4.12786 2.36471 4.52369 2.20455 4.96119C2.06727 5.31652 1.90455 5.84951 1.86 6.83217C1.81182 7.89449 1.80182 8.21319 1.80182 10.9029C1.80182 13.5926 1.81182 13.9113 1.86 14.9736C1.90455 15.9563 2.06727 16.4893 2.20455 16.8446C2.36455 17.2814 2.62 17.678 2.95182 18.0031C3.27455 18.3374 3.66818 18.5947 4.10182 18.7559C4.45455 18.8942 4.98364 19.0581 5.95909 19.103C7.01364 19.1515 7.32909 19.1616 10 19.1616C12.6709 19.1616 12.9864 19.1515 14.0409 19.103C15.0164 19.0581 15.5455 18.8942 15.8982 18.7559C16.3645 18.5727 16.6982 18.3557 17.0482 18.0031C17.38 17.678 17.6355 17.2814 17.7955 16.8446C17.9327 16.4893 18.0955 15.9563 18.14 14.9736C18.1882 13.9113 18.1982 13.5926 18.1982 10.9029C18.1982 8.21319 18.1882 7.89449 18.14 6.83217C18.0955 5.84951 17.9327 5.31652 17.7955 4.96119C17.6136 4.49138 17.3982 4.15528 17.0482 3.8027C16.7254 3.4685 16.3325 3.21129 15.8982 3.04991C15.5455 2.91163 15.0164 2.7477 14.0409 2.70283ZM8.72273 14.0084C9.43605 14.3075 10.2303 14.3479 10.9699 14.1226C11.7095 13.8973 12.3485 13.4203 12.7778 12.7732C13.2071 12.126 13.4001 11.3488 13.3237 10.5742C13.2473 9.79967 12.9064 9.07585 12.3591 8.52639C12.0102 8.17516 11.5884 7.90623 11.1239 7.73894C10.6595 7.57166 10.164 7.51019 9.67318 7.55896C9.18233 7.60773 8.70832 7.76553 8.28528 8.02099C7.86223 8.27646 7.50068 8.62323 7.22664 9.03636C6.9526 9.44948 6.7729 9.91867 6.70047 10.4102C6.62804 10.9016 6.66468 11.4032 6.80776 11.8787C6.95084 12.3542 7.1968 12.7918 7.52793 13.1601C7.85906 13.5283 8.26711 13.8181 8.72273 14.0084ZM6.36545 7.24153C6.84275 6.76071 7.40938 6.37931 8.033 6.11909C8.65662 5.85887 9.325 5.72494 10 5.72494C10.675 5.72494 11.3434 5.85887 11.967 6.11909C12.5906 6.3793 13.1573 6.76071 13.6345 7.24153C14.1118 7.72234 14.4905 8.29316 14.7488 8.92138C15.0071 9.54959 15.14 10.2229 15.14 10.9029C15.14 11.5829 15.0071 12.2562 14.7488 12.8844C14.4905 13.5126 14.1118 14.0834 13.6345 14.5643C12.6706 15.5353 11.3632 16.0808 10 16.0808C8.63678 16.0808 7.3294 15.5353 6.36545 14.5643C5.40151 13.5932 4.85998 12.2762 4.85998 10.9029C4.85998 9.52961 5.40151 8.21258 6.36545 7.24153ZM16.28 6.49607C16.3983 6.38367 16.493 6.24851 16.5585 6.09859C16.624 5.94866 16.6589 5.78703 16.6613 5.62325C16.6637 5.45947 16.6334 5.29687 16.5723 5.14509C16.5111 4.99331 16.4204 4.85542 16.3054 4.7396C16.1904 4.62378 16.0536 4.53237 15.9029 4.47079C15.7522 4.40922 15.5908 4.37872 15.4282 4.3811C15.2657 4.38349 15.1052 4.41872 14.9564 4.48469C14.8076 4.55067 14.6734 4.64606 14.5618 4.76521C14.3448 4.99693 14.226 5.30472 14.2306 5.62325C14.2352 5.94177 14.3629 6.24594 14.5865 6.4712C14.8101 6.69645 15.1121 6.82505 15.4282 6.82969C15.7444 6.83434 16.05 6.71466 16.28 6.49607Z" fill="black"/>
</svg>
