<svg width="21" height="21" viewBox="0 0 21 21" fill="none" xmlns="http://www.w3.org/2000/svg">
<path d="M4.74973 20.969V7.37554H0.26462V20.969H4.74973ZM2.50776 5.51847C4.0718 5.51847 5.04533 4.47465 5.04533 3.17022C5.01619 1.83638 4.07186 0.821533 2.53744 0.821533C1.00326 0.821533 0 1.8364 0 3.17022C0 4.47471 0.973299 5.51847 2.47848 5.51847H2.50762H2.50776ZM7.23223 20.969H11.7173V13.3777C11.7173 12.9715 11.7465 12.5656 11.8649 12.2752C12.1892 11.4635 12.9271 10.6228 14.1661 10.6228C15.7891 10.6228 16.4384 11.8693 16.4384 13.6967V20.9689H20.9232V13.1745C20.9232 8.99916 18.7105 7.0564 15.7596 7.0564C13.34 7.0564 12.2777 8.41881 11.6875 9.34674H11.7174V7.37525H7.23233C7.29119 8.65079 7.23233 20.9687 7.23233 20.9687L7.23223 20.969Z" fill="black"/>
</svg>
