<svg width="75" height="73" viewBox="0 0 75 73" fill="none" xmlns="http://www.w3.org/2000/svg">
<path d="M56.75 21.15C64.75 29.25 74.4 35.65 74.85 42.45C75.3 49.25 66.55 56.5 58.55 62.15C50.5 67.8 43.25 71.8 35.4499 72.3501C27.6499 72.9 19.2999 70 12.8499 64.35C6.44992 58.7 1.99992 50.35 1.09992 41.1C0.199921 31.8 2.84992 21.65 9.24992 13.55C15.6499 5.45001 25.7999 -0.599992 34.0999 1.30001C42.35 3.25001 48.75 13.05 56.75 21.15Z" fill="#FFD53D"/>
<path fill-rule="evenodd" clip-rule="evenodd" d="M33.4999 27.9461C32.2898 26.2629 30.3146 25.1667 28.0833 25.1667H21.8333C19.0719 25.1667 16.8333 27.4053 16.8333 30.1667V46.8335C16.8333 49.595 19.0719 51.8335 21.8333 51.8335H26.8772C27.952 51.8335 29.0198 52.0065 30.0394 52.3465L32.9729 53.3245C33.3149 53.4385 33.6849 53.4385 34.0269 53.3245L36.9605 52.3465C37.98 52.0065 39.048 51.8335 40.123 51.8335H45.1665C47.928 51.8335 50.1665 49.595 50.1665 46.8335V30.1667C50.1665 27.4053 47.928 25.1667 45.1665 25.1667H38.9165C36.6855 25.1667 34.7101 26.2629 33.4999 27.9461ZM32.2499 50.288V31.8333C32.2499 29.5322 30.3844 27.6667 28.0833 27.6667H21.8333C20.4526 27.6667 19.3333 28.786 19.3333 30.1667V46.8335C19.3333 48.214 20.4526 49.3335 21.8333 49.3335H26.8772C28.2207 49.3335 29.5554 49.55 30.8299 49.975L32.1241 50.406C32.1651 50.366 32.2071 50.3265 32.2499 50.288ZM34.7499 31.8333V50.288C34.7928 50.3265 34.8348 50.366 34.8758 50.406L36.17 49.975C37.4445 49.55 38.7795 49.3335 40.123 49.3335H45.1665C46.5475 49.3335 47.6665 48.214 47.6665 46.8335V30.1667C47.6665 28.786 46.5475 27.6667 45.1665 27.6667H38.9165C36.6155 27.6667 34.7499 29.5322 34.7499 31.8333Z" fill="#FEF9E7"/>
</svg>
