<svg width="139" height="128" viewBox="0 0 139 128" fill="none" xmlns="http://www.w3.org/2000/svg">
<path d="M12.5119 33.7705C16.3707 36.1668 20.3744 38.3216 24.4999 40.2224L33.7692 44.4897C36.8831 45.9133 39.9343 47.4988 43.0049 49.0327C49.0774 52.2338 55.0448 55.6035 60.907 59.1419C73.3488 66.5949 85.5069 74.4161 97.787 81.9557C107.023 87.6215 116.457 92.9664 126.021 97.9207C127.894 98.9387 129.97 99.7186 131.936 100.58C132.742 100.931 133.839 101.389 133.792 101.691C133.671 102.684 134.257 103.986 132.959 104.477C132.403 104.679 131.391 104.4 130.061 103.792C124.555 101.324 119.242 98.5423 113.955 95.7077C108.667 92.8731 103.527 89.7936 98.456 86.6404C93.7792 83.7836 89.2671 80.6484 84.6181 77.8397C76.1938 72.7321 67.9663 67.3576 59.5423 62.3693C52.8347 58.393 46.0078 54.6918 39.0613 51.2657C32.1533 47.774 24.9069 44.8527 17.8927 41.1317C15.5497 39.8864 13.2339 38.5699 10.9823 37.1567C9.86096 36.4283 8.74429 35.693 7.65843 34.9037C7.25363 34.6453 6.20096 33.8133 5.38647 33.184L4.09681 32.1851L2.80817 31.1323L1.51619 30.092L1.35857 29.9627L1.27919 29.8952C1.27919 29.8952 1.19181 29.8472 1.26756 29.8378L1.65868 29.7047L2.44216 29.4444C3.4883 29.0949 4.50343 28.7398 5.58749 28.4006L10.3836 26.8668L17.886 24.5097C25.0523 22.2625 32.2289 20.067 39.4578 18.0401C50.6894 14.8971 61.9708 11.9412 73.3218 9.23989C83.7365 6.75231 94.2288 4.52974 104.811 2.68925L107.118 2.28712L111.151 1.55329C111.379 3.23924 111.603 4.9321 111.832 6.62378C111.977 7.72327 112.148 8.82957 112.312 9.93131C112.475 11.033 112.663 12.1359 112.851 13.2387C113.038 14.3415 113.225 15.4386 113.441 16.5356C114.27 20.9191 115.255 25.277 116.447 29.5632C116.784 30.785 116.854 32.1028 117.382 33.2025L117.373 33.1623L117.685 33.9651L117.677 33.925C118.511 38.0387 119.905 41.9673 121.075 45.971C122.311 50.1228 123.713 54.2109 125.166 58.2828C126.618 62.3547 128.146 66.4115 129.564 70.6098C130.94 74.6854 132.477 79.0867 133.916 83.5914C135.079 87.2083 135.669 91.7957 136.333 95.5137C136.712 97.8261 136.631 98.9595 136.402 99.5973C136.173 100.235 135.83 100.4 135.509 100.818C135.266 101.124 135.05 100.911 134.807 100.512C134.507 100.029 134.235 99.3079 133.948 98.7748C133.66 98.2417 133.298 97.8971 132.917 98.1414C132.537 98.3858 132.439 96.1657 132.279 94.9916C131.539 90.0083 130.316 85.109 128.626 80.363C126.98 75.5419 125.073 70.7616 123.237 65.8894C119.581 56.1089 116.473 46.1318 113.93 36.0048C112.588 30.7018 111.382 25.3713 110.312 20.0133C109.769 17.3359 109.274 14.6487 108.827 11.9519L108.167 7.90428L107.91 6.16445L107.784 6.19003L105.369 6.6797L100.538 7.65901C93.7709 8.98896 87.0111 10.3534 80.2734 11.8267C73.5357 13.3001 66.8211 14.8584 60.1783 16.6231L36.459 22.9009C28.2903 25.0646 20.1934 27.4944 12.1197 29.9793L10.2257 30.5664L9.28273 30.865L9.03032 30.9162L8.62989 31.0332C8.52662 31.0542 8.24551 31.1112 8.46043 31.199C8.57433 31.2894 8.66753 31.3661 8.8136 31.4679L9.31158 31.803L10.9251 32.8676C11.4782 33.2095 12.0348 33.5387 12.5856 33.869L12.5119 33.7705Z" fill="#F74705"/>
<path d="M65.0422 38.7295L65.3582 38.8447L66.0087 39.107L67.1303 39.5128C71.5012 41.2172 75.7186 43.2918 79.7365 45.714C84.0605 48.1648 88.1945 50.9368 92.1036 54.0065C95.0686 56.2812 97.8236 58.8173 100.336 61.5842C100.855 62.1241 101.403 62.6351 101.978 63.1149C102.199 63.321 102.524 63.5715 102.317 63.8166C101.705 64.5381 101.28 65.4783 100.355 65.9228C100.17 66.009 99.9615 66.0279 99.7645 65.9762C99.5674 65.9245 99.3947 65.8054 99.2762 65.6397C96.5622 62.7806 93.694 60.0719 90.6845 57.5256C89.357 56.2815 87.9528 55.1218 86.4803 54.0533C83.7283 52.2638 81.0266 50.4281 78.1831 48.8064C75.9249 47.5081 73.5638 46.4098 71.2017 45.3356C70.0064 44.8313 68.8316 44.281 67.6283 43.7962L65.8318 43.0374L63.9883 42.2822C63.6171 42.1304 63.2631 41.9752 62.8884 41.8361C62.5412 41.7266 62.2058 41.5825 61.8873 41.4059L60.4096 40.5108L58.9321 39.6157L58.7492 39.5095C58.6976 39.5199 58.7376 39.4521 58.7318 39.4234L58.7947 39.3211L59.029 38.9151C59.1844 38.6507 59.3376 38.4046 59.4748 38.1677C60.1604 37.1059 61.1314 36.259 62.2766 35.7242C62.9427 35.3979 63.6358 35.1295 64.348 34.922C64.8367 34.7691 65.2612 34.6532 65.6925 34.5419C68.1409 33.8902 70.5741 33.164 73.05 32.5307C76.8648 31.5483 80.6691 30.5143 84.4747 29.486L87.0985 28.7868L88.4169 28.4539L89.0766 28.3201L89.4152 28.2515L89.9889 28.1352C90.7926 27.9741 91.6271 28.0868 92.3594 28.4551C93.0774 28.8456 93.6485 29.4596 93.9862 30.2039C94.1461 30.5419 94.2753 30.8935 94.3724 31.2546C94.4294 31.5357 94.4887 31.8283 94.534 32.0521L94.7649 33.397C95.2698 36.9198 96.0931 40.3895 97.2248 43.7636C97.3716 44.1639 97.226 44.6534 97.5736 44.9831L97.7453 45.241C97.896 46.6619 98.4884 47.9634 98.8363 49.3265C99.5671 52.1649 100.563 54.8959 101.109 57.8256C101.379 59.3037 101.818 60.7459 102.416 62.1241C102.908 63.2548 103.101 64.7629 103.813 65.7714C104.695 67.0021 103.969 67.221 103.469 67.7286C103.377 67.809 103.267 67.8667 103.149 67.8969C103.03 67.9271 102.906 67.9291 102.787 67.9026C102.115 67.8297 101.451 67.3791 100.764 67.8229C100.379 68.0742 100.138 67.2987 99.9822 66.9122C97.0201 60.3449 95.3833 53.4491 93.773 46.5958L92.1129 39.5853L91.2955 36.0835L90.5231 32.6561C90.5021 32.5529 90.4824 32.4553 90.4649 32.3693C90.4475 32.2832 90.4649 32.3693 90.458 32.3348C90.4599 32.329 90.4603 32.3227 90.4591 32.3167C90.4579 32.3106 90.4551 32.305 90.451 32.3004L90.0493 32.3818L89.1944 32.5551L87.4825 32.95C85.2004 33.4783 82.9229 34.0296 80.7179 34.6737C78.048 35.4499 75.3635 36.1056 72.6646 36.6407C71.259 36.9257 69.8648 37.2382 68.4719 37.5564L66.3848 38.0452L65.8799 38.1476L65.4381 38.2371L65.2488 38.2755C65.0461 38.3028 64.8558 38.3891 64.7018 38.5238C64.6365 38.5848 64.5873 38.6664 64.607 38.7341C64.7448 38.7628 64.8856 38.7744 65.0262 38.7686L65.0422 38.7295Z" fill="#F74705"/>
<path d="M98.369 9.10229C98.3445 8.98889 98.2943 8.88259 98.2224 8.79154C98.0296 8.51497 97.9127 8.19262 97.8835 7.85674C97.8114 7.50102 97.5432 7.23882 97.4585 6.87969C97.3313 6.59307 97.3124 6.26997 97.4056 5.97052C97.4364 5.88663 97.3182 5.89269 97.2699 5.86067C97.2216 5.82865 97.201 5.87462 97.4634 5.66613C98.2576 5.13478 99.0357 4.58283 99.8644 4.07436C100.215 3.8599 100.359 3.80095 100.368 3.84685C100.47 4.22386 100.548 4.60717 100.6 4.99434C100.637 5.1722 100.46 5.4528 100.602 5.59135C100.859 5.79618 100.879 6.13254 101.015 6.39165C101.238 6.81242 101.721 7.1326 101.752 7.63997C101.744 7.9687 101.794 8.2963 101.9 8.60742C102.024 8.80611 102.132 9.01385 102.223 9.22885C102.329 9.57185 102.48 9.90557 102.615 10.2485C102.751 10.5665 102.764 10.9238 102.651 11.2507C102.529 11.592 102.446 11.8896 102.904 12.2029C102.959 12.2395 102.709 12.3022 102.969 12.3153L103.08 12.3345C102.906 12.4773 103.179 12.5891 103.16 12.7304C103.214 12.9943 103.454 13.2681 103.136 13.5536C102.985 13.6918 102.948 13.8365 103.08 13.9832C103.211 14.1298 102.85 14.2329 103.154 14.3504C103.459 14.4678 102.761 14.4719 102.11 14.4725C101.864 14.4685 101.646 14.453 101.415 14.4341C100.808 14.384 100.363 14.3129 99.5938 14.2896C99.1437 14.2793 99.2044 14.2252 99.1802 14.1943C98.7369 13.6868 98.8895 13.2019 98.8778 12.7025C98.8301 12.3641 98.7621 12.0288 98.6743 11.6985C98.6103 11.3829 98.8297 10.992 98.5982 10.7044C98.5354 10.6227 98.4953 10.5259 98.4819 10.4237C98.4686 10.3216 98.4825 10.2177 98.5221 10.1225C98.5737 9.90649 98.589 9.68338 98.5674 9.4623C98.5751 9.32336 98.6045 9.17402 98.361 9.12185L98.369 9.10229Z" fill="#F74705"/>
<path d="M86.8597 12.1401C86.8196 12.025 86.7595 11.9179 86.6821 11.8237C86.4642 11.5392 86.3205 11.205 86.264 10.8512C86.1425 10.4876 85.8868 10.1989 85.7928 9.82373C85.6495 9.52867 85.6236 9.19018 85.7204 8.87674C85.7511 8.79285 85.6317 8.79317 85.5822 8.75541C85.5328 8.71765 85.5134 8.76937 85.7769 8.56661C86.5873 8.05589 87.3597 7.53496 88.2218 7.04362C88.5795 6.83373 88.724 6.78053 88.7333 6.82643C88.8089 7.19936 88.8834 7.56656 88.959 7.93949C88.9939 8.11161 88.812 8.39337 88.9523 8.49634C89.2008 8.69086 89.2293 9.00764 89.3688 9.25411C89.5937 9.6565 90.103 9.92959 90.1479 10.4163C90.149 10.7335 90.2126 11.0474 90.3352 11.34C90.4728 11.5192 90.5988 11.7072 90.7121 11.9027C90.8597 12.219 91.0257 12.5264 91.2093 12.8233C91.3907 13.1011 91.4589 13.4377 91.4001 13.7642C91.3333 14.1123 91.3157 14.4384 91.8019 14.6266C91.8651 14.6436 91.63 14.751 91.8917 14.7159L92.0006 14.6938C91.8553 14.8606 92.1413 14.9161 92.183 15.0331C92.2353 15.2913 92.5664 15.481 92.34 15.8077C92.2164 15.9641 92.2098 16.1088 92.3685 16.214C92.5273 16.3192 92.2051 16.4981 92.5187 16.542C92.8322 16.586 92.1656 16.745 91.5334 16.897C91.3083 16.9547 91.0804 17.0009 90.8507 17.0355C90.2769 17.1518 89.8016 17.1645 89.0248 17.3399C88.5773 17.4306 88.63 17.3662 88.5955 17.3433C88.0364 16.9131 88.0808 16.3665 87.9796 15.8374C87.9075 15.4817 87.6656 15.1724 87.5648 14.8225C87.464 14.4726 87.5961 14.0635 87.3531 13.7783C87.2742 13.6985 87.2178 13.5993 87.1895 13.4907C87.1612 13.3821 87.1621 13.268 87.1919 13.1599C87.217 12.9269 87.2055 12.6914 87.1579 12.4619C87.1288 12.3185 87.1617 12.1565 86.9147 12.117L86.8597 12.1401Z" fill="#F74705"/>
<path d="M77.2351 16.0505C77.2052 15.9322 77.1581 15.819 77.0953 15.7145C76.9062 15.409 76.8077 15.0561 76.8114 14.6969C76.6932 14.3403 76.5975 13.9766 76.5249 13.608C76.4463 13.2927 76.4944 12.9591 76.6591 12.6789C76.7094 12.603 76.5911 12.5792 76.5577 12.5322C76.5243 12.4852 76.4795 12.5003 76.7881 12.4019C77.6932 12.093 78.5959 11.7726 79.5251 11.4946C79.9198 11.3788 80.0989 11.3783 80.0989 11.3783C80.0756 11.7056 80.0592 12.0374 80.0142 12.3751C79.9974 12.5278 79.7741 12.7523 79.8857 12.861C80.0826 13.066 80.0443 13.3486 80.1344 13.5871C80.2824 13.9633 80.7159 14.2458 80.7055 14.666C80.6686 14.9459 80.6997 15.2305 80.7962 15.4958C80.911 15.6576 81.0169 15.8256 81.1132 15.999C81.2259 16.284 81.3654 16.5578 81.5298 16.8165C81.6062 16.9385 81.6573 17.0746 81.68 17.2168C81.7026 17.359 81.6964 17.5042 81.6617 17.6439C81.5821 17.9587 81.56 18.2619 82.0494 18.3777C82.101 18.3673 81.8787 18.5079 82.1311 18.4567L82.2458 18.4335C82.0993 18.5946 82.3898 18.6133 82.4291 18.7188C82.5077 18.9299 82.8215 19.0634 82.564 19.3844C82.4519 19.5385 82.4534 19.6637 82.6338 19.7286C82.8142 19.7936 82.4864 20.0034 82.8022 19.9991C83.1179 19.9949 82.4652 20.2227 81.8539 20.4482C81.6256 20.5303 81.411 20.5917 81.1908 20.6543C80.6263 20.8165 80.1673 20.9096 79.4137 21.1699C78.9847 21.3225 79.0236 21.249 78.9879 21.2203C78.3831 20.8591 78.3816 20.292 78.2517 19.7688C78.1795 19.4131 77.9147 19.1084 77.8081 18.7596C77.7016 18.4109 77.844 17.9938 77.5941 17.704C77.5183 17.621 77.4666 17.5189 77.4442 17.4088C77.4219 17.2986 77.4299 17.1845 77.4673 17.0786C77.5041 16.8481 77.5108 16.6138 77.4874 16.3816C77.4927 16.2312 77.521 16.0761 77.2752 16.0125L77.2351 16.0505Z" fill="#F74705"/>
<path d="M64.1166 17.7541C64.081 17.6378 64.0225 17.5299 63.9446 17.4365C63.7317 17.1412 63.6016 16.7943 63.5678 16.4318C63.4189 16.0851 63.2892 15.7305 63.1792 15.3697C63.0716 15.0589 63.0905 14.7182 63.2319 14.4212C63.2695 14.3419 63.1535 14.3295 63.1086 14.2849C63.0637 14.2402 63.0317 14.2587 63.3275 14.127C64.206 13.7458 65.0671 13.3383 65.9709 12.9938C66.3574 12.8378 66.5283 12.7972 66.5365 12.8374C66.5442 13.1703 66.5635 13.5009 66.5495 13.8442C66.5465 14.0061 66.3496 14.2431 66.467 14.3507C66.6833 14.5339 66.6749 14.8163 66.788 15.0502C66.9692 15.4137 67.4256 15.6617 67.4567 16.1093C67.448 16.392 67.505 16.6728 67.623 16.9298C67.7516 17.0841 67.8719 17.2451 67.9836 17.4122C68.1271 17.687 68.2942 17.9489 68.4828 18.195C68.6587 18.4311 68.7337 18.7274 68.6915 19.0188C68.6361 19.3347 68.6472 19.6251 69.1446 19.7214C69.202 19.7098 68.9877 19.8607 69.2355 19.7866L69.3502 19.7633C69.2186 19.9393 69.509 19.9282 69.5598 20.0314C69.6602 20.2321 69.9808 20.3403 69.7751 20.6807C69.6768 20.844 69.6909 20.9725 69.846 21.0307C70.0012 21.0888 69.7251 21.318 70.0407 21.2839C70.3564 21.2498 69.728 21.5384 69.1397 21.8189C68.9161 21.924 68.712 22.0072 68.4952 22.087C67.9412 22.3009 67.4961 22.4329 66.7691 22.7654C66.3586 22.9502 66.3847 22.8434 66.3503 22.8503C65.6905 22.5421 65.6637 21.9681 65.4706 21.4577C65.3526 21.1113 65.0683 20.8285 64.9274 20.4867C64.7864 20.1449 64.8966 19.7164 64.6032 19.4474C64.5186 19.3711 64.4562 19.2733 64.4225 19.1645C64.3889 19.0557 64.3853 18.9398 64.4121 18.8291C64.4288 18.5943 64.4112 18.3585 64.3598 18.1288C64.3307 17.9854 64.3693 17.8223 64.1224 17.7828L64.1166 17.7541Z" fill="#F74705"/>
<path d="M52.1312 22.3342C52.0911 22.2279 52.0347 22.1285 51.964 22.0395C51.7564 21.7685 51.6323 21.4429 51.6068 21.1025C51.4619 20.7775 51.3383 20.4434 51.2368 20.1023C51.1867 19.9553 51.1664 19.7998 51.1771 19.6448C51.1877 19.4899 51.2291 19.3385 51.2987 19.1997C51.3422 19.1192 51.2273 19.1127 51.1836 19.0737C51.1399 19.0348 51.1077 19.0533 51.4024 18.9159C52.2785 18.5233 53.1409 18.1215 54.0389 17.7483C54.4196 17.5934 54.5963 17.5517 54.5688 17.5931C54.5731 17.9088 54.5889 18.2222 54.5725 18.554C54.5603 18.6998 54.3635 18.9369 54.4785 19.033C54.5936 19.1291 54.6748 19.471 54.7844 19.6877C54.9552 20.0294 55.4059 20.2487 55.4299 20.662C55.4149 20.9274 55.4685 21.1921 55.5858 21.4308C55.7117 21.5735 55.8298 21.7231 55.9394 21.8788C56.0745 22.136 56.2339 22.3797 56.4154 22.6065C56.5011 22.7141 56.5626 22.8389 56.5958 22.9723C56.6291 23.1057 56.6332 23.2447 56.6081 23.3799C56.5572 23.6888 56.558 23.9873 57.0518 24.0365C57.1035 24.0261 56.8892 24.177 57.1358 24.0972L57.2505 24.0739C57.1178 24.2442 57.4082 24.2331 57.4567 24.3248C57.549 24.5152 57.8673 24.6119 57.6638 24.9339C57.5643 25.0914 57.5715 25.2154 57.7313 25.2667C57.891 25.3179 57.6068 25.5368 57.9155 25.4981C58.2243 25.4594 57.6028 25.7526 57.0146 26.0331C56.7967 26.137 56.5926 26.2203 56.3769 26.3058C55.8241 26.5254 55.3871 26.6677 54.6601 27.0003C54.2438 27.1862 54.2757 27.0782 54.2412 27.0852C53.5884 26.8113 53.5744 26.2706 53.3825 25.7958C53.268 25.4666 52.9941 25.2056 52.8635 24.8856C52.7329 24.5656 52.841 24.1555 52.5579 23.9082C52.4811 23.8389 52.424 23.7505 52.3925 23.652C52.361 23.5534 52.3561 23.4483 52.3784 23.3473C52.3992 23.1243 52.3859 22.8994 52.3388 22.6803C52.312 22.5484 52.3518 22.391 52.106 22.3572L52.1312 22.3342Z" fill="#F74705"/>
<path d="M40.5718 24.8029C40.5362 24.6869 40.4837 24.5767 40.416 24.476C40.2137 24.1798 40.0978 23.833 40.0815 23.4747C39.9514 23.1231 39.8409 22.7646 39.7504 22.4009C39.7037 22.2466 39.6883 22.0846 39.705 21.9242C39.7217 21.7639 39.7703 21.6086 39.8478 21.4672C39.8912 21.3868 39.774 21.3687 39.7303 21.3298C39.6866 21.2909 39.6579 21.2967 39.9573 21.1822C40.8484 20.8343 41.7304 20.4704 42.6514 20.1522C43.0357 20.0146 43.2136 19.9786 43.1908 20.0429C43.1871 20.3782 43.1879 20.7065 43.1613 21.0464C43.1444 21.1991 42.9349 21.4328 43.0523 21.5404C43.2583 21.7316 43.2315 22.0118 43.3332 22.248C43.4972 22.615 43.9444 22.8767 43.9559 23.3164C43.9299 23.5969 43.9749 23.8795 44.0867 24.1381C44.1813 24.3101 44.3469 24.4497 44.4254 24.6309C44.5537 24.9073 44.7055 25.1724 44.8788 25.423C44.9608 25.5424 45.0179 25.6771 45.0466 25.8191C45.0754 25.961 45.0753 26.1073 45.0463 26.2492C44.9839 26.5605 44.9732 26.8613 45.466 26.9645C45.5234 26.9529 45.301 27.0936 45.558 27.0355L45.667 27.0134C45.5274 27.1791 45.8213 27.1852 45.8652 27.2838C45.9553 27.4925 46.2725 27.6134 46.0518 27.9389C45.9466 28.0976 45.9538 28.2216 46.1227 28.2889C46.2917 28.3562 45.988 28.567 46.3002 28.5456C46.6124 28.5241 45.9782 28.7841 45.3784 29.0371C45.1525 29.1306 44.9403 29.2035 44.7223 29.2776C44.1625 29.4627 43.7082 29.5788 42.9685 29.878C42.5475 30.041 42.5841 29.956 42.5496 29.9629C41.9253 29.6236 41.9067 29.0599 41.7492 28.5483C41.6759 28.1868 41.3801 27.9063 41.2564 27.5611C41.1326 27.2158 41.2567 26.7964 40.985 26.517C40.9011 26.4406 40.8412 26.3415 40.8126 26.2317C40.7839 26.122 40.7878 26.0062 40.8238 25.8986C40.8493 25.667 40.844 25.4331 40.8082 25.2029C40.7791 25.0595 40.8246 24.9009 40.5811 24.8487L40.5718 24.8029Z" fill="#F74705"/>
<path d="M29.467 27.5977C29.4177 27.4972 29.3488 27.4075 29.2642 27.3341C29.0274 27.1004 28.8601 26.8056 28.781 26.4824C28.6377 26.159 28.3697 25.9266 28.2471 25.5871C28.0929 25.3181 28.0476 25.0002 28.1207 24.6988C28.1458 24.6161 28.0299 24.6336 27.9828 24.6073C27.9356 24.581 27.9082 24.6225 28.1625 24.4037C28.9164 23.8208 29.6599 23.2161 30.4471 22.6503C30.7806 22.4095 30.9147 22.3345 30.9298 22.3792C31.0351 22.711 31.1234 23.048 31.1942 23.3889C31.2267 23.5495 31.0805 23.83 31.2219 23.9089C31.4783 24.054 31.5193 24.3444 31.6748 24.5518C31.9226 24.8898 32.4259 25.0745 32.52 25.5094C32.5536 25.7985 32.6508 26.0766 32.8046 26.3238C32.953 26.4653 33.0915 26.6168 33.2191 26.7773C33.3933 27.0456 33.585 27.302 33.7929 27.545C33.9863 27.7789 34.0813 28.0787 34.0579 28.3813C34.0232 28.7109 34.0308 28.9841 34.5432 29.0953C34.5948 29.0848 34.3874 29.2404 34.6352 29.1662L34.7499 29.143C34.6195 29.3247 34.9111 29.3194 34.9619 29.4226C35.0704 29.6335 35.3945 29.759 35.1899 30.1051C35.0858 30.2695 35.0999 30.3981 35.2632 30.4665C35.4264 30.535 35.1364 30.755 35.4498 30.7393C35.7632 30.7235 35.1302 30.9893 34.5292 31.2365C34.3033 31.3301 34.0968 31.4018 33.8731 31.477C33.3133 31.6622 32.8659 31.7828 32.125 32.0763C31.6995 32.2462 31.7406 32.1543 31.7062 32.1612C31.0969 31.8666 31.0772 31.3569 30.9164 30.8878C30.8031 30.5643 30.5269 30.3216 30.3883 30.0212C30.2498 29.7207 30.3394 29.3084 30.0449 29.0933C29.9587 29.0324 29.8919 28.9477 29.853 28.8495C29.814 28.7514 29.8044 28.644 29.8254 28.5405C29.8252 28.3224 29.7933 28.1055 29.7307 27.8967C29.7028 27.759 29.7081 27.6085 29.4636 27.6103L29.467 27.5977Z" fill="#F74705"/>
<path d="M16.8929 30.6306C16.8435 30.5313 16.7768 30.4417 16.6959 30.3659C16.4568 30.1323 16.2922 29.8331 16.2229 29.5061C16.0424 29.2129 15.8809 28.9085 15.7395 28.5946C15.6077 28.317 15.5905 27.9987 15.6913 27.7084C15.7233 27.6302 15.6107 27.6351 15.5624 27.6031C15.5141 27.5711 15.4936 27.6171 15.7594 27.4258C16.5755 26.9139 17.3446 26.4056 18.2112 25.9073C18.57 25.7032 18.7134 25.6443 18.7204 25.6787C18.7821 25.9828 18.8093 26.2938 18.8319 26.6118C18.861 26.7552 18.6745 27.0141 18.8033 27.0895C19.0332 27.2221 19.0512 27.4872 19.186 27.6809C19.3969 27.9846 19.8761 28.1383 19.954 28.5227C19.9717 28.7824 20.0574 29.0329 20.2027 29.2488C20.3439 29.3688 20.4777 29.4973 20.6033 29.6336C20.7705 29.8606 20.9574 30.0726 21.1617 30.267C21.2596 30.3594 21.3358 30.4723 21.385 30.5976C21.4341 30.7229 21.455 30.8575 21.446 30.9918C21.4296 31.2938 21.4706 31.5842 21.9619 31.5622C22.0193 31.5506 21.8199 31.7164 22.055 31.6091L22.164 31.587C22.052 31.771 22.3343 31.7197 22.3919 31.7976C22.5106 31.9707 22.8368 32.018 22.6689 32.3388C22.5901 32.51 22.6133 32.6248 22.7845 32.6439C22.9556 32.6629 22.6991 32.93 22.9986 32.8454C23.298 32.7608 22.7226 33.1343 22.1736 33.4905C21.9742 33.6265 21.7816 33.7372 21.5775 33.8502C21.0398 34.1444 20.6442 34.344 19.9726 34.7729C19.5863 35.0184 19.6114 34.9357 19.5735 34.9255C18.9392 34.7435 18.8346 34.2271 18.5912 33.7926C18.4342 33.4899 18.1363 33.2875 17.9679 32.9871C17.7995 32.6868 17.8261 32.2872 17.5466 32.087C17.4553 32.0311 17.3824 31.9495 17.3372 31.8524C17.2921 31.7553 17.2766 31.647 17.2926 31.5411C17.2812 31.3237 17.2377 31.109 17.1635 30.9043C17.1367 30.7723 17.1076 30.6289 16.8929 30.6306Z" fill="#F74705"/>
</svg>
