<svg width="75" height="73" viewBox="0 0 75 73" fill="none" xmlns="http://www.w3.org/2000/svg">
<path d="M56.75 21.1501C64.75 29.2501 74.4 35.6501 74.85 42.4501C75.3 49.2501 66.55 56.5001 58.55 62.1501C50.5 67.8001 43.25 71.8001 35.4499 72.3501C27.6499 72.9001 19.2999 70.0001 12.8499 64.3501C6.44992 58.7001 1.99992 50.3501 1.09992 41.1001C0.199921 31.8001 2.84992 21.6501 9.24992 13.5501C15.6499 5.4501 25.7999 -0.599901 34.0999 1.3001C42.35 3.2501 48.75 13.0501 56.75 21.1501Z" fill="#FFD53D"/>
<path fill-rule="evenodd" clip-rule="evenodd" d="M33.4999 27.9464C32.2898 26.2632 30.3146 25.167 28.0833 25.167H21.8333C19.0719 25.167 16.8333 27.4056 16.8333 30.167V46.8338C16.8333 49.5953 19.0719 51.8338 21.8333 51.8338H26.8772C27.952 51.8338 29.0198 52.0068 30.0394 52.3468L32.9729 53.3248C33.3149 53.4388 33.6849 53.4388 34.0269 53.3248L36.9605 52.3468C37.98 52.0068 39.048 51.8338 40.123 51.8338H45.1665C47.928 51.8338 50.1665 49.5953 50.1665 46.8338V30.167C50.1665 27.4056 47.928 25.167 45.1665 25.167H38.9165C36.6855 25.167 34.7101 26.2632 33.4999 27.9464ZM32.2499 50.2883V31.8336C32.2499 29.5325 30.3844 27.667 28.0833 27.667H21.8333C20.4526 27.667 19.3333 28.7863 19.3333 30.167V46.8338C19.3333 48.2143 20.4526 49.3338 21.8333 49.3338H26.8772C28.2207 49.3338 29.5554 49.5503 30.8299 49.9753L32.1241 50.4063C32.1651 50.3663 32.2071 50.3268 32.2499 50.2883ZM34.7499 31.8336V50.2883C34.7928 50.3268 34.8348 50.3663 34.8758 50.4063L36.17 49.9753C37.4445 49.5503 38.7795 49.3338 40.123 49.3338H45.1665C46.5475 49.3338 47.6665 48.2143 47.6665 46.8338V30.167C47.6665 28.7863 46.5475 27.667 45.1665 27.667H38.9165C36.6155 27.667 34.7499 29.5325 34.7499 31.8336Z" fill="#FEF9E7"/>
</svg>
