<svg width="78" height="69" viewBox="0 0 78 69" fill="none" xmlns="http://www.w3.org/2000/svg">
<path d="M63.7505 13.8228C71.1005 21.0728 77.0505 29.8728 77.3505 38.9728C77.6505 48.0728 72.3005 57.4228 64.9505 62.5728C57.5505 67.6728 48.2005 68.5228 38.5004 68.8228C28.8004 69.1228 18.8004 68.8728 11.6504 63.7728C4.45045 58.6728 0.100447 48.6728 0.000446682 38.5728C-0.0495533 28.4728 4.10045 18.3228 11.2504 11.0228C18.4504 3.7728 28.6004 -0.627197 38.1004 0.0728031C47.6005 0.772803 56.4005 6.5228 63.7505 13.8228Z" fill="#48CB8A"/>
<path d="M36.8004 18.5061L53.467 29.3395V41.0063L36.8004 51.8393L20.1338 41.0063V29.3395L36.8004 18.5061Z" stroke="#F2FDF7" stroke-width="4" stroke-linecap="round" stroke-linejoin="round"/>
<path d="M36.8005 51.8393V41.0063" stroke="#F2FDF7" stroke-width="4" stroke-linecap="round" stroke-linejoin="round"/>
<path d="M53.467 29.3394L36.8004 41.0062L20.1338 29.3394" stroke="#F2FDF7" stroke-width="4" stroke-linecap="round" stroke-linejoin="round"/>
<path d="M20.1338 41.0062L36.8004 29.3394L53.467 41.0062" stroke="#F2FDF7" stroke-width="4" stroke-linecap="round" stroke-linejoin="round"/>
<path d="M36.8005 18.5061V29.3395" stroke="#F2FDF7" stroke-width="4" stroke-linecap="round" stroke-linejoin="round"/>
</svg>
