<svg width="110" height="141" viewBox="0 0 110 141" fill="none" xmlns="http://www.w3.org/2000/svg">
<path d="M89.2665 49.6062C88.6986 44.0855 88.1307 38.5649 87.4775 33.067C86.5063 24.9451 85.5577 16.8345 84.365 8.78644L84.1435 7.31541L84.0753 6.84967L84.0413 6.6168C84.0413 6.55433 84.0412 6.57137 84.0072 6.58273H83.9731L83.6607 6.78152L81.156 8.51949C77.805 10.8557 74.4616 13.209 71.1257 15.5793L49.9349 30.744C46.3946 33.2658 42.8372 35.7686 39.2628 38.2525L38.0531 39.0874L37.4396 39.5134L37.133 39.7292L36.8035 39.5588L34.4635 38.3661L31.5726 36.9064L25.7623 34.0325C19.9084 31.17 14.0091 28.3964 8.06443 25.7118C5.09964 24.3714 2.12921 23.0367 -0.84693 21.7361C-2.34068 21.0999 -3.82875 20.4525 -5.32251 19.8334C-6.06654 19.5153 -6.81061 19.2143 -7.56033 18.9133L-8.69626 18.4589C-9.0484 18.3283 -9.40054 18.1919 -9.76404 18.0784C-12.0711 17.3358 -14.5194 17.1413 -16.9147 17.5104C-17.8689 17.6297 -19.0616 18.0386 -19.2661 17.7603C-19.6352 17.3509 -20.0359 16.971 -20.4645 16.6244C-20.5765 16.5329 -20.669 16.4198 -20.7364 16.2918C-20.8039 16.1639 -20.8449 16.0237 -20.8571 15.8796C-20.8692 15.7355 -20.8523 15.5904 -20.8073 15.453C-20.7624 15.3155 -20.6902 15.1885 -20.5951 15.0795C-20.2089 14.5115 -18.8458 13.8584 -16.8636 13.6596C-14.855 13.4767 -12.8303 13.5896 -10.8545 13.9947C-9.88033 14.1925 -8.92031 14.4543 -7.98062 14.7785L-7.28772 15.0227L-6.65728 15.2726L-5.38497 15.7611C-1.97718 17.0901 1.29996 18.5043 4.59416 19.9583C11.1826 22.8549 17.6574 25.9106 24.1265 29.0458C27.0856 30.4884 30.0163 32.0049 32.9357 33.527L35.1223 34.663L36.2129 35.2309L36.4627 35.3616L36.5479 35.407L36.7127 35.5036C36.8263 35.6171 36.9285 35.5036 37.0364 35.4354L37.7009 34.981C38.3711 34.5153 39.0413 34.0496 39.7002 33.5725L68.5415 12.9667L80.0087 4.75387L83.905 2.01061L86.421 0.244221L86.7334 0.0283914L86.7732 0C86.7732 0 86.7732 -1.38587e-06 86.7732 0.0340766V0.119268V0.289651L86.8868 0.976902L87.1197 2.3457L88.0227 7.67321L88.5907 11.1719C89.9992 20.4979 91.0557 29.8466 91.9985 39.1953C93.231 51.6906 94.3442 64.2313 96.1219 76.6414C96.4627 78.8564 96.7751 81.0772 97.167 83.2752L97.7349 86.5921C97.962 87.7824 98.1006 88.9879 98.1495 90.1987C98.2042 91.5382 98.0117 92.8763 97.5816 94.1461C97.1326 95.3702 96.5007 96.5191 95.7073 97.5539C94.969 98.5478 94.2136 99.4225 93.4355 100.269C92.6573 101.115 91.9019 101.973 91.1181 102.813C88.6588 105.386 86.0803 107.834 83.4336 110.197C80.7869 112.56 78.0492 114.775 75.3059 116.973C69.8251 121.357 64.3215 125.617 59.2155 130.246C58.0796 131.319 56.8754 132.382 55.7622 133.5C55.1943 134.068 54.6263 134.591 54.0583 135.165L51.8206 137.499L51.0481 138.305L50.9516 138.402C50.9516 138.402 50.9175 138.447 50.9005 138.442H50.838L50.5881 138.317L50.0882 138.067L48.0947 137.079L45.9251 136.005L41.6142 133.853C35.8626 130.979 30.1223 128.071 24.3935 125.129C18.7819 122.243 13.1364 119.358 7.45105 116.541C4.61122 115.132 1.75999 113.745 -1.10255 112.378C-1.81251 112.031 -2.52246 111.713 -3.2949 111.316C-4.13542 110.896 -4.92288 110.377 -5.6406 109.771C-6.44727 109.069 -7.08424 108.193 -7.50355 107.209C-7.86593 106.327 -8.11772 105.404 -8.25323 104.46C-8.38386 103.62 -8.39521 102.876 -8.45769 102.109C-8.49551 101.364 -8.61357 100.625 -8.80983 99.9052V99.9564L-9.03703 98.9397V98.9908C-9.41756 93.953 -10.3263 89.023 -11.0533 84.0363C-12.5357 73.6709 -14.5123 63.4418 -15.8867 52.9288C-16.5569 47.8171 -17.4031 42.3305 -18.3857 36.8553C-19.1809 32.4593 -19.6012 27.0806 -20.4986 22.7811C-21.5777 17.4763 -20.7599 17.6069 -20.2146 16.5335C-20.0102 16.1359 -19.7488 16.3801 -19.4535 16.7948C-18.6924 17.8512 -17.9314 20.1117 -17.1816 19.4528C-16.7557 19.078 -16.4717 21.8667 -16.2332 23.3093C-12.4392 47.8 -7.71369 72.2851 -4.87386 97.1449L-4.18657 103.495C-4.12842 104.306 -3.93651 105.103 -3.61861 105.852C-3.48507 106.123 -3.30866 106.37 -3.09612 106.585C-2.83525 106.847 -2.54564 107.08 -2.2328 107.277C-1.40491 107.781 -0.547636 108.234 0.334415 108.635L3.17425 110.049L8.89932 112.861L31.7884 124.146L42.9376 129.729L48.5037 132.535L50.0315 133.273L50.111 133.324C50.111 133.324 50.145 133.324 50.1678 133.29L51.0538 132.382C57.0345 126.361 63.6683 121.142 70.1204 115.967C73.9826 112.866 77.7937 109.799 81.423 106.59C85.031 103.411 88.4449 100.018 91.6463 96.4293C92.4006 95.6107 93.0598 94.7095 93.6115 93.7428C94.0841 92.8843 94.3505 91.9276 94.3896 90.9484C94.4294 89.8068 94.3457 88.6642 94.1397 87.5406L93.5377 83.775C92.7501 78.705 92.0704 73.6349 91.4987 68.5649C90.7717 62.2321 90.1582 55.8368 89.2665 49.5323V49.6062Z" fill="#90CAF9"/>
<path d="M45.9138 96.8665C46.0558 98.1445 46.1637 99.4224 46.3454 100.689C46.9134 104.438 47.1406 108.215 47.4814 111.98C47.8449 115.956 48.356 119.96 48.6741 123.953C48.9126 126.963 49.2421 129.973 49.1853 133.006C49.2243 133.612 49.3078 134.213 49.4351 134.807C49.4692 135.045 49.5544 135.375 49.225 135.431C48.2481 135.613 47.2939 135.999 46.2659 135.829C46.0832 135.813 45.9135 135.728 45.792 135.59C45.6704 135.453 45.6062 135.274 45.6127 135.091C45.3969 131.785 45.1697 128.485 44.9766 125.185C44.8858 123.669 45.0164 122.124 44.7835 120.642C44.3689 117.938 44.2156 115.206 43.9145 112.497C43.4374 108.18 42.648 103.909 42.3469 99.5757C42.1425 96.6791 41.9551 93.7768 41.6086 90.8915C41.3587 88.8241 41.0406 86.7681 40.8078 84.7007C40.4613 81.4917 40.0524 78.2827 39.6718 75.0794C39.3027 72.1316 39.0073 69.1782 38.8767 66.202C38.8319 63.2684 38.4759 60.3479 37.8146 57.4895C37.7237 57.143 37.9509 56.7568 37.6442 56.4501L37.5022 56.2229C37.576 55.0415 37.1728 53.9113 37.0478 52.7526C36.7809 50.3444 36.2697 47.976 36.3436 45.5054C36.3837 44.2509 36.273 42.9962 36.0141 41.7682C35.7926 40.7572 36.0141 39.4963 35.5881 38.5137C35.077 37.321 35.8664 37.2926 36.5139 36.9972C36.6291 36.9494 36.7527 36.9248 36.8774 36.9248C37.0022 36.9248 37.1257 36.9494 37.2409 36.9972C37.8827 37.1903 38.3769 37.6788 39.2174 37.4686C39.6775 37.3437 39.6775 37.9968 39.7457 38.3319C40.8248 44.0116 41.2394 49.7367 41.8017 55.4618C42.1879 59.3694 42.7445 63.2657 43.1478 67.1733C43.5454 70.99 43.6703 74.8408 44.2383 78.6292C44.5738 80.8879 44.788 83.1631 44.8801 85.4447C44.971 87.7961 45.2152 90.1361 45.3799 92.4818C45.4328 93.9579 45.623 95.4258 45.9479 96.8665H45.9138Z" fill="#90CAF9"/>
<path d="M-12.7686 115.666C-10.6444 116.354 -8.53729 117.081 -6.4131 117.74C-0.131392 119.688 6.03101 121.948 12.2275 124.101C18.7932 126.373 25.4157 128.508 31.9928 130.718C36.9398 132.387 41.9379 133.932 46.8337 135.693C47.8303 136.006 48.8427 136.265 49.8667 136.471C50.2756 136.573 50.8379 136.67 50.7981 137.005C50.6675 137.999 50.9061 139.089 50.1847 139.93C49.8724 140.288 49.3498 140.31 48.6739 140.112C43.1192 138.47 37.6497 136.67 32.2029 134.784C29.7039 133.921 27.2844 132.825 24.7739 132.081C20.2302 130.723 15.7717 129.087 11.2791 127.588C4.13973 125.197 -3.0848 123.078 -10.1617 120.562L-13.7228 119.307L-15.5006 118.688L-16.8182 118.245L-17.5907 117.989C-17.7157 117.944 -17.8519 117.904 -17.9712 117.853L-18.0621 117.456L-19.9363 109.311L-21.1916 104.029C-21.6062 102.268 -22.0094 100.502 -22.3672 98.7297C-23.5032 93.2147 -24.6392 87.6998 -25.6047 82.1621C-26.5305 77.0788 -27.3086 71.9387 -27.8084 66.827C-28.3309 61.7835 -28.808 56.6775 -29.7906 51.6794C-29.9042 51.0716 -29.7054 50.4128 -30.0348 49.8619L-30.1882 49.4586C-30.1882 47.4083 -30.6596 45.4204 -30.8527 43.3984C-31.0458 41.3765 -31.2559 39.275 -31.4604 37.2133C-31.5115 36.7021 -31.5512 36.1853 -31.5853 35.6684L-31.7216 33.459C-31.8466 31.403 -31.9432 29.3697 -32 27.4727L-31.5456 27.6828C-29.6259 28.5631 -27.7743 29.3867 -25.8944 30.1818L-24.8663 30.6135L-24.0996 30.9202C-23.5827 31.119 -23.0602 31.3121 -22.532 31.4882C-20.8281 32.0561 -18.9878 33.1921 -17.2499 33.5953C-15.1143 34.0667 -15.5005 34.7313 -15.3983 35.5321C-15.3585 35.8218 -15.546 35.9921 -15.8016 36.1455C-16.4604 36.5431 -17.5055 36.6169 -17.6191 37.4632C-17.6815 37.9516 -18.6982 37.4632 -19.2491 37.2587C-21.1423 36.5847 -23.0166 35.8842 -24.872 35.1572L-26.2692 34.5893L-26.9508 34.3223H-27.0587V34.3848L-27.0132 35.0948L-26.6838 39.5476C-26.574 41.0319 -26.4547 42.5143 -26.326 43.9948C-26.201 45.4772 -26.0818 46.9596 -25.9341 48.442C-25.2866 55.1951 -24.3268 61.9198 -23.3839 68.6389C-22.4638 75.1989 -21.68 81.7986 -20.3055 88.2734C-19.499 92.1394 -18.7682 96.0016 -18.1132 99.8599C-17.7667 101.865 -17.3805 103.836 -16.9773 105.852L-15.7107 111.81L-15.0292 114.934V115.03C-15.0292 115.03 -14.9667 115.03 -14.9383 115.059H-14.8417H-14.7679L-14.6713 115.087C-14.0579 115.263 -13.4332 115.428 -12.8084 115.57L-12.7686 115.666Z" fill="#90CAF9"/>
<path d="M101.972 62.6467C101.699 60.4032 101.461 58.1484 101.149 55.9106C100.223 49.2938 99.5753 42.6543 98.7631 36.0318C97.8941 29.0231 96.7923 22.0484 95.6393 15.1136L95.0713 11.6263L94.9066 10.4903C94.9066 10.4903 94.9066 10.4279 94.9066 10.4222L94.8725 10.4563L94.793 10.5187L94.6283 10.655L94.2477 10.9561L94.1399 11.0413L94.0944 11.0867L93.9183 11.2571L93.197 11.95L91.7317 13.3075C90.9592 14.0231 90.289 14.8807 89.5677 15.6759C89.2724 15.9939 88.9088 16.4483 88.6362 16.2438C87.824 15.6759 86.7563 15.3465 86.3644 14.3014C86.1996 13.8527 86.4325 13.3756 86.9323 12.8758L90.0221 9.76902L91.726 8.03673L94.6283 5.06059L96.0539 3.59523L96.7639 2.86823C96.9797 2.69784 97.3318 2.1242 97.2977 2.71489L98.0644 6.69065L98.8142 10.5699L98.8994 11.0299L98.9448 11.3025L99.03 11.8705L99.2061 12.961C99.6434 15.6248 99.7741 18.334 100.302 20.958C101.177 25.7232 101.756 30.5282 102.387 35.3105C103.415 42.9212 104.659 50.4865 105.386 58.1143C105.885 63.226 106.362 68.3377 107.044 73.3983C107.288 75.2158 107.555 77.0276 107.834 78.8337L108.646 84.2635C108.846 85.672 109.062 87.0749 109.293 88.4721L109.634 90.5736C109.742 91.2608 109.89 92.0105 109.958 92.8454C110.052 93.7657 109.989 94.6954 109.77 95.5944C109.513 96.5213 109.075 97.388 108.481 98.1446C107.958 98.8375 107.447 99.3714 106.982 99.8996L105.556 101.496C103.807 103.442 102.04 105.377 100.257 107.3L97.559 110.14C96.6503 111.094 95.7586 112.031 94.7817 112.98C91.0331 116.683 86.9721 120.074 82.985 123.521C82.4965 123.93 81.8093 124.089 81.4742 124.657L81.1845 124.998C79.3386 126.037 77.737 127.406 75.9365 128.497C72.2163 130.769 68.5075 133.04 64.4409 134.665C63.4583 135.068 62.4417 135.494 61.425 135.96C60.4084 136.425 59.386 136.937 58.3807 137.471C56.7676 138.345 54.6151 138.925 53.11 139.936C51.2584 141.179 51.0255 140.424 50.3894 139.964C50.1509 139.799 50.1565 139.544 50.2247 139.248C50.4007 138.493 51.0823 137.675 50.5428 137.01C50.2304 136.636 51.3039 136.232 51.8377 135.96C60.8741 131.416 70.041 127.287 78.2765 121.715C81.0742 119.81 83.7438 117.723 86.2678 115.468C86.8926 114.9 87.5287 114.332 88.1364 113.764L89.9483 111.997C90.5503 111.429 91.0842 110.776 91.6976 110.168L92.5666 109.254L93.4469 108.3C95.7187 105.801 98.0815 103.353 100.41 100.888L103.875 97.1733C104.4 96.6352 104.893 96.0662 105.351 95.4694C105.499 95.2595 105.621 95.0326 105.715 94.7936C105.79 94.5812 105.836 94.3595 105.851 94.1347C105.87 93.3315 105.794 92.5289 105.624 91.7436C105.473 90.744 105.316 89.7462 105.153 88.7504C104.846 86.7511 104.619 84.7462 104.409 82.747C103.983 78.5952 103.46 74.466 103.04 70.3313C102.779 67.747 102.54 65.14 102.023 62.5899L101.972 62.6467Z" fill="#90CAF9"/>
<path d="M66.5993 87.1828L66.3267 84.1726C66.2301 83.1162 66.0938 82.0541 65.9575 80.9977C65.1113 74.7501 64.3274 68.5024 63.3789 62.2548C62.368 55.6153 61.1071 48.9871 60.204 42.2965C59.5054 37.2643 58.7898 32.2037 58.5797 27.1204C58.5456 26.1094 58.3354 25.0871 58.2105 24.0704C58.1537 23.6615 58.0457 23.1163 58.3751 23.0367C59.3464 22.8152 60.2835 22.2416 61.3286 22.6051C61.7773 22.7641 61.9818 23.2185 62.0386 23.883C62.4532 29.3696 63.0723 34.8504 63.7425 40.354C64.0605 42.8701 64.1741 45.4316 64.6512 47.9137C65.5145 52.4119 66.1506 56.9557 66.923 61.4767C68.0987 68.6728 69.4959 75.869 70.098 83.1844L70.3593 86.8648C70.5183 88.9492 70.6148 91.0677 70.7511 93.1124L70.842 94.6573L70.8931 95.4297V95.8159V95.9068C70.8931 95.9068 70.8931 95.9522 70.8931 95.9466L70.8534 95.9125L70.7 95.7932L68.2351 93.8508L63.5153 90.1533L62.4759 89.3582L62.2146 89.1594L62.1124 89.0855L61.959 88.9719L61.6807 88.7845L61.6126 88.7391C61.6126 88.7391 61.5672 88.705 61.5615 88.7391L61.482 88.9038L61.0389 89.8636C60.6811 90.619 60.3631 91.3915 60.045 92.1639C58.8132 95.2136 57.9791 98.4091 57.563 101.672H53.8371L52.9113 95.7875C52.1332 90.8689 51.4346 85.939 50.8951 80.9693C50.4416 76.0763 49.6829 71.2164 48.6232 66.418C48.4869 65.85 48.6572 65.1969 48.3108 64.7141L48.1404 64.3336C48.0496 62.357 47.4929 60.4714 47.2033 58.5346C46.6353 54.5077 45.7606 50.549 45.4994 46.4369C45.367 44.3368 45.0841 42.249 44.6531 40.1893C44.2896 38.4854 44.3294 36.3839 43.7784 34.7539C43.0969 32.749 43.8864 32.7262 44.4998 32.2492C44.7269 32.0674 44.9712 32.1412 45.2325 32.2492C45.9083 32.5956 46.5047 33.4248 47.2942 33.0897C47.7429 32.8966 47.8621 33.9871 47.9416 34.5437C49.8102 44.0117 51.02 53.5933 52.3774 63.1522C53.2976 69.6838 54.3994 76.187 55.3479 82.713C56.2282 88.8186 56.87 94.9697 57.881 101.036H53.5304L53.644 100.178C54.1856 96.1784 55.3952 92.2982 57.2222 88.6993C57.5687 88.0177 58.4888 86.2684 59.4146 84.7235L60.1018 83.5535L60.2722 83.2582L60.3574 83.1105L60.3971 83.0424V83.0083H60.4312L60.9992 83.4286C61.7205 83.9965 62.4304 84.5134 63.1517 85.1041L66.0314 87.4157L66.4289 87.7906L66.7356 88.0859C66.7356 88.0859 66.7925 88.1427 66.8152 88.1484V88.0689V87.8814C66.8092 87.6114 66.7391 87.3466 66.6106 87.109L66.5993 87.1828Z" fill="#90CAF9"/>
</svg>
