<svg width="69" height="77" viewBox="0 0 69 77" fill="none" xmlns="http://www.w3.org/2000/svg">
<path d="M49.7831 16.835C57.9831 24.535 67.4331 31.585 68.3331 39.535C69.2331 47.485 61.5831 56.285 53.3331 63.435C45.0831 70.535 36.2831 75.985 27.1831 76.235C18.0831 76.485 8.68313 71.635 4.08313 64.485C-0.466871 57.385 -0.26687 47.985 0.28313 39.185C0.83313 30.385 1.73313 22.085 6.28313 14.335C10.8831 6.63504 19.1831 -0.564958 26.8331 0.0350424C34.4831 0.685042 41.5331 9.08504 49.7831 16.835Z" fill="#F25C54"/>
<path fill-rule="evenodd" clip-rule="evenodd" d="M45.1001 40.1349C45.1001 32.3109 38.7571 25.9683 30.9331 25.9683C23.1093 25.9683 16.7666 32.3109 16.7666 40.1349C16.7666 47.9589 23.1093 54.3014 30.9331 54.3014C31.1191 54.3014 31.2851 54.2334 31.4451 54.0494C31.6226 53.8449 31.7666 53.5114 31.7666 53.1124V50.1349C31.7666 45.0724 35.8706 40.9684 40.9331 40.9684H43.9111C44.3101 40.9684 44.6431 40.8244 44.8481 40.6464C45.0321 40.4864 45.1001 40.3204 45.1001 40.1349ZM47.6001 40.1349C47.6001 42.0874 45.8636 43.4684 43.9111 43.4684H40.9331C37.2516 43.4684 34.2666 46.4529 34.2666 50.1349V53.1124C34.2666 55.0649 32.8856 56.8014 30.9331 56.8014C21.7285 56.8014 14.2666 49.3394 14.2666 40.1349C14.2666 30.9302 21.7285 23.4683 30.9331 23.4683C40.1381 23.4683 47.6001 30.9302 47.6001 40.1349Z" fill="#FEF1F1"/>
<path fill-rule="evenodd" clip-rule="evenodd" d="M30.9331 34.3018C32.3136 34.3018 33.4331 33.1825 33.4331 31.8018C33.4331 30.4211 32.3136 29.3018 30.9331 29.3018C29.5526 29.3018 28.4331 30.4211 28.4331 31.8018C28.4331 33.1825 29.5526 34.3018 30.9331 34.3018Z" fill="#FEF1F1"/>
<path fill-rule="evenodd" clip-rule="evenodd" d="M38.4331 38.4683C39.8136 38.4683 40.9331 37.3489 40.9331 35.9683C40.9331 34.5876 39.8136 33.4683 38.4331 33.4683C37.0526 33.4683 35.9331 34.5876 35.9331 35.9683C35.9331 37.3489 37.0526 38.4683 38.4331 38.4683Z" fill="#FEF1F1"/>
<path fill-rule="evenodd" clip-rule="evenodd" d="M23.4331 39.3016C24.8138 39.3016 25.9331 38.1824 25.9331 36.8018C25.9331 35.4211 24.8138 34.3018 23.4331 34.3018C22.0524 34.3018 20.9331 35.4211 20.9331 36.8018C20.9331 38.1824 22.0524 39.3016 23.4331 39.3016Z" fill="#FEF1F1"/>
<path fill-rule="evenodd" clip-rule="evenodd" d="M25.0996 48.4687C26.4803 48.4687 27.5996 47.3492 27.5996 45.9687C27.5996 44.5877 26.4803 43.4688 25.0996 43.4688C23.7189 43.4688 22.5996 44.5877 22.5996 45.9687C22.5996 47.3492 23.7189 48.4687 25.0996 48.4687Z" fill="#FEF1F1"/>
</svg>
