<svg width="178" height="176" viewBox="0 0 178 176" fill="#90CAF9" xmlns="http://www.w3.org/2000/svg">
<path d="M151.173 61.84C150.465 54.9579 149.757 48.0757 148.943 41.2219C147.732 31.097 146.55 20.9862 145.063 10.9533L144.787 9.11952L144.702 8.53893L144.659 8.24863C144.659 8.17075 144.659 8.19199 144.617 8.20615H144.574L144.185 8.45397L141.062 10.6206C136.885 13.533 132.717 16.4666 128.559 19.4215L102.142 38.3261C97.7282 41.4697 93.2935 44.5898 88.8376 47.6863L87.3295 48.7271L86.5648 49.2582L86.1825 49.5272L85.7718 49.3148L82.8547 47.8279L79.2508 46.0083L72.0076 42.4256C64.7101 38.8571 57.3559 35.3995 49.9451 32.0528C46.2491 30.3819 42.5462 28.718 38.836 27.0966C36.9739 26.3036 35.1188 25.4964 33.2567 24.7247C32.3292 24.3281 31.4016 23.9529 30.467 23.5776L29.0509 23.0112C28.6119 22.8484 28.1729 22.6784 27.7198 22.5368C24.8438 21.6112 21.7917 21.3687 18.8056 21.8288C17.6161 21.9775 16.1292 22.4873 15.8744 22.1403C15.4142 21.6299 14.9147 21.1564 14.3804 20.7242C14.2408 20.6102 14.1255 20.4692 14.0414 20.3097C13.9574 20.1502 13.9062 19.9755 13.891 19.7958C13.8758 19.6162 13.8969 19.4353 13.953 19.2639C14.0091 19.0926 14.0991 18.9343 14.2176 18.7984C14.699 18.0903 16.3983 17.2761 18.8693 17.0283C21.3733 16.8003 23.8973 16.941 26.3604 17.446C27.5748 17.6926 28.7716 18.019 29.943 18.4231L30.8068 18.7276L31.5927 19.0391L33.1788 19.648C37.427 21.3048 41.5124 23.0678 45.619 24.8804C53.8322 28.4914 61.9039 32.3007 69.9684 36.209C73.6573 38.0074 77.3108 39.8979 80.9501 41.7954L83.676 43.2115L85.0355 43.9196L85.347 44.0824L85.4532 44.139L85.6585 44.2594C85.8002 44.401 85.9276 44.2594 86.0621 44.1744L86.8905 43.608C87.726 43.0274 88.5615 42.4468 89.3828 41.8521L125.337 16.1645L139.632 5.92627L144.489 2.50646L147.626 0.304451L148.015 0.0353932L148.065 0C148.065 0 148.065 -1.72766e-06 148.065 0.0424805V0.148682V0.361084L148.207 1.21783L148.497 2.9242L149.623 9.56557L150.331 13.9271C152.087 25.5531 153.404 37.2073 154.579 48.8616C156.115 64.4385 157.503 80.0719 159.719 95.5426C160.144 98.3039 160.533 101.072 161.022 103.812L161.73 107.947C162.013 109.431 162.186 110.934 162.247 112.443C162.315 114.113 162.075 115.781 161.539 117.364C160.979 118.89 160.191 120.323 159.202 121.612C158.282 122.852 157.34 123.942 156.37 124.997C155.4 126.052 154.458 127.121 153.481 128.169C150.416 131.376 147.201 134.428 143.902 137.373C140.602 140.319 137.189 143.08 133.77 145.82C126.937 151.286 120.076 156.597 113.711 162.367C112.295 163.705 110.794 165.029 109.406 166.424C108.698 167.132 107.99 167.784 107.282 168.499L104.492 171.409L103.529 172.414L103.409 172.535C103.409 172.535 103.367 172.591 103.345 172.584H103.267L102.956 172.428L102.333 172.117L99.8476 170.885L97.1429 169.547L91.7689 166.863C84.5989 163.28 77.4429 159.655 70.3012 155.988C63.3058 152.391 56.2679 148.794 49.1805 145.282C45.6403 143.526 42.0859 141.796 38.5174 140.092C37.6323 139.66 36.7473 139.264 35.7844 138.768C34.7365 138.245 33.7549 137.598 32.8602 136.842C31.8545 135.967 31.0605 134.875 30.5378 133.649C30.086 132.55 29.7721 131.399 29.6032 130.222C29.4404 129.174 29.4262 128.247 29.3483 127.291C29.3012 126.362 29.154 125.441 28.9093 124.544V124.607L28.6261 123.34V123.404C28.1517 117.124 27.0188 110.978 26.1125 104.761C24.2646 91.8395 21.8006 79.0878 20.0871 65.982C19.2517 59.6097 18.1967 52.77 16.9718 45.9445C15.9806 40.4643 15.4566 33.7592 14.3379 28.3994C12.9926 21.7863 14.0122 21.9491 14.6919 20.611C14.9468 20.1153 15.2726 20.4198 15.6407 20.9367C16.5895 22.2536 17.5383 25.0716 18.4729 24.2503C19.0039 23.783 19.3579 27.2594 19.6552 29.0579C24.3849 59.5884 30.2758 90.1119 33.816 121.103L34.6728 129.019C34.7453 130.03 34.9845 131.023 35.3808 131.957C35.5473 132.294 35.7672 132.603 36.0322 132.87C36.3574 133.198 36.7184 133.487 37.1084 133.734C38.1404 134.362 39.2091 134.927 40.3087 135.426L43.8489 137.189L50.9859 140.694L79.5198 154.763L93.4186 161.723L100.357 165.221L102.262 166.141L102.361 166.205C102.361 166.205 102.404 166.205 102.432 166.162L103.536 165.029C110.992 157.524 119.262 151.017 127.305 144.567C132.12 140.701 136.871 136.878 141.395 132.877C145.893 128.914 150.149 124.684 154.14 120.211C155.08 119.19 155.902 118.067 156.59 116.862C157.179 115.791 157.511 114.599 157.56 113.378C157.609 111.955 157.505 110.53 157.248 109.13L156.498 104.436C155.516 98.1151 154.669 91.7947 153.956 85.4743C153.049 77.5797 152.285 69.6071 151.173 61.7479V61.84Z" />
<path d="M97.1288 120.756C97.3058 122.349 97.4403 123.942 97.6669 125.521C98.3749 130.194 98.6581 134.902 99.083 139.597C99.5361 144.553 100.173 149.545 100.57 154.522C100.867 158.275 101.278 162.027 101.207 165.808C101.256 166.563 101.36 167.313 101.519 168.053C101.561 168.35 101.667 168.761 101.257 168.831C100.039 169.058 98.8493 169.54 97.5677 169.327C97.3399 169.307 97.1284 169.201 96.9769 169.029C96.8254 168.858 96.7454 168.635 96.7535 168.407C96.4844 164.286 96.2012 160.172 95.9605 156.058C95.8472 154.168 96.0101 152.242 95.7198 150.394C95.2029 147.024 95.0117 143.618 94.6365 140.241C94.0417 134.86 93.0575 129.535 92.6823 124.133C92.4274 120.522 92.1938 116.904 91.7619 113.307C91.4503 110.73 91.0538 108.167 90.7635 105.59C90.3316 101.589 89.8218 97.5888 89.3474 93.5954C88.8872 89.9207 88.519 86.2389 88.3562 82.5288C88.3004 78.8717 87.8565 75.2309 87.0322 71.6675C86.9189 71.2356 87.202 70.7541 86.8197 70.3718L86.6427 70.0886C86.7347 68.6159 86.2321 67.2069 86.0763 65.7625C85.7435 62.7604 85.1063 59.8079 85.1984 56.7279C85.2483 55.1641 85.1104 53.6 84.7876 52.0691C84.5115 50.8088 84.7876 49.2369 84.2566 48.012C83.6194 46.5251 84.6036 46.4897 85.4107 46.1215C85.5544 46.0619 85.7084 46.0312 85.8639 46.0312C86.0194 46.0312 86.1734 46.0619 86.317 46.1215C87.1171 46.3623 87.7331 46.9712 88.781 46.7092C89.3545 46.5534 89.3545 47.3677 89.4395 47.7854C90.7848 54.8658 91.3016 62.0028 92.0026 69.1398C92.4841 74.0111 93.1779 78.8683 93.6806 83.7395C94.1763 88.4976 94.3321 93.2981 95.0401 98.0207C95.4583 100.837 95.7254 103.673 95.8402 106.517C95.9535 109.448 96.2579 112.365 96.4633 115.29C96.5292 117.13 96.7662 118.96 97.1713 120.756H97.1288Z" />
<path d="M23.9742 144.192C26.6223 145.049 29.2491 145.955 31.8971 146.776C39.728 149.205 47.4102 152.023 55.1349 154.706C63.3198 157.538 71.5755 160.201 79.7746 162.955C85.9416 165.036 92.1723 166.962 98.2756 169.157C99.518 169.547 100.78 169.871 102.057 170.127C102.566 170.255 103.267 170.375 103.218 170.793C103.055 172.032 103.352 173.391 102.453 174.439C102.064 174.885 101.412 174.914 100.57 174.666C93.645 172.62 86.8266 170.375 80.0366 168.024C76.9212 166.948 73.905 165.582 70.7755 164.654C65.1112 162.962 59.5531 160.923 53.9525 159.054C45.0525 156.073 36.0462 153.432 27.2241 150.295L22.7847 148.73L20.5685 147.959L18.9259 147.406L17.9629 147.088C17.8071 147.031 17.6373 146.981 17.4886 146.918L17.3753 146.422L15.0388 136.269L13.474 129.684C12.9571 127.489 12.4544 125.287 12.0084 123.078C10.5923 116.203 9.17617 109.328 7.97251 102.425C6.81841 96.0878 5.84839 89.68 5.22532 83.3077C4.57392 77.0203 3.97918 70.6551 2.75428 64.4243C2.61267 63.6667 2.86053 62.8454 2.44987 62.1586L2.25868 61.6559C2.25868 59.0999 1.67098 56.6218 1.43025 54.1012C1.18952 51.5806 0.927581 48.9608 0.672687 46.3906C0.608964 45.7534 0.559422 45.1091 0.51694 44.4648L0.347018 41.7105C0.19125 39.1474 0.0708037 36.6126 0 34.2478L0.566464 34.5098C2.95963 35.6072 5.2678 36.6339 7.6114 37.6251L8.89299 38.1632L9.84882 38.5456C10.4931 38.7934 11.1445 39.0341 11.803 39.2536C13.9271 39.9617 16.2212 41.3777 18.3878 41.8804C21.05 42.4681 20.5686 43.2965 20.696 44.2949C20.7456 44.656 20.5119 44.8684 20.1932 45.0595C19.3719 45.5552 18.0692 45.6472 17.9276 46.7022C17.8497 47.3111 16.5823 46.7022 15.8955 46.4473C13.5354 45.6071 11.1988 44.7338 8.8859 43.8275L7.14416 43.1195L6.29446 42.7867H6.15998V42.8646L6.21659 43.7497L6.62731 49.3007C6.76419 51.151 6.91288 52.999 7.07337 54.8446C7.22914 56.6926 7.37779 58.5406 7.56188 60.3885C8.36904 68.8071 9.56562 77.1903 10.741 85.5663C11.888 93.7442 12.8651 101.972 14.5786 110.043C15.584 114.863 16.495 119.677 17.3116 124.487C17.7435 126.987 18.2249 129.443 18.7276 131.957L20.3065 139.384L21.1562 143.278V143.399C21.1562 143.399 21.2341 143.399 21.2695 143.434H21.3899H21.4819L21.6022 143.47C22.3669 143.689 23.1458 143.894 23.9246 144.071L23.9742 144.192Z" />
<path d="M167.012 78.0965C166.672 75.2998 166.375 72.4889 165.985 69.6992C164.831 61.4506 164.024 53.1736 163.012 44.9179C161.928 36.1807 160.555 27.486 159.118 18.8409L158.409 14.4935L158.204 13.0775C158.204 13.0775 158.204 12.9996 158.204 12.9925L158.162 13.035L158.063 13.1129L157.857 13.2828L157.383 13.6581L157.248 13.7643L157.192 13.8209L156.972 14.0333L156.073 14.8971L154.246 16.5893C153.283 17.4814 152.448 18.5506 151.549 19.5418C151.18 19.9383 150.727 20.5048 150.387 20.2499C149.375 19.5418 148.044 19.1312 147.555 17.8284C147.35 17.269 147.64 16.6743 148.263 16.0512L152.115 12.1782L154.239 10.0187L157.857 6.30862L159.634 4.48187L160.519 3.57559C160.788 3.36318 161.227 2.64807 161.185 3.38443L162.141 8.34069L163.075 13.1766L163.182 13.7501L163.238 14.0899L163.344 14.798L163.564 16.1574C164.109 19.4781 164.272 22.8554 164.93 26.1266C166.021 32.067 166.743 38.057 167.529 44.0187C168.811 53.5064 170.361 62.9374 171.267 72.4464C171.89 78.8187 172.485 85.191 173.335 91.4997C173.639 93.7654 173.972 96.024 174.319 98.2756L175.332 105.044C175.582 106.8 175.851 108.549 176.139 110.291L176.563 112.911C176.698 113.767 176.882 114.702 176.967 115.743C177.085 116.89 177.006 118.049 176.733 119.17C176.413 120.325 175.867 121.406 175.126 122.349C174.475 123.213 173.838 123.878 173.257 124.537L171.48 126.526C169.299 128.952 167.097 131.365 164.874 133.762L161.511 137.303C160.378 138.492 159.266 139.66 158.048 140.843C153.375 145.459 148.313 149.686 143.342 153.984C142.734 154.494 141.877 154.692 141.459 155.4L141.098 155.825C138.797 157.121 136.8 158.827 134.556 160.186C129.918 163.019 125.295 165.851 120.225 167.876C119 168.378 117.733 168.909 116.465 169.49C115.198 170.071 113.923 170.708 112.67 171.373C110.659 172.464 107.976 173.186 106.1 174.446C103.791 175.997 103.501 175.055 102.708 174.482C102.411 174.276 102.418 173.958 102.503 173.59C102.722 172.648 103.572 171.628 102.899 170.8C102.51 170.333 103.848 169.83 104.514 169.49C115.779 163.826 127.206 158.678 137.473 151.732C140.96 149.357 144.288 146.755 147.435 143.944C148.214 143.236 149.007 142.528 149.764 141.82L152.023 139.618C152.774 138.91 153.439 138.096 154.204 137.338L155.287 136.198L156.384 135.009C159.217 131.893 162.162 128.842 165.065 125.769L169.384 121.138C170.039 120.467 170.654 119.758 171.225 119.014C171.409 118.752 171.561 118.469 171.678 118.171C171.772 117.907 171.829 117.63 171.848 117.35C171.872 116.349 171.777 115.348 171.565 114.369C171.376 113.123 171.18 111.879 170.977 110.638C170.595 108.146 170.312 105.646 170.05 103.154C169.519 97.9782 168.867 92.8308 168.343 87.6763C168.017 84.4547 167.72 81.2048 167.076 78.0257L167.012 78.0965Z" />
<path d="M122.916 108.684L122.576 104.931C122.455 103.614 122.286 102.29 122.116 100.973C121.061 93.1847 120.084 85.3963 118.901 77.6079C117.641 69.3309 116.069 61.0681 114.943 52.7274C114.072 46.4542 113.18 40.1456 112.918 33.8087C112.876 32.5484 112.614 31.2739 112.458 30.0065C112.387 29.4967 112.253 28.817 112.663 28.7179C113.874 28.4418 115.042 27.7266 116.345 28.1798C116.904 28.378 117.159 28.9445 117.23 29.7729C117.747 36.6125 118.519 43.4451 119.354 50.3059C119.751 53.4426 119.892 56.6358 120.487 59.7299C121.563 65.3376 122.356 71.0019 123.319 76.6379C124.785 85.6087 126.527 94.5795 127.277 103.699L127.603 108.287C127.801 110.886 127.922 113.527 128.091 116.076L128.205 118.001L128.268 118.964V119.446V119.559C128.268 119.559 128.268 119.616 128.268 119.609L128.219 119.566L128.028 119.417L124.955 116.996L119.071 112.387L117.775 111.395L117.45 111.148L117.322 111.056L117.131 110.914L116.784 110.68L116.699 110.624C116.699 110.624 116.643 110.581 116.635 110.624L116.536 110.829L115.984 112.026C115.538 112.967 115.141 113.93 114.745 114.893C113.209 118.695 112.17 122.678 111.651 126.746H107.006L105.852 119.41C104.882 113.279 104.011 107.133 103.339 100.938C102.773 94.838 101.827 88.7795 100.506 82.7978C100.336 82.0898 100.549 81.2755 100.117 80.6737L99.9045 80.1993C99.7913 77.7353 99.0974 75.3846 98.7363 72.9702C98.0282 67.9502 96.9378 63.0152 96.6122 57.889C96.4471 55.271 96.0945 52.6682 95.5572 50.1006C95.104 47.9765 95.1536 45.3568 94.4668 43.3247C93.6171 40.8253 94.6013 40.797 95.366 40.2023C95.6492 39.9757 95.9537 40.0677 96.2794 40.2023C97.122 40.6342 97.8654 41.6679 98.8496 41.2501C99.4089 41.0094 99.5575 42.3689 99.6567 43.0627C101.986 54.8657 103.494 66.8103 105.186 78.7266C106.333 86.869 107.707 94.976 108.889 103.111C109.987 110.723 110.787 118.391 112.047 125.953H106.624L106.765 124.884C107.441 119.898 108.948 115.061 111.226 110.574C111.658 109.724 112.805 107.544 113.959 105.618L114.816 104.159L115.028 103.791L115.134 103.607L115.184 103.522V103.48H115.226L115.935 104.003C116.834 104.712 117.719 105.356 118.618 106.092L122.208 108.974L122.703 109.441L123.086 109.809C123.086 109.809 123.156 109.88 123.185 109.887V109.788V109.555C123.177 109.218 123.09 108.888 122.93 108.592L122.916 108.684Z" />
</svg>
