<svg width="106" height="192" viewBox="0 0 106 192" fill="none" xmlns="http://www.w3.org/2000/svg">
<rect x="0.5" y="0.5" width="104.931" height="191" stroke="#FD2B25"/>
<rect width="105.931" height="13.2414" fill="#FD2B25"/>
<rect x="0.801758" y="97.7691" width="104.448" height="93.3562" fill="#FFCDD2"/>
<rect x="0.801758" y="12.7318" width="104.448" height="85.0373" fill="white"/>
<circle cx="52.9656" cy="56.9379" r="19.3621" stroke="#FD2B25"/>
<path d="M35.0896 49.6552H70.8413" stroke="#FD2B25"/>
<path d="M35 63.5586H70.8414" stroke="#FD2B25"/>
<path d="M52.9656 37.7379C55.1725 40.6069 59.5863 48.331 59.5863 56.2758C59.5863 59.4423 58.2621 67.8045 52.9656 75.922" stroke="#FD2B25"/>
<path d="M52.9655 38C50.7586 41.7517 47.0068 50.5821 47.0068 56.938C47.0068 60.2483 48.1986 68.7228 52.9655 76.138" stroke="#FD2B25"/>
<line x1="17.2139" y1="123.969" x2="33.1035" y2="123.969" stroke="#FD2B25"/>
<line x1="39.7244" y1="123.969" x2="74.152" y2="123.969" stroke="#FD2B25"/>
<line x1="33.1035" y1="134.562" x2="75.4759" y2="134.562" stroke="#FD2B25"/>
<line x1="80.7725" y1="134.562" x2="92.6897" y2="134.562" stroke="#FD2B25"/>
<line x1="33.1035" y1="143.831" x2="66.207" y2="143.831" stroke="#FD2B25"/>
<line x1="71.5034" y1="143.831" x2="87.3931" y2="143.831" stroke="#FD2B25"/>
<line x1="33.1035" y1="153.1" x2="55.6139" y2="153.1" stroke="#FD2B25"/>
<line x1="17.2136" y1="163.693" x2="42.3722" y2="163.693" stroke="#FD2B25"/>
</svg>
