<svg width="124" height="180" viewBox="0 0 124 180" fill="none" xmlns="http://www.w3.org/2000/svg">
<path d="M91.3969 126.853L91.4228 126.838L91.3969 126.853Z" fill="#7900DF"/>
<path d="M70.2737 132.265L70.2928 132.266L70.3065 132.263L70.2737 132.265Z" fill="#7900DF"/>
<path d="M60.7767 31.1145C60.6166 30.9248 60.6387 30.7038 61.0416 30.4072C61.8338 29.915 62.7018 29.5567 63.6106 29.3468C65.4463 28.8225 67.3254 28.4641 69.2252 28.2761C70.1434 28.1553 71.1175 28.127 72.0591 28.0769C73.0007 28.0269 73.9368 28.0439 74.8918 28.1089C78.6346 28.2913 82.3419 28.9227 85.934 29.9897L86.3597 30.1172C91.0086 31.5885 95.5608 33.4747 99.5578 36.2434C101.318 37.4567 103.01 38.7661 104.627 40.1657C106.231 41.5801 107.744 43.0941 109.157 44.6988C112.003 47.9286 114.318 51.589 116.018 55.5436C119.841 64.3447 121.398 73.9634 120.547 83.5212C119.485 94.904 115.6 105.842 109.243 115.344C107.891 117.36 106.406 119.283 104.798 121.101C103.179 122.944 101.406 124.646 99.499 126.188C97.5767 127.749 95.4989 129.108 93.2984 130.244C91.1111 131.372 88.8302 132.308 86.4812 133.042C83.2637 134.029 79.9717 134.754 76.6373 135.21C73.3399 135.685 70.0707 136.041 66.7175 136.234C64.2606 136.402 61.7957 136.419 59.3367 136.285C56.363 136.064 53.4991 135.755 50.5915 134.443C49.9903 134.166 49.2948 133.913 48.5676 133.596L47.4312 133.138L46.2594 132.622L45.6564 132.36L45.0624 132.072L43.8672 131.485C43.0986 131.053 42.3128 130.653 41.6176 130.188C37.6808 127.699 34.2962 124.526 31.0928 121.318C29.4463 119.666 27.9333 117.879 26.452 116.086L22.0298 110.721L22.0361 110.753C20.454 108.546 19.0353 106.166 17.68 103.844C16.1398 101.211 14.9555 98.3858 14.1582 95.4416L13.6119 93.2323L13.2387 90.9934C13.0913 90.2501 13.0681 89.4916 12.9815 88.7457L12.8764 87.6218C12.8499 87.2503 12.8505 86.8733 12.8376 86.499C12.6841 82.2916 13.1182 78.0834 14.1272 73.996C15.126 69.9281 16.6275 66.0006 18.5971 62.3039C20.5681 58.6185 22.9598 55.1742 25.7242 52.0398C28.4737 48.9092 31.5176 46.0501 34.8139 43.5017C39.8619 39.6177 45.3259 36.3068 51.1054 33.6301L51.0782 33.6355C55.6152 31.596 58.6248 31.4987 61.4297 31.343C62.9649 31.2695 63.4629 31.4769 63.0717 31.8795C62.7056 32.1899 62.2925 32.4403 61.848 32.6214C61.5378 32.7677 61.1778 32.9239 60.7671 33.0854C60.3563 33.2469 59.8965 33.4464 59.4114 33.6368C51.8312 36.5183 44.6576 40.3727 38.0707 45.103C35.0973 47.2255 32.3084 49.5952 29.7338 52.187C27.1645 54.7729 24.9034 57.6475 22.9955 60.7535C21.0315 63.9419 19.4235 67.3363 18.2003 70.8756C18.1469 70.9217 18.1066 70.9811 18.0835 71.0477C18.0603 71.1143 18.055 71.1858 18.0682 71.2551C17.8207 71.86 17.6529 72.4868 17.4453 73.1026L17.1592 74.0355C17.0653 74.3462 17.0014 74.665 16.9229 74.9821C16.7805 75.618 16.6235 76.252 16.4956 76.8898L16.1979 78.833C16.0808 79.478 16.0589 80.1277 15.9953 80.7574C15.9317 81.387 15.8662 82.0548 15.8769 82.7027L15.8392 84.6509L15.9265 86.5885C15.9281 87.2853 16.0284 87.9815 16.0925 88.6612C16.1566 89.3409 16.208 90.0515 16.3355 90.7186C16.4631 91.3858 16.5371 92.0918 16.6719 92.7717C16.8067 93.4515 16.9732 94.1251 17.1234 94.8113C17.5416 96.6833 18.759 99.0939 19.8311 101.199C21.5284 104.467 23.5148 107.576 25.7664 110.489C28.0123 113.444 30.4179 116.274 32.9725 118.967C33.5686 119.597 34.1585 120.197 34.7791 120.808C35.3997 121.42 36.0067 122.011 36.6501 122.571C38.081 124.134 39.8497 125.31 41.5658 126.482C42.0772 126.851 42.6058 127.189 43.1272 127.538C43.6485 127.887 44.2017 128.206 44.7358 128.524C45.3993 128.925 46.1102 129.255 46.8028 129.612C47.4954 129.969 48.2144 130.246 48.9227 130.492C49.6309 130.738 50.4695 131.024 51.2503 131.232C52.0311 131.44 52.8 131.683 53.5817 131.872C55.1548 132.256 56.7464 132.56 58.3503 132.782C58.7313 132.803 59.1131 132.801 59.4939 132.777L59.4667 132.782C60.1463 132.789 60.8232 132.805 61.5065 132.783C61.5563 132.773 61.6062 132.763 61.656 132.753L61.7175 132.826C64.5744 132.98 67.4313 132.635 70.2846 132.249L71.5379 132.226L71.5696 132.22L71.633 132.207L71.7101 132.192C75.564 131.697 79.3187 130.891 83.068 130.082C85.2498 129.54 87.3889 128.839 89.4682 127.984L89.4455 127.988C89.822 127.954 90.1755 127.793 90.4477 127.531C90.7234 127.377 90.9991 127.223 91.2667 127.053L91.4321 126.817C92.7771 126.141 94.067 125.353 95.3122 124.743L95.285 124.749C95.501 124.48 95.7861 124.275 96.1097 124.156L96.0788 124.191L96.1342 124.138C97.5347 123.073 98.8599 121.914 100.1 120.666C100.485 120.232 100.833 119.824 101.2 119.445C101.579 119.054 101.998 118.705 102.449 118.401C103.177 117.918 103.523 116.69 104.444 115.895L104.642 115.635C106.178 113.636 107.571 111.53 108.81 109.335L109.732 107.687C109.884 107.407 110.05 107.153 110.189 106.857L110.599 106.003C111.137 104.865 111.736 103.752 112.184 102.57L112.179 102.543C112.546 101.842 112.898 101.126 113.236 100.393C113.561 99.6548 113.833 98.9085 114.121 98.1542L114.547 97.024C114.689 96.6473 114.79 96.2551 114.907 95.8692L115.58 93.5361C116.36 90.3929 116.889 87.1928 117.163 83.9659C117.381 82.2128 117.366 80.4494 117.431 78.6888L117.343 76.0544C117.321 75.6157 117.323 75.1726 117.279 74.7385L117.142 73.428L117.005 72.1174C116.97 71.6802 116.912 71.2451 116.831 70.814L116.379 68.2234C116.306 67.7917 116.21 67.3641 116.092 66.9425L115.773 65.6679L115.459 64.3924C115.347 63.9717 115.19 63.56 115.061 63.143L114.404 61.1628C114.297 60.8325 114.171 60.5082 114.028 60.1916L113.621 59.2313C113.348 58.5929 113.089 57.9237 112.803 57.3161L111.844 55.4714C111.603 55.1875 111.435 54.8486 111.356 54.4846L111.365 54.5299L111.359 54.4982C110.33 52.5252 109.089 50.6704 107.658 48.967C105.638 46.5724 103.405 44.3664 100.986 42.3761C95.8743 38.1917 89.8984 35.1935 83.4885 33.5975C81.4976 33.1257 79.4637 32.8582 77.4185 32.799C75.6597 32.7661 75.11 32.5595 74.8387 32.1893C74.6682 31.9655 74.4543 31.7783 74.2098 31.639C73.9652 31.4997 73.6951 31.4111 73.4156 31.3786C72.1699 31.1797 70.8987 31.2051 69.6621 31.4538C69.1771 31.55 68.5862 31.6106 68.0042 31.7166C67.4223 31.8225 66.8259 31.8795 66.3347 31.9439C65.3477 32.0501 64.6927 31.9303 65.1768 31.2832C65.2958 31.123 65.1092 31.1082 64.8164 31.1521C64.5236 31.196 64.131 31.3304 63.8355 31.4078C62.938 31.6328 62.2997 31.8112 61.8683 31.8685C61.598 31.9364 61.3129 31.9153 61.0556 31.8082C60.8102 31.6872 60.9494 31.3205 60.7767 31.1145ZM62.3542 133.02C62.1522 132.975 61.9485 132.922 61.7492 132.867C61.8399 132.928 61.9356 132.982 62.0353 133.027C62.1408 133.024 62.2461 133.016 62.3506 133.002L62.3542 133.02ZM82.8837 130.269L83.0453 130.133L82.7134 130.265L82.8837 130.269ZM91.9704 126.753L91.3556 127.049L91.9658 126.825L91.9704 126.753ZM100.913 120.039C100.677 120.25 100.428 120.441 100.192 120.653L100.849 120.216L100.913 120.039ZM111.826 55.3336L111.85 55.4559C111.855 55.4079 111.837 55.3644 111.826 55.3336Z" fill="#7900DF"/>
<path d="M95.946 162.773C95.5152 162.976 95.1339 162.858 94.813 161.81C93.9397 158.997 93.428 156.131 92.5936 153.3C92.5819 153.241 92.5712 153.187 92.5595 153.128C92.0959 151.265 91.3132 149.503 90.8225 147.669C89.9444 144.428 88.7798 141.286 87.9997 137.993C87.1341 134.339 85.8506 130.741 84.8491 127.091C83.6467 122.713 82.2548 118.401 80.8575 114.085C79.6621 110.431 78.3832 106.808 77.2322 103.14C76.43 100.591 75.7874 97.9909 75.0604 95.417C74.7947 94.4805 74.4609 93.5575 74.1907 92.6218C73.8627 91.4904 73.453 90.4693 73.4752 89.179C73.4924 88.1016 72.7961 86.6804 72.4303 85.4057C71.9213 83.6224 71.5075 81.8202 70.9087 80.1066C70.3099 78.3929 69.9607 76.4413 69.1017 74.7698C68.7954 73.7236 68.5607 72.6349 68.1781 71.6555C67.2993 69.385 66.8828 67.0228 66.2705 64.7183C64.5416 58.2308 62.6104 51.8164 60.5623 45.4298C59.7717 42.9863 58.8442 40.5889 57.9829 38.1688C57.3517 36.2684 57.8071 34.9063 58.1962 33.6374C58.6027 32.2426 59.3271 32.57 59.9758 34.2267C61.2093 37.3832 62.4491 40.5478 63.4395 43.809C64.3425 46.7719 65.0932 49.7744 66.0161 52.7192C66.5002 54.2342 66.9144 55.7772 67.3631 57.304C67.3032 57.3818 67.3321 57.4326 67.3964 57.4717C67.7968 59.6581 68.6143 61.7382 69.2442 63.8697C69.5813 65.0148 69.8513 66.1787 70.0529 67.3553C70.2129 68.162 70.7322 69.1896 71.0306 70.1479C71.9317 73.1096 72.8329 76.0713 73.7341 79.033C73.9414 79.722 74.1396 80.4129 74.3423 81.1028C74.4178 82.0299 74.8524 82.7964 75.1192 83.6432C75.2814 84.1528 75.3947 84.6767 75.5525 85.1872C75.7309 85.8247 75.9419 86.4526 76.1845 87.0685C76.7206 88.3571 77.106 89.7033 77.3332 91.0803C77.3867 91.2323 77.4612 91.376 77.5544 91.5075L77.883 92.3091C77.8944 92.3296 77.9077 92.349 77.9227 92.3672L77.8656 92.4115C78.1656 93.577 78.5495 94.7194 79.0143 95.8297L79.0496 96.3644L79.055 96.3915L79.0613 96.4233C79.5535 97.9555 80.2125 99.4265 80.5234 101.018L81.2917 103.777C81.2697 103.951 81.2386 104.127 81.436 104.219C81.5019 104.338 81.5688 104.462 81.6311 104.586L81.7941 104.648C82.019 105.247 82.1443 105.88 82.1652 106.52C82.2683 106.636 82.3941 106.747 82.2995 106.936L82.3058 106.968C82.5556 107.681 82.8091 108.389 83.058 109.098C83.1936 109.294 83.2875 109.516 83.3338 109.75C83.3802 109.984 83.378 110.225 83.3275 110.458C83.2236 110.86 83.8664 111.18 83.7921 111.732C83.7915 111.777 83.8004 111.822 83.8182 111.863L85.7209 117.944C86.0344 120.643 87.0758 123.187 87.8761 125.775C88.7531 128.606 89.6827 131.418 90.5986 134.232C90.9673 135.355 91.3533 136.471 91.7347 137.587C91.7945 137.642 91.8384 137.713 91.8622 137.791C91.8859 137.869 91.8886 137.952 91.8699 138.031L91.8654 138.008C92.1087 138.926 92.4056 139.828 92.7544 140.71C93.3132 141.961 93.6753 143.241 94.1036 144.498C95.0099 147.145 95.8326 149.87 96.7207 152.543C97.0104 153.382 97.348 154.204 97.7315 155.004C98.0638 155.706 97.9301 156.006 97.6153 156.224C97.0129 156.654 96.7365 157.185 97.3095 158.602C97.6218 159.369 98.0624 160.808 96.9092 160.622C96.6274 160.579 96.7845 160.967 96.8421 161.21C97.2481 162.807 96.4039 162.564 95.946 162.773ZM77.7534 92.7964C77.7726 92.7031 77.7963 92.6089 77.8192 92.5102C77.776 92.5609 77.738 92.6158 77.7056 92.674C77.7056 92.674 77.7363 92.7574 77.7534 92.7964ZM80.3847 101.055L80.4943 101.109L80.4075 100.98C80.3979 101.004 80.3903 101.03 80.3847 101.055ZM81.6902 105.003L81.6327 104.713C81.6516 104.808 81.6423 104.904 81.643 105.003L81.6902 105.003ZM83.0744 109.609L83.0361 109.202L82.9947 109.563L83.0744 109.609ZM91.729 137.748L91.7182 137.694C91.7139 137.702 91.7118 137.712 91.7121 137.722C91.7124 137.732 91.7151 137.741 91.72 137.75L91.729 137.748Z" fill="#7900DF"/>
<path d="M94.9491 123.53L94.9606 123.513L94.9491 123.53Z" fill="#7900DF"/>
<path d="M81.4653 128.888L81.4803 128.889L81.4906 128.892L81.4653 128.888Z" fill="#7900DF"/>
<path d="M60.3103 28.7622C60.2627 28.522 60.3609 28.3283 60.7507 28.2274C61.4792 28.105 62.2249 28.1318 62.9426 28.3063L63.4989 28.4033L64.0523 28.5338C64.4183 28.6214 64.7833 28.7045 65.1438 28.7885C65.8611 29.009 66.5803 29.215 67.2712 29.4925C68.6549 30.0097 69.9971 30.6318 71.2861 31.3533C72.56 32.0663 73.7905 32.8542 74.9712 33.7129C76.1396 34.5693 77.2681 35.4856 78.3393 36.4461C78.4298 36.5224 78.5149 36.595 78.6017 36.6767C81.3981 39.1926 83.8768 42.0406 85.9828 45.1573C89.4938 50.6019 92.2987 56.4707 94.3301 62.6225C96.5751 69.3845 98.7473 76.3494 100.075 83.4017C100.886 87.6373 101.536 91.9049 102.024 96.2047C102.279 98.3446 102.469 100.493 102.636 102.64C102.802 104.825 102.848 107.018 102.774 109.208C102.702 113.021 102.056 116.802 100.857 120.422C100.536 121.349 100.157 122.255 99.7224 123.134C99.2854 124.032 98.7792 124.895 98.2084 125.714C97.052 127.408 95.5971 128.878 93.9149 130.051C93.3284 130.461 92.7134 130.829 92.0744 131.151C91.7554 131.316 91.4279 131.464 91.0932 131.595C90.7622 131.731 90.4322 131.872 90.0949 132C88.7405 132.45 87.3351 132.729 85.9115 132.83C84.5162 132.931 83.114 132.884 81.7288 132.688C80.3766 132.487 79.0433 132.175 77.7423 131.755C75.8737 131.173 74.0653 130.413 72.3417 129.486C70.3029 128.35 68.4109 127.194 66.8101 125.344C66.0262 124.445 65.1679 123.613 64.2444 122.857C63.2944 121.938 62.2993 120.958 61.4146 120.036C59.1241 117.347 57.0382 114.49 55.1746 111.489C54.1504 110.006 53.3774 108.364 52.5002 106.791C52.0828 105.993 51.71 105.181 51.2845 104.389C50.859 103.597 50.4408 102.818 50.0225 102.039C49.6272 101.075 49.2317 100.109 48.8358 99.1418C48.4813 98.1617 48.1105 97.1942 47.7124 96.2556C45.9517 91.9837 44.9143 87.5589 43.8324 83.1947C43.0855 80.1161 42.3711 77.0357 41.7076 73.95L40.7149 69.3232C40.4094 67.7822 40.0532 66.2465 39.7522 64.6811C39.1331 61.5582 38.7164 58.2917 39.1297 54.9595C39.5894 51.6654 40.7806 48.516 42.6159 45.7423C45.3886 41.5278 49.078 38.0878 53.0058 35.1612C56.1196 32.9046 58.4545 32.517 60.6147 32.0558C62.9942 31.5841 62.4198 32.5835 59.671 34.4239C57.086 36.1479 54.5985 38.0139 52.2201 40.0133C49.9047 41.9536 47.8114 44.1443 45.9782 46.5454C44.3746 48.6417 43.1954 51.0308 42.5067 53.5787C42.3878 54.2147 42.2408 54.8514 42.1374 55.4937C42.0507 56.1455 42.0014 56.8016 41.99 57.459C41.976 58.8162 42.0731 60.1723 42.2803 61.5137C42.7033 64.3127 43.3654 67.248 43.9685 70.1714C43.9424 70.223 43.9344 70.2818 43.9456 70.3385C43.9569 70.3951 43.9867 70.4464 44.0305 70.4841C44.6896 74.5929 45.8111 78.6101 46.8492 82.5872C47.4328 84.7232 47.924 86.868 48.4604 89.0274C48.7832 90.5132 49.7016 92.4367 50.2994 94.193C52.1806 99.5776 54.6147 104.753 57.5627 109.636C58.255 110.751 58.9517 111.89 59.7211 112.943C60.1152 113.648 60.5637 114.322 61.0625 114.957C61.6024 115.566 62.1569 116.153 62.6751 116.771L63.6057 117.901L64.6025 118.961L65.8699 120.269C65.9757 120.375 66.0779 120.487 66.1874 120.588L66.5321 120.877C66.7638 121.072 66.9937 121.257 67.2227 121.437C68.2399 122.22 69.1818 123.075 70.1682 123.821C71.1547 124.568 72.1366 125.315 73.1767 125.999C73.4309 126.138 73.6955 126.257 73.9681 126.356C74.4353 126.574 74.9035 126.773 75.3689 126.982C75.4048 126.999 75.4435 127.009 75.483 127.012C75.4861 127.039 75.4916 127.067 75.4992 127.093C77.3799 128.051 79.4159 128.667 81.5122 128.911C81.7975 128.996 82.0855 129.094 82.3726 129.165L82.3999 129.159L82.3636 129.166L82.3999 129.159L82.4452 129.15L82.5004 129.167C83.853 129.298 85.2173 129.235 86.5523 128.981C87.8426 128.721 89.1013 128.323 90.3067 127.794C91.7348 127.087 93.0207 126.123 94.1002 124.951C94.3234 124.793 94.5783 124.653 94.6105 124.341C94.7268 124.143 94.8495 123.954 94.9649 123.752L94.9617 123.522C95.6011 122.637 96.1184 121.658 96.7378 120.815C96.7401 120.684 96.7683 120.556 96.8206 120.436C96.8729 120.317 96.9483 120.209 97.0425 120.118L97.0488 120.15L97.0381 120.096C97.5129 118.862 97.8913 117.593 98.1699 116.301C98.2172 115.468 98.4286 114.653 98.7919 113.902C99.1155 113.301 98.7148 112.349 99.0452 111.473C99.0568 111.391 99.0638 111.307 99.0665 111.224C99.2356 109.304 99.2936 107.375 99.2402 105.448C99.1981 103.525 99.0256 101.561 98.8531 99.5984C98.9059 94.6136 97.9185 89.5854 96.9327 84.6605C95.8293 79.2735 94.3861 73.9618 92.6116 68.7571C91.9174 66.6808 91.1397 64.6352 90.3339 62.614C90.1559 62.3789 90.0508 62.0967 90.0316 61.8024L90.0388 61.8387L90.0334 61.8115C89.4391 60.1614 88.748 58.5478 87.9637 56.979C86.7903 54.7669 85.7229 52.5902 84.4822 50.5139C81.8453 46.1472 78.7286 42.0687 74.8282 38.9558C73.6065 37.9826 72.2868 37.1392 70.8906 36.439C69.6945 35.8471 69.4115 35.4887 69.3923 35.0591C69.3849 34.8262 69.3264 34.5977 69.2209 34.3898C69.1154 34.182 68.9654 33.9999 68.7817 33.8565C68.025 33.2589 67.1482 32.8318 66.2112 32.6044C65.8498 32.4923 65.4223 32.3557 64.9876 32.2299C64.5528 32.1041 64.1272 31.9294 63.7722 31.8019C63.0695 31.5126 62.6687 31.154 63.2484 30.7517C63.3936 30.6523 63.2677 30.5642 63.0549 30.4886C62.8421 30.413 62.5196 30.378 62.2841 30.3305C61.7714 30.2354 61.2651 30.1093 60.7677 29.9528C60.4508 29.8272 60.2933 29.6983 60.2246 29.5894C60.1109 29.3011 60.3334 29.0215 60.3103 28.7622ZM75.8566 127.399L75.5019 127.083C75.5418 127.162 75.5868 127.238 75.6366 127.311C75.7005 127.346 75.7664 127.377 75.8339 127.404L75.8566 127.399ZM90.2521 127.923L90.3276 127.781L90.1316 127.932L90.2521 127.923ZM95.3291 123.284L95.0348 123.677L95.3625 123.334L95.3291 123.284ZM98.5074 115.556C98.43 115.783 98.358 116.014 98.2697 116.234C98.366 116.055 98.4533 115.877 98.5469 115.708L98.5074 115.556ZM90.3894 62.4428L90.4092 62.5425L90.3894 62.4428Z" fill="#7900DF"/>
<path d="M117.367 69.4548C117.552 69.8892 117.485 70.2651 116.69 70.5311C114.546 71.1917 112.334 71.4889 110.187 72.1078L110.055 72.1339C108.627 72.464 107.3 73.1088 105.896 73.4671C103.418 74.1045 101.027 75.0402 98.5156 75.5851C95.7173 76.2011 92.9852 77.2232 90.2002 77.9779C86.8558 78.8812 83.5854 79.9912 80.3131 81.1157C77.5458 82.0788 74.802 83.1127 72.0221 84.0359C70.0909 84.6779 68.1037 85.1566 66.1454 85.7333C65.4337 85.945 64.7391 86.2194 64.0283 86.4356C63.1706 86.6952 62.4053 87.04 61.395 86.9577C60.547 86.8856 59.4893 87.4909 58.5201 87.782C57.1865 88.183 55.8022 88.4951 54.4956 88.985C53.189 89.4748 51.7042 89.7315 50.4697 90.4897C49.6641 90.6955 48.871 90.9471 48.0942 91.2433C46.3966 91.9944 44.5747 92.2849 42.8222 92.7595C37.9148 94.1423 33.0523 95.7516 28.2194 97.5105C26.3787 98.1816 24.5931 98.9878 22.7822 99.7378C21.3541 100.28 20.2494 99.7689 19.2053 99.3494C18.0652 98.8971 18.253 98.2051 19.4918 97.6345C21.8327 96.5076 24.2316 95.5053 26.6783 94.6317C28.916 93.8725 31.2024 93.2637 33.4366 92.4864C34.5854 92.0796 35.7567 91.7391 36.9136 91.3731C36.9824 91.4348 37.0196 91.4086 37.0405 91.3479C38.7247 91.0517 40.2808 90.3475 41.8974 89.8292C42.7668 89.553 43.656 89.3436 44.5572 89.203C45.1782 89.0799 45.9401 88.6226 46.6645 88.3801L53.3985 86.1595L54.9724 85.6638C55.6792 85.6414 56.2616 85.2527 56.9018 85.0363C57.2898 84.9028 57.6923 84.8183 58.0768 84.6903C58.5622 84.5484 59.0375 84.3739 59.4994 84.168C60.4664 83.7082 61.4985 83.4003 62.5593 83.2552C62.678 83.2095 62.7876 83.1431 62.8831 83.0591L63.4826 82.7801C63.498 82.7705 63.5115 82.7583 63.5225 82.744L63.5669 82.8011C64.4565 82.5683 65.3231 82.2546 66.1556 81.8639L66.5687 81.8574L66.5914 81.8529C67.7556 81.4525 68.8585 80.8853 70.0867 80.6889L72.1909 80.088C72.3295 80.1218 72.4699 80.1646 72.531 79.9735L72.8031 79.8018L72.8432 79.6478C73.2958 79.4574 73.7847 79.3685 74.2754 79.3874C74.3598 79.2906 74.4362 79.1766 74.5883 79.2783L74.6154 79.2729L76.2277 78.6612C76.3679 78.5365 76.5388 78.4515 76.7229 78.4151C76.9069 78.3786 77.0974 78.3919 77.2746 78.4537C77.6006 78.5775 77.8001 77.9679 78.2395 78.0693C78.2734 78.0671 78.3069 78.0605 78.3391 78.0495L82.9677 76.5431C85.0621 76.3916 86.9783 75.5313 88.9512 74.8858C91.1055 74.2043 93.2443 73.4694 95.3868 72.7526C96.24 72.4704 97.0878 72.161 97.9383 71.8652C97.9737 71.8099 98.0279 71.7693 98.0908 71.7508C98.1538 71.7322 98.2213 71.737 98.281 71.7643C98.9859 71.5891 99.6757 71.3578 100.344 71.0727C101.282 70.6604 102.242 70.3016 103.221 69.9983C105.251 69.2849 107.32 68.6722 109.354 67.9815C109.996 67.7499 110.62 67.4689 111.218 67.141C111.748 66.8664 111.99 67.0208 112.199 67.3374C112.572 67.9606 113.006 68.2703 114.082 67.8073C114.664 67.5554 115.766 67.2238 115.691 68.341C115.669 68.6137 115.965 68.4892 116.149 68.4433C117.34 68.2024 117.196 68.9942 117.367 69.4548ZM63.844 82.8922L63.6121 82.8157C63.6574 82.8538 63.699 82.8974 63.7488 82.9346C63.7985 82.9719 63.8303 82.9184 63.8648 82.9022L63.844 82.8922ZM70.1509 80.7751L70.1819 80.67L70.0893 80.7496L70.1509 80.7751ZM73.1431 79.7108L72.9255 79.754L73.1484 79.7616L73.1431 79.7108ZM76.6499 78.6293L76.3373 78.6442L76.6181 78.7063L76.6499 78.6293ZM98.0878 71.8827L98.0425 71.8681L98.0878 71.8827Z" fill="#7900DF"/>
<path d="M98.8097 45.158C98.9993 45.5915 98.9679 45.9557 98.3005 46.2011C96.508 46.8297 94.629 47.0938 92.8283 47.6816L92.7195 47.7032C91.5192 48.0165 90.4254 48.6291 89.2468 48.9805C87.1634 49.5914 85.1946 50.4951 83.0569 51.0226C80.7017 51.6167 78.4345 52.6078 76.1071 53.3425C73.3047 54.2231 70.588 55.3223 67.8793 56.4386C65.5869 57.3971 63.3207 58.4164 61.0237 59.3522C59.4224 59.9947 57.7551 60.4713 56.1302 61.0667C55.5363 61.2786 54.9695 61.5558 54.3856 61.7705C53.6702 62.0348 53.0461 62.3799 52.1654 62.3096C51.4279 62.2485 50.5833 62.8588 49.7799 63.1547C48.6646 63.5642 47.5087 63.8876 46.4358 64.3923C45.363 64.8971 44.1111 65.1641 43.1311 65.9236C42.4598 66.1361 41.8046 66.3967 41.1707 66.7033C39.792 67.4712 38.2528 67.7858 36.7785 68.3089C32.6928 69.7736 28.6965 71.4515 24.7705 73.2944C23.266 73.9978 21.8229 74.8209 20.3617 75.624C19.199 76.1984 18.1776 75.7272 17.2132 75.3532C16.1899 74.9437 16.2345 74.2659 17.2332 73.6723C19.1073 72.5006 21.0547 71.4506 23.0634 70.5286C24.9016 69.7261 26.8093 69.0841 28.6466 68.2535C29.5852 67.8319 30.5581 67.4647 31.5184 67.0812C31.5817 67.1393 31.6135 67.1095 31.6172 67.0334C33.0405 66.7041 34.3013 65.9831 35.6352 65.4407C36.3547 65.1521 37.0987 64.9289 37.8583 64.7739C38.384 64.6697 38.9847 64.1831 39.5751 63.9295C41.4223 63.1488 43.2848 62.398 45.1455 61.6381L46.4576 61.1283C47.0639 61.0976 47.5285 60.7087 48.0545 60.4867C48.3764 60.3522 48.7118 60.2622 49.0346 60.1322C49.4395 59.9883 49.8311 59.8098 50.2054 59.5986C50.991 59.1363 51.8545 58.8214 52.7533 58.6696C52.8485 58.6507 52.9302 58.5403 53.0155 58.4716L53.5063 58.1906C53.5063 58.1906 53.5062 58.1906 53.5371 58.1562L53.5769 58.2142C54.3224 57.9764 55.0395 57.6573 55.7153 57.2627L56.0759 57.2525C57.0372 56.8499 57.9334 56.286 58.9732 56.0657L60.7376 55.4615C60.8608 55.4889 60.9875 55.5345 61.0214 55.3488L61.2373 55.1788L61.2548 55.0293C61.6298 54.8375 62.0477 54.7449 62.4687 54.7604C62.535 54.6671 62.5877 54.553 62.7307 54.6566L64.0647 54.0436C64.1733 53.9176 64.3193 53.8296 64.4814 53.7924C64.6434 53.7552 64.8131 53.7707 64.9658 53.8366C65.2592 53.9622 65.3708 53.3607 65.7621 53.4574C65.7932 53.4578 65.8241 53.4517 65.8527 53.4394L69.7064 51.9453C71.4982 51.7879 73.0773 50.9378 74.7231 50.3289C76.5202 49.6523 78.3048 48.9358 80.093 48.2374C80.8057 47.9595 81.5094 47.6599 82.2149 47.3457C82.2265 47.3198 82.2433 47.2965 82.2642 47.2773C82.2851 47.2581 82.3098 47.2434 82.3367 47.2341C82.3635 47.2248 82.392 47.2211 82.4204 47.2232C82.4487 47.2254 82.4762 47.2333 82.5014 47.2465C83.0945 47.0745 83.6711 46.8499 84.2243 46.5752C84.9972 46.1736 85.7972 45.8261 86.6183 45.5353C88.3131 44.8413 90.0485 44.2571 91.7506 43.5758C92.2882 43.3596 92.8069 43.0992 93.3014 42.7972C93.7205 42.5352 93.9541 42.6678 94.1483 43.0062C94.5152 43.6212 94.9153 43.9281 95.8022 43.4838C96.2911 43.2409 97.2141 42.9307 97.234 44.029C97.2362 44.3018 97.4802 44.178 97.637 44.1375C98.6741 43.9272 98.6066 44.7037 98.8097 45.158ZM53.8476 58.3443L53.6393 58.2678C53.6796 58.31 53.7235 58.3486 53.7705 58.3831C53.7705 58.3831 53.8267 58.3578 53.8521 58.3434L53.8476 58.3443ZM59.0418 56.1981L59.0592 56.0958L58.9848 56.1718L59.0418 56.1981ZM61.5202 55.1321L61.3344 55.1689L61.5282 55.1729L61.5202 55.1321ZM64.4426 54.0487L64.1734 54.0691L64.4253 54.1275L64.4426 54.0487ZM82.339 47.4012L82.2982 47.3857L82.339 47.4012Z" fill="#7900DF"/>
<path d="M115.723 95.849C115.921 96.2807 115.88 96.6422 115.241 96.8867C113.484 97.5316 111.622 97.8348 109.846 98.4271L109.737 98.4487C108.552 98.7639 107.47 99.3692 106.314 99.7351C104.252 100.337 102.299 101.228 100.19 101.731C97.8492 102.28 95.6012 103.248 93.2793 103.916C90.4924 104.732 87.7722 105.719 85.0556 106.724C82.7498 107.567 80.4755 108.499 78.149 109.285C76.5287 109.832 74.8634 110.224 73.2179 110.691C72.6205 110.862 72.0419 111.103 71.4499 111.277C70.7292 111.491 70.0925 111.796 69.2255 111.652C68.5008 111.537 67.6236 112.078 66.8076 112.311C65.6798 112.633 64.5204 112.868 63.4215 113.265C62.3225 113.662 61.0699 113.83 60.0393 114.5C59.3604 114.656 58.6916 114.854 58.0366 115.091C56.6102 115.713 55.0712 115.886 53.5926 116.245C49.4216 117.256 45.3191 118.469 41.2455 119.781C39.6824 120.284 38.1743 120.922 36.6247 121.493C35.4098 121.899 34.4693 121.289 33.583 120.787C32.6967 120.284 32.7713 119.567 33.8277 119.122C35.8065 118.236 37.8353 117.465 39.9039 116.815C41.7969 116.266 43.735 115.872 45.6163 115.264C46.5819 114.955 47.5709 114.716 48.5482 114.442C48.608 114.506 48.6361 114.481 48.657 114.421C50.0746 114.253 51.3832 113.678 52.7467 113.285C53.4795 113.069 54.2304 112.92 54.9902 112.84C55.5114 112.784 56.1437 112.362 56.7421 112.172L62.3905 110.417L63.726 110.025C64.324 110.047 64.8048 109.693 65.3398 109.516C65.6626 109.41 65.9989 109.348 66.3262 109.241C66.7331 109.13 67.1298 108.985 67.5122 108.808C68.3157 108.412 69.1838 108.163 70.0752 108.074C70.1658 108.056 70.2494 107.954 70.341 107.894L70.8443 107.653C70.8443 107.653 70.8443 107.653 70.8752 107.618L70.9159 107.681C71.6619 107.496 72.3845 107.228 73.0703 106.882L73.4218 106.897C74.3866 106.559 75.2945 106.054 76.3224 105.893L78.0794 105.394C78.1989 105.427 78.3221 105.478 78.3659 105.295L78.5846 105.138L78.612 104.991C78.9895 104.824 79.403 104.753 79.8149 104.786C79.8821 104.697 79.9402 104.587 80.0796 104.696L81.4135 104.153C81.5228 104.035 81.6669 103.955 81.8248 103.923C81.9828 103.892 82.1466 103.912 82.2928 103.979C82.5744 104.116 82.7113 103.524 83.088 103.642C83.1177 103.643 83.1471 103.637 83.1742 103.625L87.0131 102.294C88.783 102.217 90.3575 101.415 91.986 100.837C93.7495 100.229 95.5313 99.5457 97.2976 98.88C97.9986 98.6138 98.6959 98.3295 99.395 98.0543C99.4641 97.9511 99.5466 97.8924 99.677 97.956C100.261 97.7912 100.828 97.5716 101.37 97.3001C102.132 96.9091 102.919 96.5704 103.727 96.2864C105.387 95.6087 107.083 95.0135 108.755 94.3475C109.281 94.1292 109.784 93.8605 110.259 93.5454C110.677 93.2787 110.902 93.4178 111.095 93.747C111.474 94.3548 111.869 94.6581 112.74 94.2074C113.209 93.959 114.115 93.6334 114.159 94.7317C114.17 95.0027 114.408 94.8753 114.565 94.8348C115.555 94.6245 115.51 95.3964 115.723 95.849ZM71.1268 107.818L70.9258 107.731C70.9636 107.774 71.0047 107.815 71.0488 107.852C71.0488 107.852 71.0968 107.833 71.1268 107.818ZM76.3485 106.024L76.3658 105.922L76.2905 105.993L76.3485 106.024ZM78.8329 105.108L78.6471 105.145L78.8383 105.159L78.8329 105.108ZM81.7524 104.176L81.485 104.182L81.7305 104.255L81.7524 104.176ZM99.4964 98.1143L99.4602 98.1215C99.4662 98.1241 99.4729 98.1249 99.4794 98.1236C99.4859 98.1223 99.4918 98.1191 99.4964 98.1143Z" fill="#7900DF"/>
<path d="M54.3261 34.2164C53.9821 34.5484 53.4253 34.2819 52.4476 32.1064C51.1781 29.1962 50.2135 26.1624 49.5693 23.0534C49.3417 22.1399 49.23 21.2014 49.2369 20.26C49.2529 19.6481 49.3684 19.0429 49.5789 18.4682C49.8076 17.8597 50.1509 17.3007 50.5902 16.8215C51.3313 16.0529 52.233 15.4575 53.231 15.078C53.6672 14.902 54.0634 14.7622 54.4524 14.6333L55.5712 14.289L55.9211 14.1772C59.8078 13.0393 63.6992 11.8297 67.6875 11.1803C71.2134 10.586 74.7706 10.1953 78.3415 10.0103C81.9399 9.83516 85.5468 10.0066 89.1123 10.5222C93.1212 11.086 97.0685 12.0241 100.902 13.324C107.097 15.3946 112.822 18.6702 117.746 22.9623C119.6 24.5623 121.319 26.3122 122.886 28.1942C126.003 31.967 128.516 36.2013 130.334 40.7454C131.868 44.5247 133.133 48.4073 134.121 52.3644C135.15 56.2872 135.959 60.2644 136.544 64.2775C137.329 69.882 137.627 75.544 137.436 81.2C137.428 82.2284 137.373 83.2569 137.328 84.2926C137.284 85.3282 137.224 86.3575 137.131 87.3841C137.066 88.0092 137.036 88.6181 136.964 89.2261C136.891 89.834 136.817 90.4328 136.729 91.0344C136.561 92.2785 136.279 93.5044 135.886 94.6966C135.801 94.9584 135.725 95.2374 135.652 95.5345C135.579 95.8315 135.488 96.1323 135.415 96.4529C135.26 97.0961 135.123 97.7827 134.985 98.4929C134.848 99.2031 134.671 99.9259 134.518 100.649C134.364 101.372 134.209 102.085 133.993 102.755C132.896 106.483 131.536 110.129 129.924 113.666C128.324 117.308 126.141 120.718 124.248 124.146L124.276 124.14C123.594 125.076 122.922 126.034 122.208 126.948C121.495 127.862 120.785 128.771 120.075 129.66C116.895 133.72 112.963 137.029 108.831 139.925C108.468 140.181 108.111 140.45 107.745 140.697L106.612 141.392L105.478 142.088C105.289 142.206 105.106 142.327 104.912 142.441L104.33 142.763L101.995 144.051L99.5896 145.201C97.9805 145.949 96.334 146.613 94.6566 147.192C92.9847 147.787 91.2893 148.288 89.5867 148.753C82.7556 150.578 75.754 151.424 68.7846 151.982C63.4411 152.401 58.0271 152.701 52.5711 152.125C49.4847 151.788 46.5669 150.545 44.185 148.554C43.1451 147.729 42.9683 147.288 43.4433 147.189C43.9183 147.09 45.047 147.342 46.7625 147.798C50.0529 148.596 53.4202 149.034 56.8053 149.105C60.215 149.22 63.6605 149.064 67.1206 148.864C73.4528 148.466 79.7841 147.969 85.9095 146.552C89.0443 145.851 92.1269 144.935 95.1354 143.809C95.1949 143.823 95.2574 143.819 95.3145 143.797C95.3715 143.774 95.4204 143.735 95.4546 143.684C99.6707 142.26 103.546 139.923 107.147 137.297L108.602 136.25L110.018 135.145C110.485 134.769 110.977 134.427 111.438 134.039L112.829 132.882C113.175 132.597 113.507 132.294 113.822 131.974C114.148 131.627 114.488 131.248 114.835 130.859L115.878 129.682C116.21 129.268 116.544 128.862 116.879 128.48C117.932 127.33 118.863 126.062 119.834 124.833C120.298 124.199 120.74 123.556 121.197 122.914C121.421 122.596 121.65 122.278 121.868 121.952L122.5 120.96C124.2 118.323 125.712 115.569 127.023 112.719L127.928 110.722C128.214 110.052 128.479 109.369 128.746 108.675C128.957 108.276 129.146 107.866 129.313 107.446C129.47 107.024 129.615 106.595 129.743 106.169C130.005 105.307 130.27 104.454 130.501 103.579C130.766 102.537 131.174 101.509 131.406 100.446L131.89 98.4659C132.041 97.8047 132.145 97.1388 132.247 96.511C132.676 93.6655 133.123 90.906 133.572 88.1085C133.595 87.7778 133.594 87.4458 133.568 87.1153L133.582 87.1833L133.647 85.4227C133.641 85.3785 133.632 85.3346 133.621 85.2913L133.692 85.2443C133.796 84.0129 133.868 82.7834 133.861 81.56L133.823 79.7259L133.797 78.7889L133.749 77.8563L133.845 76.7963L133.838 76.7645C133.838 76.7645 133.832 76.7328 133.828 76.7101C133.821 76.691 133.818 76.6712 133.816 76.6512C133.699 73.377 133.266 70.1231 133.014 66.8333C132.925 65.8617 132.786 64.8955 132.655 63.9275L132.457 62.4782L132.217 61.0324C132.27 60.7044 132.204 60.3682 132.03 60.0852C131.976 59.8132 131.882 59.5539 131.809 59.281L131.634 59.0895C131.336 57.8281 131.128 56.5472 131.011 55.2563L131.016 55.2835C130.84 55.019 130.763 54.7001 130.801 54.3842L130.809 54.4249L130.795 54.357C130.423 52.8605 130.013 51.3716 129.566 49.8902C129.164 49.0267 128.932 48.0937 128.884 47.1424C128.879 46.3803 128.073 45.5933 127.952 44.5528C127.924 44.4618 127.893 44.3722 127.856 44.2844C127.137 42.269 126.301 40.2973 125.352 38.3792C124.422 36.4757 123.341 34.6501 122.117 32.9204C120.777 30.5771 119.085 28.4533 117.101 26.6231C115.098 24.7693 112.929 23.1037 110.622 21.6473C105.575 18.4468 99.9924 16.1819 94.1423 14.961C91.8157 14.4784 89.4605 14.146 87.0912 13.9659C86.7711 14.0337 86.4382 14.0064 86.1335 13.8873C85.1695 13.7769 84.1202 13.7589 83.1253 13.7065C82.1304 13.654 81.168 13.6941 80.3886 13.778C77.6471 13.9682 74.9699 14.1503 72.3087 14.5319C66.6498 15.3398 61.0802 16.6821 55.6746 18.5409C55.0314 18.7245 54.433 19.0387 53.9169 19.4641C53.8028 19.5596 53.7228 19.6895 53.6888 19.8344C53.6733 19.9641 53.674 20.0953 53.6909 20.2249C53.7459 20.5819 53.7687 20.9432 53.7588 21.3043C53.7529 21.556 53.657 21.7972 53.4885 21.9844C52.9311 22.5942 52.6658 23.5606 53.7601 26.4903C54.118 27.3837 54.4277 28.2956 54.6879 29.2222C54.8904 30.0535 54.8533 30.6026 54.1641 30.3341C53.8246 30.1894 54.1938 30.983 54.3888 31.4672C55.0115 32.9453 55.0975 33.5218 54.9476 33.787C54.7976 34.0523 54.5167 34.0373 54.3261 34.2164ZM133.913 84.6964L133.745 85.2009C133.806 85.1274 133.862 85.0486 133.91 84.9655C133.916 84.876 133.917 84.7861 133.913 84.6964ZM133.198 67.023L133.088 66.8751L133.148 67.1742L133.198 67.023ZM131.768 58.6484L131.884 59.2331L131.843 58.6667L131.768 58.6484ZM129.503 49.0736L129.663 49.8804L129.62 49.1916L129.503 49.0736ZM87.0051 13.983L87.1065 14.0194C87.0738 14.0045 87.0399 13.9923 87.0051 13.983Z" fill="#7900DF"/>
<path d="M98.4634 160.003L98.4703 160.008L98.4634 160.003Z" fill="#7900DF"/>
<path d="M121.435 157.357C121.557 157.804 121.561 158.156 121.21 158.24C120.267 158.474 119.26 158.339 118.314 158.531L118.26 158.542C117.62 158.594 117.062 158.963 116.437 159.045C115.337 159.197 114.311 159.655 113.174 159.692C111.918 159.771 110.741 160.249 109.508 160.47C108.038 160.761 106.595 161.171 105.192 161.698C103.996 162.128 102.825 162.638 101.616 163.024C100.78 163.298 99.8914 163.404 99.0338 163.616C98.7165 163.679 98.4272 163.835 98.1135 163.916C97.9295 164.012 97.7264 164.066 97.519 164.072C97.3117 164.079 97.1054 164.039 96.9155 163.956C96.4927 163.748 96.0725 164.123 95.6509 164.254C95.0509 164.359 94.4608 164.513 93.8867 164.717C93.319 164.966 92.6494 164.962 92.151 165.466C91.795 165.526 91.4488 165.634 91.1219 165.788C90.4244 166.213 89.5808 166.187 88.8057 166.365C86.6434 166.878 84.5326 167.588 82.4997 168.486C81.7268 168.854 80.9747 169.264 80.2467 169.715C79.649 170.003 78.9877 169.352 78.3752 168.805C77.7626 168.257 77.6622 167.585 78.1558 167.247C79.0814 166.565 80.085 165.996 81.1454 165.552C82.1156 165.194 83.1453 164.995 84.1092 164.606C84.6025 164.409 85.122 164.273 85.627 164.112C85.6731 164.178 85.684 164.162 85.6814 164.101C86.4625 164.097 87.1057 163.682 87.8147 163.457C88.2048 163.334 88.6134 163.28 89.022 163.298C89.311 163.306 89.5998 162.98 89.9162 162.866C90.8937 162.521 91.8774 162.209 92.8584 161.882C93.0887 161.808 93.3027 161.747 93.5529 161.679C93.898 161.78 94.1177 161.51 94.3988 161.407C94.571 161.373 94.7478 161.338 94.9245 161.303C95.1412 161.251 95.3484 161.166 95.5385 161.049C95.9322 160.78 96.408 160.657 96.8829 160.703C96.9328 160.693 96.97 160.62 97.0127 160.573L97.2631 160.411C97.2631 160.411 97.2631 160.411 97.2586 160.388L97.2721 160.456C97.6731 160.386 98.0551 160.233 98.3937 160.008L98.5948 160.071C99.1008 159.891 99.5553 159.547 100.122 159.552L101.06 159.366C101.132 159.422 101.211 159.487 101.214 159.335L101.318 159.221L101.32 159.084C101.421 159.032 101.534 159.005 101.649 159.004C101.763 159.003 101.876 159.03 101.978 159.08C102.007 159.009 102.029 158.91 102.123 159.052L102.816 158.745C102.943 158.602 103.065 158.502 103.286 158.736C103.506 158.97 103.477 158.369 103.717 158.538C103.725 158.54 103.733 158.54 103.741 158.538C103.749 158.537 103.756 158.533 103.763 158.529L105.802 157.908C106.788 158.131 107.607 157.653 108.478 157.41C109.432 157.141 110.368 156.824 111.313 156.528C111.69 156.411 112.062 156.271 112.437 156.14C112.468 156.059 112.511 156.017 112.586 156.11C112.896 156.072 113.197 155.977 113.473 155.831C113.868 155.607 114.29 155.438 114.73 155.327C115.611 155.021 116.545 154.812 117.449 154.525C117.74 154.422 118.013 154.272 118.256 154.082C118.478 153.92 118.611 154.115 118.731 154.459C118.962 155.124 119.197 155.502 119.662 155.259C119.915 155.129 120.401 155.018 120.465 156.075C120.479 156.336 120.607 156.268 120.69 156.261C121.304 156.149 121.303 156.879 121.435 157.357ZM97.4803 160.58L97.3545 160.468L97.4376 160.602C97.4376 160.602 97.4631 160.588 97.4803 160.58ZM100.214 159.637L100.196 159.547L100.161 159.606L100.214 159.637ZM101.529 159.141L101.434 159.16L101.541 159.205L101.529 159.141ZM103.081 158.725L102.931 158.684L103.076 158.797L103.081 158.725ZM112.557 156.107L112.552 156.08L112.557 156.107Z" fill="#7900DF"/>
</svg>
