<svg width="100" height="50" viewBox="0 0 100 50" fill="none" xmlns="http://www.w3.org/2000/svg">
<rect x="50" width="50" height="50" fill="#D4E4FC"/>
<rect x="0.5" y="0.5" width="99" height="49" stroke="#75A7F5"/>
<path d="M25.5 25.5C28.9531 25.5 31.75 22.7031 31.75 19.25C31.75 15.7969 28.9531 13 25.5 13C22.0469 13 19.25 15.7969 19.25 19.25C19.25 22.7031 22.0469 25.5 25.5 25.5ZM25.5 28.625C21.3281 28.625 13 30.7188 13 34.875V38H38V34.875C38 30.7188 29.6719 28.625 25.5 28.625Z" fill="#4688F1"/>
<path d="M74.5 15.9688C76.3125 15.9688 77.7813 17.4375 77.7813 19.25C77.7813 21.0625 76.3125 22.5313 74.5 22.5313C72.6875 22.5313 71.2187 21.0625 71.2187 19.25C71.2187 17.4375 72.6875 15.9688 74.5 15.9688ZM74.5 30.0312C79.1406 30.0312 84.0312 32.3125 84.0312 33.3125V35.0312H64.9688V33.3125C64.9688 32.3125 69.8594 30.0312 74.5 30.0312ZM74.5 13C71.0469 13 68.25 15.7969 68.25 19.25C68.25 22.7031 71.0469 25.5 74.5 25.5C77.9531 25.5 80.75 22.7031 80.75 19.25C80.75 15.7969 77.9531 13 74.5 13ZM74.5 27.0625C70.3281 27.0625 62 29.1562 62 33.3125V38H87V33.3125C87 29.1562 78.6719 27.0625 74.5 27.0625Z" fill="white"/>
</svg>
