<svg width="124" height="180" viewBox="0 0 124 180" fill="none" xmlns="http://www.w3.org/2000/svg">
<path d="M91.3969 126.853L91.4228 126.838L91.3969 126.853Z" fill="#F74705"/>
<path d="M70.2739 132.265L70.2931 132.266L70.3068 132.264L70.2739 132.265Z" fill="#F74705"/>
<path d="M60.7769 31.1146C60.6169 30.9249 60.639 30.7038 61.0418 30.4073C61.8341 29.9151 62.702 29.5568 63.6108 29.3468C65.4465 28.8226 67.3256 28.4642 69.2255 28.2761C70.1436 28.1553 71.1178 28.1271 72.0594 28.077C73.001 28.0269 73.937 28.0439 74.892 28.109C78.6348 28.2913 82.3421 28.9228 85.9343 29.9897L86.3599 30.1173C91.0089 31.5886 95.561 33.4747 99.5581 36.2435C101.318 37.4567 103.011 38.7662 104.627 40.1658C106.231 41.5802 107.744 43.0942 109.157 44.6988C112.003 47.9287 114.318 51.589 116.018 55.5437C119.841 64.3448 121.398 73.9635 120.547 83.5213C119.485 94.9041 115.6 105.842 109.243 115.344C107.891 117.36 106.406 119.283 104.798 121.101C103.179 122.944 101.406 124.646 99.4992 126.188C97.5769 127.749 95.4991 129.108 93.2987 130.244C91.1114 131.372 88.8304 132.308 86.4814 133.042C83.264 134.029 79.9719 134.754 76.6376 135.21C73.3401 135.685 70.0709 136.041 66.7178 136.234C64.2608 136.402 61.7959 136.419 59.3369 136.285C56.3632 136.064 53.4993 135.756 50.5918 134.443C49.9906 134.167 49.295 133.913 48.5679 133.596L47.4314 133.138L46.2597 132.622L45.6566 132.36L45.0627 132.072L43.8675 131.485C43.0989 131.053 42.313 130.653 41.6178 130.188C37.6811 127.699 34.2964 124.527 31.093 121.318C29.4466 119.666 27.9335 117.879 26.4522 116.086L22.0301 110.721L22.0364 110.753C20.4543 108.546 19.0356 106.166 17.6802 103.844C16.14 101.211 14.9557 98.3859 14.1584 95.4416L13.6121 93.2323L13.2389 90.9935C13.0916 90.2502 13.0684 89.4917 12.9817 88.7457L12.8767 87.6219C12.8501 87.2503 12.8508 86.8733 12.8378 86.4991C12.6844 82.2917 13.1184 78.0835 14.1275 73.996C15.1263 69.9282 16.6277 66.0006 18.5973 62.3039C20.5683 58.6186 22.96 55.1743 25.7245 52.0399C28.4739 48.9093 31.5178 46.0501 34.8142 43.5018C39.8621 39.6177 45.3261 36.3068 51.1057 33.6301L51.0784 33.6355C55.6155 31.5961 58.6251 31.4988 61.4299 31.3431C62.9651 31.2696 63.4632 31.477 63.0719 31.8796C62.7058 32.19 62.2928 32.4404 61.8482 32.6215C61.5381 32.7678 61.1781 32.924 60.7673 33.0855C60.3565 33.247 59.8968 33.4465 59.4116 33.6369C51.8315 36.5184 44.6578 40.3727 38.071 45.103C35.0976 47.2255 32.3087 49.5953 29.734 52.1871C27.1648 54.7729 24.9036 57.6476 22.9958 60.7536C21.0318 63.942 19.4237 67.3364 18.2005 70.8757C18.1472 70.9218 18.1069 70.9811 18.0837 71.0477C18.0605 71.1144 18.0553 71.1859 18.0685 71.2552C17.821 71.8601 17.6532 72.4868 17.4455 73.1027L17.1594 74.0356C17.0656 74.3462 17.0016 74.6651 16.9231 74.9821C16.7807 75.618 16.6238 76.2521 16.4959 76.8898L16.1981 78.8331C16.081 79.4781 16.0591 80.1277 15.9955 80.7574C15.9319 81.3871 15.8664 82.0549 15.8771 82.7028L15.8394 84.651L15.9268 86.5885C15.9283 87.2854 16.0287 87.9815 16.0928 88.6612C16.1569 89.341 16.2082 90.0515 16.3358 90.7187C16.4633 91.3858 16.5374 92.0919 16.6722 92.7717C16.8069 93.4516 16.9734 94.1251 17.1236 94.8114C17.5418 96.6833 18.7593 99.094 19.8314 101.199C21.5287 104.467 23.515 107.576 25.7666 110.489C28.0125 113.444 30.4182 116.274 32.9728 118.967C33.5689 119.598 34.1587 120.197 34.7793 120.808C35.3999 121.42 36.007 122.011 36.6503 122.571C38.0813 124.134 39.8499 125.31 41.5661 126.482C42.0774 126.851 42.6061 127.189 43.1274 127.538C43.6488 127.887 44.2019 128.206 44.736 128.524C45.3996 128.925 46.1104 129.255 46.803 129.612C47.4957 129.969 48.2147 130.246 48.9229 130.492C49.6311 130.738 50.4698 131.024 51.2505 131.232C52.0313 131.44 52.8002 131.683 53.5819 131.872C55.1551 132.256 56.7467 132.56 58.3505 132.782C58.7315 132.803 59.1134 132.801 59.4941 132.777L59.467 132.782C60.1466 132.789 60.8234 132.806 61.5067 132.783C61.5566 132.773 61.6064 132.763 61.6563 132.753L61.7178 132.826C64.5747 132.98 67.4315 132.635 70.2848 132.249L71.5381 132.226L71.5698 132.22L71.6333 132.208L71.7104 132.192C75.5642 131.697 79.319 130.891 83.0683 130.082C85.25 129.54 87.3892 128.839 89.4685 127.984L89.4458 127.988C89.8222 127.954 90.1758 127.793 90.4479 127.531C90.7237 127.377 90.9994 127.224 91.267 127.053L91.4323 126.817C92.7773 126.141 94.0672 125.353 95.3124 124.743L95.2852 124.749C95.5013 124.48 95.7864 124.275 96.1099 124.157L96.0791 124.191L96.1344 124.138C97.535 123.074 98.8601 121.914 100.1 120.666C100.485 120.232 100.833 119.824 101.201 119.445C101.579 119.054 101.998 118.705 102.449 118.401C103.178 117.918 103.523 116.69 104.444 115.895L104.642 115.635C106.178 113.636 107.571 111.53 108.81 109.335L109.732 107.687C109.884 107.407 110.05 107.153 110.189 106.857L110.599 106.003C111.137 104.865 111.736 103.752 112.185 102.57L112.179 102.543C112.546 101.842 112.898 101.126 113.237 100.393C113.561 99.6548 113.833 98.9086 114.121 98.1542L114.547 97.0241C114.689 96.6473 114.791 96.2551 114.907 95.8693L115.58 93.5361C116.36 90.3929 116.889 87.1929 117.164 83.966C117.381 82.2129 117.366 80.4494 117.432 78.6888L117.343 76.0544C117.322 75.6158 117.323 75.1727 117.28 74.7386L117.142 73.428L117.005 72.1174C116.97 71.6802 116.912 71.2452 116.831 70.8141L116.379 68.2235C116.306 67.7917 116.21 67.3642 116.092 66.9426L115.773 65.668L115.459 64.3924C115.348 63.9718 115.191 63.5601 115.061 63.143L114.405 61.1629C114.297 60.8325 114.171 60.5083 114.028 60.1917L113.621 59.2314C113.349 58.593 113.089 57.9238 112.804 57.3162L111.844 55.4714C111.603 55.1875 111.436 54.8486 111.357 54.4847L111.366 54.53L111.359 54.4983C110.331 52.5252 109.089 50.6705 107.658 48.9671C105.638 46.5725 103.405 44.3664 100.986 42.3761C95.8746 38.1918 89.8986 35.1936 83.4888 33.5976C81.4978 33.1258 79.464 32.8582 77.4187 32.799C75.6599 32.7662 75.1102 32.5595 74.839 32.1894C74.6684 31.9655 74.4545 31.7783 74.21 31.639C73.9655 31.4997 73.6953 31.4112 73.4158 31.3787C72.1702 31.1797 70.899 31.2052 69.6623 31.4539C69.1773 31.55 68.5864 31.6107 68.0045 31.7166C67.4225 31.8226 66.8262 31.8796 66.3349 31.944C65.3479 32.0502 64.693 31.9303 65.1771 31.2832C65.296 31.123 65.1094 31.1082 64.8166 31.1521C64.5239 31.1961 64.1312 31.3304 63.8357 31.4079C62.9382 31.6329 62.3 31.8113 61.8685 31.8685C61.5982 31.9365 61.3132 31.9154 61.0558 31.8082C60.8104 31.6873 60.9497 31.3206 60.7769 31.1146ZM62.3545 133.02C62.1525 132.975 61.9487 132.922 61.7494 132.867C61.8401 132.928 61.9358 132.982 62.0355 133.027C62.141 133.025 62.2463 133.016 62.3509 133.002L62.3545 133.02ZM82.884 130.269L83.0455 130.133L82.7136 130.265L82.884 130.269ZM91.9707 126.753L91.3558 127.049L91.9661 126.825L91.9707 126.753ZM100.913 120.039C100.677 120.25 100.428 120.441 100.192 120.653L100.849 120.216L100.913 120.039ZM111.826 55.3336L111.851 55.456C111.855 55.408 111.837 55.3645 111.826 55.3336Z" fill="#F74705"/>
<path d="M95.946 162.773C95.5152 162.976 95.1339 162.858 94.813 161.81C93.9397 158.997 93.428 156.131 92.5936 153.3C92.5819 153.241 92.5712 153.187 92.5595 153.128C92.0959 151.265 91.3132 149.503 90.8225 147.669C89.9444 144.428 88.7798 141.286 87.9997 137.993C87.1341 134.339 85.8506 130.741 84.8491 127.091C83.6467 122.713 82.2548 118.401 80.8575 114.085C79.6621 110.431 78.3832 106.808 77.2322 103.14C76.43 100.591 75.7874 97.9909 75.0604 95.4171C74.7947 94.4806 74.4609 93.5575 74.1907 92.6219C73.8627 91.4904 73.453 90.4694 73.4752 89.179C73.4924 88.1016 72.7961 86.6805 72.4303 85.4058C71.9213 83.6225 71.5075 81.8203 70.9087 80.1066C70.3099 78.393 69.9607 76.4414 69.1017 74.7699C68.7954 73.7236 68.5607 72.6349 68.1781 71.6556C67.2993 69.3851 66.8828 67.0229 66.2705 64.7183C64.5416 58.2308 62.6104 51.8164 60.5623 45.4299C59.7717 42.9864 58.8442 40.5889 57.9829 38.1689C57.3517 36.2685 57.8071 34.9064 58.1962 33.6375C58.6027 32.2426 59.3271 32.5701 59.9758 34.2267C61.2093 37.3832 62.4491 40.5479 63.4395 43.809C64.3425 46.7719 65.0932 49.7745 66.0161 52.7193C66.5002 54.2343 66.9144 55.7773 67.3631 57.3041C67.3032 57.3819 67.3321 57.4327 67.3964 57.4717C67.7968 59.6581 68.6143 61.7382 69.2442 63.8697C69.5813 65.0149 69.8513 66.1787 70.0529 67.3553C70.2129 68.1621 70.7322 69.1897 71.0306 70.148C71.9317 73.1097 72.8329 76.0714 73.7341 79.0331C73.9414 79.7221 74.1396 80.4129 74.3423 81.1029C74.4178 82.03 74.8524 82.7965 75.1192 83.6433C75.2814 84.1528 75.3947 84.6768 75.5525 85.1872C75.7309 85.8247 75.9419 86.4526 76.1845 87.0686C76.7206 88.3572 77.106 89.7033 77.3332 91.0803C77.3867 91.2323 77.4612 91.3761 77.5544 91.5075L77.883 92.3091C77.8944 92.3297 77.9077 92.3491 77.9227 92.3672L77.8656 92.4115C78.1656 93.5771 78.5495 94.7195 79.0143 95.8297L79.0496 96.3644L79.055 96.3916L79.0613 96.4233C79.5535 97.9556 80.2125 99.4265 80.5234 101.018L81.2917 103.777C81.2697 103.951 81.2386 104.127 81.436 104.22C81.5019 104.338 81.5688 104.462 81.6311 104.586L81.7941 104.648C82.019 105.247 82.1443 105.88 82.1652 106.52C82.2683 106.636 82.3941 106.748 82.2995 106.936L82.3058 106.968C82.5556 107.681 82.8091 108.389 83.058 109.098C83.1936 109.295 83.2875 109.516 83.3338 109.75C83.3802 109.984 83.378 110.225 83.3275 110.458C83.2236 110.86 83.8664 111.18 83.7921 111.732C83.7915 111.777 83.8004 111.822 83.8182 111.863L85.7209 117.944C86.0344 120.643 87.0758 123.187 87.8761 125.775C88.7531 128.606 89.6827 131.418 90.5986 134.232C90.9673 135.355 91.3533 136.471 91.7347 137.587C91.7945 137.642 91.8384 137.713 91.8622 137.791C91.8859 137.869 91.8886 137.952 91.8699 138.031L91.8654 138.008C92.1087 138.926 92.4056 139.828 92.7544 140.71C93.3132 141.961 93.6753 143.241 94.1036 144.499C95.0099 147.145 95.8326 149.87 96.7207 152.543C97.0104 153.382 97.348 154.204 97.7315 155.005C98.0638 155.706 97.9301 156.006 97.6153 156.224C97.0129 156.654 96.7365 157.185 97.3095 158.602C97.6218 159.369 98.0624 160.808 96.9092 160.622C96.6274 160.579 96.7845 160.967 96.8421 161.21C97.2481 162.807 96.4039 162.564 95.946 162.773ZM77.7534 92.7964C77.7726 92.7031 77.7963 92.609 77.8192 92.5102C77.776 92.561 77.738 92.6158 77.7056 92.674C77.7056 92.674 77.7363 92.7574 77.7534 92.7964ZM80.3847 101.055L80.4943 101.109L80.4075 100.98C80.3979 101.004 80.3903 101.03 80.3847 101.055ZM81.6902 105.003L81.6327 104.713C81.6516 104.808 81.6423 104.904 81.643 105.003L81.6902 105.003ZM83.0744 109.609L83.0361 109.202L82.9947 109.563L83.0744 109.609ZM91.729 137.748L91.7182 137.694C91.7139 137.702 91.7118 137.712 91.7121 137.722C91.7124 137.732 91.7151 137.741 91.72 137.75L91.729 137.748Z" fill="#F74705"/>
<path d="M94.9491 123.53L94.9606 123.513L94.9491 123.53Z" fill="#F74705"/>
<path d="M81.4653 128.888L81.4803 128.89L81.4906 128.892L81.4653 128.888Z" fill="#F74705"/>
<path d="M60.3101 28.7623C60.2624 28.5221 60.3607 28.3283 60.7505 28.2275C61.4789 28.105 62.2246 28.1319 62.9424 28.3064L63.4986 28.4034L64.0521 28.5339C64.418 28.6215 64.783 28.7046 65.1436 28.7885C65.8609 29.009 66.58 29.2151 67.271 29.4926C68.6547 30.0098 69.9968 30.6319 71.2858 31.3534C72.5597 32.0664 73.7903 32.8543 74.9709 33.7129C76.1394 34.5694 77.2678 35.4856 78.3391 36.4462C78.4296 36.5224 78.5146 36.5951 78.6015 36.6768C81.3979 39.1927 83.8765 42.0406 85.9825 45.1574C89.4936 50.602 92.2985 56.4707 94.3298 62.6226C96.5748 69.3846 98.747 76.3495 100.074 83.4017C100.886 87.6373 101.536 91.905 102.024 96.2047C102.279 98.3446 102.469 100.493 102.636 102.64C102.802 104.825 102.848 107.018 102.774 109.208C102.702 113.021 102.056 116.802 100.857 120.422C100.536 121.349 100.157 122.255 99.7222 123.134C99.2851 124.032 98.779 124.895 98.2082 125.714C97.0517 127.408 95.5969 128.878 93.9147 130.051C93.3282 130.461 92.7131 130.829 92.0742 131.151C91.7552 131.316 91.4277 131.465 91.093 131.595C90.762 131.731 90.4319 131.872 90.0946 132C88.7402 132.45 87.3349 132.729 85.9112 132.83C84.516 132.931 83.1138 132.884 81.7285 132.689C80.3764 132.487 79.0431 132.175 77.7421 131.755C75.8735 131.173 74.065 130.413 72.3414 129.486C70.3027 128.35 68.4107 127.194 66.8099 125.344C66.026 124.445 65.1677 123.613 64.2441 122.857C63.2942 121.938 62.2991 120.958 61.4144 120.036C59.1239 117.347 57.038 114.49 55.1743 111.489C54.1501 110.006 53.3772 108.364 52.4999 106.791C52.0826 105.993 51.7097 105.181 51.2843 104.389C50.8588 103.597 50.4405 102.818 50.0223 102.039C49.627 101.075 49.2314 100.109 48.8355 99.1419C48.4811 98.1617 48.1102 97.1942 47.7122 96.2557C45.9514 91.9837 44.9141 87.5589 43.8322 83.1948C43.0852 80.1162 42.3709 77.0358 41.7073 73.95L40.7147 69.3233C40.4092 67.7823 40.0529 66.2466 39.752 64.6811C39.1329 61.5583 38.7161 58.2918 39.1295 54.9596C39.5892 51.6655 40.7804 48.5161 42.6157 45.7423C45.3884 41.5279 49.0778 38.0879 53.0055 35.1612C56.1193 32.9046 58.4543 32.5171 60.6144 32.0559C62.9939 31.5841 62.4196 32.5836 59.6708 34.4239C57.0858 36.148 54.5983 38.014 52.2198 40.0134C49.9045 41.9536 47.8111 44.1444 45.978 46.5454C44.3743 48.6418 43.1951 51.0308 42.5064 53.5788C42.3875 54.2147 42.2406 54.8515 42.1371 55.4938C42.0504 56.1455 42.0012 56.8017 41.9897 57.459C41.9757 58.8163 42.0728 60.1724 42.2801 61.5138C42.7031 64.3128 43.3651 67.248 43.9683 70.1715C43.9422 70.223 43.9341 70.2819 43.9454 70.3385C43.9566 70.3952 43.9865 70.4465 44.0303 70.4842C44.6894 74.593 45.8108 78.6102 46.849 82.5873C47.4326 84.7232 47.9237 86.8681 48.4602 89.0275C48.783 90.5132 49.7013 92.4368 50.2992 94.193C52.1804 99.5776 54.6145 104.753 57.5625 109.636C58.2547 110.751 58.9515 111.89 59.7208 112.943C60.115 113.648 60.5635 114.322 61.0622 114.957C61.6022 115.566 62.1567 116.153 62.6749 116.771L63.6054 117.901L64.6023 118.961L65.8696 120.269C65.9755 120.375 66.0777 120.487 66.1871 120.588L66.5319 120.877C66.7636 121.072 66.9935 121.257 67.2224 121.438C68.2396 122.22 69.1815 123.075 70.168 123.821C71.1545 124.568 72.1364 125.315 73.1764 125.999C73.4307 126.138 73.6953 126.257 73.9679 126.356C74.4351 126.574 74.9032 126.773 75.3686 126.983C75.4046 126.999 75.4433 127.009 75.4828 127.012C75.4859 127.039 75.4913 127.067 75.4989 127.093C77.3796 128.051 79.4157 128.667 81.512 128.911C81.7973 128.996 82.0853 129.094 82.3724 129.165L82.3996 129.159L82.3634 129.166L82.3996 129.159L82.4449 129.15L82.5002 129.168C83.8528 129.298 85.2171 129.235 86.552 128.981C87.8423 128.721 89.101 128.323 90.3065 127.794C91.7346 127.087 93.0204 126.123 94.1 124.951C94.3232 124.793 94.578 124.653 94.6102 124.341C94.7266 124.143 94.8492 123.954 94.9646 123.752L94.9615 123.522C95.6009 122.637 96.1181 121.658 96.7375 120.815C96.7399 120.684 96.768 120.556 96.8203 120.436C96.8726 120.317 96.9481 120.209 97.0423 120.118L97.0486 120.15L97.0378 120.096C97.5126 118.862 97.891 117.593 98.1697 116.301C98.217 115.468 98.4284 114.653 98.7917 113.902C99.1153 113.301 98.7146 112.349 99.045 111.473C99.0565 111.391 99.0636 111.308 99.0662 111.224C99.2354 109.304 99.2934 107.375 99.24 105.448C99.1979 103.525 99.0254 101.562 98.8529 99.5985C98.9057 94.6137 97.9182 89.5855 96.9324 84.6605C95.8291 79.2736 94.3859 73.9618 92.6114 68.7572C91.9171 66.6809 91.1394 64.6352 90.3336 62.614C90.1556 62.3789 90.0505 62.0967 90.0314 61.8025L90.0386 61.8387L90.0332 61.8116C89.4388 60.1614 88.7477 58.5478 87.9635 56.9791C86.7901 54.7669 85.7227 52.5903 84.482 50.514C81.8451 46.1472 78.7284 42.0687 74.828 38.9558C73.6062 37.9827 72.2866 37.1393 70.8903 36.4391C69.6943 35.8472 69.4113 35.4887 69.392 35.0592C69.3847 34.8262 69.3262 34.5977 69.2207 34.3899C69.1151 34.1821 68.9652 34 68.7815 33.8566C68.0248 33.259 67.148 32.8319 66.211 32.6045C65.8496 32.4924 65.4221 32.3557 64.9873 32.2299C64.5526 32.1042 64.127 31.9295 63.772 31.802C63.0693 31.5127 62.6685 31.154 63.2482 30.7518C63.3933 30.6523 63.2675 30.5642 63.0547 30.4887C62.8419 30.4131 62.5193 30.3781 62.2838 30.3306C61.7712 30.2355 61.2648 30.1093 60.7675 29.9529C60.4505 29.8273 60.2931 29.6984 60.2244 29.5895C60.1107 29.3011 60.3332 29.0215 60.3101 28.7623ZM75.8564 127.399L75.5017 127.083C75.5415 127.162 75.5865 127.238 75.6363 127.311C75.7003 127.346 75.7661 127.377 75.8337 127.404L75.8564 127.399ZM90.2519 127.923L90.3274 127.781L90.1313 127.933L90.2519 127.923ZM95.3289 123.284L95.0346 123.677L95.3623 123.334L95.3289 123.284ZM98.5071 115.556C98.4297 115.783 98.3577 116.014 98.2694 116.234C98.3658 116.055 98.4531 115.877 98.5467 115.708L98.5071 115.556ZM90.3892 62.4428L90.409 62.5426L90.3892 62.4428Z" fill="#F74705"/>
<path d="M117.367 69.4549C117.552 69.8892 117.486 70.2652 116.69 70.5312C114.546 71.1918 112.335 71.4889 110.187 72.1079L110.055 72.1339C108.628 72.4641 107.3 73.1089 105.897 73.4671C103.418 74.1046 101.027 75.0402 98.5159 75.5852C95.7175 76.2012 92.9855 77.2233 90.2004 77.978C86.856 78.8813 83.5856 79.9912 80.3133 81.1157C77.5461 82.0789 74.8022 83.1127 72.0223 84.036C70.0911 84.6779 68.104 85.1567 66.1457 85.7333C65.434 85.9451 64.7394 86.2194 64.0286 86.4357C63.1709 86.6952 62.4055 87.0401 61.3953 86.9578C60.5472 86.8857 59.4896 87.491 58.5204 87.7821C57.1867 88.1831 55.8025 88.4952 54.4959 88.985C53.1892 89.4749 51.7045 89.7316 50.4699 90.4898C49.6644 90.6955 48.8713 90.9471 48.0945 91.2434C46.3968 91.9944 44.5749 92.285 42.8225 92.7596C37.915 94.1423 33.0525 95.7517 28.2196 97.5106C26.379 98.1817 24.5934 98.9879 22.7825 99.7379C21.3543 100.28 20.2497 99.7689 19.2056 99.3494C18.0655 98.8971 18.2533 98.2051 19.4921 97.6345C21.833 96.5076 24.2318 95.5053 26.6786 94.6318C28.9163 93.8725 31.2027 93.2638 33.4368 92.4864C34.5856 92.0797 35.7569 91.7391 36.9138 91.3732C36.9826 91.4349 37.0198 91.4087 37.0408 91.348C38.7249 91.0518 40.2811 90.3476 41.8977 89.8293C42.767 89.553 43.6562 89.3437 44.5575 89.203C45.1784 89.0799 45.9403 88.6227 46.6648 88.3802L53.3987 86.1596L54.9726 85.6638C55.6795 85.6414 56.2619 85.2528 56.902 85.0364C57.2901 84.9029 57.6926 84.8184 58.077 84.6904C58.5624 84.5485 59.0377 84.374 59.4997 84.1681C60.4666 83.7083 61.4987 83.4004 62.5595 83.2553C62.6782 83.2096 62.7879 83.1432 62.8834 83.0592L63.4829 82.7802C63.4982 82.7706 63.5117 82.7583 63.5228 82.744L63.5671 82.8012C64.4568 82.5684 65.3233 82.2547 66.1558 81.864L66.569 81.8574L66.5917 81.8529C67.7559 81.4526 68.8588 80.8853 70.087 80.689L72.1912 80.0881C72.3298 80.1218 72.4702 80.1647 72.5312 79.9736L72.8034 79.8018L72.8434 79.6479C73.2961 79.4574 73.7849 79.3686 74.2756 79.3875C74.3601 79.2907 74.4364 79.1766 74.5885 79.2784L74.6157 79.273L76.2279 78.6613C76.3681 78.5366 76.539 78.4516 76.7231 78.4151C76.9072 78.3786 77.0977 78.392 77.2748 78.4537C77.6009 78.5775 77.8004 77.968 78.2397 78.0693C78.2737 78.0672 78.3072 78.0605 78.3394 78.0495L82.9679 76.5431C85.0624 76.3917 86.9786 75.5313 88.9515 74.8858C91.1057 74.2044 93.2446 73.4694 95.3871 72.7526C96.2403 72.4704 97.0881 72.161 97.9386 71.8652C97.974 71.81 98.0281 71.7694 98.0911 71.7508C98.154 71.7323 98.2216 71.7371 98.2813 71.7643C98.9862 71.5891 99.676 71.3579 100.344 71.0728C101.282 70.6604 102.242 70.3017 103.221 69.9983C105.251 69.285 107.32 68.6722 109.355 67.9815C109.997 67.7499 110.62 67.4689 111.218 67.141C111.748 66.8664 111.991 67.0209 112.199 67.3375C112.573 67.9607 113.006 68.2704 114.083 67.8074C114.664 67.5555 115.766 67.2239 115.691 68.3411C115.67 68.6138 115.965 68.4893 116.149 68.4433C117.34 68.2025 117.196 68.9942 117.367 69.4549ZM63.8442 82.8922L63.6124 82.8157C63.6576 82.8539 63.6992 82.8975 63.749 82.9347C63.7988 82.9719 63.8306 82.9185 63.8651 82.9023L63.8442 82.8922ZM70.1511 80.7752L70.1821 80.6701L70.0896 80.7497L70.1511 80.7752ZM73.1433 79.7109L72.9257 79.754L73.1487 79.7616L73.1433 79.7109ZM76.6502 78.6294L76.3376 78.6443L76.6183 78.7064L76.6502 78.6294ZM98.0881 71.8827L98.0428 71.8682L98.0881 71.8827Z" fill="#F74705"/>
<path d="M98.8095 45.1581C98.999 45.5916 98.9677 45.9558 98.3003 46.2011C96.5077 46.8297 94.6287 47.0939 92.8281 47.6817L92.7193 47.7033C91.519 48.0166 90.4252 48.6291 89.2466 48.9805C87.1631 49.5914 85.1943 50.4952 83.0567 51.0226C80.7014 51.6167 78.4343 52.6079 76.1069 53.3425C73.3044 54.2231 70.5877 55.3223 67.8791 56.4387C65.5867 57.3972 63.3204 58.4165 61.0235 59.3523C59.4221 59.9948 57.7549 60.4714 56.13 61.0667C55.5361 61.2787 54.9693 61.5559 54.3853 61.7706C53.6699 62.0349 53.0459 62.38 52.1652 62.3097C51.4276 62.2486 50.583 62.8588 49.7796 63.1547C48.6644 63.5642 47.5084 63.8876 46.4356 64.3924C45.3627 64.8971 44.1108 65.1641 43.1309 65.9237C42.4595 66.1362 41.8044 66.3967 41.1704 66.7033C39.7918 67.4713 38.2526 67.7858 36.7782 68.3089C32.6925 69.7737 28.6962 71.4515 24.7703 73.2944C23.2658 73.9978 21.8226 74.8209 20.3614 75.6241C19.1987 76.1984 18.1774 75.7273 17.2129 75.3532C16.1897 74.9437 16.2343 74.266 17.233 73.6723C19.1071 72.5007 21.0544 71.4506 23.0631 70.5287C24.9013 69.7262 26.809 69.0842 28.6463 68.2536C29.5849 67.832 30.5578 67.4648 31.5181 67.0813C31.5815 67.1394 31.6132 67.1095 31.617 67.0334C33.0402 66.7042 34.301 65.9831 35.6349 65.4408C36.3544 65.1521 37.0985 64.929 37.858 64.774C38.3838 64.6697 38.9845 64.1832 39.5748 63.9296C41.422 63.1488 43.2845 62.398 45.1453 61.6382L46.4574 61.1284C47.0636 61.0977 47.5283 60.7088 48.0542 60.4868C48.3761 60.3523 48.7116 60.2622 49.0344 60.1323C49.4392 59.9883 49.8309 59.8098 50.2051 59.5987C50.9907 59.1364 51.8543 58.8215 52.7531 58.6696C52.8483 58.6508 52.93 58.5404 53.0153 58.4716L53.506 58.1906C53.506 58.1906 53.506 58.1906 53.5369 58.1562L53.5767 58.2143C54.3222 57.9764 55.0392 57.6573 55.715 57.2628L56.0757 57.2525C57.0369 56.85 57.9332 56.286 58.9729 56.0658L60.7374 55.4616C60.8606 55.489 60.9873 55.5345 61.0211 55.3488L61.2371 55.1788L61.2546 55.0293C61.6296 54.8376 62.0475 54.745 62.4684 54.7604C62.5347 54.6672 62.5875 54.5531 62.7305 54.6567L64.0645 54.0436C64.1731 53.9177 64.319 53.8297 64.4811 53.7925C64.6432 53.7553 64.8129 53.7708 64.9655 53.8367C65.2589 53.9623 65.3705 53.3607 65.7618 53.4574C65.793 53.4579 65.8239 53.4518 65.8525 53.4395L69.7062 51.9453C71.498 51.788 73.0771 50.9379 74.7228 50.329C76.52 49.6524 78.3046 48.9359 80.0927 48.2375C80.8054 47.9596 81.5091 47.6599 82.2147 47.3458C82.2263 47.3198 82.243 47.2965 82.2639 47.2773C82.2849 47.2581 82.3096 47.2435 82.3364 47.2342C82.3633 47.2249 82.3918 47.2212 82.4201 47.2233C82.4484 47.2254 82.476 47.2334 82.5011 47.2466C83.0943 47.0746 83.6709 46.8499 84.224 46.5753C84.997 46.1736 85.797 45.8261 86.6181 45.5354C88.3129 44.8414 90.0483 44.2571 91.7503 43.5758C92.2879 43.3597 92.8067 43.0993 93.3012 42.7973C93.7203 42.5352 93.9538 42.6679 94.1481 43.0062C94.515 43.6212 94.915 43.9282 95.802 43.4839C96.2908 43.2409 97.2138 42.9308 97.2337 44.0291C97.236 44.3018 97.48 44.1781 97.6368 44.1376C98.6738 43.9273 98.6063 44.7038 98.8095 45.1581ZM53.8474 58.3443L53.6391 58.2679C53.6794 58.31 53.7233 58.3486 53.7703 58.3832C53.7703 58.3832 53.8265 58.3579 53.8519 58.3434L53.8474 58.3443ZM59.0416 56.1982L59.0589 56.0958L58.9845 56.1718L59.0416 56.1982ZM61.5199 55.1322L61.3341 55.169L61.528 55.173L61.5199 55.1322ZM64.4423 54.0488L64.1732 54.0691L64.425 54.1276L64.4423 54.0488ZM82.3387 47.4012L82.2979 47.3858L82.3387 47.4012Z" fill="#F74705"/>
<path d="M115.723 95.8491C115.921 96.2807 115.88 96.6422 115.241 96.8867C113.484 97.5317 111.623 97.8349 109.846 98.4272L109.738 98.4488C108.552 98.764 107.471 99.3693 106.314 99.7352C104.252 100.337 102.3 101.228 100.19 101.731C97.8494 102.28 95.6014 103.249 93.2796 103.916C90.4926 104.732 87.7724 105.719 85.0558 106.724C82.75 107.568 80.4758 108.499 78.1492 109.285C76.529 109.833 74.8637 110.224 73.2182 110.691C72.6207 110.862 72.0422 111.104 71.4502 111.277C70.7294 111.491 70.0927 111.796 69.2258 111.652C68.501 111.537 67.6238 112.078 66.8079 112.311C65.6801 112.633 64.5207 112.868 63.4217 113.265C62.3228 113.662 61.0701 113.83 60.0396 114.501C59.3607 114.657 58.6919 114.854 58.0369 115.091C56.6104 115.713 55.0715 115.886 53.5929 116.245C49.4219 117.256 45.3194 118.469 41.2457 119.781C39.6826 120.284 38.1746 120.922 36.625 121.493C35.41 121.899 34.4695 121.289 33.5832 120.787C32.6969 120.284 32.7715 119.567 33.828 119.122C35.8068 118.236 37.8356 117.466 39.9041 116.816C41.7972 116.266 43.7352 115.872 45.6166 115.264C46.5822 114.955 47.5712 114.716 48.5485 114.442C48.6082 114.506 48.6363 114.481 48.6573 114.421C50.0748 114.253 51.3834 113.678 52.7469 113.285C53.4798 113.069 54.2307 112.92 54.9905 112.84C55.5116 112.784 56.1439 112.362 56.7423 112.173L62.3908 110.417L63.7262 110.025C64.3243 110.048 64.8051 109.693 65.34 109.516C65.6628 109.41 65.9991 109.348 66.3264 109.241C66.7333 109.13 67.13 108.985 67.5124 108.808C68.3159 108.412 69.184 108.163 70.0754 108.074C70.1661 108.056 70.2496 107.954 70.3412 107.894L70.8446 107.653C70.8446 107.653 70.8446 107.653 70.8754 107.618L70.9161 107.681C71.6621 107.497 72.3848 107.228 73.0705 106.882L73.4221 106.897C74.3868 106.559 75.2948 106.054 76.3227 105.893L78.0796 105.394C78.1992 105.427 78.3224 105.478 78.3662 105.295L78.5848 105.138L78.6123 104.992C78.9898 104.824 79.4033 104.753 79.8151 104.786C79.8823 104.697 79.9405 104.587 80.0798 104.696L81.4137 104.154C81.5231 104.035 81.6671 103.955 81.8251 103.924C81.983 103.892 82.1468 103.912 82.293 103.979C82.5746 104.117 82.7115 103.524 83.0883 103.643C83.1179 103.643 83.1474 103.638 83.1744 103.626L87.0134 102.294C88.7833 102.217 90.3578 101.415 91.9862 100.838C93.7498 100.229 95.5315 99.5458 97.2979 98.8801C97.9988 98.6139 98.6962 98.3296 99.3953 98.0544C99.4643 97.9512 99.5468 97.8925 99.6772 97.9561C100.261 97.7913 100.828 97.5717 101.37 97.3002C102.132 96.9092 102.919 96.5705 103.727 96.2865C105.387 95.6088 107.083 95.0136 108.755 94.3476C109.281 94.1293 109.785 93.8606 110.259 93.5454C110.677 93.2788 110.902 93.4178 111.095 93.7471C111.474 94.3549 111.869 94.6582 112.741 94.2075C113.21 93.9591 114.115 93.6335 114.159 94.7318C114.17 95.0028 114.409 94.8754 114.565 94.8349C115.555 94.6245 115.511 95.3965 115.723 95.8491ZM71.127 107.818L70.926 107.731C70.9638 107.774 71.0049 107.815 71.049 107.852C71.049 107.852 71.0971 107.833 71.127 107.818ZM76.3487 106.024L76.3661 105.922L76.2908 105.994L76.3487 106.024ZM78.8331 105.108L78.6473 105.145L78.8385 105.159L78.8331 105.108ZM81.7526 104.176L81.4853 104.182L81.7307 104.256L81.7526 104.176ZM99.4966 98.1144L99.4604 98.1216C99.4665 98.1242 99.4731 98.125 99.4796 98.1237C99.4861 98.1224 99.4921 98.1192 99.4966 98.1144Z" fill="#F74705"/>
<path d="M54.3259 34.2165C53.9819 34.5485 53.425 34.282 52.4473 32.1064C51.1778 29.1963 50.2133 26.1624 49.5691 23.0535C49.3415 22.14 49.2298 21.2015 49.2367 20.2601C49.2526 19.6482 49.3682 19.043 49.5787 18.4682C49.8074 17.8597 50.1507 17.3008 50.59 16.8216C51.331 16.0529 52.2328 15.4575 53.2308 15.078C53.6669 14.9021 54.0632 14.7623 54.4522 14.6333L55.571 14.289L55.9209 14.1773C59.8076 13.0393 63.699 11.8298 67.6872 11.1804C71.2132 10.5861 74.7704 10.1954 78.3413 10.0103C81.9397 9.83522 85.5465 10.0067 89.1121 10.5223C93.1209 11.0861 97.0682 12.0241 100.902 13.3241C107.097 15.3947 112.821 18.6703 117.745 22.9624C119.599 24.5624 121.318 26.3123 122.885 28.1942C126.003 31.9671 128.516 36.2013 130.334 40.7455C131.868 44.5247 133.133 48.4074 134.121 52.3645C135.15 56.2873 135.959 60.2645 136.544 64.2775C137.329 69.8821 137.627 75.544 137.436 81.2C137.427 82.2285 137.372 83.2569 137.328 84.2926C137.284 85.3283 137.224 86.3576 137.131 87.3841C137.066 88.0093 137.036 88.6182 136.964 89.2261C136.891 89.834 136.816 90.4329 136.728 91.0345C136.561 92.2785 136.279 93.5045 135.886 94.6967C135.801 94.9584 135.725 95.2374 135.652 95.5345C135.579 95.8316 135.487 96.1323 135.414 96.453C135.259 97.0961 135.122 97.7827 134.985 98.4929C134.848 99.2032 134.671 99.926 134.518 100.649C134.364 101.372 134.209 102.086 133.993 102.755C132.896 106.483 131.536 110.129 129.924 113.666C128.324 117.308 126.141 120.718 124.248 124.146L124.275 124.141C123.594 125.076 122.922 126.034 122.208 126.948C121.494 127.862 120.784 128.771 120.075 129.66C116.895 133.72 112.963 137.029 108.831 139.926C108.467 140.181 108.111 140.45 107.745 140.697L106.611 141.392L105.477 142.088C105.289 142.206 105.106 142.327 104.911 142.441L104.33 142.763L101.994 144.051L99.5894 145.201C97.9802 145.949 96.3337 146.613 94.6564 147.192C92.9844 147.787 91.2891 148.288 89.5865 148.753C82.7554 150.578 75.7537 151.425 68.7843 151.982C63.4408 152.401 58.0268 152.701 52.5708 152.125C49.4844 151.788 46.5666 150.546 44.1847 148.554C43.1449 147.729 42.968 147.288 43.443 147.189C43.918 147.09 45.0467 147.342 46.7623 147.798C50.0526 148.596 53.42 149.034 56.805 149.105C60.2148 149.22 63.6603 149.064 67.1204 148.864C73.4525 148.466 79.7839 147.969 85.9093 146.552C89.044 145.851 92.1267 144.935 95.1351 143.809C95.1947 143.823 95.2572 143.819 95.3142 143.797C95.3713 143.774 95.4201 143.735 95.4543 143.685C99.6704 142.26 103.546 139.923 107.147 137.297L108.602 136.25L110.017 135.145C110.485 134.769 110.977 134.427 111.437 134.039L112.828 132.882C113.175 132.597 113.506 132.294 113.821 131.974C114.148 131.627 114.488 131.248 114.835 130.859L115.878 129.682C116.21 129.268 116.544 128.862 116.878 128.48C117.931 127.33 118.862 126.062 119.834 124.833C120.297 124.199 120.74 123.556 121.197 122.914C121.421 122.596 121.65 122.278 121.868 121.952L122.5 120.96C124.2 118.323 125.711 115.569 127.023 112.719L127.927 110.722C128.214 110.053 128.479 109.369 128.746 108.675C128.956 108.276 129.146 107.866 129.313 107.446C129.469 107.024 129.615 106.595 129.743 106.169C130.005 105.307 130.269 104.454 130.501 103.579C130.766 102.537 131.174 101.51 131.406 100.446L131.89 98.466C132.041 97.8048 132.145 97.1389 132.246 96.5111C132.676 93.6655 133.123 90.9061 133.572 88.1086C133.595 87.7778 133.594 87.4459 133.568 87.1154L133.581 87.1834L133.647 85.4228C133.64 85.3785 133.632 85.3347 133.621 85.2913L133.692 85.2443C133.796 84.013 133.868 82.7834 133.861 81.5601L133.822 79.726L133.797 78.7889L133.748 77.8564L133.845 76.7963L133.838 76.7646C133.838 76.7646 133.832 76.7329 133.827 76.7102C133.821 76.6911 133.817 76.6713 133.816 76.6513C133.699 73.3771 133.266 70.1232 133.014 66.8333C132.925 65.8618 132.785 64.8955 132.655 63.9275L132.457 62.4782L132.217 61.0325C132.27 60.7044 132.204 60.3683 132.029 60.0852C131.976 59.8133 131.882 59.554 131.809 59.2811L131.634 59.0896C131.336 57.8282 131.128 56.5472 131.011 55.2563L131.016 55.2835C130.839 55.019 130.763 54.7001 130.8 54.3842L130.808 54.425L130.795 54.357C130.423 52.8606 130.013 51.3717 129.565 49.8902C129.163 49.0268 128.932 48.0937 128.884 47.1425C128.879 46.3804 128.073 45.5934 127.951 44.5529C127.924 44.4618 127.892 44.3723 127.856 44.2845C127.137 42.2691 126.301 40.2973 125.352 38.3792C124.422 36.4757 123.34 34.6502 122.117 32.9205C120.777 30.5771 119.085 28.4533 117.1 26.6232C115.098 24.7693 112.929 23.1037 110.621 21.6473C105.574 18.4469 99.9922 16.182 94.1421 14.9611C91.8155 14.4785 89.4602 14.1461 87.0909 13.966C86.7709 14.0338 86.438 14.0064 86.1333 13.8874C85.1693 13.777 84.12 13.7589 83.1251 13.7065C82.1302 13.6541 81.1678 13.6942 80.3883 13.778C77.6468 13.9683 74.9696 14.1504 72.3085 14.532C66.6496 15.3398 61.08 16.6822 55.6743 18.541C55.0312 18.7245 54.4328 19.0388 53.9166 19.4642C53.8026 19.5597 53.7226 19.6896 53.6885 19.8344C53.673 19.9642 53.6738 20.0954 53.6906 20.225C53.7457 20.582 53.7684 20.9432 53.7586 21.3043C53.7526 21.556 53.6568 21.7973 53.4883 21.9844C52.9309 22.5942 52.6656 23.5607 53.7599 26.4904C54.1178 27.3837 54.4275 28.2957 54.6877 29.2222C54.8902 30.0535 54.853 30.6026 54.1639 30.3341C53.8243 30.1895 54.1936 30.983 54.3885 31.4672C55.0113 32.9454 55.0973 33.5218 54.9473 33.7871C54.7974 34.0523 54.5165 34.0374 54.3259 34.2165ZM133.913 84.6965L133.744 85.2009C133.806 85.1274 133.861 85.0487 133.91 84.9656C133.916 84.876 133.917 84.7862 133.913 84.6965ZM133.198 67.023L133.088 66.8752L133.148 67.1743L133.198 67.023ZM131.768 58.6485L131.884 59.2332L131.842 58.6667L131.768 58.6485ZM129.503 49.0737L129.662 49.8804L129.62 49.1917L129.503 49.0737ZM87.0049 13.9831L87.1063 14.0195C87.0735 14.0045 87.0396 13.9923 87.0049 13.9831Z" fill="#F74705"/>
<path d="M98.4634 160.003L98.4703 160.008L98.4634 160.003Z" fill="#F74705"/>
<path d="M121.435 157.357C121.557 157.804 121.561 158.156 121.21 158.24C120.267 158.474 119.26 158.339 118.314 158.532L118.26 158.542C117.62 158.594 117.062 158.964 116.437 159.045C115.337 159.197 114.311 159.655 113.174 159.692C111.918 159.771 110.741 160.25 109.508 160.47C108.038 160.761 106.595 161.172 105.192 161.698C103.996 162.129 102.825 162.639 101.616 163.024C100.78 163.298 99.8914 163.404 99.0338 163.616C98.7165 163.679 98.4272 163.836 98.1135 163.917C97.9295 164.012 97.7264 164.066 97.519 164.073C97.3117 164.079 97.1054 164.04 96.9155 163.956C96.4927 163.748 96.0725 164.123 95.6509 164.254C95.0509 164.359 94.4608 164.513 93.8867 164.717C93.319 164.966 92.6494 164.962 92.151 165.466C91.795 165.526 91.4488 165.634 91.1219 165.788C90.4244 166.213 89.5808 166.188 88.8057 166.365C86.6434 166.878 84.5326 167.588 82.4997 168.486C81.7268 168.854 80.9747 169.265 80.2467 169.715C79.649 170.003 78.9877 169.352 78.3752 168.805C77.7626 168.257 77.6622 167.585 78.1558 167.247C79.0814 166.565 80.085 165.996 81.1454 165.552C82.1156 165.195 83.1453 164.995 84.1092 164.606C84.6025 164.409 85.122 164.273 85.627 164.112C85.6731 164.178 85.684 164.162 85.6814 164.101C86.4625 164.097 87.1057 163.682 87.8147 163.457C88.2048 163.334 88.6134 163.28 89.022 163.298C89.311 163.306 89.5998 162.981 89.9162 162.866C90.8937 162.522 91.8774 162.209 92.8584 161.882C93.0887 161.808 93.3027 161.747 93.5529 161.679C93.898 161.78 94.1177 161.51 94.3988 161.407C94.571 161.373 94.7478 161.338 94.9245 161.303C95.1412 161.251 95.3484 161.166 95.5385 161.05C95.9322 160.78 96.408 160.658 96.8829 160.703C96.9328 160.693 96.97 160.62 97.0127 160.574L97.2631 160.411C97.2631 160.411 97.2631 160.411 97.2586 160.388L97.2721 160.456C97.6731 160.386 98.0551 160.234 98.3937 160.008L98.5948 160.072C99.1008 159.891 99.5553 159.547 100.122 159.552L101.06 159.366C101.132 159.422 101.211 159.487 101.214 159.336L101.318 159.221L101.32 159.084C101.421 159.032 101.534 159.005 101.649 159.004C101.763 159.004 101.876 159.03 101.978 159.08C102.007 159.009 102.029 158.91 102.123 159.052L102.816 158.745C102.943 158.602 103.065 158.502 103.286 158.736C103.506 158.971 103.477 158.369 103.717 158.538C103.725 158.54 103.733 158.54 103.741 158.538C103.749 158.537 103.756 158.534 103.763 158.529L105.802 157.908C106.788 158.132 107.607 157.654 108.478 157.41C109.432 157.141 110.368 156.824 111.313 156.528C111.69 156.411 112.062 156.271 112.437 156.14C112.468 156.059 112.511 156.017 112.586 156.111C112.896 156.072 113.197 155.977 113.473 155.831C113.868 155.608 114.29 155.438 114.73 155.328C115.611 155.021 116.545 154.812 117.449 154.525C117.74 154.422 118.013 154.272 118.256 154.082C118.478 153.92 118.611 154.115 118.731 154.459C118.962 155.125 119.197 155.502 119.662 155.259C119.915 155.129 120.401 155.018 120.465 156.075C120.479 156.336 120.607 156.268 120.69 156.261C121.304 156.149 121.303 156.879 121.435 157.357ZM97.4803 160.58L97.3545 160.468L97.4376 160.602C97.4376 160.602 97.4631 160.588 97.4803 160.58ZM100.214 159.638L100.196 159.547L100.161 159.606L100.214 159.638ZM101.529 159.141L101.434 159.16L101.541 159.205L101.529 159.141ZM103.081 158.725L102.931 158.684L103.076 158.797L103.081 158.725ZM112.557 156.107L112.552 156.08L112.557 156.107Z" fill="#F74705"/>
</svg>
