<svg width="307" height="287" viewBox="0 0 307 287" fill="none" xmlns="http://www.w3.org/2000/svg">
<path d="M306.281 0H0V286.18H306.281V0Z" fill="#50B154"/>
<path d="M37.6474 24.0195C39.1709 24.0195 40.4059 22.7844 40.4059 21.2609C40.4059 19.7375 39.1709 18.5024 37.6474 18.5024C36.1239 18.5024 34.8889 19.7375 34.8889 21.2609C34.8889 22.7844 36.1239 24.0195 37.6474 24.0195Z" fill="#C8E6C9"/>
<path d="M37.8039 53.2582C39.3274 53.2582 40.5624 52.0232 40.5624 50.4997C40.5624 48.9762 39.3274 47.7412 37.8039 47.7412C36.2804 47.7412 35.0454 48.9762 35.0454 50.4997C35.0454 52.0232 36.2804 53.2582 37.8039 53.2582Z" fill="#C8E6C9"/>
<path d="M37.9533 82.4965C39.4768 82.4965 40.7119 81.2615 40.7119 79.738C40.7119 78.2145 39.4768 76.9795 37.9533 76.9795C36.4299 76.9795 35.1948 78.2145 35.1948 79.738C35.1948 81.2615 36.4299 82.4965 37.9533 82.4965Z" fill="#C8E6C9"/>
<path d="M38.1101 111.735C39.6336 111.735 40.8686 110.5 40.8686 108.977C40.8686 107.453 39.6336 106.218 38.1101 106.218C36.5866 106.218 35.3516 107.453 35.3516 108.977C35.3516 110.5 36.5866 111.735 38.1101 111.735Z" fill="#C8E6C9"/>
<path d="M38.2585 140.974C39.782 140.974 41.017 139.739 41.017 138.216C41.017 136.692 39.782 135.457 38.2585 135.457C36.735 135.457 35.5 136.692 35.5 138.216C35.5 139.739 36.735 140.974 38.2585 140.974Z" fill="#C8E6C9"/>
<path d="M38.4155 170.213C39.939 170.213 41.174 168.978 41.174 167.454C41.174 165.931 39.939 164.696 38.4155 164.696C36.892 164.696 35.657 165.931 35.657 167.454C35.657 168.978 36.892 170.213 38.4155 170.213Z" fill="#C8E6C9"/>
<path d="M38.5725 199.452C40.096 199.452 41.331 198.217 41.331 196.693C41.331 195.17 40.096 193.935 38.5725 193.935C37.049 193.935 35.814 195.17 35.814 196.693C35.814 198.217 37.049 199.452 38.5725 199.452Z" fill="#C8E6C9"/>
<path d="M38.7212 228.69C40.2446 228.69 41.4797 227.455 41.4797 225.931C41.4797 224.408 40.2446 223.173 38.7212 223.173C37.1977 223.173 35.9626 224.408 35.9626 225.931C35.9626 227.455 37.1977 228.69 38.7212 228.69Z" fill="#C8E6C9"/>
<path d="M38.8777 257.929C40.4011 257.929 41.6362 256.694 41.6362 255.17C41.6362 253.647 40.4011 252.412 38.8777 252.412C37.3542 252.412 36.1191 253.647 36.1191 255.17C36.1191 256.694 37.3542 257.929 38.8777 257.929Z" fill="#C8E6C9"/>
<path d="M67.7641 23.8627C69.2876 23.8627 70.5226 22.6277 70.5226 21.1042C70.5226 19.5807 69.2876 18.3457 67.7641 18.3457C66.2406 18.3457 65.0056 19.5807 65.0056 21.1042C65.0056 22.6277 66.2406 23.8627 67.7641 23.8627Z" fill="#C8E6C9"/>
<path d="M67.9209 53.1015C69.4444 53.1015 70.6794 51.8665 70.6794 50.343C70.6794 48.8195 69.4444 47.5845 67.9209 47.5845C66.3974 47.5845 65.1624 48.8195 65.1624 50.343C65.1624 51.8665 66.3974 53.1015 67.9209 53.1015Z" fill="#C8E6C9"/>
<path d="M68.0693 82.3403C69.5928 82.3403 70.8278 81.1052 70.8278 79.5818C70.8278 78.0583 69.5928 76.8232 68.0693 76.8232C66.5458 76.8232 65.3108 78.0583 65.3108 79.5818C65.3108 81.1052 66.5458 82.3403 68.0693 82.3403Z" fill="#C8E6C9"/>
<path d="M68.2263 111.579C69.7498 111.579 70.9848 110.344 70.9848 108.82C70.9848 107.297 69.7498 106.062 68.2263 106.062C66.7028 106.062 65.4678 107.297 65.4678 108.82C65.4678 110.344 66.7028 111.579 68.2263 111.579Z" fill="#C8E6C9"/>
<path d="M68.3833 140.817C69.9068 140.817 71.1418 139.582 71.1418 138.059C71.1418 136.535 69.9068 135.3 68.3833 135.3C66.8598 135.3 65.6248 136.535 65.6248 138.059C65.6248 139.582 66.8598 140.817 68.3833 140.817Z" fill="#C8E6C9"/>
<path d="M68.5319 170.056C70.0554 170.056 71.2905 168.821 71.2905 167.298C71.2905 165.774 70.0554 164.539 68.5319 164.539C67.0085 164.539 65.7734 165.774 65.7734 167.298C65.7734 168.821 67.0085 170.056 68.5319 170.056Z" fill="#C8E6C9"/>
<path d="M68.6884 199.295C70.2119 199.295 71.447 198.06 71.447 196.536C71.447 195.013 70.2119 193.778 68.6884 193.778C67.165 193.778 65.9299 195.013 65.9299 196.536C65.9299 198.06 67.165 199.295 68.6884 199.295Z" fill="#C8E6C9"/>
<path d="M68.8379 228.533C70.3613 228.533 71.5964 227.298 71.5964 225.775C71.5964 224.251 70.3613 223.016 68.8379 223.016C67.3144 223.016 66.0793 224.251 66.0793 225.775C66.0793 227.298 67.3144 228.533 68.8379 228.533Z" fill="#C8E6C9"/>
<path d="M68.9944 257.772C70.5178 257.772 71.7529 256.537 71.7529 255.013C71.7529 253.49 70.5178 252.255 68.9944 252.255C67.4709 252.255 66.2358 253.49 66.2358 255.013C66.2358 256.537 67.4709 257.772 68.9944 257.772Z" fill="#C8E6C9"/>
<path d="M97.0027 23.706C98.5261 23.706 99.7612 22.471 99.7612 20.9475C99.7612 19.424 98.5261 18.189 97.0027 18.189C95.4792 18.189 94.2441 19.424 94.2441 20.9475C94.2441 22.471 95.4792 23.706 97.0027 23.706Z" fill="#C8E6C9"/>
<path d="M97.1591 52.9448C98.6826 52.9448 99.9177 51.7097 99.9177 50.1862C99.9177 48.6628 98.6826 47.4277 97.1591 47.4277C95.6357 47.4277 94.4006 48.6628 94.4006 50.1862C94.4006 51.7097 95.6357 52.9448 97.1591 52.9448Z" fill="#C8E6C9"/>
<path d="M97.3081 82.183C98.8316 82.183 100.067 80.948 100.067 79.4245C100.067 77.901 98.8316 76.666 97.3081 76.666C95.7846 76.666 94.5496 77.901 94.5496 79.4245C94.5496 80.948 95.7846 82.183 97.3081 82.183Z" fill="#C8E6C9"/>
<path d="M97.4651 111.422C98.9885 111.422 100.224 110.187 100.224 108.663C100.224 107.14 98.9885 105.905 97.4651 105.905C95.9416 105.905 94.7065 107.14 94.7065 108.663C94.7065 110.187 95.9416 111.422 97.4651 111.422Z" fill="#C8E6C9"/>
<path d="M97.6218 140.668C99.1453 140.668 100.38 139.433 100.38 137.91C100.38 136.386 99.1453 135.151 97.6218 135.151C96.0983 135.151 94.8633 136.386 94.8633 137.91C94.8633 139.433 96.0983 140.668 97.6218 140.668Z" fill="#C8E6C9"/>
<path d="M97.7707 169.907C99.2942 169.907 100.529 168.672 100.529 167.149C100.529 165.625 99.2942 164.39 97.7707 164.39C96.2472 164.39 95.0122 165.625 95.0122 167.149C95.0122 168.672 96.2472 169.907 97.7707 169.907Z" fill="#C8E6C9"/>
<path d="M97.9272 199.145C99.4507 199.145 100.686 197.91 100.686 196.387C100.686 194.863 99.4507 193.628 97.9272 193.628C96.4037 193.628 95.1687 194.863 95.1687 196.387C95.1687 197.91 96.4037 199.145 97.9272 199.145Z" fill="#C8E6C9"/>
<path d="M98.0761 228.384C99.5996 228.384 100.835 227.149 100.835 225.626C100.835 224.102 99.5996 222.867 98.0761 222.867C96.5527 222.867 95.3176 224.102 95.3176 225.626C95.3176 227.149 96.5527 228.384 98.0761 228.384Z" fill="#C8E6C9"/>
<path d="M98.2329 257.623C99.7564 257.623 100.991 256.388 100.991 254.864C100.991 253.341 99.7564 252.106 98.2329 252.106C96.7094 252.106 95.4744 253.341 95.4744 254.864C95.4744 256.388 96.7094 257.623 98.2329 257.623Z" fill="#C8E6C9"/>
<path d="M127.119 23.5493C128.642 23.5493 129.877 22.3142 129.877 20.7907C129.877 19.2673 128.642 18.0322 127.119 18.0322C125.595 18.0322 124.36 19.2673 124.36 20.7907C124.36 22.3142 125.595 23.5493 127.119 23.5493Z" fill="#C8E6C9"/>
<path d="M127.276 52.788C128.799 52.788 130.034 51.553 130.034 50.0295C130.034 48.506 128.799 47.271 127.276 47.271C125.752 47.271 124.517 48.506 124.517 50.0295C124.517 51.553 125.752 52.788 127.276 52.788Z" fill="#C8E6C9"/>
<path d="M127.432 82.0263C128.956 82.0263 130.191 80.7913 130.191 79.2678C130.191 77.7443 128.956 76.5093 127.432 76.5093C125.909 76.5093 124.674 77.7443 124.674 79.2678C124.674 80.7913 125.909 82.0263 127.432 82.0263Z" fill="#C8E6C9"/>
<path d="M127.582 111.265C129.105 111.265 130.34 110.03 130.34 108.507C130.34 106.983 129.105 105.748 127.582 105.748C126.058 105.748 124.823 106.983 124.823 108.507C124.823 110.03 126.058 111.265 127.582 111.265Z" fill="#C8E6C9"/>
<path d="M127.738 140.504C129.261 140.504 130.497 139.269 130.497 137.745C130.497 136.222 129.261 134.987 127.738 134.987C126.215 134.987 124.979 136.222 124.979 137.745C124.979 139.269 126.215 140.504 127.738 140.504Z" fill="#C8E6C9"/>
<path d="M127.887 169.743C129.41 169.743 130.645 168.508 130.645 166.984C130.645 165.461 129.41 164.226 127.887 164.226C126.363 164.226 125.128 165.461 125.128 166.984C125.128 168.508 126.363 169.743 127.887 169.743Z" fill="#C8E6C9"/>
<path d="M128.044 198.981C129.567 198.981 130.802 197.746 130.802 196.222C130.802 194.699 129.567 193.464 128.044 193.464C126.52 193.464 125.285 194.699 125.285 196.222C125.285 197.746 126.52 198.981 128.044 198.981Z" fill="#C8E6C9"/>
<path d="M128.193 228.227C129.716 228.227 130.951 226.992 130.951 225.469C130.951 223.945 129.716 222.71 128.193 222.71C126.669 222.71 125.434 223.945 125.434 225.469C125.434 226.992 126.669 228.227 128.193 228.227Z" fill="#C8E6C9"/>
<path d="M128.35 257.466C129.873 257.466 131.108 256.231 131.108 254.708C131.108 253.184 129.873 251.949 128.35 251.949C126.826 251.949 125.591 253.184 125.591 254.708C125.591 256.231 126.826 257.466 128.35 257.466Z" fill="#C8E6C9"/>
<path d="M156.366 23.4003C157.889 23.4003 159.124 22.1653 159.124 20.6418C159.124 19.1183 157.889 17.8833 156.366 17.8833C154.842 17.8833 153.607 19.1183 153.607 20.6418C153.607 22.1653 154.842 23.4003 156.366 23.4003Z" fill="#C8E6C9"/>
<path d="M156.514 52.6391C158.038 52.6391 159.273 51.4041 159.273 49.8806C159.273 48.3571 158.038 47.1221 156.514 47.1221C154.991 47.1221 153.756 48.3571 153.756 49.8806C153.756 51.4041 154.991 52.6391 156.514 52.6391Z" fill="#C8E6C9"/>
<path d="M156.671 81.8774C158.194 81.8774 159.429 80.6423 159.429 79.1189C159.429 77.5954 158.194 76.3604 156.671 76.3604C155.147 76.3604 153.912 77.5954 153.912 79.1189C153.912 80.6423 155.147 81.8774 156.671 81.8774Z" fill="#C8E6C9"/>
<path d="M156.82 111.116C158.343 111.116 159.578 109.881 159.578 108.358C159.578 106.834 158.343 105.599 156.82 105.599C155.296 105.599 154.061 106.834 154.061 108.358C154.061 109.881 155.296 111.116 156.82 111.116Z" fill="#C8E6C9"/>
<path d="M156.977 140.355C158.5 140.355 159.735 139.12 159.735 137.596C159.735 136.073 158.5 134.838 156.977 134.838C155.453 134.838 154.218 136.073 154.218 137.596C154.218 139.12 155.453 140.355 156.977 140.355Z" fill="#C8E6C9"/>
<path d="M157.125 169.594C158.649 169.594 159.884 168.359 159.884 166.835C159.884 165.312 158.649 164.077 157.125 164.077C155.602 164.077 154.367 165.312 154.367 166.835C154.367 168.359 155.602 169.594 157.125 169.594Z" fill="#C8E6C9"/>
<path d="M157.282 198.832C158.806 198.832 160.041 197.597 160.041 196.074C160.041 194.55 158.806 193.315 157.282 193.315C155.759 193.315 154.524 194.55 154.524 196.074C154.524 197.597 155.759 198.832 157.282 198.832Z" fill="#C8E6C9"/>
<path d="M157.439 228.071C158.962 228.071 160.197 226.836 160.197 225.313C160.197 223.789 158.962 222.554 157.439 222.554C155.915 222.554 154.68 223.789 154.68 225.313C154.68 226.836 155.915 228.071 157.439 228.071Z" fill="#C8E6C9"/>
<path d="M157.588 257.31C159.111 257.31 160.346 256.074 160.346 254.551C160.346 253.028 159.111 251.792 157.588 251.792C156.064 251.792 154.829 253.028 154.829 254.551C154.829 256.074 156.064 257.31 157.588 257.31Z" fill="#C8E6C9"/>
<path d="M183.716 23.2514C185.239 23.2514 186.474 22.0164 186.474 20.4929C186.474 18.9694 185.239 17.7344 183.716 17.7344C182.192 17.7344 180.957 18.9694 180.957 20.4929C180.957 22.0164 182.192 23.2514 183.716 23.2514Z" fill="#C8E6C9"/>
<path d="M183.872 52.4902C185.396 52.4902 186.631 51.2551 186.631 49.7316C186.631 48.2082 185.396 46.9731 183.872 46.9731C182.349 46.9731 181.114 48.2082 181.114 49.7316C181.114 51.2551 182.349 52.4902 183.872 52.4902Z" fill="#C8E6C9"/>
<path d="M184.029 81.7289C185.553 81.7289 186.788 80.4939 186.788 78.9704C186.788 77.4469 185.553 76.2119 184.029 76.2119C182.506 76.2119 181.271 77.4469 181.271 78.9704C181.271 80.4939 182.506 81.7289 184.029 81.7289Z" fill="#C8E6C9"/>
<path d="M184.178 110.967C185.701 110.967 186.936 109.732 186.936 108.209C186.936 106.685 185.701 105.45 184.178 105.45C182.654 105.45 181.419 106.685 181.419 108.209C181.419 109.732 182.654 110.967 184.178 110.967Z" fill="#C8E6C9"/>
<path d="M184.335 140.214C185.858 140.214 187.093 138.979 187.093 137.455C187.093 135.932 185.858 134.697 184.335 134.697C182.811 134.697 181.576 135.932 181.576 137.455C181.576 138.979 182.811 140.214 184.335 140.214Z" fill="#C8E6C9"/>
<path d="M184.484 169.453C186.007 169.453 187.242 168.218 187.242 166.694C187.242 165.171 186.007 163.936 184.484 163.936C182.96 163.936 181.725 165.171 181.725 166.694C181.725 168.218 182.96 169.453 184.484 169.453Z" fill="#C8E6C9"/>
<path d="M184.64 198.691C186.164 198.691 187.399 197.456 187.399 195.933C187.399 194.409 186.164 193.174 184.64 193.174C183.117 193.174 181.882 194.409 181.882 195.933C181.882 197.456 183.117 198.691 184.64 198.691Z" fill="#C8E6C9"/>
<path d="M184.789 227.93C186.313 227.93 187.548 226.695 187.548 225.171C187.548 223.648 186.313 222.413 184.789 222.413C183.266 222.413 182.031 223.648 182.031 225.171C182.031 226.695 183.266 227.93 184.789 227.93Z" fill="#C8E6C9"/>
<path d="M184.946 257.168C186.469 257.168 187.704 255.933 187.704 254.41C187.704 252.886 186.469 251.651 184.946 251.651C183.422 251.651 182.187 252.886 182.187 254.41C182.187 255.933 183.422 257.168 184.946 257.168Z" fill="#C8E6C9"/>
<path d="M212.954 23.1025C214.478 23.1025 215.713 21.8674 215.713 20.344C215.713 18.8205 214.478 17.5854 212.954 17.5854C211.431 17.5854 210.196 18.8205 210.196 20.344C210.196 21.8674 211.431 23.1025 212.954 23.1025Z" fill="#C8E6C9"/>
<path d="M213.111 52.3412C214.634 52.3412 215.869 51.1062 215.869 49.5827C215.869 48.0593 214.634 46.8242 213.111 46.8242C211.587 46.8242 210.352 48.0593 210.352 49.5827C210.352 51.1062 211.587 52.3412 213.111 52.3412Z" fill="#C8E6C9"/>
<path d="M213.268 81.5795C214.791 81.5795 216.026 80.3445 216.026 78.821C216.026 77.2975 214.791 76.0625 213.268 76.0625C211.744 76.0625 210.509 77.2975 210.509 78.821C210.509 80.3445 211.744 81.5795 213.268 81.5795Z" fill="#C8E6C9"/>
<path d="M213.417 110.818C214.94 110.818 216.175 109.583 216.175 108.06C216.175 106.536 214.94 105.301 213.417 105.301C211.893 105.301 210.658 106.536 210.658 108.06C210.658 109.583 211.893 110.818 213.417 110.818Z" fill="#C8E6C9"/>
<path d="M213.573 140.057C215.097 140.057 216.332 138.822 216.332 137.299C216.332 135.775 215.097 134.54 213.573 134.54C212.05 134.54 210.815 135.775 210.815 137.299C210.815 138.822 212.05 140.057 213.573 140.057Z" fill="#C8E6C9"/>
<path d="M213.722 169.296C215.246 169.296 216.481 168.061 216.481 166.537C216.481 165.014 215.246 163.779 213.722 163.779C212.199 163.779 210.964 165.014 210.964 166.537C210.964 168.061 212.199 169.296 213.722 169.296Z" fill="#C8E6C9"/>
<path d="M213.879 198.535C215.402 198.535 216.637 197.3 216.637 195.776C216.637 194.253 215.402 193.018 213.879 193.018C212.355 193.018 211.12 194.253 211.12 195.776C211.12 197.3 212.355 198.535 213.879 198.535Z" fill="#C8E6C9"/>
<path d="M214.028 227.773C215.551 227.773 216.786 226.538 216.786 225.015C216.786 223.491 215.551 222.256 214.028 222.256C212.504 222.256 211.269 223.491 211.269 225.015C211.269 226.538 212.504 227.773 214.028 227.773Z" fill="#C8E6C9"/>
<path d="M214.184 257.012C215.708 257.012 216.943 255.777 216.943 254.253C216.943 252.73 215.708 251.495 214.184 251.495C212.661 251.495 211.426 252.73 211.426 254.253C211.426 255.777 212.661 257.012 214.184 257.012Z" fill="#C8E6C9"/>
<path d="M243.078 22.9457C244.602 22.9457 245.837 21.7107 245.837 20.1872C245.837 18.6637 244.602 17.4287 243.078 17.4287C241.555 17.4287 240.32 18.6637 240.32 20.1872C240.32 21.7107 241.555 22.9457 243.078 22.9457Z" fill="#C8E6C9"/>
<path d="M243.227 52.1845C244.751 52.1845 245.986 50.9495 245.986 49.426C245.986 47.9025 244.751 46.6675 243.227 46.6675C241.704 46.6675 240.469 47.9025 240.469 49.426C240.469 50.9495 241.704 52.1845 243.227 52.1845Z" fill="#C8E6C9"/>
<path d="M243.384 81.4233C244.908 81.4233 246.143 80.1882 246.143 78.6648C246.143 77.1413 244.908 75.9062 243.384 75.9062C241.861 75.9062 240.625 77.1413 240.625 78.6648C240.625 80.1882 241.861 81.4233 243.384 81.4233Z" fill="#C8E6C9"/>
<path d="M243.533 110.662C245.056 110.662 246.291 109.427 246.291 107.903C246.291 106.38 245.056 105.145 243.533 105.145C242.009 105.145 240.774 106.38 240.774 107.903C240.774 109.427 242.009 110.662 243.533 110.662Z" fill="#C8E6C9"/>
<path d="M243.69 139.9C245.213 139.9 246.448 138.665 246.448 137.142C246.448 135.618 245.213 134.383 243.69 134.383C242.166 134.383 240.931 135.618 240.931 137.142C240.931 138.665 242.166 139.9 243.69 139.9Z" fill="#C8E6C9"/>
<path d="M243.839 169.139C245.362 169.139 246.597 167.904 246.597 166.381C246.597 164.857 245.362 163.622 243.839 163.622C242.315 163.622 241.08 164.857 241.08 166.381C241.08 167.904 242.315 169.139 243.839 169.139Z" fill="#C8E6C9"/>
<path d="M243.995 198.378C245.519 198.378 246.754 197.143 246.754 195.619C246.754 194.096 245.519 192.861 243.995 192.861C242.472 192.861 241.237 194.096 241.237 195.619C241.237 197.143 242.472 198.378 243.995 198.378Z" fill="#C8E6C9"/>
<path d="M244.152 227.617C245.676 227.617 246.911 226.382 246.911 224.858C246.911 223.335 245.676 222.1 244.152 222.1C242.629 222.1 241.394 223.335 241.394 224.858C241.394 226.382 242.629 227.617 244.152 227.617Z" fill="#C8E6C9"/>
<path d="M244.301 256.855C245.824 256.855 247.06 255.62 247.06 254.096C247.06 252.573 245.824 251.338 244.301 251.338C242.778 251.338 241.542 252.573 241.542 254.096C241.542 255.62 242.778 256.855 244.301 256.855Z" fill="#C8E6C9"/>
<path d="M272.317 22.789C273.841 22.789 275.076 21.554 275.076 20.0305C275.076 18.507 273.841 17.272 272.317 17.272C270.794 17.272 269.559 18.507 269.559 20.0305C269.559 21.554 270.794 22.789 272.317 22.789Z" fill="#C8E6C9"/>
<path d="M272.466 52.0278C273.99 52.0278 275.225 50.7927 275.225 49.2693C275.225 47.7458 273.99 46.5107 272.466 46.5107C270.943 46.5107 269.708 47.7458 269.708 49.2693C269.708 50.7927 270.943 52.0278 272.466 52.0278Z" fill="#C8E6C9"/>
<path d="M272.622 81.2665C274.146 81.2665 275.381 80.0315 275.381 78.508C275.381 76.9845 274.146 75.7495 272.622 75.7495C271.099 75.7495 269.864 76.9845 269.864 78.508C269.864 80.0315 271.099 81.2665 272.622 81.2665Z" fill="#C8E6C9"/>
<path d="M272.772 110.505C274.295 110.505 275.53 109.27 275.53 107.746C275.53 106.223 274.295 104.988 272.772 104.988C271.248 104.988 270.013 106.223 270.013 107.746C270.013 109.27 271.248 110.505 272.772 110.505Z" fill="#C8E6C9"/>
<path d="M272.928 139.744C274.452 139.744 275.687 138.509 275.687 136.985C275.687 135.462 274.452 134.227 272.928 134.227C271.405 134.227 270.17 135.462 270.17 136.985C270.17 138.509 271.405 139.744 272.928 139.744Z" fill="#C8E6C9"/>
<path d="M273.077 168.982C274.6 168.982 275.835 167.747 275.835 166.224C275.835 164.7 274.6 163.465 273.077 163.465C271.553 163.465 270.318 164.7 270.318 166.224C270.318 167.747 271.553 168.982 273.077 168.982Z" fill="#C8E6C9"/>
<path d="M273.234 198.221C274.758 198.221 275.993 196.986 275.993 195.463C275.993 193.939 274.758 192.704 273.234 192.704C271.711 192.704 270.476 193.939 270.476 195.463C270.476 196.986 271.711 198.221 273.234 198.221Z" fill="#C8E6C9"/>
<path d="M273.39 227.46C274.914 227.46 276.149 226.225 276.149 224.701C276.149 223.178 274.914 221.943 273.39 221.943C271.867 221.943 270.632 223.178 270.632 224.701C270.632 226.225 271.867 227.46 273.39 227.46Z" fill="#C8E6C9"/>
<path d="M273.54 256.699C275.063 256.699 276.298 255.464 276.298 253.94C276.298 252.417 275.063 251.182 273.54 251.182C272.016 251.182 270.781 252.417 270.781 253.94C270.781 255.464 272.016 256.699 273.54 256.699Z" fill="#C8E6C9"/>
</svg>
