<svg width="156" height="139" viewBox="0 0 156 139" fill="none" xmlns="http://www.w3.org/2000/svg">
<path d="M127.9 28.3C142.6 42.8 154.5 60.4 155.1 78.6C155.7 96.8 145 115.5 130.3 125.8C115.5 136 96.8 137.7 77.3998 138.3C57.9998 138.9 37.9998 138.4 23.6998 128.2C9.29982 118 0.599819 98 0.399819 77.8C0.299819 57.6 8.59982 37.3 22.8998 22.7C37.2998 8.2 57.5998 -0.600005 76.5998 0.799995C95.6 2.19999 113.2 13.7 127.9 28.3Z" fill="#48CB8A"/>
<path d="M73.9998 37.6667L107.333 59.3334V82.667L73.9998 104.333L40.6665 82.667V59.3334L73.9998 37.6667Z" stroke="#F2FDF7" stroke-width="4" stroke-linecap="round" stroke-linejoin="round"/>
<path d="M74 104.333V82.667" stroke="#F2FDF7" stroke-width="4" stroke-linecap="round" stroke-linejoin="round"/>
<path d="M107.333 59.3333L73.9998 82.667L40.6665 59.3333" stroke="#F2FDF7" stroke-width="4" stroke-linecap="round" stroke-linejoin="round"/>
<path d="M40.6665 82.667L73.9998 59.3333L107.333 82.667" stroke="#F2FDF7" stroke-width="4" stroke-linecap="round" stroke-linejoin="round"/>
<path d="M74 37.6667V59.3334" stroke="#F2FDF7" stroke-width="4" stroke-linecap="round" stroke-linejoin="round"/>
</svg>
