<svg width="145" height="128" viewBox="0 0 145 128" fill="none" xmlns="http://www.w3.org/2000/svg">
<path d="M12.4245 14.8782C16.4227 18.646 20.6507 22.1622 25.0842 25.4067L35.0462 32.6924C38.3952 35.128 41.631 37.7407 44.9021 40.2967C51.3311 45.5503 57.5948 50.9786 63.6934 56.5815C76.6505 68.4058 89.1827 80.5982 101.927 92.4861C111.514 101.422 121.413 110.024 131.559 118.195C133.534 119.852 135.807 121.275 137.931 122.769C138.802 123.378 139.992 124.185 139.864 124.532C139.482 125.679 139.864 127.364 138.207 127.633C137.499 127.739 136.366 127.166 134.936 126.125C129.003 121.877 123.374 117.303 117.787 112.672C112.201 108.042 106.848 103.156 101.595 98.2C96.7375 93.6898 92.1424 88.8893 87.3065 84.4428C78.5481 76.3641 70.087 68.0163 61.3002 60.0792C54.3048 53.7541 47.1018 47.7264 39.691 41.996C32.3416 36.1972 24.454 30.9931 17.0338 24.8969C14.5557 22.8577 12.127 20.7407 9.7976 18.5245C8.6435 17.3917 7.49653 16.2518 6.39907 15.0552C5.98133 14.6516 4.93345 13.4125 4.11921 12.4708L2.83053 10.9769L1.55603 9.41919L0.27453 7.87567L0.118783 7.68449L0.0409088 7.58539C0.0409088 7.58539 -0.051136 7.50748 0.0409088 7.51456L0.5365 7.45086L1.52777 7.33047C2.8518 7.16762 4.14042 6.99061 5.50694 6.84901L11.5606 6.18345L21.0201 5.19222C30.0546 4.25054 39.0891 3.37256 48.1449 2.70701C62.2136 1.68035 76.2965 0.887358 90.4006 0.412973C103.344 -0.0330904 116.315 -0.146397 129.3 0.214702L132.132 0.292576L137.089 0.391711C136.954 2.44502 136.812 4.50543 136.678 6.56582C136.586 7.90401 136.522 9.25633 136.451 10.6016C136.381 11.9469 136.338 13.2992 136.296 14.6516C136.253 16.0039 136.211 17.3492 136.204 18.7015C136.133 24.0968 136.253 29.4991 136.635 34.866C136.742 36.3954 136.508 37.9744 136.869 39.4046V39.355L137.046 40.3816V40.3321C137.046 45.4087 137.754 50.4004 138.179 55.4274C138.646 60.6457 139.326 65.8285 140.069 71.0043C140.813 76.18 141.648 81.3558 142.321 86.6731C142.972 91.8347 143.737 97.4212 144.36 103.107C144.87 107.674 144.466 113.253 144.36 117.82C144.254 120.652 143.886 121.976 143.461 122.677C143.036 123.378 142.59 123.491 142.109 123.909C141.747 124.213 141.542 123.909 141.351 123.378C141.11 122.733 140.962 121.813 140.749 121.112C140.537 120.411 140.19 119.915 139.68 120.114C139.17 120.312 139.588 117.657 139.68 116.227C140.001 110.142 139.728 104.041 138.866 98.0088C138.073 91.8984 136.961 85.7739 135.956 79.5574C133.972 67.0854 132.686 54.5123 132.104 41.8969C131.788 35.2885 131.639 28.6802 131.658 22.0718C131.658 18.7676 131.717 15.4635 131.835 12.1593L132.026 7.20303L132.139 5.07891H131.984H129.003H123.041C114.7 5.02935 106.36 5.0223 98.0191 5.14974C89.6784 5.27719 81.3448 5.51082 73.0466 6.00644L43.4223 7.74823C33.2195 8.35006 23.038 9.28465 12.8705 10.2901L10.4845 10.5308L9.29492 10.6583H8.98342L8.48066 10.7007C8.35321 10.7007 8.0063 10.7008 8.23995 10.8565C8.35324 10.991 8.44528 11.1043 8.59397 11.2601L9.10373 11.777L10.7605 13.4267C11.334 13.9648 11.9147 14.4888 12.4882 15.0127L12.4245 14.8782Z" fill="#42A5F5"/>
<path d="M73.4999 33.3792L73.8468 33.5916L74.5548 34.0589L75.7868 34.8094C80.5584 37.88 85.059 41.3526 89.2395 45.1892C93.7761 49.1334 98.0103 53.4125 101.906 57.9906C104.874 61.3994 107.531 65.0676 109.843 68.951C110.329 69.7157 110.856 70.4532 111.422 71.16C111.635 71.4574 111.96 71.8327 111.656 72.0734C110.757 72.7814 110.027 73.794 108.824 74.0984C108.584 74.1563 108.332 74.1284 108.111 74.0198C107.89 73.9112 107.714 73.7286 107.613 73.5037C105.083 69.4624 102.334 65.5624 99.3786 61.821C98.1039 60.0273 96.7182 58.3153 95.2295 56.6949C92.3973 53.9123 89.636 51.0872 86.6552 48.4816C84.2903 46.4 81.7555 44.5308 79.2137 42.6899C77.918 41.8048 76.6577 40.8702 75.3478 40.0064L73.4007 38.6753L71.3969 37.3371C70.9933 37.068 70.611 36.799 70.2004 36.5441C69.8151 36.3308 69.4522 36.0794 69.1171 35.7936L67.5806 34.3775L66.0442 32.9614L65.853 32.7915C65.7893 32.7915 65.853 32.7207 65.853 32.6853L65.9522 32.5791L66.3274 32.1543C66.5753 31.8781 66.816 31.6232 67.0355 31.3754C68.1033 30.2816 69.4578 29.511 70.9438 29.1522C71.8118 28.9255 72.6979 28.7739 73.5919 28.699C74.2079 28.6353 74.7389 28.5999 75.277 28.5716C78.3358 28.3875 81.3945 28.1114 84.4815 27.9556C89.2395 27.7078 93.9975 27.3963 98.7555 27.0918L102.034 26.8935L103.676 26.8157H104.491H104.908H105.616C106.608 26.8179 107.57 27.1519 108.349 27.7645C109.107 28.3999 109.636 29.265 109.858 30.2284C109.966 30.6674 110.035 31.1153 110.063 31.5666C110.063 31.9136 110.063 32.2746 110.063 32.5508L110.013 34.2005C109.765 38.4976 109.907 42.8083 110.438 47.0797C110.516 47.5895 110.226 48.1347 110.559 48.6091L110.7 48.956C110.537 50.6765 110.927 52.3616 111.012 54.0609C111.196 57.6011 111.72 61.0776 111.663 64.6815C111.628 66.4985 111.801 68.3135 112.18 70.0909C112.491 71.5495 112.357 73.3833 112.959 74.7498C113.709 76.4208 112.796 76.5057 112.081 76.9872C111.952 77.0604 111.809 77.1024 111.661 77.1098C111.513 77.1172 111.366 77.0898 111.231 77.0297C110.452 76.7819 109.773 76.088 108.852 76.4491C108.335 76.6544 108.236 75.6773 108.144 75.1817C106.211 66.6852 105.928 58.118 105.666 49.6074L105.383 40.8985L105.255 36.5512L105.163 32.303C105.163 32.1755 105.163 32.0551 105.163 31.9489C105.163 31.8427 105.163 31.9489 105.163 31.9065C105.167 31.9 105.169 31.8927 105.169 31.8852C105.169 31.8777 105.167 31.8704 105.163 31.864H104.668H103.613L101.489 31.9206C98.6564 31.9985 95.8243 32.1047 93.0559 32.3384C89.7045 32.6169 86.3649 32.749 83.0371 32.7349C81.3024 32.7349 79.5748 32.7703 77.8471 32.8128L75.2558 32.8906H74.6327H74.0875H73.8539C73.607 32.8743 73.3608 32.9309 73.1458 33.0535C73.0538 33.1101 72.9758 33.1951 72.9829 33.2801C73.1393 33.3472 73.3035 33.3948 73.4715 33.4217L73.4999 33.3792Z" fill="#42A5F5"/>
<path d="M120.124 6.26866C120.122 6.12834 120.088 5.99029 120.025 5.86508C119.863 5.4909 119.802 5.08074 119.848 4.67558C119.848 4.2366 119.593 3.86136 119.579 3.41529C119.497 3.04497 119.552 2.65746 119.734 2.32489C119.791 2.23284 119.65 2.21162 119.6 2.16205C119.55 2.11249 119.515 2.16205 119.876 1.97796C120.945 1.53897 122 1.07169 123.105 0.668106C123.572 0.498177 123.756 0.46276 123.756 0.519403C123.787 0.990921 123.787 1.46396 123.756 1.93548C123.756 2.15497 123.48 2.44526 123.614 2.64351C123.869 2.94797 123.813 3.35158 123.912 3.69144C124.075 4.24371 124.57 4.73931 124.485 5.34822C124.397 5.73587 124.377 6.13626 124.429 6.53063C124.527 6.79576 124.605 7.06797 124.662 7.34489C124.705 7.7768 124.804 8.20872 124.882 8.6477C124.967 9.05734 124.896 9.48386 124.684 9.84429C124.457 10.2195 124.287 10.5523 124.754 11.0338C124.811 11.0904 124.5 11.1046 124.804 11.1824L124.931 11.232C124.691 11.3595 124.988 11.5577 124.931 11.7206C124.931 12.0463 125.151 12.4286 124.705 12.6906C124.492 12.818 124.415 12.9809 124.535 13.1862C124.655 13.3915 124.202 13.4269 124.535 13.6394C124.868 13.8518 124.039 13.6889 123.268 13.5331C122.977 13.4694 122.722 13.3986 122.453 13.3207C121.745 13.1154 121.235 12.9242 120.329 12.7118C119.798 12.5915 119.883 12.5419 119.862 12.4994C119.458 11.7914 119.756 11.2533 119.862 10.6585C119.887 10.2459 119.887 9.83209 119.862 9.41944C119.862 9.03002 120.216 8.61935 120.011 8.22285C119.956 8.11091 119.932 7.9865 119.94 7.86218C119.949 7.73786 119.99 7.61803 120.06 7.51482C120.173 7.27113 120.245 7.01033 120.273 6.74308C120.315 6.58023 120.386 6.41029 120.11 6.28992L120.124 6.26866Z" fill="#42A5F5"/>
<path d="M105.751 7.10382C105.731 6.95775 105.686 6.81635 105.616 6.6861C105.427 6.29656 105.337 5.86587 105.354 5.43286C105.298 4.97264 105.064 4.56906 105.043 4.10175C104.944 3.71756 104.995 3.31011 105.185 2.96182C105.241 2.86978 105.1 2.84145 105.05 2.78481C105 2.72817 104.965 2.78481 105.326 2.6078C106.409 2.19714 107.45 1.76526 108.59 1.39C109.065 1.22715 109.249 1.19883 109.249 1.25547C109.249 1.71569 109.249 2.16884 109.249 2.62906C109.249 2.84148 108.965 3.13177 109.107 3.28753C109.355 3.57783 109.312 3.96015 109.419 4.28585C109.589 4.81688 110.127 5.26295 110.063 5.85063C109.988 6.22691 109.988 6.61427 110.063 6.99055C110.183 7.23608 110.287 7.48915 110.374 7.74816C110.473 8.15859 110.596 8.56288 110.743 8.95892C110.891 9.33179 110.891 9.74719 110.743 10.1201C110.58 10.5166 110.481 10.8989 111.012 11.2388C111.083 11.2742 110.778 11.345 111.097 11.3662H111.231C111.019 11.5291 111.344 11.6636 111.366 11.8123C111.366 12.1309 111.713 12.4353 111.366 12.7681C111.182 12.9239 111.139 13.0938 111.302 13.2567C111.465 13.4195 111.04 13.5541 111.401 13.6815C111.762 13.809 110.934 13.8373 110.148 13.8656C109.867 13.8798 109.586 13.8798 109.305 13.8656C108.597 13.8656 108.031 13.7665 107.068 13.7877C106.516 13.7877 106.594 13.724 106.558 13.6886C105.999 13.0443 106.183 12.407 106.19 11.7556C106.19 11.3166 105.978 10.8919 105.942 10.4529C105.907 10.0139 106.162 9.56073 105.942 9.16423C105.868 9.05069 105.825 8.91957 105.817 8.78407C105.81 8.64857 105.838 8.51347 105.9 8.39245C105.985 8.12228 106.028 7.8404 106.027 7.55698C106.027 7.37997 106.105 7.1959 105.822 7.08969L105.751 7.10382Z" fill="#42A5F5"/>
<path d="M93.4026 9.42629C93.3956 9.27894 93.3669 9.13344 93.3176 8.9944C93.1669 8.58687 93.135 8.14491 93.2256 7.71994C93.1712 7.26887 93.1452 6.81481 93.1477 6.36048C93.1303 5.96778 93.2675 5.5839 93.53 5.29134C93.6079 5.21345 93.4734 5.15683 93.445 5.09311C93.4167 5.02938 93.3601 5.03645 93.7495 4.99397C94.8966 4.84528 96.0436 4.68246 97.2119 4.57625C97.7075 4.53377 97.9199 4.57625 97.9199 4.57625C97.8137 4.95859 97.7146 5.34798 97.58 5.7374C97.5234 5.91441 97.2048 6.12684 97.311 6.2826C97.4951 6.5729 97.3817 6.89859 97.4313 7.20304C97.5163 7.68451 97.9623 8.12349 97.849 8.61912C97.738 8.94199 97.7065 9.2869 97.7571 9.62456C97.8543 9.84391 97.9394 10.0684 98.0119 10.2972C98.0771 10.6621 98.1766 11.0201 98.3093 11.3663C98.3706 11.5293 98.3984 11.7029 98.3911 11.8769C98.3838 12.0509 98.3416 12.2215 98.2668 12.3788C98.0969 12.7328 97.9978 13.0869 98.5501 13.3418C98.6138 13.3418 98.3164 13.455 98.6279 13.455H98.7695C98.5571 13.6108 98.8969 13.7028 98.9182 13.8374C98.9606 14.1064 99.3005 14.3401 98.9182 14.6587C98.7482 14.8145 98.7199 14.9631 98.9182 15.0835C99.1164 15.2039 98.6775 15.3738 99.0527 15.4446C99.428 15.5154 98.5996 15.6287 97.8208 15.7491C97.5305 15.7915 97.2614 15.8128 96.9852 15.834C96.2772 15.8907 95.7107 15.8907 94.7549 16.0181C94.2097 16.096 94.2734 16.0181 94.238 15.9756C93.6079 15.4021 93.7424 14.7295 93.7141 14.0781C93.7141 13.6391 93.4734 13.2143 93.4309 12.7753C93.3884 12.3363 93.6574 11.8761 93.4309 11.4725C93.361 11.3559 93.3241 11.2225 93.3241 11.0866C93.3241 10.9507 93.361 10.8173 93.4309 10.7008C93.5298 10.4364 93.594 10.1603 93.6221 9.87945C93.6645 9.70244 93.7354 9.52543 93.4592 9.3909L93.4026 9.42629Z" fill="#42A5F5"/>
<path d="M77.4434 8.29341C77.4292 8.14707 77.3858 8.00503 77.3159 7.87565C77.1345 7.47439 77.0637 7.03195 77.1107 6.5941C77.0175 6.14742 76.949 5.69597 76.9053 5.24177C76.8524 4.84749 76.9567 4.44821 77.1956 4.13015C77.2594 4.04518 77.1248 4.00269 77.0823 3.93896C77.0398 3.87524 76.9974 3.8894 77.3797 3.80444C78.5126 3.5637 79.6312 3.28757 80.7853 3.0964C81.281 3.00435 81.4934 2.99727 81.4934 3.04683C81.4226 3.44333 81.366 3.83983 81.2668 4.24342C81.2244 4.43459 80.934 4.66824 81.0473 4.82401C81.2597 5.09307 81.1819 5.42586 81.2598 5.73032C81.3872 6.2047 81.8687 6.60829 81.7979 7.14639C81.7197 7.47937 81.7197 7.82591 81.7979 8.15888C81.9132 8.37274 82.0172 8.59254 82.1094 8.81735C82.2135 9.1776 82.3486 9.52819 82.513 9.86523C82.6648 10.1874 82.6825 10.5566 82.5625 10.8919C82.4209 11.253 82.3643 11.5999 82.9307 11.8336C83.0015 11.8336 82.7112 11.961 83.0228 11.9327H83.1643C82.9661 12.1097 83.313 12.1664 83.3484 12.3009C83.4192 12.5629 83.7733 12.7682 83.4476 13.1222C83.2918 13.2921 83.2776 13.4479 83.4476 13.5541C83.6175 13.6603 83.2352 13.8657 83.6175 13.9011C83.9998 13.9365 83.1856 14.1276 82.421 14.3188C82.1307 14.3896 81.8687 14.4392 81.5925 14.4817C80.8845 14.602 80.3251 14.6516 79.3834 14.8711C78.8524 14.9914 78.9091 14.8711 78.8666 14.8711C78.1586 14.3471 78.2648 13.6603 78.1586 13.0089C78.1019 12.5699 77.8329 12.1664 77.7479 11.7274C77.663 11.2884 77.8966 10.8069 77.6134 10.4175C77.5314 10.3068 77.4809 10.1759 77.4672 10.0388C77.4535 9.90169 77.4771 9.76345 77.5355 9.63866C77.6117 9.36447 77.6475 9.08062 77.6417 8.79609C77.6417 8.61908 77.7266 8.43501 77.4434 8.3288V8.29341Z" fill="#42A5F5"/>
<path d="M62.1356 10.8424C62.1136 10.7067 62.0706 10.5754 62.0082 10.453C61.8272 10.0818 61.7584 9.66602 61.81 9.25637C61.7163 8.8363 61.65 8.41059 61.6117 7.98191C61.5877 7.7956 61.601 7.60638 61.6509 7.42526C61.7007 7.24414 61.7861 7.0747 61.902 6.9269C61.9728 6.84193 61.8383 6.80653 61.7958 6.74989C61.7533 6.69325 61.7108 6.70745 62.0931 6.6154C63.226 6.36051 64.3447 6.09141 65.4988 5.86484C65.9874 5.7728 66.2068 5.76575 66.1643 5.80823C66.0935 6.18349 66.0369 6.55874 65.9378 6.94816C65.8882 7.11809 65.598 7.35176 65.7113 7.49336C65.8246 7.63497 65.8387 8.05976 65.9165 8.34297C66.0369 8.78904 66.5184 9.15724 66.4476 9.65287C66.366 9.96386 66.366 10.2906 66.4476 10.6016C66.5626 10.8011 66.6667 11.0068 66.7591 11.2176C66.8575 11.555 66.9878 11.8822 67.1485 12.1947C67.2241 12.3428 67.2671 12.5054 67.2744 12.6716C67.2818 12.8377 67.2533 13.0035 67.191 13.1577C67.0565 13.5117 66.9857 13.8657 67.5592 14.0427C67.623 14.0427 67.3327 14.1702 67.6442 14.1348H67.7858C67.5875 14.3047 67.9345 14.3613 67.9699 14.4817C68.0336 14.7295 68.3876 14.9206 68.069 15.2534C67.9132 15.4163 67.892 15.565 68.069 15.6641C68.246 15.7632 67.8566 15.9544 68.2318 15.9827C68.6071 16.011 67.8 16.2093 67.0353 16.4004C66.7521 16.4712 66.4901 16.5208 66.2139 16.5704C65.5059 16.6979 64.9537 16.7615 64.012 16.981C63.4739 17.1014 63.5376 16.981 63.4951 16.981C62.7871 16.4996 62.9004 15.8552 62.7871 15.2463C62.7304 14.8286 62.4684 14.4534 62.3905 14.0427C62.3126 13.632 62.5393 13.1718 62.2631 12.8107C62.1887 12.7101 62.1423 12.5916 62.1286 12.4672C62.115 12.3428 62.1344 12.2171 62.1852 12.1027C62.2634 11.8433 62.3016 11.5735 62.2985 11.3026C62.2985 11.1398 62.3834 10.9628 62.1002 10.8636L62.1356 10.8424Z" fill="#42A5F5"/>
<path d="M47.8407 10.9911C47.8264 10.845 47.7906 10.7018 47.7345 10.5662C47.5659 10.1664 47.5119 9.72758 47.5787 9.29885C47.509 8.85088 47.4641 8.39939 47.4442 7.94647C47.4259 7.75238 47.4466 7.5566 47.5049 7.37059C47.5633 7.18458 47.6582 7.01209 47.784 6.8632C47.8548 6.77823 47.7203 6.72866 47.6778 6.67201C47.6353 6.61537 47.6 6.61538 47.9823 6.55166C49.1222 6.35341 50.2551 6.13392 51.4233 5.97815C51.9119 5.90735 52.1314 5.90735 52.0889 5.97815C52.004 6.37465 51.9261 6.76406 51.8128 7.16056C51.7562 7.33757 51.4516 7.56417 51.5649 7.71994C51.7632 7.99607 51.6641 8.32175 51.7278 8.6262C51.834 9.10059 52.3013 9.51833 52.2093 10.0423C52.111 10.3686 52.0965 10.7143 52.1668 11.0477C52.2376 11.2743 52.4004 11.4796 52.45 11.7132C52.5356 12.0718 52.6518 12.4224 52.797 12.7612C52.8655 12.9224 52.9008 13.0957 52.9008 13.2709C52.9008 13.4461 52.8655 13.6195 52.797 13.7807C52.6483 14.1348 52.5633 14.4887 53.1227 14.7295C53.1935 14.7295 52.8961 14.8428 53.2147 14.8357H53.3492C53.1439 14.9986 53.4908 15.0764 53.5191 15.2039C53.5758 15.4729 53.9228 15.6924 53.5829 16.0252C53.42 16.1881 53.3988 16.3367 53.5829 16.4571C53.767 16.5775 53.3563 16.7545 53.7316 16.804C54.1068 16.8536 53.2926 17.0094 52.5208 17.1651C52.2305 17.2218 51.9615 17.2572 51.6853 17.2926C50.9773 17.3775 50.4108 17.4059 49.4621 17.5829C48.924 17.6749 48.9877 17.5829 48.9452 17.5829C48.2867 17.0306 48.4 16.358 48.3363 15.7137C48.3363 15.2676 48.0531 14.864 47.9894 14.425C47.9257 13.986 48.1735 13.5187 47.9186 13.1222C47.8375 13.0115 47.7903 12.8797 47.7827 12.7427C47.7752 12.6057 47.8076 12.4694 47.8761 12.3505C47.962 12.0821 48.0119 11.8036 48.0247 11.5221C48.0247 11.3451 48.1169 11.168 47.8407 11.0477V10.9911Z" fill="#42A5F5"/>
<path d="M34.0057 11.6355C33.9715 11.5045 33.9113 11.3817 33.8287 11.2744C33.6041 10.9404 33.4767 10.5507 33.4605 10.1486C33.3685 9.73085 33.1065 9.391 33.0428 8.9591C32.9247 8.60315 32.9474 8.21543 33.1065 7.87578C33.1561 7.78374 33.0145 7.77665 32.9649 7.73417C32.9154 7.69168 32.8729 7.73419 33.2269 7.53594C34.2606 7.02615 35.2872 6.48802 36.3564 6.00655C36.8095 5.80122 36.9865 5.74459 36.9936 5.80124C37.0388 6.21985 37.0624 6.64048 37.0644 7.06152C37.0644 7.25977 36.8237 7.55715 36.9724 7.6846C37.2414 7.91825 37.2202 8.2723 37.3547 8.55551C37.5671 9.01574 38.1194 9.35556 38.1265 9.89367C38.0968 10.2445 38.1452 10.5975 38.2681 10.9274C38.41 11.1308 38.5377 11.3438 38.6504 11.5647C38.7924 11.9245 38.9581 12.2745 39.1461 12.6126C39.3191 12.9362 39.3597 13.3145 39.2593 13.6675C39.1389 14.0499 39.0823 14.3755 39.6629 14.6304C39.7267 14.6304 39.4434 14.765 39.755 14.7367H39.8965C39.6983 14.9208 40.0452 14.9845 40.0806 15.119C40.1585 15.3951 40.5126 15.6217 40.1869 15.9828C40.024 16.1527 40.0099 16.3085 40.1869 16.4289C40.3639 16.5493 39.9674 16.7404 40.3426 16.797C40.7179 16.8537 39.9037 17.0165 39.1319 17.1652C38.8416 17.2219 38.5796 17.2573 38.2964 17.2927C37.5883 17.3776 37.029 17.4131 36.0802 17.583C35.535 17.6821 35.6058 17.583 35.5634 17.583C34.912 17.0874 35.0111 16.4784 34.9332 15.8837C34.8766 15.473 34.6075 15.119 34.5155 14.7296C34.4234 14.3402 34.6288 13.8729 34.3314 13.5472C34.2438 13.4542 34.185 13.3378 34.1624 13.2121C34.1398 13.0864 34.1543 12.9568 34.204 12.8391C34.2562 12.5806 34.2705 12.3159 34.2464 12.0532C34.2464 11.8833 34.2889 11.7063 33.9986 11.6496L34.0057 11.6355Z" fill="#42A5F5"/>
<path d="M18.3717 12.209C18.337 12.0794 18.2795 11.9571 18.2018 11.8479C17.9745 11.5135 17.8513 11.1193 17.8478 10.715C17.7042 10.3242 17.586 9.92447 17.4938 9.51843C17.4043 9.15768 17.4603 8.77623 17.6496 8.45637C17.7063 8.37141 17.5717 8.35014 17.5221 8.30058C17.4726 8.25102 17.4372 8.30059 17.7983 8.13774C18.8886 7.72708 19.9224 7.30932 21.0694 6.92698C21.5438 6.77122 21.7279 6.73584 21.7279 6.77832C21.7279 7.15358 21.6854 7.52883 21.6359 7.91117C21.6359 8.08818 21.3526 8.35018 21.4871 8.47054C21.7278 8.68296 21.6854 9.00157 21.7987 9.26354C21.9757 9.6742 22.5067 9.97157 22.5067 10.446C22.4653 10.758 22.5067 11.0755 22.627 11.3664C22.7656 11.5425 22.8933 11.727 23.0094 11.9187C23.1531 12.228 23.3237 12.5242 23.5192 12.8037C23.613 12.9368 23.6762 13.0889 23.7044 13.2492C23.7326 13.4096 23.7249 13.5742 23.682 13.7313C23.59 14.0853 23.5688 14.4393 24.1564 14.5313C24.2272 14.5313 23.9511 14.68 24.2556 14.6092H24.3901C24.213 14.8004 24.56 14.8075 24.6096 14.9137C24.7087 15.1473 25.084 15.2818 24.8079 15.6217C24.6733 15.8058 24.6733 15.9474 24.8716 16.0111C25.0698 16.0748 24.7017 16.3298 25.0769 16.3014C25.4522 16.2731 24.6804 16.5776 23.9441 16.8679C23.675 16.9811 23.42 17.0661 23.151 17.151C22.4429 17.3705 21.9261 17.5121 21.0269 17.8591C20.51 18.0573 20.5596 17.9653 20.5171 17.9441C19.8091 17.5759 19.8091 16.9386 19.625 16.3651C19.5117 15.9686 19.2072 15.6571 19.0798 15.2606C18.9523 14.8641 19.0798 14.3968 18.7966 14.0924C18.7018 14.0041 18.6351 13.8899 18.6048 13.764C18.5746 13.638 18.5823 13.506 18.6267 13.3843C18.6655 13.1238 18.6655 12.8589 18.6267 12.5984C18.6267 12.4355 18.6266 12.2585 18.3717 12.209Z" fill="#42A5F5"/>
</svg>
