<svg width="139" height="128" viewBox="0 0 139 128" fill="none" xmlns="http://www.w3.org/2000/svg">
<path d="M12.5119 33.7705C16.3707 36.1668 20.3744 38.3216 24.4999 40.2224L33.7692 44.4897C36.8831 45.9133 39.9343 47.4988 43.0049 49.0327C49.0774 52.2338 55.0448 55.6035 60.907 59.1419C73.3488 66.5949 85.5069 74.4161 97.787 81.9557C107.023 87.6215 116.457 92.9664 126.021 97.9207C127.894 98.9387 129.97 99.7186 131.936 100.58C132.742 100.931 133.839 101.389 133.792 101.691C133.671 102.684 134.257 103.986 132.959 104.477C132.403 104.679 131.391 104.4 130.061 103.792C124.555 101.324 119.242 98.5423 113.955 95.7077C108.667 92.8731 103.527 89.7936 98.456 86.6404C93.7792 83.7836 89.2671 80.6484 84.6181 77.8397C76.1938 72.7321 67.9663 67.3576 59.5423 62.3693C52.8347 58.393 46.0078 54.6918 39.0613 51.2657C32.1533 47.774 24.9069 44.8527 17.8927 41.1317C15.5497 39.8864 13.2339 38.5699 10.9823 37.1567C9.86096 36.4283 8.74429 35.693 7.65843 34.9037C7.25363 34.6453 6.20096 33.8133 5.38647 33.184L4.09681 32.1851L2.80817 31.1323L1.51619 30.092L1.35857 29.9627L1.27919 29.8952C1.27919 29.8952 1.19181 29.8472 1.26756 29.8378L1.65868 29.7047L2.44216 29.4444C3.4883 29.0949 4.50343 28.7398 5.58749 28.4006L10.3836 26.8668L17.886 24.5097C25.0523 22.2625 32.2289 20.067 39.4578 18.0401C50.6894 14.8971 61.9708 11.9412 73.3218 9.23989C83.7365 6.75231 94.2288 4.52974 104.811 2.68925L107.118 2.28712L111.151 1.55329C111.379 3.23924 111.603 4.9321 111.832 6.62378C111.977 7.72327 112.148 8.82957 112.312 9.93131C112.475 11.033 112.663 12.1359 112.851 13.2387C113.038 14.3415 113.225 15.4386 113.441 16.5356C114.27 20.9191 115.255 25.277 116.447 29.5632C116.784 30.785 116.854 32.1028 117.382 33.2025L117.373 33.1623L117.685 33.9651L117.677 33.925C118.511 38.0387 119.905 41.9673 121.075 45.971C122.311 50.1228 123.713 54.2109 125.166 58.2828C126.618 62.3547 128.146 66.4115 129.564 70.6098C130.94 74.6854 132.477 79.0867 133.916 83.5914C135.079 87.2083 135.669 91.7957 136.333 95.5137C136.712 97.8261 136.631 98.9595 136.402 99.5973C136.173 100.235 135.83 100.4 135.509 100.818C135.266 101.124 135.05 100.911 134.807 100.512C134.507 100.029 134.235 99.3079 133.948 98.7748C133.66 98.2417 133.298 97.8971 132.917 98.1414C132.537 98.3858 132.439 96.1657 132.279 94.9916C131.539 90.0083 130.316 85.109 128.626 80.363C126.98 75.5419 125.073 70.7616 123.237 65.8894C119.581 56.1089 116.473 46.1318 113.93 36.0048C112.588 30.7018 111.382 25.3713 110.312 20.0133C109.769 17.3359 109.274 14.6487 108.827 11.9519L108.167 7.90428L107.91 6.16445L107.784 6.19003L105.369 6.6797L100.538 7.65901C93.7709 8.98896 87.0111 10.3534 80.2734 11.8267C73.5357 13.3001 66.8211 14.8584 60.1783 16.6231L36.459 22.9009C28.2903 25.0646 20.1934 27.4944 12.1197 29.9793L10.2257 30.5664L9.28273 30.865L9.03032 30.9162L8.62989 31.0332C8.52662 31.0542 8.24551 31.1112 8.46043 31.199C8.57433 31.2894 8.66753 31.3661 8.8136 31.4679L9.31158 31.803L10.9251 32.8676C11.4782 33.2095 12.0348 33.5387 12.5856 33.869L12.5119 33.7705Z" fill="#7900DF"/>
<path d="M65.0419 38.7295L65.358 38.8447L66.0085 39.107L67.1301 39.5128C71.501 41.2172 75.7184 43.2918 79.7362 45.714C84.0603 48.1648 88.1943 50.9368 92.1033 54.0065C95.0683 56.2812 97.8234 58.8173 100.335 61.5842C100.854 62.1241 101.403 62.6351 101.978 63.1149C102.199 63.321 102.524 63.5715 102.317 63.8166C101.705 64.5381 101.28 65.4783 100.355 65.9228C100.17 66.009 99.9613 66.0279 99.7642 65.9762C99.5672 65.9245 99.3944 65.8054 99.276 65.6397C96.5619 62.7806 93.6937 60.0719 90.6843 57.5256C89.3567 56.2815 87.9526 55.1218 86.4801 54.0533C83.728 52.2638 81.0264 50.4281 78.1829 48.8064C75.9246 47.5081 73.5636 46.4098 71.2015 45.3356C70.0061 44.8313 68.8314 44.281 67.628 43.7962L65.8316 43.0374L63.988 42.2822C63.6168 42.1304 63.2628 41.9752 62.8882 41.8361C62.5409 41.7266 62.2055 41.5825 61.8871 41.4059L60.4094 40.5108L58.9318 39.6157L58.749 39.5095C58.6973 39.5199 58.7373 39.4521 58.7315 39.4234L58.7944 39.3211L59.0287 38.9151C59.1842 38.6507 59.3374 38.4046 59.4745 38.1677C60.1601 37.1059 61.1312 36.259 62.2763 35.7242C62.9425 35.3979 63.6356 35.1295 64.3477 34.922C64.8364 34.7691 65.2609 34.6532 65.6923 34.5419C68.1406 33.8902 70.5738 33.164 73.0498 32.5307C76.8646 31.5483 80.6689 30.5143 84.4744 29.486L87.0983 28.7868L88.4166 28.4539L89.0764 28.3201L89.4149 28.2515L89.9887 28.1352C90.7924 27.9741 91.6269 28.0868 92.3591 28.4551C93.0772 28.8456 93.6483 29.4596 93.986 30.2039C94.1459 30.5419 94.2751 30.8935 94.3721 31.2546C94.4291 31.5357 94.4884 31.8283 94.5338 32.0521L94.7647 33.397C95.2696 36.9198 96.0929 40.3895 97.2245 43.7636C97.3714 44.1639 97.2257 44.6534 97.5733 44.9831L97.745 45.241C97.8957 46.6619 98.4881 47.9634 98.8361 49.3265C99.5668 52.1649 100.562 54.8959 101.109 57.8256C101.379 59.3037 101.817 60.7459 102.416 62.1241C102.908 63.2548 103.1 64.7629 103.812 65.7714C104.695 67.0021 103.969 67.221 103.469 67.7286C103.377 67.809 103.267 67.8667 103.149 67.8969C103.03 67.9271 102.906 67.9291 102.787 67.9026C102.115 67.8297 101.45 67.3791 100.764 67.8229C100.379 68.0742 100.138 67.2987 99.9819 66.9122C97.0199 60.3449 95.3831 53.4491 93.7728 46.5958L92.1127 39.5853L91.2953 36.0835L90.5228 32.6561C90.5019 32.5529 90.4821 32.4553 90.4647 32.3693C90.4472 32.2832 90.4647 32.3693 90.4577 32.3348C90.4597 32.329 90.4601 32.3227 90.4588 32.3167C90.4576 32.3106 90.4548 32.305 90.4507 32.3004L90.0491 32.3818L89.1942 32.5551L87.4823 32.95C85.2001 33.4783 82.9226 34.0296 80.7177 34.6737C78.0477 35.4499 75.3633 36.1056 72.6644 36.6407C71.2587 36.9257 69.8646 37.2382 68.4716 37.5564L66.3846 38.0452L65.8797 38.1476L65.4379 38.2371L65.2486 38.2755C65.0458 38.3028 64.8556 38.3891 64.7016 38.5238C64.6363 38.5848 64.5871 38.6664 64.6068 38.7341C64.7445 38.7628 64.8854 38.7744 65.026 38.7686L65.0419 38.7295Z" fill="#7900DF"/>
<path d="M98.3693 9.10229C98.3447 8.98889 98.2945 8.88259 98.2226 8.79154C98.0298 8.51497 97.913 8.19262 97.8838 7.85674C97.8117 7.50102 97.5435 7.23882 97.4587 6.87969C97.3315 6.59307 97.3127 6.26997 97.4058 5.97052C97.4366 5.88663 97.3184 5.89269 97.2701 5.86067C97.2218 5.82865 97.2013 5.87462 97.4636 5.66613C98.2579 5.13478 99.0359 4.58283 99.8647 4.07436C100.215 3.8599 100.359 3.80095 100.368 3.84685C100.471 4.22386 100.548 4.60717 100.601 4.99434C100.637 5.1722 100.461 5.4528 100.602 5.59135C100.859 5.79618 100.879 6.13254 101.015 6.39165C101.238 6.81242 101.721 7.1326 101.752 7.63997C101.744 7.9687 101.794 8.2963 101.901 8.60742C102.024 8.80611 102.132 9.01385 102.224 9.22885C102.329 9.57185 102.48 9.90557 102.616 10.2485C102.752 10.5665 102.764 10.9238 102.651 11.2507C102.53 11.592 102.446 11.8896 102.904 12.2029C102.959 12.2395 102.709 12.3022 102.969 12.3153L103.08 12.3345C102.906 12.4773 103.18 12.5891 103.16 12.7304C103.214 12.9943 103.455 13.2681 103.136 13.5536C102.985 13.6918 102.949 13.8365 103.08 13.9832C103.211 14.1298 102.85 14.2329 103.154 14.3504C103.459 14.4678 102.761 14.4719 102.11 14.4725C101.864 14.4685 101.646 14.453 101.415 14.4341C100.808 14.384 100.363 14.3129 99.594 14.2896C99.1439 14.2793 99.2047 14.2252 99.1805 14.1943C98.7371 13.6868 98.8897 13.2019 98.8781 12.7025C98.8304 12.3641 98.7624 12.0288 98.6745 11.6985C98.6106 11.3829 98.83 10.992 98.5984 10.7044C98.5357 10.6227 98.4956 10.5259 98.4822 10.4237C98.4688 10.3216 98.4827 10.2177 98.5223 10.1225C98.574 9.90649 98.5893 9.68338 98.5676 9.4623C98.5753 9.32336 98.6048 9.17402 98.3613 9.12185L98.3693 9.10229Z" fill="#7900DF"/>
<path d="M86.8597 12.1401C86.8196 12.025 86.7595 11.9179 86.6821 11.8237C86.4642 11.5392 86.3205 11.205 86.264 10.8512C86.1425 10.4876 85.8868 10.1989 85.7928 9.82373C85.6495 9.52867 85.6236 9.19018 85.7204 8.87674C85.7511 8.79285 85.6317 8.79317 85.5822 8.75541C85.5328 8.71765 85.5134 8.76937 85.7769 8.56661C86.5873 8.05589 87.3597 7.53496 88.2218 7.04362C88.5795 6.83373 88.724 6.78053 88.7333 6.82643C88.8089 7.19936 88.8834 7.56656 88.959 7.93949C88.9939 8.11161 88.812 8.39337 88.9523 8.49634C89.2008 8.69086 89.2293 9.00764 89.3688 9.25411C89.5937 9.6565 90.103 9.92959 90.1479 10.4163C90.149 10.7335 90.2126 11.0474 90.3352 11.34C90.4728 11.5192 90.5988 11.7072 90.7121 11.9027C90.8597 12.219 91.0257 12.5264 91.2093 12.8233C91.3907 13.1011 91.4589 13.4377 91.4001 13.7642C91.3333 14.1123 91.3157 14.4384 91.8019 14.6266C91.8651 14.6436 91.63 14.751 91.8917 14.7159L92.0006 14.6938C91.8553 14.8606 92.1413 14.9161 92.183 15.0331C92.2353 15.2913 92.5664 15.481 92.34 15.8077C92.2164 15.9641 92.2098 16.1088 92.3685 16.214C92.5273 16.3192 92.2051 16.4981 92.5187 16.542C92.8322 16.586 92.1656 16.745 91.5334 16.897C91.3083 16.9547 91.0804 17.0009 90.8507 17.0355C90.2769 17.1518 89.8016 17.1645 89.0248 17.3399C88.5773 17.4306 88.63 17.3662 88.5955 17.3433C88.0364 16.9131 88.0808 16.3665 87.9796 15.8374C87.9075 15.4817 87.6656 15.1724 87.5648 14.8225C87.464 14.4726 87.5961 14.0635 87.3531 13.7783C87.2742 13.6985 87.2178 13.5993 87.1895 13.4907C87.1612 13.3821 87.1621 13.268 87.1919 13.1599C87.217 12.9269 87.2055 12.6914 87.1579 12.4619C87.1288 12.3185 87.1617 12.1565 86.9147 12.117L86.8597 12.1401Z" fill="#7900DF"/>
<path d="M77.2351 16.0505C77.2052 15.9322 77.1581 15.819 77.0953 15.7145C76.9062 15.409 76.8077 15.0561 76.8114 14.6969C76.6932 14.3403 76.5975 13.9766 76.5249 13.608C76.4463 13.2927 76.4944 12.9591 76.6591 12.6789C76.7094 12.603 76.5911 12.5792 76.5577 12.5322C76.5243 12.4852 76.4795 12.5003 76.7881 12.4019C77.6932 12.093 78.5959 11.7726 79.5251 11.4946C79.9198 11.3788 80.0989 11.3783 80.0989 11.3783C80.0756 11.7056 80.0592 12.0374 80.0142 12.3751C79.9974 12.5278 79.7741 12.7523 79.8857 12.861C80.0826 13.066 80.0443 13.3486 80.1344 13.5871C80.2824 13.9633 80.7159 14.2458 80.7055 14.666C80.6686 14.9459 80.6997 15.2305 80.7962 15.4958C80.911 15.6576 81.0169 15.8256 81.1132 15.999C81.2259 16.284 81.3654 16.5578 81.5298 16.8165C81.6062 16.9385 81.6573 17.0746 81.68 17.2168C81.7026 17.359 81.6964 17.5042 81.6617 17.6439C81.5821 17.9587 81.56 18.2619 82.0494 18.3777C82.101 18.3673 81.8787 18.5079 82.1311 18.4567L82.2458 18.4335C82.0993 18.5946 82.3898 18.6133 82.4291 18.7188C82.5077 18.9299 82.8215 19.0634 82.564 19.3844C82.4519 19.5385 82.4534 19.6637 82.6338 19.7286C82.8142 19.7936 82.4864 20.0034 82.8022 19.9991C83.1179 19.9949 82.4652 20.2227 81.8539 20.4482C81.6256 20.5303 81.411 20.5917 81.1908 20.6543C80.6263 20.8165 80.1673 20.9096 79.4137 21.1699C78.9847 21.3225 79.0236 21.249 78.9879 21.2203C78.3831 20.8591 78.3816 20.292 78.2517 19.7688C78.1795 19.4131 77.9147 19.1084 77.8081 18.7596C77.7016 18.4109 77.844 17.9938 77.5941 17.704C77.5183 17.621 77.4666 17.5189 77.4442 17.4088C77.4219 17.2986 77.4299 17.1845 77.4673 17.0786C77.5041 16.8481 77.5108 16.6138 77.4874 16.3816C77.4927 16.2312 77.521 16.0761 77.2752 16.0125L77.2351 16.0505Z" fill="#7900DF"/>
<path d="M64.1168 17.7541C64.0812 17.6378 64.0227 17.5299 63.9449 17.4365C63.7319 17.1412 63.6019 16.7943 63.568 16.4318C63.4192 16.0851 63.2894 15.7305 63.1795 15.3697C63.0718 15.0589 63.0907 14.7182 63.2321 14.4212C63.2698 14.3419 63.1538 14.3295 63.1089 14.2849C63.064 14.2402 63.0319 14.2587 63.3278 14.127C64.2062 13.7458 65.0673 13.3383 65.9711 12.9938C66.3576 12.8378 66.5286 12.7972 66.5367 12.8374C66.5445 13.1703 66.5638 13.5009 66.5497 13.8442C66.5467 14.0061 66.3498 14.2431 66.4672 14.3507C66.6835 14.5339 66.6751 14.8163 66.7882 15.0502C66.9694 15.4137 67.4259 15.6617 67.4569 16.1093C67.4483 16.392 67.5052 16.6728 67.6232 16.9298C67.7518 17.0841 67.8722 17.2451 67.9838 17.4122C68.1274 17.687 68.2944 17.9489 68.483 18.195C68.6589 18.4311 68.734 18.7274 68.6918 19.0188C68.6364 19.3347 68.6475 19.6251 69.1448 19.7214C69.2022 19.7098 68.9879 19.8607 69.2357 19.7866L69.3504 19.7633C69.2188 19.9393 69.5093 19.9282 69.5601 20.0314C69.6605 20.2321 69.9811 20.3403 69.7753 20.6807C69.677 20.844 69.6911 20.9725 69.8463 21.0307C70.0014 21.0888 69.7253 21.318 70.041 21.2839C70.3566 21.2498 69.7282 21.5384 69.14 21.8189C68.9164 21.924 68.7122 22.0072 68.4954 22.087C67.9415 22.3009 67.4964 22.4329 66.7693 22.7654C66.3588 22.9502 66.3849 22.8434 66.3505 22.8503C65.6907 22.5421 65.664 21.9681 65.4709 21.4577C65.3529 21.1113 65.0686 20.8285 64.9276 20.4867C64.7867 20.1449 64.8969 19.7164 64.6034 19.4474C64.5188 19.3711 64.4564 19.2733 64.4228 19.1645C64.3891 19.0557 64.3856 18.9398 64.4124 18.8291C64.4291 18.5943 64.4115 18.3585 64.36 18.1288C64.331 17.9854 64.3696 17.8223 64.1226 17.7828L64.1168 17.7541Z" fill="#7900DF"/>
<path d="M52.1312 22.3342C52.0911 22.2279 52.0347 22.1285 51.964 22.0395C51.7564 21.7685 51.6323 21.4429 51.6068 21.1025C51.4619 20.7775 51.3383 20.4434 51.2368 20.1023C51.1867 19.9553 51.1664 19.7998 51.1771 19.6448C51.1877 19.4899 51.2291 19.3385 51.2987 19.1997C51.3422 19.1192 51.2273 19.1127 51.1836 19.0737C51.1399 19.0348 51.1077 19.0533 51.4024 18.9159C52.2785 18.5233 53.1409 18.1215 54.0389 17.7483C54.4196 17.5934 54.5963 17.5517 54.5688 17.5931C54.5731 17.9088 54.5889 18.2222 54.5725 18.554C54.5603 18.6998 54.3635 18.9369 54.4785 19.033C54.5936 19.1291 54.6748 19.471 54.7844 19.6877C54.9552 20.0294 55.4059 20.2487 55.4299 20.662C55.4149 20.9274 55.4685 21.1921 55.5858 21.4308C55.7117 21.5735 55.8298 21.7231 55.9394 21.8788C56.0745 22.136 56.2339 22.3797 56.4154 22.6065C56.5011 22.7141 56.5626 22.8389 56.5958 22.9723C56.6291 23.1057 56.6332 23.2447 56.6081 23.3799C56.5572 23.6888 56.558 23.9873 57.0518 24.0365C57.1035 24.0261 56.8892 24.177 57.1358 24.0972L57.2505 24.0739C57.1178 24.2442 57.4082 24.2331 57.4567 24.3248C57.549 24.5152 57.8673 24.6119 57.6638 24.9339C57.5643 25.0914 57.5715 25.2154 57.7313 25.2667C57.891 25.3179 57.6068 25.5368 57.9155 25.4981C58.2243 25.4594 57.6028 25.7526 57.0146 26.0331C56.7967 26.137 56.5926 26.2203 56.3769 26.3058C55.8241 26.5254 55.3871 26.6677 54.6601 27.0003C54.2438 27.1862 54.2757 27.0782 54.2412 27.0852C53.5884 26.8113 53.5744 26.2706 53.3825 25.7958C53.268 25.4666 52.9941 25.2056 52.8635 24.8856C52.7329 24.5656 52.841 24.1555 52.5579 23.9082C52.4811 23.8389 52.424 23.7505 52.3925 23.652C52.361 23.5534 52.3561 23.4483 52.3784 23.3473C52.3992 23.1243 52.3859 22.8994 52.3388 22.6803C52.312 22.5484 52.3518 22.391 52.106 22.3572L52.1312 22.3342Z" fill="#7900DF"/>
<path d="M40.5721 24.8029C40.5364 24.6869 40.4839 24.5767 40.4162 24.476C40.2139 24.1798 40.0981 23.833 40.0817 23.4747C39.9517 23.1231 39.8411 22.7646 39.7506 22.4009C39.7039 22.2466 39.6885 22.0846 39.7052 21.9242C39.722 21.7639 39.7705 21.6086 39.848 21.4672C39.8915 21.3868 39.7743 21.3687 39.7306 21.3298C39.6868 21.2909 39.6582 21.2967 39.9575 21.1822C40.8487 20.8343 41.7306 20.4704 42.6517 20.1522C43.0359 20.0146 43.2138 19.9786 43.191 20.0429C43.1873 20.3782 43.1882 20.7065 43.1615 21.0464C43.1447 21.1991 42.9351 21.4328 43.0525 21.5404C43.2585 21.7316 43.2318 22.0118 43.3334 22.248C43.4974 22.615 43.9447 22.8767 43.9561 23.3164C43.9301 23.5969 43.9751 23.8795 44.0869 24.1381C44.1815 24.3101 44.3471 24.4497 44.4257 24.6309C44.554 24.9073 44.7057 25.1724 44.879 25.423C44.9611 25.5424 45.0181 25.6771 45.0469 25.8191C45.0757 25.961 45.0756 26.1073 45.0465 26.2492C44.9842 26.5605 44.9735 26.8613 45.4663 26.9645C45.5236 26.9529 45.3013 27.0936 45.5583 27.0355L45.6673 27.0134C45.5276 27.1791 45.8216 27.1852 45.8654 27.2838C45.9555 27.4925 46.2728 27.6134 46.052 27.9389C45.9468 28.0976 45.954 28.2216 46.123 28.2889C46.2919 28.3562 45.9882 28.567 46.3004 28.5456C46.6127 28.5241 45.9785 28.7841 45.3787 29.0371C45.1528 29.1306 44.9405 29.2035 44.7226 29.2776C44.1628 29.4627 43.7084 29.5788 42.9687 29.878C42.5478 30.041 42.5843 29.956 42.5499 29.9629C41.9256 29.6236 41.9069 29.0599 41.7494 28.5483C41.6762 28.1868 41.3804 27.9063 41.2566 27.5611C41.1329 27.2158 41.2569 26.7964 40.9852 26.517C40.9013 26.4406 40.8414 26.3415 40.8128 26.2317C40.7842 26.122 40.7881 26.0062 40.824 25.8986C40.8495 25.667 40.8443 25.4331 40.8084 25.2029C40.7793 25.0595 40.8249 24.9009 40.5814 24.8487L40.5721 24.8029Z" fill="#7900DF"/>
<path d="M29.467 27.5977C29.4177 27.4972 29.3488 27.4075 29.2642 27.3341C29.0274 27.1004 28.8601 26.8056 28.781 26.4824C28.6377 26.159 28.3697 25.9266 28.2471 25.5871C28.0929 25.3181 28.0476 25.0002 28.1207 24.6988C28.1458 24.6161 28.0299 24.6336 27.9828 24.6073C27.9356 24.581 27.9082 24.6225 28.1625 24.4037C28.9164 23.8208 29.6599 23.2161 30.4471 22.6503C30.7806 22.4095 30.9147 22.3345 30.9298 22.3792C31.0351 22.711 31.1234 23.048 31.1942 23.3889C31.2267 23.5495 31.0805 23.83 31.2219 23.9089C31.4783 24.054 31.5193 24.3444 31.6748 24.5518C31.9226 24.8898 32.4259 25.0745 32.52 25.5094C32.5536 25.7985 32.6508 26.0766 32.8046 26.3238C32.953 26.4653 33.0915 26.6168 33.2191 26.7773C33.3933 27.0456 33.585 27.302 33.7929 27.545C33.9863 27.7789 34.0813 28.0787 34.0579 28.3813C34.0232 28.7109 34.0308 28.9841 34.5432 29.0953C34.5948 29.0848 34.3874 29.2404 34.6352 29.1662L34.7499 29.143C34.6195 29.3247 34.9111 29.3194 34.9619 29.4226C35.0704 29.6335 35.3945 29.759 35.1899 30.1051C35.0858 30.2695 35.0999 30.3981 35.2632 30.4665C35.4264 30.535 35.1364 30.755 35.4498 30.7393C35.7632 30.7235 35.1302 30.9893 34.5292 31.2365C34.3033 31.3301 34.0968 31.4018 33.8731 31.477C33.3133 31.6622 32.8659 31.7828 32.125 32.0763C31.6995 32.2462 31.7406 32.1543 31.7062 32.1612C31.0969 31.8666 31.0772 31.3569 30.9164 30.8878C30.8031 30.5643 30.5269 30.3216 30.3883 30.0212C30.2498 29.7207 30.3394 29.3084 30.0449 29.0933C29.9587 29.0324 29.8919 28.9477 29.853 28.8495C29.814 28.7514 29.8044 28.644 29.8254 28.5405C29.8252 28.3224 29.7933 28.1055 29.7307 27.8967C29.7028 27.759 29.7081 27.6085 29.4636 27.6103L29.467 27.5977Z" fill="#7900DF"/>
<path d="M16.8927 30.6306C16.8433 30.5313 16.7766 30.4417 16.6957 30.3659C16.4565 30.1323 16.2919 29.8331 16.2227 29.5061C16.0421 29.2129 15.8807 28.9085 15.7393 28.5946C15.6075 28.317 15.5902 27.9987 15.6911 27.7084C15.723 27.6302 15.6105 27.6351 15.5622 27.6031C15.5139 27.5711 15.4933 27.6171 15.7592 27.4258C16.5753 26.9139 17.3443 26.4056 18.211 25.9073C18.5698 25.7032 18.7132 25.6443 18.7202 25.6787C18.7818 25.9828 18.809 26.2938 18.8317 26.6118C18.8608 26.7552 18.6742 27.0141 18.803 27.0895C19.033 27.2221 19.0509 27.4872 19.1858 27.6809C19.3967 27.9846 19.8758 28.1383 19.9538 28.5227C19.9714 28.7824 20.0572 29.0329 20.2024 29.2488C20.3437 29.3688 20.4774 29.4973 20.603 29.6336C20.7703 29.8606 20.9572 30.0726 21.1615 30.267C21.2594 30.3594 21.3356 30.4723 21.3847 30.5976C21.4339 30.7229 21.4547 30.8575 21.4458 30.9918C21.4294 31.2938 21.4703 31.5842 21.9616 31.5622C22.019 31.5506 21.8197 31.7164 22.0548 31.6091L22.1637 31.587C22.0517 31.771 22.334 31.7197 22.3917 31.7976C22.5104 31.9707 22.8366 32.018 22.6686 32.3388C22.5899 32.51 22.6131 32.6248 22.7842 32.6439C22.9553 32.6629 22.6989 32.93 22.9983 32.8454C23.2977 32.7608 22.7224 33.1343 22.1734 33.4905C21.974 33.6265 21.7813 33.7372 21.5772 33.8502C21.0396 34.1444 20.644 34.344 19.9723 34.7729C19.5861 35.0184 19.6111 34.9357 19.5732 34.9255C18.939 34.7435 18.8343 34.2271 18.5909 33.7926C18.434 33.4899 18.1361 33.2875 17.9677 32.9871C17.7993 32.6868 17.8259 32.2872 17.5463 32.087C17.455 32.0311 17.3822 31.9495 17.337 31.8524C17.2918 31.7553 17.2763 31.647 17.2923 31.5411C17.281 31.3237 17.2375 31.109 17.1632 30.9043C17.1365 30.7723 17.1073 30.6289 16.8927 30.6306Z" fill="#7900DF"/>
</svg>
