<svg width="250" height="366" viewBox="0 0 250 366" fill="none" xmlns="http://www.w3.org/2000/svg">
<path d="M390.83 0H0V365.18H390.83V0Z" fill="#FBBF0E"/>
<path d="M48.04 30.6501C49.9841 30.6501 51.56 29.0741 51.56 27.1301C51.56 25.1861 49.9841 23.6101 48.04 23.6101C46.096 23.6101 44.52 25.1861 44.52 27.1301C44.52 29.0741 46.096 30.6501 48.04 30.6501Z" fill="#FFE082"/>
<path d="M48.24 67.9599C50.184 67.9599 51.76 66.384 51.76 64.4399C51.76 62.4959 50.184 60.9199 48.24 60.9199C46.2959 60.9199 44.72 62.4959 44.72 64.4399C44.72 66.384 46.2959 67.9599 48.24 67.9599Z" fill="#FFE082"/>
<path d="M48.4302 105.27C50.3742 105.27 51.9502 103.694 51.9502 101.75C51.9502 99.8059 50.3742 98.23 48.4302 98.23C46.4861 98.23 44.9102 99.8059 44.9102 101.75C44.9102 103.694 46.4861 105.27 48.4302 105.27Z" fill="#FFE082"/>
<path d="M48.6301 142.58C50.5742 142.58 52.1501 141.004 52.1501 139.06C52.1501 137.116 50.5742 135.54 48.6301 135.54C46.6861 135.54 45.1101 137.116 45.1101 139.06C45.1101 141.004 46.6861 142.58 48.6301 142.58Z" fill="#FFE082"/>
<path d="M48.82 179.89C50.7641 179.89 52.34 178.314 52.34 176.37C52.34 174.426 50.7641 172.85 48.82 172.85C46.876 172.85 45.3 174.426 45.3 176.37C45.3 178.314 46.876 179.89 48.82 179.89Z" fill="#FFE082"/>
<path d="M49.02 217.2C50.964 217.2 52.54 215.624 52.54 213.68C52.54 211.736 50.964 210.16 49.02 210.16C47.076 210.16 45.5 211.736 45.5 213.68C45.5 215.624 47.076 217.2 49.02 217.2Z" fill="#FFE082"/>
<path d="M49.22 254.51C51.164 254.51 52.74 252.934 52.74 250.99C52.74 249.046 51.164 247.47 49.22 247.47C47.2759 247.47 45.7 249.046 45.7 250.99C45.7 252.934 47.2759 254.51 49.22 254.51Z" fill="#FFE082"/>
<path d="M49.4101 291.82C51.3542 291.82 52.9301 290.244 52.9301 288.3C52.9301 286.356 51.3542 284.78 49.4101 284.78C47.4661 284.78 45.8901 286.356 45.8901 288.3C45.8901 290.244 47.4661 291.82 49.4101 291.82Z" fill="#FFE082"/>
<path d="M49.6101 329.13C51.5541 329.13 53.1301 327.554 53.1301 325.61C53.1301 323.666 51.5541 322.09 49.6101 322.09C47.666 322.09 46.0901 323.666 46.0901 325.61C46.0901 327.554 47.666 329.13 49.6101 329.13Z" fill="#FFE082"/>
<path d="M86.47 30.4499C88.414 30.4499 89.99 28.8739 89.99 26.9299C89.99 24.9859 88.414 23.4099 86.47 23.4099C84.5259 23.4099 82.95 24.9859 82.95 26.9299C82.95 28.8739 84.5259 30.4499 86.47 30.4499Z" fill="#FFE082"/>
<path d="M86.6702 67.76C88.6142 67.76 90.1901 66.184 90.1901 64.24C90.1901 62.2959 88.6142 60.72 86.6702 60.72C84.7261 60.72 83.1501 62.2959 83.1501 64.24C83.1501 66.184 84.7261 67.76 86.6702 67.76Z" fill="#FFE082"/>
<path d="M86.8601 105.07C88.8041 105.07 90.3801 103.494 90.3801 101.55C90.3801 99.606 88.8041 98.03 86.8601 98.03C84.916 98.03 83.3401 99.606 83.3401 101.55C83.3401 103.494 84.916 105.07 86.8601 105.07Z" fill="#FFE082"/>
<path d="M87.06 142.38C89.0041 142.38 90.58 140.804 90.58 138.86C90.58 136.916 89.0041 135.34 87.06 135.34C85.116 135.34 83.54 136.916 83.54 138.86C83.54 140.804 85.116 142.38 87.06 142.38Z" fill="#FFE082"/>
<path d="M87.26 179.69C89.204 179.69 90.78 178.114 90.78 176.17C90.78 174.226 89.204 172.65 87.26 172.65C85.3159 172.65 83.74 174.226 83.74 176.17C83.74 178.114 85.3159 179.69 87.26 179.69Z" fill="#FFE082"/>
<path d="M87.4502 217C89.3942 217 90.9702 215.424 90.9702 213.48C90.9702 211.536 89.3942 209.96 87.4502 209.96C85.5061 209.96 83.9302 211.536 83.9302 213.48C83.9302 215.424 85.5061 217 87.4502 217Z" fill="#FFE082"/>
<path d="M87.6501 254.31C89.5942 254.31 91.1701 252.734 91.1701 250.79C91.1701 248.846 89.5942 247.27 87.6501 247.27C85.7061 247.27 84.1301 248.846 84.1301 250.79C84.1301 252.734 85.7061 254.31 87.6501 254.31Z" fill="#FFE082"/>
<path d="M87.8401 291.62C89.7841 291.62 91.3601 290.044 91.3601 288.1C91.3601 286.156 89.7841 284.58 87.8401 284.58C85.896 284.58 84.3201 286.156 84.3201 288.1C84.3201 290.044 85.896 291.62 87.8401 291.62Z" fill="#FFE082"/>
<path d="M88.04 328.93C89.9841 328.93 91.56 327.354 91.56 325.41C91.56 323.466 89.9841 321.89 88.04 321.89C86.096 321.89 84.52 323.466 84.52 325.41C84.52 327.354 86.096 328.93 88.04 328.93Z" fill="#FFE082"/>
<path d="M123.78 30.25C125.724 30.25 127.3 28.674 127.3 26.73C127.3 24.7859 125.724 23.21 123.78 23.21C121.836 23.21 120.26 24.7859 120.26 26.73C120.26 28.674 121.836 30.25 123.78 30.25Z" fill="#FFE082"/>
<path d="M123.98 67.56C125.924 67.56 127.5 65.9841 127.5 64.04C127.5 62.096 125.924 60.52 123.98 60.52C122.036 60.52 120.46 62.096 120.46 64.04C120.46 65.9841 122.036 67.56 123.98 67.56Z" fill="#FFE082"/>
<path d="M124.17 104.87C126.114 104.87 127.69 103.294 127.69 101.35C127.69 99.4058 126.114 97.8298 124.17 97.8298C122.226 97.8298 120.65 99.4058 120.65 101.35C120.65 103.294 122.226 104.87 124.17 104.87Z" fill="#FFE082"/>
<path d="M124.37 142.18C126.314 142.18 127.89 140.604 127.89 138.66C127.89 136.716 126.314 135.14 124.37 135.14C122.426 135.14 120.85 136.716 120.85 138.66C120.85 140.604 122.426 142.18 124.37 142.18Z" fill="#FFE082"/>
<path d="M124.57 179.5C126.514 179.5 128.09 177.924 128.09 175.98C128.09 174.036 126.514 172.46 124.57 172.46C122.626 172.46 121.05 174.036 121.05 175.98C121.05 177.924 122.626 179.5 124.57 179.5Z" fill="#FFE082"/>
<path d="M124.76 216.81C126.704 216.81 128.28 215.234 128.28 213.29C128.28 211.346 126.704 209.77 124.76 209.77C122.816 209.77 121.24 211.346 121.24 213.29C121.24 215.234 122.816 216.81 124.76 216.81Z" fill="#FFE082"/>
<path d="M124.96 254.12C126.904 254.12 128.48 252.544 128.48 250.6C128.48 248.656 126.904 247.08 124.96 247.08C123.016 247.08 121.44 248.656 121.44 250.6C121.44 252.544 123.016 254.12 124.96 254.12Z" fill="#FFE082"/>
<path d="M125.15 291.43C127.094 291.43 128.67 289.854 128.67 287.91C128.67 285.966 127.094 284.39 125.15 284.39C123.206 284.39 121.63 285.966 121.63 287.91C121.63 289.854 123.206 291.43 125.15 291.43Z" fill="#FFE082"/>
<path d="M125.35 328.74C127.294 328.74 128.87 327.164 128.87 325.22C128.87 323.276 127.294 321.7 125.35 321.7C123.406 321.7 121.83 323.276 121.83 325.22C121.83 327.164 123.406 328.74 125.35 328.74Z" fill="#FFE082"/>
<path d="M162.21 30.05C164.154 30.05 165.73 28.4741 165.73 26.53C165.73 24.586 164.154 23.01 162.21 23.01C160.266 23.01 158.69 24.586 158.69 26.53C158.69 28.4741 160.266 30.05 162.21 30.05Z" fill="#FFE082"/>
<path d="M162.41 67.3601C164.354 67.3601 165.93 65.7841 165.93 63.8401C165.93 61.896 164.354 60.3201 162.41 60.3201C160.466 60.3201 158.89 61.896 158.89 63.8401C158.89 65.7841 160.466 67.3601 162.41 67.3601Z" fill="#FFE082"/>
<path d="M162.61 104.67C164.554 104.67 166.13 103.094 166.13 101.15C166.13 99.2058 164.554 97.6299 162.61 97.6299C160.666 97.6299 159.09 99.2058 159.09 101.15C159.09 103.094 160.666 104.67 162.61 104.67Z" fill="#FFE082"/>
<path d="M162.8 141.98C164.744 141.98 166.32 140.404 166.32 138.46C166.32 136.516 164.744 134.94 162.8 134.94C160.856 134.94 159.28 136.516 159.28 138.46C159.28 140.404 160.856 141.98 162.8 141.98Z" fill="#FFE082"/>
<path d="M163 179.29C164.944 179.29 166.52 177.714 166.52 175.77C166.52 173.826 164.944 172.25 163 172.25C161.056 172.25 159.48 173.826 159.48 175.77C159.48 177.714 161.056 179.29 163 179.29Z" fill="#FFE082"/>
<path d="M163.19 216.6C165.134 216.6 166.71 215.024 166.71 213.08C166.71 211.136 165.134 209.56 163.19 209.56C161.246 209.56 159.67 211.136 159.67 213.08C159.67 215.024 161.246 216.6 163.19 216.6Z" fill="#FFE082"/>
<path d="M163.39 253.91C165.334 253.91 166.91 252.334 166.91 250.39C166.91 248.446 165.334 246.87 163.39 246.87C161.446 246.87 159.87 248.446 159.87 250.39C159.87 252.334 161.446 253.91 163.39 253.91Z" fill="#FFE082"/>
<path d="M163.58 291.23C165.524 291.23 167.1 289.654 167.1 287.71C167.1 285.766 165.524 284.19 163.58 284.19C161.636 284.19 160.06 285.766 160.06 287.71C160.06 289.654 161.636 291.23 163.58 291.23Z" fill="#FFE082"/>
<path d="M163.78 328.54C165.724 328.54 167.3 326.964 167.3 325.02C167.3 323.076 165.724 321.5 163.78 321.5C161.836 321.5 160.26 323.076 160.26 325.02C160.26 326.964 161.836 328.54 163.78 328.54Z" fill="#FFE082"/>
<path d="M199.53 29.8601C201.474 29.8601 203.05 28.2841 203.05 26.3401C203.05 24.396 201.474 22.8201 199.53 22.8201C197.586 22.8201 196.01 24.396 196.01 26.3401C196.01 28.2841 197.586 29.8601 199.53 29.8601Z" fill="#FFE082"/>
<path d="M199.72 67.1699C201.664 67.1699 203.24 65.5939 203.24 63.6499C203.24 61.7058 201.664 60.1299 199.72 60.1299C197.776 60.1299 196.2 61.7058 196.2 63.6499C196.2 65.5939 197.776 67.1699 199.72 67.1699Z" fill="#FFE082"/>
<path d="M199.92 104.48C201.864 104.48 203.44 102.904 203.44 100.96C203.44 99.0159 201.864 97.4399 199.92 97.4399C197.976 97.4399 196.4 99.0159 196.4 100.96C196.4 102.904 197.976 104.48 199.92 104.48Z" fill="#FFE082"/>
<path d="M200.11 141.79C202.054 141.79 203.63 140.214 203.63 138.27C203.63 136.326 202.054 134.75 200.11 134.75C198.166 134.75 196.59 136.326 196.59 138.27C196.59 140.214 198.166 141.79 200.11 141.79Z" fill="#FFE082"/>
<path d="M200.31 179.1C202.254 179.1 203.83 177.524 203.83 175.58C203.83 173.636 202.254 172.06 200.31 172.06C198.366 172.06 196.79 173.636 196.79 175.58C196.79 177.524 198.366 179.1 200.31 179.1Z" fill="#FFE082"/>
<path d="M200.5 216.41C202.444 216.41 204.02 214.834 204.02 212.89C204.02 210.946 202.444 209.37 200.5 209.37C198.556 209.37 196.98 210.946 196.98 212.89C196.98 214.834 198.556 216.41 200.5 216.41Z" fill="#FFE082"/>
<path d="M200.7 253.72C202.644 253.72 204.22 252.144 204.22 250.2C204.22 248.256 202.644 246.68 200.7 246.68C198.756 246.68 197.18 248.256 197.18 250.2C197.18 252.144 198.756 253.72 200.7 253.72Z" fill="#FFE082"/>
<path d="M200.9 291.03C202.844 291.03 204.42 289.454 204.42 287.51C204.42 285.566 202.844 283.99 200.9 283.99C198.956 283.99 197.38 285.566 197.38 287.51C197.38 289.454 198.956 291.03 200.9 291.03Z" fill="#FFE082"/>
<path d="M201.09 328.34C203.034 328.34 204.61 326.764 204.61 324.82C204.61 322.876 203.034 321.3 201.09 321.3C199.146 321.3 197.57 322.876 197.57 324.82C197.57 326.764 199.146 328.34 201.09 328.34Z" fill="#FFE082"/>
<path d="M234.43 29.6699C236.374 29.6699 237.95 28.0939 237.95 26.1499C237.95 24.2058 236.374 22.6299 234.43 22.6299C232.486 22.6299 230.91 24.2058 230.91 26.1499C230.91 28.0939 232.486 29.6699 234.43 29.6699Z" fill="#FFE082"/>
<path d="M234.63 66.9799C236.574 66.9799 238.15 65.404 238.15 63.4599C238.15 61.5159 236.574 59.9399 234.63 59.9399C232.686 59.9399 231.11 61.5159 231.11 63.4599C231.11 65.404 232.686 66.9799 234.63 66.9799Z" fill="#FFE082"/>
<path d="M234.83 104.29C236.774 104.29 238.35 102.714 238.35 100.77C238.35 98.826 236.774 97.25 234.83 97.25C232.886 97.25 231.31 98.826 231.31 100.77C231.31 102.714 232.886 104.29 234.83 104.29Z" fill="#FFE082"/>
<path d="M235.02 141.6C236.964 141.6 238.54 140.024 238.54 138.08C238.54 136.136 236.964 134.56 235.02 134.56C233.076 134.56 231.5 136.136 231.5 138.08C231.5 140.024 233.076 141.6 235.02 141.6Z" fill="#FFE082"/>
<path d="M235.22 178.92C237.164 178.92 238.74 177.344 238.74 175.4C238.74 173.456 237.164 171.88 235.22 171.88C233.276 171.88 231.7 173.456 231.7 175.4C231.7 177.344 233.276 178.92 235.22 178.92Z" fill="#FFE082"/>
<path d="M235.41 216.23C237.354 216.23 238.93 214.654 238.93 212.71C238.93 210.766 237.354 209.19 235.41 209.19C233.466 209.19 231.89 210.766 231.89 212.71C231.89 214.654 233.466 216.23 235.41 216.23Z" fill="#FFE082"/>
<path d="M235.61 253.54C237.554 253.54 239.13 251.964 239.13 250.02C239.13 248.076 237.554 246.5 235.61 246.5C233.666 246.5 232.09 248.076 232.09 250.02C232.09 251.964 233.666 253.54 235.61 253.54Z" fill="#FFE082"/>
<path d="M235.8 290.85C237.744 290.85 239.32 289.274 239.32 287.33C239.32 285.386 237.744 283.81 235.8 283.81C233.856 283.81 232.28 285.386 232.28 287.33C232.28 289.274 233.856 290.85 235.8 290.85Z" fill="#FFE082"/>
<path d="M236 328.16C237.944 328.16 239.52 326.584 239.52 324.64C239.52 322.696 237.944 321.12 236 321.12C234.056 321.12 232.48 322.696 232.48 324.64C232.48 326.584 234.056 328.16 236 328.16Z" fill="#FFE082"/>
</svg>
