<svg width="25" height="21" viewBox="0 0 25 21" fill="none" xmlns="http://www.w3.org/2000/svg">
<path d="M24.6022 3.21897C23.6974 3.62283 22.7255 3.89571 21.7038 4.01905C22.758 3.38356 23.5468 2.38339 23.9228 1.20515C22.9323 1.79782 21.8483 2.215 20.7178 2.43855C19.9576 1.62086 18.9507 1.07889 17.8533 0.896767C16.756 0.714647 15.6297 0.902571 14.6493 1.43136C13.6689 1.96016 12.8892 2.80023 12.4313 3.82116C11.9734 4.84209 11.8628 5.98676 12.1169 7.07745C10.1099 6.97593 8.14651 6.45043 6.35416 5.53504C4.56182 4.61966 2.98056 3.33485 1.71303 1.764C1.27962 2.51714 1.03042 3.39034 1.03042 4.3203C1.02993 5.15748 1.23459 5.98184 1.62622 6.72023C2.01785 7.45862 2.58435 8.08822 3.27545 8.55316C2.47395 8.52747 1.69014 8.3093 0.989245 7.91681V7.9823C0.989164 9.15648 1.39235 10.2945 2.13038 11.2033C2.86841 12.1121 3.89584 12.7357 5.03832 12.9683C4.2948 13.171 3.51527 13.2009 2.75862 13.0556C3.08096 14.0659 3.70885 14.9494 4.55439 15.5824C5.39993 16.2153 6.42079 16.5661 7.47405 16.5856C5.68608 17.9995 3.47794 18.7665 1.20486 18.7631C0.80221 18.7632 0.399898 18.7395 0 18.6922C2.30731 20.1866 4.99318 20.9798 7.73626 20.9767C17.0219 20.9767 22.0982 13.2292 22.0982 6.50986C22.0982 6.29156 22.0928 6.07108 22.083 5.85278C23.0704 5.13345 23.9227 4.24269 24.6 3.22225L24.6022 3.21897Z" fill="black"/>
</svg>
