<svg width="153" height="287" viewBox="0 0 153 287" fill="none" xmlns="http://www.w3.org/2000/svg">
<path d="M306.281 0H0V286.18H306.281V0Z" fill="#498AF4"/>
<path d="M37.6472 24.0195C39.1707 24.0195 40.4057 22.7845 40.4057 21.261C40.4057 19.7375 39.1707 18.5025 37.6472 18.5025C36.1237 18.5025 34.8887 19.7375 34.8887 21.261C34.8887 22.7845 36.1237 24.0195 37.6472 24.0195Z" fill="#E3F2FD"/>
<path d="M37.8044 53.258C39.3279 53.258 40.5629 52.023 40.5629 50.4995C40.5629 48.9761 39.3279 47.741 37.8044 47.741C36.2809 47.741 35.0459 48.9761 35.0459 50.4995C35.0459 52.023 36.2809 53.258 37.8044 53.258Z" fill="#E3F2FD"/>
<path d="M37.9528 82.4968C39.4763 82.4968 40.7114 81.2617 40.7114 79.7383C40.7114 78.2148 39.4763 76.9797 37.9528 76.9797C36.4294 76.9797 35.1943 78.2148 35.1943 79.7383C35.1943 81.2617 36.4294 82.4968 37.9528 82.4968Z" fill="#E3F2FD"/>
<path d="M38.1101 111.735C39.6336 111.735 40.8686 110.5 40.8686 108.977C40.8686 107.453 39.6336 106.218 38.1101 106.218C36.5866 106.218 35.3516 107.453 35.3516 108.977C35.3516 110.5 36.5866 111.735 38.1101 111.735Z" fill="#E3F2FD"/>
<path d="M38.2585 140.974C39.782 140.974 41.017 139.739 41.017 138.215C41.017 136.692 39.782 135.457 38.2585 135.457C36.735 135.457 35.5 136.692 35.5 138.215C35.5 139.739 36.735 140.974 38.2585 140.974Z" fill="#E3F2FD"/>
<path d="M38.4157 170.213C39.9392 170.213 41.1743 168.978 41.1743 167.454C41.1743 165.931 39.9392 164.696 38.4157 164.696C36.8923 164.696 35.6572 165.931 35.6572 167.454C35.6572 168.978 36.8923 170.213 38.4157 170.213Z" fill="#E3F2FD"/>
<path d="M38.572 199.451C40.0955 199.451 41.3305 198.216 41.3305 196.693C41.3305 195.169 40.0955 193.934 38.572 193.934C37.0485 193.934 35.8135 195.169 35.8135 196.693C35.8135 198.216 37.0485 199.451 38.572 199.451Z" fill="#E3F2FD"/>
<path d="M38.7214 228.69C40.2449 228.69 41.4799 227.455 41.4799 225.932C41.4799 224.408 40.2449 223.173 38.7214 223.173C37.1979 223.173 35.9629 224.408 35.9629 225.932C35.9629 227.455 37.1979 228.69 38.7214 228.69Z" fill="#E3F2FD"/>
<path d="M38.8777 257.929C40.4011 257.929 41.6362 256.694 41.6362 255.17C41.6362 253.647 40.4011 252.412 38.8777 252.412C37.3542 252.412 36.1191 253.647 36.1191 255.17C36.1191 256.694 37.3542 257.929 38.8777 257.929Z" fill="#E3F2FD"/>
<path d="M67.7644 23.8626C69.2879 23.8626 70.5229 22.6276 70.5229 21.1041C70.5229 19.5806 69.2879 18.3456 67.7644 18.3456C66.2409 18.3456 65.0059 19.5806 65.0059 21.1041C65.0059 22.6276 66.2409 23.8626 67.7644 23.8626Z" fill="#E3F2FD"/>
<path d="M67.9206 53.1013C69.4441 53.1013 70.6791 51.8663 70.6791 50.3428C70.6791 48.8193 69.4441 47.5843 67.9206 47.5843C66.3971 47.5843 65.1621 48.8193 65.1621 50.3428C65.1621 51.8663 66.3971 53.1013 67.9206 53.1013Z" fill="#E3F2FD"/>
<path d="M68.0691 82.34C69.5925 82.34 70.8276 81.105 70.8276 79.5815C70.8276 78.0581 69.5925 76.823 68.0691 76.823C66.5456 76.823 65.3105 78.0581 65.3105 79.5815C65.3105 81.105 66.5456 82.34 68.0691 82.34Z" fill="#E3F2FD"/>
<path d="M68.2263 111.579C69.7498 111.579 70.9848 110.344 70.9848 108.82C70.9848 107.297 69.7498 106.062 68.2263 106.062C66.7028 106.062 65.4678 107.297 65.4678 108.82C65.4678 110.344 66.7028 111.579 68.2263 111.579Z" fill="#E3F2FD"/>
<path d="M68.3835 140.817C69.907 140.817 71.142 139.582 71.142 138.059C71.142 136.535 69.907 135.3 68.3835 135.3C66.86 135.3 65.625 136.535 65.625 138.059C65.625 139.582 66.86 140.817 68.3835 140.817Z" fill="#E3F2FD"/>
<path d="M68.5319 170.056C70.0554 170.056 71.2905 168.821 71.2905 167.297C71.2905 165.774 70.0554 164.539 68.5319 164.539C67.0085 164.539 65.7734 165.774 65.7734 167.297C65.7734 168.821 67.0085 170.056 68.5319 170.056Z" fill="#E3F2FD"/>
<path d="M68.6882 199.295C70.2117 199.295 71.4467 198.06 71.4467 196.536C71.4467 195.013 70.2117 193.778 68.6882 193.778C67.1647 193.778 65.9297 195.013 65.9297 196.536C65.9297 198.06 67.1647 199.295 68.6882 199.295Z" fill="#E3F2FD"/>
<path d="M68.8376 228.533C70.3611 228.533 71.5961 227.298 71.5961 225.775C71.5961 224.251 70.3611 223.016 68.8376 223.016C67.3141 223.016 66.0791 224.251 66.0791 225.775C66.0791 227.298 67.3141 228.533 68.8376 228.533Z" fill="#E3F2FD"/>
<path d="M68.9939 257.772C70.5174 257.772 71.7524 256.537 71.7524 255.013C71.7524 253.49 70.5174 252.255 68.9939 252.255C67.4704 252.255 66.2354 253.49 66.2354 255.013C66.2354 256.537 67.4704 257.772 68.9939 257.772Z" fill="#E3F2FD"/>
<path d="M97.0027 23.7059C98.5261 23.7059 99.7612 22.4709 99.7612 20.9474C99.7612 19.4239 98.5261 18.1889 97.0027 18.1889C95.4792 18.1889 94.2441 19.4239 94.2441 20.9474C94.2441 22.4709 95.4792 23.7059 97.0027 23.7059Z" fill="#E3F2FD"/>
<path d="M97.1589 52.9446C98.6824 52.9446 99.9174 51.7096 99.9174 50.1861C99.9174 48.6626 98.6824 47.4276 97.1589 47.4276C95.6354 47.4276 94.4004 48.6626 94.4004 50.1861C94.4004 51.7096 95.6354 52.9446 97.1589 52.9446Z" fill="#E3F2FD"/>
<path d="M97.3083 82.1832C98.8318 82.1832 100.067 80.9481 100.067 79.4246C100.067 77.9012 98.8318 76.6661 97.3083 76.6661C95.7848 76.6661 94.5498 77.9012 94.5498 79.4246C94.5498 80.9481 95.7848 82.1832 97.3083 82.1832Z" fill="#E3F2FD"/>
<path d="M97.4646 111.422C98.988 111.422 100.223 110.187 100.223 108.663C100.223 107.14 98.988 105.905 97.4646 105.905C95.9411 105.905 94.7061 107.14 94.7061 108.663C94.7061 110.187 95.9411 111.422 97.4646 111.422Z" fill="#E3F2FD"/>
<path d="M97.6218 140.668C99.1453 140.668 100.38 139.433 100.38 137.91C100.38 136.386 99.1453 135.151 97.6218 135.151C96.0983 135.151 94.8633 136.386 94.8633 137.91C94.8633 139.433 96.0983 140.668 97.6218 140.668Z" fill="#E3F2FD"/>
<path d="M97.7702 169.907C99.2937 169.907 100.529 168.672 100.529 167.149C100.529 165.625 99.2937 164.39 97.7702 164.39C96.2467 164.39 95.0117 165.625 95.0117 167.149C95.0117 168.672 96.2467 169.907 97.7702 169.907Z" fill="#E3F2FD"/>
<path d="M97.9275 199.146C99.4509 199.146 100.686 197.911 100.686 196.387C100.686 194.864 99.4509 193.629 97.9275 193.629C96.404 193.629 95.1689 194.864 95.1689 196.387C95.1689 197.911 96.404 199.146 97.9275 199.146Z" fill="#E3F2FD"/>
<path d="M98.0759 228.384C99.5994 228.384 100.834 227.149 100.834 225.626C100.834 224.102 99.5994 222.867 98.0759 222.867C96.5524 222.867 95.3174 224.102 95.3174 225.626C95.3174 227.149 96.5524 228.384 98.0759 228.384Z" fill="#E3F2FD"/>
<path d="M98.2331 257.623C99.7566 257.623 100.992 256.388 100.992 254.865C100.992 253.341 99.7566 252.106 98.2331 252.106C96.7096 252.106 95.4746 253.341 95.4746 254.865C95.4746 256.388 96.7096 257.623 98.2331 257.623Z" fill="#E3F2FD"/>
<path d="M127.119 23.5493C128.642 23.5493 129.877 22.3142 129.877 20.7907C129.877 19.2673 128.642 18.0322 127.119 18.0322C125.595 18.0322 124.36 19.2673 124.36 20.7907C124.36 22.3142 125.595 23.5493 127.119 23.5493Z" fill="#E3F2FD"/>
<path d="M127.276 52.788C128.8 52.788 130.035 51.5529 130.035 50.0295C130.035 48.506 128.8 47.2709 127.276 47.2709C125.753 47.2709 124.518 48.506 124.518 50.0295C124.518 51.5529 125.753 52.788 127.276 52.788Z" fill="#E3F2FD"/>
<path d="M127.432 82.0265C128.956 82.0265 130.191 80.7915 130.191 79.268C130.191 77.7445 128.956 76.5095 127.432 76.5095C125.909 76.5095 124.674 77.7445 124.674 79.268C124.674 80.7915 125.909 82.0265 127.432 82.0265Z" fill="#E3F2FD"/>
<path d="M127.582 111.265C129.105 111.265 130.34 110.03 130.34 108.507C130.34 106.983 129.105 105.748 127.582 105.748C126.058 105.748 124.823 106.983 124.823 108.507C124.823 110.03 126.058 111.265 127.582 111.265Z" fill="#E3F2FD"/>
<path d="M127.738 140.504C129.261 140.504 130.497 139.269 130.497 137.745C130.497 136.222 129.261 134.987 127.738 134.987C126.215 134.987 124.979 136.222 124.979 137.745C124.979 139.269 126.215 140.504 127.738 140.504Z" fill="#E3F2FD"/>
<path d="M127.886 169.742C129.41 169.742 130.645 168.507 130.645 166.984C130.645 165.46 129.41 164.225 127.886 164.225C126.363 164.225 125.128 165.46 125.128 166.984C125.128 168.507 126.363 169.742 127.886 169.742Z" fill="#E3F2FD"/>
<path d="M128.044 198.981C129.567 198.981 130.802 197.746 130.802 196.223C130.802 194.699 129.567 193.464 128.044 193.464C126.52 193.464 125.285 194.699 125.285 196.223C125.285 197.746 126.52 198.981 128.044 198.981Z" fill="#E3F2FD"/>
<path d="M128.192 228.228C129.716 228.228 130.951 226.993 130.951 225.469C130.951 223.946 129.716 222.711 128.192 222.711C126.669 222.711 125.434 223.946 125.434 225.469C125.434 226.993 126.669 228.228 128.192 228.228Z" fill="#E3F2FD"/>
<path d="M128.349 257.466C129.873 257.466 131.108 256.231 131.108 254.708C131.108 253.184 129.873 251.949 128.349 251.949C126.826 251.949 125.591 253.184 125.591 254.708C125.591 256.231 126.826 257.466 128.349 257.466Z" fill="#E3F2FD"/>
</svg>
