<svg width="97" height="142" viewBox="0 0 97 142" fill="none" xmlns="http://www.w3.org/2000/svg">
<path d="M75.4604 50.0946C74.8868 44.5196 74.3133 38.9446 73.6537 33.3926C72.673 25.1907 71.715 17.0003 70.5106 8.87295L70.2869 7.38744L70.2181 6.91712L70.1837 6.68196C70.1837 6.61886 70.1836 6.63607 70.1492 6.64754H70.1149L69.7994 6.84829L67.27 8.60338C63.886 10.9626 60.5097 13.3391 57.141 15.7327L35.7415 31.0467C32.1663 33.5933 28.5739 36.1208 24.9643 38.6292L23.7427 39.4723L23.1232 39.9025L22.8135 40.1204L22.4808 39.9484L20.1177 38.7439L17.1983 37.2698L11.3308 34.3676C5.41936 31.4769 -0.538021 28.676 -6.54127 25.965C-9.53524 24.6114 -12.5349 23.2635 -15.5404 21.9501C-17.0488 21.3077 -18.5516 20.6538 -20.06 20.0287C-20.8114 19.7075 -21.5628 19.4035 -22.3199 19.0995L-23.467 18.6407C-23.8226 18.5087 -24.1782 18.3711 -24.5453 18.2564C-26.875 17.5065 -29.3475 17.3101 -31.7664 17.6828C-32.7299 17.8033 -33.9344 18.2162 -34.1409 17.9352C-34.5136 17.5217 -34.9183 17.1381 -35.3511 16.7881C-35.4642 16.6957 -35.5576 16.5815 -35.6257 16.4523C-35.6938 16.3231 -35.7352 16.1815 -35.7475 16.036C-35.7598 15.8904 -35.7428 15.7439 -35.6973 15.6051C-35.6519 15.4663 -35.579 15.3381 -35.483 15.228C-35.093 14.6544 -33.7165 13.9948 -31.7148 13.7941C-29.6864 13.6094 -27.6418 13.7234 -25.6465 14.1325C-24.6627 14.3322 -23.6932 14.5966 -22.7443 14.924L-22.0446 15.1706L-21.4079 15.423L-20.1231 15.9163C-16.6817 17.2584 -13.3723 18.6865 -10.0457 20.1548C-3.39242 23.08 3.14615 26.1657 9.67899 29.3318C12.6672 30.7886 15.6268 32.32 18.5749 33.8572L20.7831 35.0043L21.8843 35.5778L22.1367 35.7098L22.2227 35.7556L22.3891 35.8531C22.5038 35.9679 22.607 35.8531 22.716 35.7843L23.3871 35.3255C24.0639 34.8552 24.7407 34.3848 25.406 33.903L54.5312 13.0943L66.1114 4.80068L70.046 2.0304L72.5869 0.246626L72.9023 0.0286709L72.9425 0C72.9425 0 72.9425 -1.39952e-06 72.9425 0.0344121V0.120442V0.292503L73.0572 0.986522L73.2924 2.3688L74.2043 7.74877L74.7779 11.2819C76.2003 20.6997 77.2671 30.1405 78.2192 39.5813C79.4639 52.1996 80.588 64.8638 82.3833 77.396C82.7274 79.6329 83.0429 81.8755 83.4386 84.0952L84.0122 87.4448C84.2415 88.6468 84.3814 89.8642 84.4309 91.0869C84.4861 92.4395 84.2916 93.7908 83.8573 95.0731C83.4039 96.3092 82.7657 97.4695 81.9646 98.5144C81.219 99.5182 80.4561 100.401 79.6704 101.256C78.8846 102.111 78.1217 102.977 77.3302 103.826C74.8467 106.424 72.2428 108.896 69.57 111.282C66.8972 113.668 64.1326 115.905 61.3623 118.124C55.8275 122.552 50.2697 126.854 45.1135 131.528C43.9663 132.613 42.7504 133.685 41.6262 134.815C41.0526 135.389 40.4791 135.916 39.9055 136.495L37.6457 138.853L36.8657 139.667L36.7682 139.765C36.7682 139.765 36.7338 139.811 36.7166 139.805H36.6535L36.4011 139.679L35.8963 139.426L33.8831 138.428L31.6922 137.344L27.3389 135.171C21.5306 132.268 15.7338 129.332 9.94854 126.361C4.28178 123.447 -1.41936 120.533 -7.16069 117.689C-10.0285 116.266 -12.9078 114.865 -15.7985 113.484C-16.5155 113.134 -17.2324 112.813 -18.0124 112.412C-18.8612 111.988 -19.6565 111.464 -20.3812 110.852C-21.1959 110.143 -21.8391 109.258 -22.2625 108.265C-22.6285 107.374 -22.8828 106.442 -23.0196 105.489C-23.1515 104.64 -23.163 103.889 -23.2261 103.114C-23.2643 102.362 -23.3835 101.616 -23.5817 100.889V100.941L-23.8111 99.9139V99.9655C-24.1954 94.8781 -25.1131 89.8996 -25.8473 84.8637C-27.3443 74.3963 -29.3402 64.0665 -30.7283 53.4499C-31.4051 48.2879 -32.2596 42.7473 -33.2519 37.2182C-34.0548 32.7789 -34.4793 27.3473 -35.3856 23.0054C-36.4753 17.6484 -35.6494 17.7803 -35.0988 16.6963C-34.8923 16.2948 -34.6284 16.5414 -34.3302 16.9601C-33.5616 18.027 -32.793 20.3097 -32.0359 19.6444C-31.6058 19.2658 -31.319 22.082 -31.0781 23.5389C-27.2468 48.2707 -22.4747 72.9968 -19.607 98.1015L-18.9129 104.514C-18.8542 105.333 -18.6604 106.138 -18.3393 106.894C-18.2045 107.168 -18.0263 107.417 -17.8117 107.634C-17.5483 107.899 -17.2558 108.134 -16.9399 108.334C-16.1039 108.842 -15.2381 109.3 -14.3474 109.705L-11.4796 111.133L-5.69815 113.972L17.4163 125.368L28.6752 131.007L34.2962 133.84L35.839 134.586L35.9193 134.637C35.9193 134.637 35.9537 134.637 35.9766 134.603L36.8714 133.685C42.911 127.605 49.6101 122.334 56.1258 117.109C60.026 113.978 63.8745 110.88 67.5396 107.64C71.1831 104.429 74.6307 101.003 77.8636 97.3788C78.6253 96.5522 79.291 95.6421 79.8481 94.6659C80.3254 93.7989 80.5945 92.8328 80.6339 91.844C80.6741 90.6911 80.5895 89.5373 80.3816 88.4026L79.7736 84.5999C78.9782 79.4799 78.2919 74.36 77.7145 69.24C76.9804 62.8448 76.3609 56.3866 75.4604 50.0201V50.0946Z" fill="#FBBF0E"/>
<path d="M31.6808 97.8204C31.8242 99.1109 31.9331 100.401 32.1167 101.68C32.6902 105.466 32.9197 109.28 33.2638 113.083C33.6309 117.098 34.1471 121.141 34.4683 125.173C34.7092 128.213 35.0418 131.253 34.9845 134.316C35.0239 134.927 35.1082 135.535 35.2368 136.134C35.2712 136.375 35.3573 136.708 35.0246 136.765C34.0381 136.949 33.0745 137.339 32.0364 137.167C31.8518 137.15 31.6805 137.064 31.5578 136.925C31.435 136.787 31.3702 136.606 31.3768 136.421C31.1588 133.083 30.9294 129.75 30.7344 126.418C30.6426 124.887 30.7746 123.327 30.5394 121.83C30.1207 119.099 29.9658 116.341 29.6618 113.605C29.18 109.246 28.3828 104.933 28.0788 100.556C27.8723 97.6311 27.6831 94.7002 27.3332 91.7866C27.0809 89.6988 26.7596 87.6225 26.5245 85.5348C26.1746 82.2942 25.7617 79.0536 25.3774 75.8187C25.0046 72.8419 24.7063 69.8594 24.5744 66.854C24.5292 63.8915 24.1696 60.9422 23.5018 58.0556C23.41 57.7057 23.6394 57.3157 23.3297 57.006L23.1863 56.7765C23.2609 55.5835 22.8537 54.4422 22.7275 53.2721C22.458 50.8402 21.9418 48.4485 22.0163 45.9535C22.0568 44.6867 21.9451 43.4197 21.6836 42.1795C21.4599 41.1586 21.6836 39.8852 21.2534 38.893C20.7372 37.6885 21.5345 37.6598 22.1883 37.3616C22.3047 37.3133 22.4295 37.2885 22.5554 37.2885C22.6814 37.2885 22.8062 37.3133 22.9225 37.3616C23.5706 37.5566 24.0696 38.0499 24.9185 37.8376C25.3831 37.7115 25.3831 38.371 25.4519 38.7094C26.5417 44.445 26.9604 50.2265 27.5282 56.008C27.9182 59.9541 28.4803 63.8887 28.8875 67.8348C29.289 71.6891 29.4152 75.5778 29.9888 79.4034C30.3276 81.6845 30.5439 83.982 30.6369 86.2861C30.7287 88.6607 30.9753 91.0237 31.1417 93.3925C31.1951 94.8831 31.3871 96.3654 31.7152 97.8204H31.6808Z" fill="#FBBF0E"/>
<path d="M-27.5792 116.805C-25.4341 117.499 -23.3063 118.233 -21.1612 118.899C-14.8176 120.866 -8.59452 123.149 -2.33699 125.323C4.29335 127.617 10.9811 129.773 17.6229 132.005C22.6186 133.691 27.6659 135.251 32.61 137.029C33.6163 137.345 34.6387 137.607 35.6728 137.815C36.0857 137.918 36.6535 138.015 36.6134 138.354C36.4815 139.358 36.7224 140.459 35.994 141.308C35.6785 141.669 35.1508 141.692 34.4683 141.491C28.8589 139.834 23.3355 138.015 17.8351 136.111C15.3114 135.239 12.8681 134.132 10.333 133.381C5.7445 132.01 1.24206 130.358 -3.29479 128.844C-10.5044 126.43 -17.8001 124.29 -24.9466 121.749L-28.5429 120.482L-30.3381 119.857L-31.6687 119.409L-32.4488 119.151C-32.575 119.105 -32.7126 119.065 -32.8331 119.013L-32.9248 118.612L-34.8176 110.387L-36.0852 105.053C-36.5039 103.275 -36.9111 101.491 -37.2724 99.7017C-38.4195 94.1325 -39.5667 88.5632 -40.5417 82.971C-41.4766 77.8377 -42.2624 72.647 -42.7671 67.485C-43.2948 62.3918 -43.7766 57.2355 -44.7688 52.1881C-44.8836 51.5744 -44.6828 50.9091 -45.0154 50.3528L-45.1703 49.9455C-45.1703 47.875 -45.6464 45.8675 -45.8414 43.8257C-46.0364 41.7838 -46.2486 39.6616 -46.4551 37.5796C-46.5067 37.0634 -46.5468 36.5415 -46.5812 36.0195L-46.7189 33.7884C-46.8451 31.7121 -46.9426 29.6588 -47 27.7431L-46.5411 27.9553C-44.6025 28.8443 -42.7327 29.676 -40.8342 30.4789L-39.7961 30.9149L-39.0218 31.2246C-38.4998 31.4253 -37.9722 31.6203 -37.4388 31.7981C-35.7181 32.3717 -33.8597 33.5188 -32.1046 33.926C-29.948 34.4021 -30.3381 35.0732 -30.2348 35.8819C-30.1947 36.1744 -30.384 36.3464 -30.6421 36.5013C-31.3074 36.9028 -32.3627 36.9774 -32.4775 37.832C-32.5405 38.3252 -33.5672 37.832 -34.1236 37.6255C-36.0354 36.9449 -37.9282 36.2375 -39.8018 35.5033L-41.2127 34.9298L-41.9011 34.6602H-42.01V34.7233L-41.9641 35.4402L-41.6314 39.9369C-41.5205 41.4358 -41.4001 42.9328 -41.2701 44.4279C-41.1439 45.9249 -41.0235 47.4219 -40.8744 48.9189C-40.2205 55.7385 -39.2512 62.5294 -38.2991 69.3146C-37.3699 75.9392 -36.5784 82.6039 -35.1904 89.1425C-34.3759 93.0465 -33.638 96.9468 -32.9764 100.843C-32.6266 102.868 -32.2366 104.858 -31.8293 106.894L-30.5503 112.911L-29.8621 116.065V116.163C-29.8621 116.163 -29.799 116.163 -29.7703 116.192H-29.6727H-29.5982L-29.5007 116.22C-28.8813 116.398 -28.2503 116.564 -27.6194 116.708L-27.5792 116.805Z" fill="#FBBF0E"/>
<path d="M88.2913 63.2635C88.016 60.998 87.7751 58.721 87.4597 56.4611C86.5248 49.7792 85.871 43.0743 85.0508 36.3866C84.1732 29.3089 83.0605 22.2656 81.8962 15.2624L81.3226 11.7408L81.1563 10.5936C81.1563 10.5936 81.1563 10.5306 81.1563 10.5248L81.1218 10.5592L81.0416 10.6223L80.8752 10.76L80.4909 11.064L80.382 11.15L80.3361 11.1959L80.1583 11.368L79.4299 12.0677L77.9501 13.4385C77.1701 14.1612 76.4932 15.0273 75.7648 15.8302C75.4666 16.1514 75.0995 16.6103 74.8242 16.4038C74.004 15.8302 72.9257 15.4976 72.5299 14.4422C72.3636 13.9891 72.5988 13.5073 73.1035 13.0026L76.2237 9.86521L77.9444 8.11587L80.8752 5.11042L82.3149 3.63063L83.0318 2.89648C83.2498 2.72441 83.6054 2.14512 83.5709 2.74162L84.3452 6.75653L85.1024 10.6739L85.1884 11.1385L85.2343 11.4138L85.3203 11.9874L85.4981 13.0886C85.9397 15.7786 86.0717 18.5145 86.6051 21.1643C87.4884 25.9765 88.0734 30.8288 88.7101 35.6581C89.7482 43.3438 91.0043 50.9836 91.7384 58.6865C92.2431 63.8486 92.725 69.0106 93.4132 74.121C93.6599 75.9564 93.9294 77.786 94.2105 79.61L95.0306 85.0932C95.2333 86.5156 95.4512 87.9323 95.6845 89.3432L96.0286 91.4654C96.1376 92.1594 96.2868 92.9165 96.3556 93.7597C96.4507 94.689 96.3867 95.6278 96.1663 96.5357C95.9067 97.4717 95.4642 98.3469 94.8643 99.1109C94.3367 99.8107 93.8205 100.35 93.3501 100.883L91.9105 102.495C90.1439 104.46 88.3602 106.414 86.5592 108.357L83.8348 111.225C82.9171 112.188 82.0166 113.134 81.0301 114.092C77.2446 117.832 73.1437 121.256 69.1173 124.738C68.624 125.151 67.93 125.311 67.5916 125.885L67.2991 126.229C65.435 127.278 63.8176 128.661 61.9994 129.762C58.2426 132.056 54.4973 134.35 50.3906 135.991C49.3983 136.398 48.3717 136.828 47.345 137.298C46.3184 137.769 45.2859 138.285 44.2707 138.824C42.6418 139.707 40.4681 140.292 38.9481 141.313C37.0783 142.569 36.8431 141.807 36.2008 141.342C35.9599 141.176 35.9656 140.918 36.0344 140.619C36.2122 139.857 36.9005 139.031 36.3556 138.36C36.0402 137.981 37.1242 137.574 37.6634 137.298C46.7887 132.71 56.0459 128.54 64.3625 122.914C67.1877 120.99 69.8836 118.882 72.4325 116.604C73.0634 116.031 73.7057 115.457 74.3194 114.884L76.1491 113.1C76.7571 112.526 77.2962 111.867 77.9157 111.253L78.7932 110.33L79.6822 109.366C81.9764 106.843 84.3624 104.37 86.714 101.881L90.2128 98.1302C90.7436 97.5867 91.2415 97.0121 91.704 96.4095C91.8532 96.1974 91.9765 95.9683 92.0711 95.727C92.1473 95.5126 92.1936 95.2887 92.2088 95.0616C92.2279 94.2505 92.1509 93.44 91.9793 92.6469C91.8264 91.6375 91.6677 90.6299 91.5033 89.6243C91.1936 87.6054 90.9641 85.5807 90.7519 83.5618C90.3217 79.3691 89.794 75.1993 89.3696 71.0238C89.1058 68.4141 88.8649 65.7814 88.343 63.2062L88.2913 63.2635Z" fill="#FBBF0E"/>
<path d="M52.5703 88.0412L52.2949 85.0013C52.1974 83.9345 52.0598 82.8619 51.9222 81.7951C51.0676 75.486 50.276 69.1768 49.3182 62.8677C48.2972 56.1628 47.024 49.4694 46.112 42.7128C45.4065 37.6311 44.6839 32.5207 44.4716 27.3874C44.4372 26.3664 44.225 25.334 44.0988 24.3073C44.0415 23.8944 43.9324 23.3438 44.2651 23.2635C45.2459 23.0398 46.1923 22.4605 47.2476 22.8276C47.7008 22.9881 47.9072 23.447 47.9646 24.1181C48.3833 29.6586 49.0085 35.1935 49.6853 40.7513C50.0065 43.2921 50.1212 45.8789 50.6029 48.3853C51.4748 52.9279 52.1171 57.5164 52.8972 62.0819C54.0844 69.3489 55.4954 76.6159 56.1034 84.0033L56.3672 87.72C56.5278 89.825 56.6253 91.9643 56.763 94.0291L56.8548 95.5892L56.9064 96.3692V96.7593V96.851C56.9064 96.851 56.9064 96.8969 56.9064 96.8912L56.8662 96.8568L56.7114 96.7363L54.2221 94.7748L49.4558 91.0409L48.4062 90.2379L48.1424 90.0372L48.0392 89.9626L47.8843 89.8479L47.6033 89.6586L47.5344 89.6127C47.5344 89.6127 47.4886 89.5783 47.4828 89.6127L47.4025 89.7791L46.9551 90.7484C46.5938 91.5112 46.2726 92.2913 45.9514 93.0713C44.7075 96.151 43.8651 99.3779 43.445 102.673H39.6824L38.7475 96.7306C37.9617 91.7636 37.2563 86.7851 36.7114 81.7665C36.2535 76.8252 35.4873 71.9175 34.4171 67.0719C34.2795 66.4983 34.4515 65.8387 34.1017 65.3512L33.9296 64.9669C33.8379 62.9709 33.2758 61.0667 32.9832 59.1109C32.4097 55.0443 31.5264 51.0466 31.2626 46.8941C31.1288 44.7733 30.8432 42.6649 30.408 40.5849C30.0409 38.8642 30.081 36.7421 29.5247 35.096C28.8364 33.0713 29.6337 33.0484 30.2531 32.5666C30.4825 32.383 30.7292 32.4576 30.993 32.5666C31.6755 32.9165 32.2778 33.7538 33.075 33.4154C33.5281 33.2204 33.6485 34.3217 33.7288 34.8838C35.6158 44.445 36.8376 54.1209 38.2084 63.7739C39.1375 70.3698 40.2502 76.9371 41.2081 83.5273C42.0971 89.693 42.7452 95.9047 43.7661 102.03H39.3727L39.4874 101.164C40.0344 97.1253 41.2558 93.2069 43.1008 89.5726C43.4507 88.8843 44.3799 87.1177 45.3148 85.5577L46.0087 84.3761L46.1808 84.0779L46.2669 83.9288L46.307 83.8599V83.8255H46.3414L46.915 84.25C47.6434 84.8235 48.3603 85.3455 49.0887 85.942L51.9967 88.2763L52.3982 88.6549L52.7079 88.9531C52.7079 88.9531 52.7653 89.0105 52.7882 89.0162V88.9359V88.7467C52.7822 88.4739 52.7114 88.2066 52.5817 87.9666L52.5703 88.0412Z" fill="#FBBF0E"/>
</svg>
