<svg width="194" height="243" viewBox="0 0 194 243" fill="none" xmlns="http://www.w3.org/2000/svg">
<path d="M106.899 180.973L106.942 180.958L106.899 180.973Z" fill="#66BB6A"/>
<path d="M73.5366 182.814L73.565 182.821H73.5862L73.5366 182.814Z" fill="#66BB6A"/>
<path d="M89.4039 27.9445C89.2198 27.6117 89.3189 27.286 90.0128 26.9603C91.3503 26.4565 92.7617 26.1767 94.1902 26.1319C97.1057 25.8909 100.037 25.9122 102.949 26.1956C104.365 26.2877 105.837 26.5355 107.268 26.7408C108.698 26.9462 110.1 27.2506 111.516 27.633C117.087 29.0224 122.472 31.0763 127.553 33.7504L128.155 34.069C134.704 37.6658 140.984 41.8574 146.167 47.2102C148.452 49.5584 150.605 52.0309 152.617 54.6163C154.607 57.2202 156.43 59.9468 158.076 62.7799C161.391 68.4826 163.781 74.6745 165.157 81.1252C168.281 95.4933 167.755 110.415 163.627 124.528C158.639 141.321 149.54 156.604 137.154 168.993C134.521 171.619 131.715 174.067 128.757 176.321C125.774 178.608 122.602 180.638 119.276 182.389C115.921 184.162 112.393 185.586 108.747 186.637C105.124 187.68 101.416 188.408 97.6667 188.811C92.5365 189.336 87.3722 189.444 82.2244 189.136C77.1265 188.867 72.1065 188.428 67.0087 187.72C63.2656 187.241 59.5556 186.531 55.8996 185.596C51.4956 184.378 47.2828 183.061 43.3036 180.222C42.4823 179.627 41.5122 179.04 40.5139 178.346L38.9421 177.319L37.3348 176.193L36.5064 175.62L35.6993 175.011L34.0778 173.772C33.0512 172.894 31.9891 172.058 31.0829 171.152C25.9071 166.238 21.7651 160.461 17.9063 154.683C15.9238 151.709 14.182 148.573 12.4898 145.436L7.44148 136.055V136.104C5.72095 132.316 4.29782 128.316 2.95255 124.422C1.42198 120.005 0.483872 115.405 0.162835 110.742L0 107.259L0.106223 103.782C0.106223 102.621 0.29741 101.474 0.389455 100.327L0.566464 98.6066C0.637268 98.0402 0.750564 97.4737 0.842609 96.9073C1.86572 90.5375 3.77218 84.3415 6.50691 78.4983C9.22036 72.6816 12.6476 67.2255 16.7097 62.256C20.7704 57.3039 25.3918 52.8394 30.481 48.952C35.5466 45.0657 40.9739 41.6751 46.688 38.827C55.433 34.4931 64.6326 31.1448 74.1174 28.8437H74.0749C81.5022 27.1302 86.0549 27.8808 90.3173 28.4826C92.6467 28.8296 93.3335 29.2898 92.6255 29.7783C91.9827 30.1358 91.2872 30.3891 90.5651 30.5288C90.0553 30.6563 89.4676 30.7837 88.8021 30.9041C88.1365 31.0245 87.386 31.1873 86.6001 31.3289C74.3476 33.4013 62.4164 37.0571 51.1062 42.2043C46.0043 44.5086 41.1062 47.2395 36.4639 50.368C31.8316 53.4892 27.5762 57.1362 23.7829 61.2364C19.8808 65.4436 16.4522 70.0665 13.5589 75.0219C13.465 75.0753 13.3867 75.1525 13.3321 75.2457C13.2774 75.3389 13.2481 75.4449 13.2473 75.5529C12.6951 76.3884 12.2561 77.2805 11.7605 78.1443L11.0525 79.4613C10.8188 79.9003 10.6276 80.3605 10.4152 80.8136C10.0116 81.727 9.58682 82.6333 9.20448 83.5537L8.17787 86.3859C7.80969 87.3205 7.58312 88.2905 7.29991 89.218C7.01669 90.1456 6.71927 91.1297 6.54226 92.1068L5.90501 95.0239L5.45894 97.9623C5.25361 99.0102 5.19704 100.086 5.09083 101.127C4.98463 102.168 4.85003 103.251 4.84295 104.292C4.83587 105.333 4.73681 106.416 4.73681 107.478C4.73681 108.54 4.78636 109.602 4.8076 110.679C4.8784 113.617 5.98998 117.603 6.97415 121.087C8.55161 126.504 10.6108 131.769 13.127 136.819C15.6223 141.93 18.3948 146.901 21.4323 151.709C22.1403 152.835 22.8484 153.911 23.5989 155.016C24.3495 156.12 25.0858 157.19 25.8859 158.223C27.571 160.999 29.8792 163.293 32.1095 165.566C32.7679 166.274 33.4618 166.939 34.1415 167.619C34.8213 168.299 35.5576 168.943 36.2656 169.58C37.1436 170.38 38.1137 171.088 39.0483 171.832C39.9829 172.575 40.9812 173.205 41.9725 173.786C42.9637 174.367 44.1391 175.046 45.2507 175.592C46.3623 176.137 47.4456 176.731 48.5643 177.248C50.8144 178.294 53.1162 179.225 55.4606 180.038C56.0271 180.183 56.6015 180.294 57.1811 180.371H57.1387C58.1582 180.583 59.1707 180.81 60.2044 180.98C60.2823 180.98 60.3602 180.98 60.438 180.98L60.5088 181.107C64.7571 182.19 69.154 182.523 73.558 182.792L75.4485 183.132H75.498H75.5972H75.7176C81.658 183.536 87.5418 183.444 93.4185 183.345C96.8594 183.18 100.284 182.763 103.664 182.098H103.628C104.204 182.159 104.784 182.022 105.271 181.709C105.731 181.56 106.191 181.412 106.645 181.235L106.963 180.93C109.186 180.314 111.36 179.514 113.413 178.969H113.371C113.776 178.63 114.265 178.407 114.787 178.325L114.73 178.367L114.83 178.303C117.252 177.121 119.589 175.773 121.825 174.267C122.533 173.729 123.177 173.22 123.843 172.759C124.528 172.285 125.262 171.884 126.031 171.563C127.27 171.053 128.155 169.311 129.776 168.391L130.151 168.058C133.056 165.511 135.777 162.762 138.294 159.831L140.17 157.629C140.482 157.253 140.807 156.921 141.105 156.517L141.976 155.356C143.123 153.805 144.355 152.311 145.381 150.669V150.626C146.141 149.682 146.885 148.71 147.612 147.709C148.32 146.696 148.95 145.656 149.608 144.608L150.585 143.036C150.911 142.512 151.18 141.953 151.47 141.407L153.177 138.101C155.286 133.609 157.035 128.957 158.409 124.188C159.259 121.618 159.762 118.963 160.385 116.336L161.036 112.35C161.135 111.684 161.27 111.018 161.333 110.353L161.517 108.342L161.702 106.331C161.779 105.664 161.822 104.993 161.829 104.32L161.921 100.292C161.94 99.6211 161.923 98.9498 161.871 98.2809L161.772 96.2701L161.68 94.2593C161.638 93.5937 161.525 92.9281 161.454 92.2626L161.057 89.0906C160.994 88.562 160.902 88.0372 160.781 87.5187L160.455 85.954C160.236 84.9132 160.045 83.8299 159.797 82.8315L158.905 79.7728C158.627 79.2743 158.476 78.715 158.466 78.1443V78.2152V78.1656C157.508 74.8934 156.195 71.7357 154.55 68.7487C152.228 64.5475 149.529 60.5661 146.486 56.8536C140.05 49.0411 131.961 42.7537 122.802 38.4447C119.95 37.1422 116.973 36.134 113.916 35.4355C111.282 34.862 110.518 34.3877 110.22 33.7504C110.031 33.3631 109.765 33.018 109.439 32.7358C109.113 32.4535 108.733 32.24 108.323 32.1078C106.51 31.4375 104.591 31.097 102.658 31.1023C101.901 31.1023 100.994 31.0174 100.088 31.0032C99.1818 30.9891 98.2685 30.897 97.5109 30.8474C95.9957 30.7129 95.047 30.3376 95.9674 29.5092C96.194 29.3039 95.9179 29.226 95.4647 29.2048C95.0116 29.1836 94.3814 29.2685 93.9141 29.2968C92.498 29.3676 91.4855 29.4455 90.82 29.4031C90.3934 29.4247 89.9712 29.308 89.6163 29.0703C89.2835 28.8154 89.6021 28.3056 89.4039 27.9445ZM61.4081 181.589C61.1178 181.461 60.8275 181.32 60.5443 181.178C60.6623 181.297 60.7902 181.406 60.9266 181.504C61.0859 181.532 61.2466 181.55 61.4081 181.56V181.589ZM93.0856 183.571L93.3689 183.415L92.8308 183.514L93.0856 183.571ZM107.792 180.994L106.779 181.256L107.763 181.1L107.792 180.994ZM123.234 173.567C122.816 173.814 122.384 174.027 121.967 174.275L123.085 173.814L123.234 173.567ZM158.919 79.5604V79.7516C158.94 79.6808 158.926 79.61 158.919 79.5604Z" fill="#66BB6A"/>
<path d="M103.034 236.32C102.326 236.497 101.787 236.206 101.617 234.536C101.143 230.047 101.228 225.586 100.817 221.083C100.817 220.991 100.817 220.906 100.817 220.814C100.676 217.875 100.024 214.994 99.8332 212.091C99.4792 206.957 98.665 201.888 98.4739 196.705C98.2614 190.956 97.4046 185.164 96.9869 179.379C96.4842 172.441 95.677 165.544 94.8628 158.641C94.1548 152.793 93.3122 146.965 92.675 141.11C92.2289 137.039 92.0378 132.939 91.7121 128.854C91.5917 127.367 91.3651 125.88 91.2376 124.393C91.0819 122.595 90.7704 120.938 91.1881 119.005C91.5351 117.391 90.912 115.047 90.7421 113.022C90.5084 110.19 90.4234 107.358 90.034 104.604C89.6446 101.849 89.7013 98.8118 88.9083 96.0434C88.7596 94.3795 88.7312 92.6732 88.448 91.0872C87.8037 87.4124 87.8816 83.7377 87.6479 80.0913C86.9824 69.8248 85.9911 59.6078 84.8158 49.3979C84.3556 45.4895 83.6758 41.6095 83.1023 37.7153C82.72 34.6707 83.8103 32.759 84.7733 30.9677C85.7999 28.9923 86.7912 29.7003 87.2727 32.3838C88.186 37.4958 89.1065 42.622 89.6234 47.819C90.0978 52.5416 90.3314 57.2784 90.8412 61.9797C91.1173 64.4012 91.2801 66.844 91.4996 69.2725C91.3863 69.3717 91.4147 69.4566 91.4996 69.5345C91.4501 72.9402 92.059 76.3104 92.3705 79.7019C92.536 81.5236 92.5951 83.3535 92.5475 85.1821C92.5475 86.4424 93.0219 88.1417 93.1847 89.6711C93.6568 94.3913 94.1288 99.1116 94.6008 103.832C94.707 104.929 94.7991 106.027 94.8982 107.124C94.7354 108.54 95.1602 109.822 95.3089 111.174C95.4009 111.988 95.4151 112.81 95.5 113.624C95.5783 114.635 95.7083 115.642 95.8895 116.64C96.3112 118.737 96.4894 120.875 96.4205 123.013C96.4557 123.257 96.5248 123.495 96.6258 123.721L96.8808 125.023C96.8919 125.058 96.9061 125.091 96.9232 125.123L96.8241 125.172C96.9278 127.013 97.1644 128.845 97.5321 130.652L97.4259 131.466V131.509V131.559C97.7091 134.008 98.2614 136.416 98.2543 138.901L98.5871 143.277C98.5021 143.531 98.403 143.786 98.672 143.985C98.7358 144.183 98.7995 144.388 98.8561 144.594L99.0828 144.735C99.2421 145.703 99.2421 146.691 99.0828 147.659C99.2031 147.865 99.3589 148.07 99.1606 148.325V148.374C99.3235 149.521 99.4934 150.661 99.6562 151.801C99.8016 152.137 99.8766 152.498 99.8766 152.863C99.8766 153.229 99.8016 153.59 99.6562 153.925C99.3801 154.499 100.251 155.172 99.9749 155.979C99.9606 156.046 99.9606 156.116 99.9749 156.184L101.023 165.891C100.69 170.04 101.497 174.175 101.929 178.303C102.403 182.82 102.963 187.324 103.501 191.827C103.72 193.625 103.968 195.416 104.209 197.208C104.282 197.309 104.327 197.428 104.34 197.552C104.352 197.677 104.331 197.802 104.28 197.916V197.88C104.372 199.332 104.549 200.776 104.811 202.207C105.278 204.253 105.441 206.285 105.71 208.303C106.283 212.551 106.708 216.891 107.246 221.175C107.432 222.522 107.694 223.858 108.032 225.175C108.323 226.329 108.032 226.74 107.494 226.974C106.461 227.441 105.887 228.156 106.326 230.457C106.567 231.703 106.8 233.997 105.122 233.374C104.712 233.226 104.832 233.856 104.846 234.238C104.981 236.759 103.784 236.143 103.034 236.32ZM96.5408 125.717C96.5975 125.583 96.6612 125.448 96.7249 125.307C96.645 125.37 96.5715 125.441 96.5055 125.519C96.5055 125.519 96.5267 125.654 96.5408 125.717ZM98.0348 138.915L98.1835 139.028L98.0915 138.809C98.0699 138.843 98.0509 138.878 98.0348 138.915ZM98.8208 145.238V144.785C98.8208 144.933 98.7782 145.075 98.7499 145.224L98.8208 145.238ZM99.5288 152.573L99.5925 151.95L99.4226 152.481L99.5288 152.573ZM104.152 197.449V197.364C104.143 197.375 104.137 197.389 104.135 197.404C104.132 197.419 104.133 197.434 104.138 197.449H104.152Z" fill="#66BB6A"/>
<path d="M113.229 177.036L113.251 177.015L113.229 177.036Z" fill="#66BB6A"/>
<path d="M91.3652 181.072L91.3868 181.079L91.4011 181.086L91.3652 181.072Z" fill="#66BB6A"/>
<path d="M89.4036 24.2698C89.4036 23.8946 89.609 23.6326 90.225 23.5972C91.3563 23.6302 92.4692 23.8928 93.4961 24.3689L94.3033 24.6804L95.0963 25.0415C95.6202 25.2823 96.1441 25.5159 96.661 25.7496C97.6735 26.2948 98.693 26.8187 99.6489 27.4418C101.575 28.6315 103.407 29.9665 105.129 31.4351C106.831 32.8865 108.446 34.4374 109.965 36.0799C111.466 37.7154 112.889 39.4289 114.213 41.1919C114.327 41.3335 114.433 41.468 114.539 41.6167C117.992 46.2317 120.869 51.251 123.106 56.5634C126.761 65.7934 129.228 75.4505 130.449 85.3026C131.808 96.1356 132.997 107.252 132.891 118.248C132.849 124.856 132.554 131.464 132.006 138.073C131.751 141.365 131.397 144.65 131.008 147.929C130.606 151.262 130.023 154.571 129.259 157.841C128.015 163.551 125.917 169.041 123.035 174.126C122.277 175.423 121.437 176.672 120.522 177.864C119.597 179.084 118.579 180.23 117.477 181.291C115.234 183.493 112.61 185.268 109.731 186.531C108.728 186.972 107.694 187.341 106.637 187.635C106.108 187.789 105.572 187.914 105.03 188.011C104.492 188.117 103.954 188.23 103.409 188.322C101.239 188.595 99.0433 188.595 96.8734 188.322C94.7459 188.059 92.6523 187.57 90.6285 186.864C88.6561 186.158 86.7451 185.291 84.9147 184.272C82.2795 182.84 79.7876 181.159 77.4732 179.252C74.7472 176.937 72.2479 174.636 70.3928 171.379C69.4826 169.793 68.4405 168.287 67.2774 166.876C66.1233 165.212 64.9197 163.442 63.8647 161.792C61.2232 157.067 58.9393 152.152 57.0322 147.086C55.9347 144.551 55.262 141.854 54.4124 139.227C54.023 137.903 53.7044 136.572 53.3008 135.255C52.8972 133.938 52.5007 132.642 52.1042 131.346C51.7973 129.779 51.4906 128.21 51.1838 126.638C50.943 125.059 50.6739 123.494 50.3553 121.965C48.9817 115.019 48.741 108.059 48.4153 101.177C48.21 96.3268 48.0542 91.4838 47.9763 86.6479L47.863 79.3976C47.863 76.9903 47.7852 74.5758 47.7993 72.1331C47.7993 67.2547 48.1463 62.2206 49.7606 57.3352C51.4331 52.5209 54.1621 48.142 57.7473 44.5197C63.1709 39.0111 69.7414 34.9399 76.5174 31.7113C81.8701 29.2473 85.4952 29.3606 88.8797 29.311C92.5969 29.311 91.4357 30.6421 86.7556 32.5893C82.3563 34.4104 78.0613 36.4739 73.8905 38.7704C69.8321 40.9969 66.0328 43.6659 62.5619 46.7287C59.5267 49.4018 57.0424 52.6415 55.2479 56.266C54.8797 57.1865 54.4691 58.0998 54.1221 59.0344C53.7976 59.9882 53.5281 60.9598 53.315 61.9445C52.8895 63.9803 52.6313 66.0476 52.5431 68.1256C52.3449 72.4588 52.4653 77.0681 52.5007 81.6421C52.4462 81.7118 52.4165 81.7978 52.4165 81.8863C52.4165 81.9749 52.4462 82.0609 52.5007 82.1306C52.2671 88.5029 52.7556 94.8753 53.1309 101.163C53.3716 104.547 53.4707 107.917 53.6335 111.323C53.676 113.652 54.4832 116.817 54.8584 119.635C56.0815 128.289 58.1981 136.794 61.1742 145.011C61.8822 146.895 62.5902 148.814 63.4328 150.626C63.8151 151.803 64.2886 152.949 64.8488 154.053C65.479 155.129 66.1375 156.177 66.7322 157.26L67.7943 159.236L68.9767 161.126L70.492 163.47C70.6194 163.661 70.7397 163.859 70.8742 164.043L71.3061 164.582C71.5964 164.943 71.8868 165.29 72.1771 165.629C73.4728 167.109 74.634 168.674 75.8943 170.09C77.1546 171.506 78.4078 172.922 79.7672 174.26C80.108 174.545 80.4702 174.803 80.8505 175.032C81.4878 175.499 82.1321 175.938 82.7693 176.392C82.8184 176.427 82.8735 176.454 82.9321 176.469C82.9286 176.512 82.9286 176.555 82.9321 176.597C85.4736 178.597 88.3505 180.129 91.4286 181.121C91.8322 181.334 92.2357 181.567 92.6464 181.759H92.6889H92.6323H92.6889H92.7597L92.8376 181.801C94.8318 182.4 96.9012 182.712 98.9834 182.729C101 182.722 103.011 182.499 104.98 182.063C107.338 181.425 109.558 180.36 111.53 178.919C111.912 178.749 112.337 178.615 112.479 178.155C112.712 177.893 112.953 177.645 113.187 177.376L113.25 177.029C114.475 175.889 115.544 174.572 116.727 173.489C116.769 173.293 116.85 173.108 116.964 172.944C117.078 172.78 117.224 172.64 117.392 172.533V172.582V172.497C118.474 170.784 119.421 168.99 120.224 167.13C120.544 165.893 121.104 164.731 121.874 163.711C122.54 162.904 122.221 161.353 122.979 160.135C123.021 160.014 123.056 159.891 123.085 159.767C123.911 156.931 124.573 154.049 125.067 151.136C125.577 148.233 125.903 145.231 126.229 142.229C127.793 134.752 127.808 126.9 127.793 119.203C127.74 110.777 127.154 102.363 126.037 94.0115C125.613 90.6837 125.053 87.3772 124.444 84.099C124.247 83.6925 124.173 83.2371 124.232 82.7891V82.8457V82.8032C123.83 80.1459 123.272 77.5145 122.561 74.9228C121.456 71.2481 120.501 67.6583 119.254 64.1677C116.592 56.8183 113.123 49.7592 108.188 43.9178C106.641 42.0911 104.909 40.4301 103.019 38.9616C101.398 37.7154 101.079 37.0924 101.178 36.441C101.237 36.0886 101.217 35.7277 101.12 35.3839C101.023 35.0401 100.852 34.7217 100.619 34.4514C99.6596 33.3277 98.469 32.4244 97.1283 31.8033C96.6185 31.5272 96.0167 31.1944 95.4007 30.8758C94.7847 30.5572 94.197 30.1677 93.7014 29.8704C92.7313 29.2261 92.2358 28.5676 93.227 28.1357C93.4748 28.0295 93.312 27.8596 93.0146 27.6826C92.7172 27.5055 92.2429 27.3568 91.903 27.2152C91.1608 26.9195 90.4373 26.579 89.7364 26.1957C89.2974 25.9124 89.0991 25.6717 89.0283 25.4876C88.9434 25.0203 89.3611 24.6663 89.4036 24.2698ZM83.3782 177.163L82.9392 176.583C82.9757 176.713 83.0206 176.841 83.0738 176.965C83.1596 177.036 83.2493 177.103 83.3428 177.163H83.3782ZM104.86 182.24L105.016 182.049L104.676 182.219L104.86 182.24ZM113.873 176.781L113.314 177.284L113.909 176.866L113.873 176.781ZM120.954 166.111C120.77 166.43 120.593 166.755 120.394 167.06C120.593 166.819 120.777 166.578 120.968 166.352L120.954 166.111ZM124.579 83.8582V84.014V83.8582Z" fill="#66BB6A"/>
<path d="M163.04 102.437C163.188 103.145 162.976 103.69 161.701 103.853C158.282 104.207 154.869 103.995 151.456 104.285H151.251C149.006 104.356 146.818 104.929 144.602 105.05C140.687 105.269 136.814 105.963 132.877 106.034C128.487 106.126 124.076 106.848 119.665 107.153C114.369 107.514 109.123 108.208 103.869 108.923C99.4224 109.546 94.9901 110.282 90.5365 110.841C87.4424 111.231 84.3129 111.358 81.1975 111.642C80.0647 111.748 78.9389 111.953 77.806 112.066C76.4395 112.201 75.1863 112.491 73.6924 112.066C72.4391 111.705 70.669 112.3 69.1255 112.449C67.0014 112.654 64.8277 112.711 62.7178 113.058C60.6078 113.405 58.2996 113.348 56.218 114.12C54.9459 114.189 53.6788 114.331 52.4229 114.545C49.6474 115.168 46.8223 115.061 44.0468 115.253C36.2584 115.869 28.4699 116.839 20.6815 118.042C17.7149 118.502 14.7907 119.182 11.8452 119.77C9.53705 120.159 8.02898 119.062 6.58458 118.12C5.00566 117.101 5.49417 116.116 7.52624 115.628C11.3806 114.632 15.285 113.84 19.223 113.256C22.8128 112.782 26.4308 112.548 30.0206 112.045C31.8686 111.776 33.7307 111.613 35.5787 111.408C35.6636 111.521 35.7274 111.493 35.7769 111.408C38.3967 111.465 40.9456 110.87 43.5299 110.572C44.9189 110.416 46.3179 110.367 47.7144 110.424C48.6844 110.424 49.966 109.964 51.1271 109.815L61.9106 108.484L64.4241 108.208C65.4932 108.385 66.4845 107.974 67.5111 107.839C68.1342 107.754 68.7644 107.747 69.3804 107.669C70.1523 107.601 70.9187 107.48 71.6744 107.308C73.2648 106.905 74.9079 106.75 76.5457 106.848C76.7377 106.815 76.9223 106.748 77.0909 106.65L78.0751 106.409C78.101 106.399 78.125 106.385 78.1459 106.367L78.1955 106.466C79.6021 106.381 80.9981 106.168 82.3658 105.829L82.9888 105.942H83.0243C84.8935 105.687 86.7202 105.163 88.6249 105.234L91.9668 104.958C92.165 105.05 92.3633 105.156 92.512 104.887L92.9722 104.71L93.0784 104.49C93.8154 104.339 94.5768 104.351 95.3087 104.526C95.4645 104.405 95.6132 104.257 95.8114 104.455H95.8539L98.4595 104.016C98.7074 103.87 98.9897 103.794 99.2772 103.794C99.5648 103.794 99.8471 103.87 100.095 104.016C100.548 104.299 101.03 103.443 101.66 103.726C101.712 103.733 101.764 103.733 101.816 103.726L109.222 102.841C112.415 103.237 115.552 102.515 118.709 102.133C122.15 101.75 125.584 101.283 129.018 100.844C130.385 100.674 131.751 100.462 133.118 100.27C133.188 100.198 133.281 100.153 133.381 100.144C133.481 100.135 133.581 100.162 133.663 100.221C134.775 100.168 135.881 100.026 136.97 99.7961C138.502 99.4558 140.053 99.2029 141.614 99.0385C144.878 98.5712 148.171 98.2668 151.435 97.8348C152.469 97.678 153.489 97.4413 154.486 97.1268C155.364 96.8719 155.683 97.1764 155.903 97.7145C156.278 98.7624 156.837 99.3571 158.593 98.9819C159.542 98.7765 161.298 98.6066 160.852 100.263C160.738 100.667 161.22 100.568 161.51 100.554C163.372 100.547 162.919 101.694 163.04 102.437ZM78.5848 106.685L78.2592 106.501C78.3158 106.572 78.3654 106.65 78.4291 106.721C78.4928 106.792 78.5566 106.721 78.6132 106.707L78.5848 106.685ZM88.6956 105.383L88.7735 105.234L88.6107 105.326L88.6956 105.383ZM93.5103 104.675H93.1704L93.5032 104.752L93.5103 104.675ZM99.1038 104.094L98.6294 104.023L99.033 104.2L99.1038 104.094ZM133.337 100.341L133.274 100.306L133.337 100.341Z" fill="#66BB6A"/>
<path d="M142.386 60.3867C142.542 61.0948 142.386 61.6329 141.31 61.8028C138.428 62.2135 135.525 62.0506 132.643 62.3975H132.474C130.576 62.5108 128.749 63.1056 126.873 63.2826C123.559 63.58 120.331 64.3517 116.961 64.5075C113.243 64.6986 109.54 65.5129 105.823 65.9236C101.348 66.4121 96.9372 67.2547 92.5332 68.1256C88.8019 68.8832 85.0918 69.7399 81.3604 70.4621C78.7619 70.9506 76.1138 71.1701 73.4941 71.5808C72.5383 71.7224 71.6036 71.9702 70.662 72.1189C69.5079 72.303 68.467 72.6358 67.1642 72.2676C66.0738 71.956 64.6224 72.6216 63.3267 72.8269C61.5283 73.1101 59.6945 73.2518 57.9315 73.6907C56.1684 74.1297 54.2072 74.158 52.5079 75.0077C51.4354 75.127 50.373 75.3234 49.3288 75.5954C47.0277 76.3388 44.6203 76.353 42.2484 76.6999C35.6708 77.6841 29.1639 79.0152 22.7137 80.6153C20.2426 81.2242 17.8282 82.0314 15.3925 82.8032C13.4737 83.32 12.079 82.3075 10.7408 81.4579C9.32469 80.5374 9.59374 79.532 11.2718 78.9373C14.4379 77.7346 17.6779 76.7366 20.9719 75.9494C23.9739 75.2909 27.0327 74.8944 30.0419 74.1935C31.5783 73.8394 33.1501 73.5775 34.7078 73.2872C34.7857 73.3934 34.8423 73.358 34.8706 73.2447C37.108 73.1739 39.218 72.4658 41.3846 72.0481C42.5521 71.8286 43.7369 71.7149 44.9248 71.7082C45.7461 71.7082 46.794 71.156 47.757 70.9506C50.7661 70.3276 53.7894 69.754 56.8127 69.1664L58.9368 68.7911C59.8573 68.9257 60.6715 68.4796 61.5283 68.3026C62.0522 68.1964 62.5832 68.161 63.1072 68.0618C63.7586 67.9661 64.4005 67.8145 65.0259 67.6087C66.3445 67.1478 67.7363 66.9319 69.1326 66.9715C69.2813 66.9715 69.437 66.8299 69.5857 66.752L70.4071 66.4758C70.4071 66.4758 70.407 66.4758 70.4637 66.4334L70.5062 66.5325C71.6976 66.3971 72.8705 66.1311 74.0039 65.7395L74.5491 65.8315C76.1138 65.5129 77.6291 64.9323 79.2575 64.9111L82.0897 64.5287C82.2667 64.6066 82.4436 64.7128 82.5499 64.4438L82.9251 64.2526L82.9959 64.0331C83.6168 63.8566 84.2725 63.842 84.9006 63.9906C85.028 63.8703 85.1413 63.7145 85.3254 63.9127L87.5132 63.3888C87.714 63.2319 87.9596 63.1431 88.2143 63.1355C88.469 63.1278 88.7195 63.2017 88.9293 63.3463C89.3328 63.6225 89.6799 62.7516 90.2392 63.0135C90.2859 63.0235 90.3341 63.0235 90.3808 63.0135L96.6185 61.9161C99.3587 62.2135 101.986 61.4063 104.641 60.9815C107.544 60.5 110.44 59.9548 113.335 59.4379C114.489 59.2326 115.637 58.9919 116.791 58.7299C116.816 58.6944 116.848 58.6644 116.885 58.6418C116.922 58.6191 116.964 58.6044 117.007 58.5985C117.05 58.5925 117.094 58.5954 117.136 58.607C117.178 58.6187 117.217 58.6388 117.251 58.6662C118.194 58.5844 119.127 58.4185 120.04 58.1706C121.322 57.7972 122.628 57.5133 123.949 57.3209C126.703 56.7828 129.486 56.4217 132.247 55.9048C133.12 55.7402 133.977 55.5034 134.81 55.1968C135.518 54.9278 135.83 55.1968 136.021 55.7632C136.389 56.797 136.899 57.3776 138.364 56.974C139.172 56.7545 140.651 56.5633 140.354 58.2201C140.276 58.6308 140.68 58.5175 140.928 58.5033C142.549 58.4963 142.216 59.6433 142.386 60.3867ZM70.8743 66.8086L70.5841 66.6316C70.6321 66.707 70.6866 66.7781 70.7469 66.844C70.7469 66.844 70.8389 66.8228 70.8814 66.8086H70.8743ZM79.3212 65.1306L79.3779 64.9819L79.2434 65.0739L79.3212 65.1306ZM83.3641 64.2668H83.0739L83.3641 64.3305V64.2668ZM88.0797 63.5092L87.669 63.4596L88.0301 63.6224L88.0797 63.5092ZM116.961 58.8503L116.904 58.8149L116.961 58.8503Z" fill="#66BB6A"/>
<path d="M152.702 141.62C152.872 142.328 152.702 142.859 151.669 143.036C148.836 143.482 145.948 143.383 143.101 143.744H142.931C141.055 143.864 139.25 144.452 137.402 144.657C134.123 144.948 130.923 145.705 127.602 145.833C123.921 145.96 120.253 146.746 116.564 147.058C112.132 147.454 107.749 148.127 103.366 148.828C99.6491 149.408 95.9531 150.131 92.2218 150.619C89.6233 150.959 87.0036 151.051 84.3909 151.263C83.4422 151.341 82.5005 151.533 81.5588 151.618C80.4118 151.724 79.3639 151.993 78.1036 151.518C77.0486 151.129 75.5688 151.681 74.2731 151.787C72.4817 151.936 70.6692 151.943 68.8991 152.212C67.129 152.481 65.196 152.361 63.4471 153.062C62.3802 153.094 61.3162 153.191 60.261 153.352C57.9315 153.862 55.5667 153.664 53.2373 153.763C46.6667 154.039 40.1386 154.641 33.6246 155.398C31.1252 155.689 28.6683 156.199 26.169 156.595C24.2219 156.843 22.9899 155.646 21.8075 154.627C20.6251 153.607 20.9508 152.552 22.6713 152.198C25.9098 151.455 29.1888 150.902 32.4918 150.541C35.5009 150.279 38.5313 150.265 41.5405 149.911C43.084 149.734 44.6417 149.67 46.1923 149.55C46.2631 149.663 46.3126 149.635 46.3622 149.55C48.5429 149.72 50.6812 149.246 52.8478 149.061C54.0137 148.955 55.1867 148.955 56.3526 149.061C57.1527 149.132 58.2289 148.686 59.1847 148.58L68.1981 147.624L70.3222 147.433C71.2144 147.645 72.0427 147.256 72.8994 147.15C73.4163 147.086 73.9403 147.093 74.4642 147.029C75.1087 146.984 75.7482 146.885 76.3759 146.732C77.7017 146.376 79.0806 146.261 80.4471 146.392C80.5887 146.392 80.7445 146.265 80.9003 146.201L81.7287 145.989C81.7287 145.989 81.7287 145.989 81.7853 145.946L81.8278 146.052C83.004 145.998 84.1702 145.81 85.3042 145.493L85.8282 145.62C87.3788 145.401 88.894 144.912 90.4871 144.976L93.2768 144.75C93.4467 144.834 93.6166 144.948 93.737 144.686L94.1123 144.516L94.1972 144.303C94.8147 144.164 95.4573 144.181 96.0665 144.353C96.1939 144.24 96.3143 144.091 96.4913 144.296L98.6578 143.879C98.8574 143.734 99.0979 143.655 99.3447 143.655C99.5914 143.655 99.8318 143.734 100.031 143.879C100.414 144.169 100.796 143.319 101.327 143.61C101.371 143.62 101.417 143.62 101.462 143.61L107.629 142.753C110.312 143.164 112.918 142.427 115.537 142.045C118.37 141.655 121.251 141.16 124.105 140.685C125.238 140.494 126.37 140.275 127.503 140.069C127.638 139.935 127.779 139.871 127.956 140.006C128.883 139.932 129.8 139.771 130.697 139.524C131.958 139.163 133.242 138.889 134.541 138.703C137.239 138.179 139.965 137.79 142.677 137.287C143.532 137.115 144.369 136.862 145.176 136.529C145.884 136.253 146.181 136.529 146.372 137.081C146.762 138.108 147.265 138.682 148.709 138.264C149.488 138.03 150.946 137.811 150.684 139.475C150.621 139.885 151.017 139.765 151.265 139.751C152.816 139.73 152.518 140.877 152.702 141.62ZM82.1039 146.321L81.8278 146.13C81.8716 146.207 81.9213 146.281 81.9765 146.35C81.9765 146.35 82.0543 146.336 82.1039 146.321ZM90.4871 145.181L90.5437 145.033L90.4093 145.118L90.4871 145.181ZM94.4946 144.544H94.2043L94.4876 144.622L94.4946 144.544ZM99.1606 144.013L98.757 143.942L99.1039 144.126L99.1606 144.013ZM127.638 140.19H127.581C127.59 140.196 127.599 140.199 127.609 140.199C127.62 140.199 127.63 140.196 127.638 140.19Z" fill="#66BB6A"/>
<path d="M185.215 120.018L185.222 119.997V119.975L185.215 120.018Z" fill="#66BB6A"/>
<path d="M78.7834 30.6847C78.1674 31.0812 77.4099 30.5148 76.5885 26.9533C75.5476 22.2008 75.0018 17.3532 74.96 12.4881C74.8901 11.0473 75.0019 9.6033 75.2928 8.19035C75.4991 7.27539 75.8531 6.40014 76.3407 5.59896C76.8658 4.75248 77.5484 4.01458 78.3515 3.42528C79.6945 2.4907 81.2273 1.86448 82.8405 1.59144C83.5485 1.45691 84.1858 1.36487 84.8088 1.28699L86.5931 1.10289L87.1524 1.0392C93.3336 0.486926 99.5431 -0.171573 105.731 0.0408382C111.208 0.198222 116.672 0.67103 122.094 1.45691C127.555 2.26601 132.925 3.59853 138.131 5.43608C143.989 7.47813 149.642 10.0643 155.018 13.1608C163.713 18.1191 171.341 24.7485 177.463 32.6672C179.772 35.6246 181.835 38.7671 183.63 42.0629C187.192 48.6629 189.707 55.7761 191.085 63.1482C192.264 69.2858 193.01 75.4989 193.316 81.7413C193.693 87.9442 193.724 94.1634 193.408 100.37C192.917 109.028 191.678 117.627 189.705 126.071C189.386 127.615 188.997 129.144 188.621 130.688C188.246 132.231 187.85 133.761 187.403 135.276C187.12 136.196 186.894 137.103 186.603 137.995C186.313 138.887 186.023 139.765 185.711 140.643C185.089 142.463 184.299 144.222 183.353 145.897C183.148 146.265 182.95 146.661 182.752 147.086C182.553 147.511 182.327 147.936 182.121 148.396C181.697 149.316 181.286 150.308 180.868 151.334C180.451 152.361 179.969 153.395 179.523 154.435C179.077 155.476 178.631 156.503 178.107 157.445C175.347 162.722 172.216 167.797 168.74 172.632C165.249 177.631 160.951 182.106 157.085 186.694H157.128C155.825 187.897 154.529 189.136 153.184 190.298C151.839 191.459 150.501 192.613 149.169 193.739C143.179 198.893 136.283 202.695 129.21 205.818C128.587 206.094 127.971 206.391 127.348 206.653L125.436 207.361L123.524 208.069C123.206 208.19 122.894 208.317 122.568 208.43L121.598 208.742L117.704 209.981L113.746 210.993C111.105 211.638 108.432 212.146 105.738 212.516C103.048 212.912 100.35 213.16 97.6526 213.351C86.8409 214.059 76.0646 213.245 65.4228 212.006C57.2662 211.043 49.0388 209.882 41.0097 207.39C36.471 205.963 32.4555 203.226 29.4686 199.523C28.1517 197.973 28.0171 197.258 28.7606 197.25C29.504 197.243 31.1255 197.959 33.5682 199.155C38.2762 201.335 43.2071 202.997 48.2741 204.111C53.3649 205.301 58.5902 206.094 63.851 206.823C73.4873 208.112 83.152 209.252 92.7813 208.947C97.702 208.828 102.609 208.369 107.466 207.574C107.551 207.613 107.647 207.625 107.739 207.609C107.831 207.592 107.916 207.548 107.983 207.482C114.745 206.597 121.266 204.239 127.461 201.364L129.96 200.224L132.417 198.985C133.232 198.56 134.074 198.192 134.881 197.746L137.317 196.422C137.923 196.096 138.511 195.74 139.08 195.353C139.675 194.928 140.298 194.461 140.935 193.979L142.854 192.521C143.477 191.997 144.1 191.487 144.716 191.013C146.642 189.597 148.419 187.968 150.246 186.41C151.131 185.596 151.987 184.761 152.865 183.932C153.297 183.522 153.736 183.111 154.161 182.686L155.407 181.383C158.748 177.926 161.84 174.238 164.661 170.345L166.615 167.612C167.246 166.692 167.847 165.743 168.456 164.78C168.891 164.242 169.298 163.682 169.674 163.102C170.035 162.514 170.382 161.912 170.701 161.311C171.352 160.093 172.004 158.889 172.613 157.643C173.321 156.156 174.241 154.733 174.907 153.203L176.224 150.371C176.648 149.423 177.002 148.453 177.342 147.539C178.836 143.39 180.33 139.376 181.838 135.304C181.972 134.814 182.069 134.315 182.129 133.81V133.917L182.752 131.29C182.755 131.221 182.755 131.153 182.752 131.084L182.872 131.035C183.396 129.215 183.87 127.388 184.224 125.548L184.713 122.779L184.954 121.363L185.159 119.947L185.619 118.382V118.333C185.619 118.333 185.619 118.283 185.619 118.248C185.616 118.217 185.616 118.186 185.619 118.156C186.419 113.199 186.738 108.179 187.34 103.159C187.495 101.673 187.573 100.179 187.665 98.6846L187.8 96.4472L187.871 94.2027C188.048 93.7254 188.048 93.2003 187.871 92.7229C187.871 92.2981 187.807 91.8804 187.779 91.4485L187.573 91.1086C187.501 89.1237 187.569 87.1362 187.779 85.1611V85.2036C187.592 84.7534 187.572 84.2512 187.722 83.7875V83.8512V83.745C187.609 81.3849 187.436 79.0248 187.205 76.6647C186.858 75.247 186.788 73.7756 187 72.3315C187.219 71.1845 186.242 69.7613 186.37 68.1611C186.356 68.0162 186.335 67.872 186.306 67.7292C185.826 64.4856 185.157 61.2727 184.302 58.107C183.472 54.9687 182.39 51.9024 181.066 48.9379C179.75 45.0162 177.84 41.3198 175.402 37.9775C172.945 34.5943 170.181 31.4444 167.147 28.5677C160.514 22.2532 152.798 17.1853 144.369 13.6069C141.016 12.1882 137.575 10.9867 134.067 10.01C133.566 10.0165 133.073 9.87618 132.651 9.60643C131.235 9.15329 129.663 8.81345 128.183 8.43819C126.703 8.06293 125.245 7.83636 124.048 7.73016C119.871 7.19913 115.793 6.67515 111.679 6.45565C102.932 5.98366 94.1605 6.34164 85.4814 7.5248C84.46 7.60897 83.4669 7.90306 82.5643 8.38863C82.3645 8.49824 82.2055 8.66965 82.1112 8.87717C82.0492 9.06761 82.0112 9.26498 81.998 9.46481C81.9743 10.0178 81.9008 10.5676 81.7784 11.1075C81.6945 11.484 81.4785 11.8181 81.1695 12.0492C80.1499 12.7997 79.4632 14.1733 80.235 18.903C80.5067 20.3524 80.7005 21.8155 80.8155 23.2857C80.8721 24.5956 80.6527 25.4098 79.6968 24.8009C79.2295 24.4823 79.5481 25.7851 79.6968 26.571C80.1925 28.9783 80.15 29.8705 79.8455 30.2245C79.541 30.5785 79.1233 30.4723 78.7834 30.6847ZM183.368 130.277L182.964 130.985C183.079 130.893 183.186 130.791 183.283 130.681C183.319 130.548 183.347 130.413 183.368 130.277ZM187.559 103.499L187.439 103.244V103.712L187.559 103.499ZM187.906 90.4855V91.3989L188.012 90.5351L187.906 90.4855ZM187.354 75.4185V76.6788L187.496 75.6309L187.354 75.4185ZM133.932 10.01L134.074 10.095C134.029 10.0627 133.982 10.0343 133.932 10.01Z" fill="#66BB6A"/>
<path d="M107.643 232.907L107.651 232.915L107.643 232.907Z" fill="#66BB6A"/>
<path d="M142.96 235.775C143.01 236.483 142.91 237.014 142.358 237.035C140.871 237.106 139.399 236.603 137.919 236.61H137.834C136.857 236.497 135.908 236.886 134.945 236.822C133.246 236.723 131.568 237.106 129.847 236.822C127.935 236.568 126.024 236.936 124.105 236.9C121.809 236.899 119.517 237.086 117.251 237.46C115.325 237.75 113.414 238.168 111.481 238.387C110.142 238.55 108.776 238.444 107.424 238.508C106.928 238.508 106.446 238.656 105.951 238.685C105.646 238.774 105.324 238.793 105.011 238.742C104.697 238.69 104.399 238.569 104.138 238.387C103.565 237.948 102.821 238.387 102.149 238.458C101.216 238.437 100.283 238.493 99.3591 238.628C98.4316 238.833 97.4261 238.628 96.5269 239.237C95.9739 239.221 95.4212 239.28 94.8842 239.414C93.7089 239.846 92.4486 239.555 91.2307 239.591C87.8276 239.718 84.4433 240.157 81.12 240.901C79.8486 241.224 78.5959 241.616 77.3674 242.076C76.3832 242.331 75.5832 241.156 74.8256 240.15C74.068 239.145 74.1175 238.104 74.9601 237.743C76.5545 236.994 78.2327 236.438 79.9588 236.086C81.5236 235.838 83.1308 235.845 84.6956 235.548C85.4957 235.399 86.317 235.35 87.1242 235.258C87.1737 235.371 87.195 235.35 87.2091 235.258C88.3845 235.484 89.4748 235.052 90.6077 234.925C91.2307 234.857 91.8608 234.897 92.4698 235.045C92.9017 235.144 93.4328 234.741 93.9426 234.663C95.5144 234.436 97.0862 234.259 98.658 234.061C99.0262 234.019 99.3661 233.99 99.7626 233.962C100.251 234.217 100.662 233.877 101.115 233.806C101.384 233.806 101.66 233.806 101.936 233.806C102.277 233.793 102.614 233.726 102.935 233.608C103.607 233.32 104.358 233.278 105.059 233.488C105.137 233.488 105.214 233.388 105.292 233.332L105.717 233.162C105.717 233.162 105.717 233.162 105.717 233.126V233.233C106.341 233.247 106.961 233.131 107.537 232.893L107.82 233.049C108.634 232.928 109.42 232.546 110.27 232.723H111.736C111.828 232.829 111.927 232.949 111.976 232.723L112.167 232.581L112.21 232.376C112.379 232.328 112.556 232.321 112.728 232.354C112.9 232.387 113.062 232.46 113.201 232.567C113.265 232.468 113.329 232.326 113.428 232.567L114.561 232.312C114.794 232.135 115.007 232.022 115.269 232.44C115.531 232.857 115.665 231.944 115.977 232.27C115.988 232.275 116 232.277 116.012 232.277C116.024 232.277 116.036 232.275 116.047 232.27L119.297 231.944C120.713 232.574 122.087 232.1 123.468 231.994C124.983 231.873 126.484 231.675 127.992 231.512C128.594 231.448 129.196 231.349 129.798 231.264C129.868 231.151 129.946 231.101 130.031 231.264C130.509 231.298 130.989 231.246 131.447 231.109C132.107 230.89 132.793 230.761 133.486 230.726C134.903 230.528 136.368 230.493 137.813 230.33C138.281 230.262 138.735 230.118 139.158 229.905C139.54 229.728 139.682 230.061 139.76 230.613C139.908 231.682 140.149 232.319 140.921 232.093C141.339 231.972 142.103 231.951 141.884 233.558C141.827 233.955 142.04 233.891 142.167 233.905C143.123 233.919 142.903 235.017 142.96 235.775ZM105.993 233.48L105.838 233.275L105.923 233.502C105.923 233.502 105.965 233.488 105.993 233.48ZM110.383 232.879V232.737L110.312 232.815L110.383 232.879ZM112.507 232.525H112.359L112.507 232.624V232.525ZM114.964 232.362L114.752 232.256L114.936 232.468L114.964 232.362ZM129.989 231.25V231.208V231.25Z" fill="#66BB6A"/>
</svg>
