<svg width="92" height="123" viewBox="0 0 92 123" fill="none" xmlns="http://www.w3.org/2000/svg">
<path d="M73.075 43.3918C72.5782 38.5628 72.0814 33.7337 71.5101 28.9246C70.6605 21.8201 69.8308 14.7256 68.7875 7.68573L68.5938 6.39898L68.5341 5.99159L68.5043 5.78789C68.5043 5.73324 68.5043 5.74815 68.4745 5.75808H68.4447L68.1714 5.93197L65.9805 7.45222C63.0493 9.49579 60.1247 11.5543 57.2067 13.6276L38.6705 26.8926C35.5737 29.0984 32.4621 31.2877 29.3354 33.4605L28.2772 34.1908L27.7406 34.5634L27.4724 34.7522L27.1842 34.6032L25.1373 33.5598L22.6085 32.283L17.5261 29.7691C12.4056 27.2652 7.24536 24.8391 2.04536 22.4908C-0.54801 21.3183 -3.14632 20.1508 -5.74963 19.0131C-7.05626 18.4567 -8.35791 17.8903 -9.66454 17.3488C-10.3154 17.0706 -10.9662 16.8072 -11.622 16.5439L-12.6156 16.1465C-12.9237 16.0322 -13.2317 15.913 -13.5497 15.8136C-15.5677 15.1641 -17.7093 14.994 -19.8045 15.3168C-20.6392 15.4211 -21.6825 15.7788 -21.8614 15.5354C-22.1842 15.1772 -22.5347 14.845 -22.9096 14.5418C-23.0076 14.4617 -23.0885 14.3628 -23.1475 14.2509C-23.2065 14.139 -23.2424 14.0164 -23.253 13.8903C-23.2637 13.7642 -23.2489 13.6373 -23.2095 13.5171C-23.1702 13.3969 -23.107 13.2858 -23.0239 13.1904C-22.6861 12.6936 -21.4937 12.1223 -19.7598 11.9484C-18.0028 11.7884 -16.2318 11.8872 -14.5035 12.2415C-13.6514 12.4145 -12.8116 12.6435 -11.9897 12.9271L-11.3836 13.1407L-10.8321 13.3593L-9.71918 13.7866C-6.73829 14.9492 -3.87169 16.1862 -0.990168 17.4581C4.77288 19.9918 10.4366 22.6647 16.0953 25.4071C18.6837 26.669 21.2473 27.9955 23.8009 29.327L25.7136 30.3206L26.6675 30.8174L26.8861 30.9317L26.9606 30.9714L27.1047 31.0559C27.2041 31.1553 27.2935 31.0559 27.3879 30.9963L27.9692 30.5988C28.5554 30.1914 29.1417 29.784 29.718 29.3667L54.9462 11.3423L64.9769 4.15834L68.3851 1.75873L70.5859 0.213627L70.8592 0.0248347L70.894 0C70.894 0 70.894 -1.21226e-06 70.894 0.0298077V0.104327V0.253365L70.9933 0.854522L71.1971 2.05185L71.987 6.71196L72.4838 9.77234C73.7159 17.93 74.64 26.1076 75.4647 34.2852C76.5428 45.2151 77.5165 56.1848 79.0716 67.0402C79.3697 68.9778 79.6429 70.9203 79.9857 72.843L80.4825 75.7444C80.6811 76.7856 80.8023 77.8401 80.8452 78.8992C80.893 80.0709 80.7246 81.2413 80.3484 82.352C79.9556 83.4228 79.4028 84.4278 78.7089 85.3329C78.063 86.2023 77.4023 86.9674 76.7216 87.7077C76.041 88.448 75.3802 89.1981 74.6946 89.9334C72.5434 92.184 70.2879 94.3253 67.9727 96.392C65.6576 98.4588 63.2629 100.396 60.8633 102.319C56.069 106.154 51.2549 109.881 46.7885 113.93C45.7949 114.869 44.7416 115.798 43.7679 116.776C43.271 117.273 42.7742 117.73 42.2774 118.232L40.32 120.274L39.6443 120.979L39.5599 121.064C39.5599 121.064 39.5301 121.104 39.5152 121.099H39.4605L39.2419 120.989L38.8047 120.771L37.0609 119.906L35.1631 118.967L31.3923 117.084C26.3612 114.57 21.34 112.027 16.3288 109.453C11.4203 106.929 6.48194 104.406 1.50883 101.941C-0.975248 100.709 -3.46929 99.4955 -5.97324 98.2998C-6.59425 97.9967 -7.21527 97.7185 -7.89093 97.3707C-8.62616 97.0035 -9.31498 96.5498 -9.94278 96.0194C-10.6484 95.4053 -11.2056 94.6393 -11.5723 93.7788C-11.8893 93.0074 -12.1096 92.1997 -12.2281 91.3742C-12.3424 90.6389 -12.3523 89.9881 -12.407 89.3174C-12.44 88.6656 -12.5433 88.0193 -12.715 87.3897V87.4344L-12.9137 86.5451V86.5899C-13.2466 82.1831 -14.0415 77.8708 -14.6774 73.5087C-15.9741 64.4419 -17.703 55.4942 -18.9053 46.2982C-19.4916 41.8268 -20.2318 37.0276 -21.0913 32.2383C-21.7868 28.393 -22.1545 23.6881 -22.9395 19.9272C-23.8834 15.287 -23.168 15.4013 -22.6911 14.4623C-22.5122 14.1145 -22.2836 14.3281 -22.0253 14.6908C-21.3596 15.6149 -20.6938 17.5922 -20.038 17.0159C-19.6654 16.688 -19.4171 19.1274 -19.2084 20.3893C-15.8897 41.8119 -11.7562 63.2296 -9.27209 84.9752L-8.67091 90.5296C-8.62004 91.2395 -8.45217 91.9362 -8.17409 92.5914C-8.05729 92.8283 -7.90298 93.0447 -7.71706 93.2323C-7.48887 93.462 -7.23554 93.6653 -6.96189 93.8384C-6.23772 94.2786 -5.48783 94.6751 -4.71628 95.0258L-2.2322 96.2628L2.77567 98.7221L22.7973 108.594L32.5498 113.477L37.4186 115.932L38.755 116.578L38.8246 116.622C38.8246 116.622 38.8544 116.622 38.8743 116.593L39.6493 115.798C44.8808 110.531 50.6835 105.966 56.3274 101.44C59.7057 98.7271 63.0393 96.0442 66.214 93.2372C69.37 90.4562 72.3563 87.4882 75.1567 84.3492C75.8164 83.6332 76.393 82.8449 76.8756 81.9993C77.2891 81.2484 77.5221 80.4115 77.5563 79.555C77.5911 78.5564 77.5178 77.5569 77.3377 76.5741L76.811 73.2802C76.1221 68.8453 75.5276 64.4104 75.0275 59.9755C74.3916 54.436 73.855 48.8419 73.075 43.3272V43.3918Z" fill="#7900DF"/>
<path d="M35.1533 84.7318C35.2775 85.8496 35.3719 86.9674 35.5309 88.0753C36.0277 91.3543 36.2264 94.6581 36.5245 97.952C36.8425 101.43 37.2896 104.932 37.5678 108.425C37.7765 111.058 38.0646 113.691 38.015 116.344C38.0491 116.874 38.1221 117.4 38.2335 117.919C38.2633 118.128 38.3379 118.416 38.0497 118.465C37.1952 118.624 36.3606 118.962 35.4613 118.813C35.3015 118.799 35.1531 118.725 35.0467 118.604C34.9404 118.484 34.8843 118.328 34.89 118.167C34.7012 115.276 34.5025 112.389 34.3335 109.503C34.2541 108.176 34.3683 106.825 34.1646 105.528C33.802 103.164 33.6678 100.774 33.4045 98.4041C32.9872 94.6283 32.2966 90.8923 32.0333 87.1016C31.8544 84.5678 31.6905 82.0291 31.3875 79.5053C31.1689 77.6969 30.8906 75.8984 30.6869 74.09C30.3839 71.283 30.0262 68.476 29.6933 65.674C29.3704 63.0955 29.112 60.512 28.9978 57.9087C28.9586 55.3426 28.6472 52.788 28.0687 50.2876C27.9892 49.9845 28.1879 49.6467 27.9197 49.3784L27.7954 49.1797C27.86 48.1463 27.5073 47.1577 27.398 46.1442C27.1645 44.0377 26.7174 41.9659 26.782 39.8048C26.8171 38.7075 26.7203 37.61 26.4938 36.5358C26.3 35.6514 26.4938 34.5485 26.1212 33.689C25.6741 32.6457 26.3646 32.6209 26.931 32.3625C27.0318 32.3207 27.1398 32.2992 27.249 32.2992C27.3581 32.2992 27.4661 32.3207 27.5669 32.3625C28.1283 32.5314 28.5606 32.9587 29.2958 32.7749C29.6983 32.6656 29.6983 33.2369 29.7579 33.53C30.7019 38.4982 31.0645 43.5061 31.5564 48.514C31.8942 51.9321 32.3811 55.3402 32.7338 58.7583C33.0816 62.0969 33.1909 65.4653 33.6877 68.779C33.9812 70.7549 34.1686 72.745 34.2491 74.7408C34.3286 76.7976 34.5423 78.8445 34.6863 80.8964C34.7326 82.1875 34.8989 83.4715 35.1831 84.7318H35.1533Z" fill="#7900DF"/>
<path d="M-16.1778 101.176C-14.3197 101.778 -12.4766 102.413 -10.6185 102.99C-5.12369 104.694 0.266724 106.671 5.68697 108.554C11.4302 110.541 17.223 112.409 22.9762 114.342C27.3034 115.803 31.6754 117.154 35.9579 118.694C36.8297 118.968 37.7152 119.195 38.6109 119.375C38.9686 119.464 39.4605 119.549 39.4257 119.842C39.3114 120.711 39.5201 121.665 38.8892 122.4C38.6159 122.713 38.1588 122.733 37.5676 122.559C32.7088 121.123 27.9244 119.549 23.16 117.899C20.974 117.144 18.8576 116.185 16.6617 115.534C12.6871 114.347 8.78714 112.916 4.85733 111.605C-1.38763 109.513 -7.70712 107.66 -13.8974 105.459L-17.0125 104.361L-18.5675 103.819L-19.7201 103.432L-20.3958 103.208C-20.5051 103.169 -20.6243 103.134 -20.7286 103.089L-20.8081 102.741L-22.4476 95.617L-23.5456 90.9967C-23.9083 89.4565 -24.261 87.9114 -24.574 86.3614C-25.5676 81.5373 -26.5613 76.7132 -27.4059 71.8693C-28.2157 67.4228 -28.8963 62.9266 -29.3335 58.4553C-29.7906 54.0436 -30.2079 49.5772 -31.0674 45.2052C-31.1667 44.6736 -30.9928 44.0973 -31.281 43.6154L-31.4151 43.2627C-31.4151 41.4692 -31.8275 39.7303 -31.9964 37.9617C-32.1653 36.193 -32.3491 34.3548 -32.528 32.5513C-32.5727 32.1042 -32.6075 31.6521 -32.6373 31.2L-32.7565 29.2674C-32.8658 27.4689 -32.9503 25.6903 -33 24.031L-32.6025 24.2148C-30.9233 24.9849 -29.3037 25.7052 -27.6592 26.4008L-26.76 26.7784L-26.0893 27.0466C-25.6372 27.2205 -25.1801 27.3894 -24.7181 27.5435C-23.2276 28.0403 -21.6179 29.0339 -20.0977 29.3866C-18.2296 29.799 -18.5675 30.3803 -18.4781 31.0808C-18.4433 31.3342 -18.6073 31.4832 -18.8308 31.6173C-19.4071 31.9651 -20.3212 32.0297 -20.4206 32.7699C-20.4753 33.1972 -21.3646 32.77 -21.8465 32.5911C-23.5025 32.0015 -25.142 31.3888 -26.7649 30.7529L-27.9871 30.2561L-28.5833 30.0226H-28.6777V30.0772L-28.638 30.6982L-28.3498 34.5933C-28.2537 35.8916 -28.1494 37.1883 -28.0368 38.4833C-27.9275 39.78 -27.8232 41.0767 -27.694 42.3734C-27.1276 48.2805 -26.288 54.1628 -25.4633 60.0401C-24.6585 65.7783 -23.9728 71.5513 -22.7705 77.215C-22.0651 80.5967 -21.4258 83.975 -20.8528 87.35C-20.5498 89.1038 -20.2119 90.8277 -19.8592 92.5914L-18.7513 97.803L-18.1552 100.535V100.62C-18.1552 100.62 -18.1005 100.62 -18.0757 100.645H-17.9912H-17.9266L-17.8422 100.67C-17.3056 100.824 -16.7591 100.968 -16.2126 101.092L-16.1778 101.176Z" fill="#7900DF"/>
<path d="M84.1889 54.7987C83.9505 52.8363 83.7418 50.8639 83.4686 48.9065C82.6588 43.1186 82.0924 37.3108 81.382 31.5179C80.6219 25.3872 79.658 19.2864 78.6495 13.2202L78.1527 10.1698L78.0086 9.17618C78.0086 9.17618 78.0086 9.12153 78.0086 9.11656L77.9788 9.14637L77.9093 9.20101L77.7652 9.32024L77.4323 9.58357L77.3379 9.65809L77.2981 9.69783L77.1441 9.84688L76.5132 10.453L75.2314 11.6404C74.5557 12.2664 73.9695 13.0166 73.3385 13.7121C73.0802 13.9903 72.7622 14.3878 72.5237 14.2089C71.8133 13.7121 70.8793 13.4239 70.5365 12.5098C70.3924 12.1173 70.5961 11.7 71.0333 11.2628L73.736 8.54521L75.2264 7.02994L77.7652 4.42663L79.0122 3.14484L79.6332 2.50892C79.822 2.35987 80.13 1.8581 80.1002 2.37478L80.7709 5.85249L81.4267 9.24573L81.5012 9.64814L81.5409 9.88662L81.6155 10.3834L81.7695 11.3373C82.152 13.6674 82.2663 16.0372 82.7283 18.3325C83.4934 22.5008 84.0002 26.7038 84.5517 30.887C85.4509 37.5443 86.5389 44.1619 87.1748 50.8341C87.612 55.3054 88.0293 59.7768 88.6255 64.2034C88.8392 65.7932 89.0727 67.378 89.3161 68.9579L90.0265 73.7075C90.2021 74.9396 90.3909 76.1667 90.5929 77.3889L90.891 79.2271C90.9854 79.8282 91.1146 80.484 91.1742 81.2143C91.2566 82.0194 91.2012 82.8325 91.0103 83.6189C90.7854 84.4297 90.4021 85.1878 89.8825 85.8496C89.4254 86.4557 88.9783 86.9227 88.5709 87.3848L87.3239 88.7808C85.7937 90.4832 84.2486 92.1757 82.6886 93.8583L80.3287 96.3423C79.5338 97.177 78.7538 97.9967 77.8993 98.8264C74.6203 102.066 71.0681 105.032 67.5805 108.047C67.1532 108.405 66.552 108.544 66.2589 109.041L66.0055 109.339C64.3909 110.248 62.9899 111.446 61.415 112.399C58.1608 114.387 54.9166 116.374 51.3594 117.795C50.4999 118.148 49.6107 118.52 48.7214 118.928C47.8321 119.335 46.9378 119.782 46.0584 120.249C44.6474 121.014 42.7646 121.521 41.448 122.405C39.8284 123.493 39.6247 122.833 39.0682 122.43C38.8596 122.286 38.8645 122.062 38.9241 121.804C39.0782 121.143 39.6744 120.428 39.2024 119.847C38.9291 119.519 39.8681 119.166 40.3351 118.928C48.2395 114.953 56.258 111.341 63.4618 106.467C65.9091 104.801 68.2442 102.975 70.4521 101.002C70.9986 100.506 71.5549 100.009 72.0865 99.512L73.6714 97.9669C74.198 97.4701 74.665 96.8988 75.2016 96.3672L75.9617 95.5673L76.7317 94.7327C78.719 92.5467 80.7858 90.4054 82.8227 88.2492L85.8533 85.0001C86.3131 84.5293 86.7444 84.0316 87.145 83.5096C87.2742 83.326 87.381 83.1275 87.463 82.9184C87.529 82.7327 87.5691 82.5388 87.5822 82.3421C87.5988 81.6395 87.5321 80.9374 87.3835 80.2505C87.251 79.3761 87.1136 78.5034 86.9712 77.6323C86.7029 75.8835 86.5041 74.1298 86.3203 72.381C85.9477 68.7493 85.4906 65.1374 85.123 61.5206C84.8944 59.2601 84.6858 56.9797 84.2337 54.749L84.1889 54.7987Z" fill="#7900DF"/>
<path d="M53.2474 76.261L53.0088 73.6279C52.9244 72.7038 52.8052 71.7748 52.6859 70.8507C51.9457 65.3857 51.2601 59.9208 50.4304 54.4558C49.5461 48.648 48.4431 42.8502 47.6532 36.9977C47.0421 32.596 46.4161 28.1693 46.2323 23.7228C46.2025 22.8385 46.0187 21.9442 45.9094 21.0549C45.8597 20.6972 45.7653 20.2203 46.0534 20.1507C46.903 19.957 47.7228 19.4552 48.6369 19.7732C49.0294 19.9123 49.2082 20.3097 49.2579 20.891C49.6206 25.6902 50.1621 30.4845 50.7484 35.2986C51.0266 37.4995 51.1259 39.7401 51.5432 41.9112C52.2984 45.846 52.8548 49.8205 53.5305 53.7752C54.5589 60.0698 55.7811 66.3645 56.3077 72.7634L56.5363 75.9828C56.6754 77.8061 56.7598 79.6592 56.879 81.4478L56.9585 82.7991L57.0032 83.4748V83.8126V83.8921C57.0032 83.8921 57.0032 83.9318 57.0032 83.9269L56.9685 83.8971L56.8343 83.7927L54.6782 82.0936L50.5496 78.8593L49.6405 78.1638L49.4119 77.9899L49.3225 77.9254L49.1884 77.826L48.9449 77.662L48.8853 77.6223C48.8853 77.6223 48.8456 77.5925 48.8406 77.6223L48.771 77.7664L48.3835 78.606C48.0705 79.2667 47.7923 79.9424 47.5141 80.6181C46.4366 83.2857 45.707 86.0809 45.343 88.9348H42.0839L41.2741 83.7878C40.5934 79.4853 39.9824 75.173 39.5104 70.8259C39.1138 66.5458 38.4501 62.2947 37.5231 58.0975C37.4039 57.6007 37.5529 57.0293 37.2499 56.607L37.1009 56.2741C37.0214 54.5452 36.5345 52.8958 36.2811 51.2017C35.7843 47.6793 35.0192 44.2164 34.7907 40.6195C34.6748 38.7825 34.4274 36.9562 34.0504 35.1545C33.7325 33.6641 33.7672 31.8259 33.2853 30.4C32.6891 28.6463 33.3797 28.6264 33.9163 28.2091C34.115 28.0501 34.3286 28.1147 34.5572 28.2091C35.1484 28.5121 35.67 29.2375 36.3606 28.9444C36.7531 28.7754 36.8574 29.7293 36.9269 30.2162C38.5615 38.4981 39.6197 46.8794 40.8071 55.2408C41.6119 60.9542 42.5757 66.6427 43.4054 72.3511C44.1755 77.6918 44.7369 83.0723 45.6212 88.3783H41.8156L41.915 87.6281C42.3888 84.1296 43.4468 80.7355 45.0449 77.5875C45.348 76.9913 46.1528 75.4611 46.9626 74.1098L47.5638 73.0864L47.7128 72.828L47.7874 72.6988L47.8221 72.6392V72.6094H47.8519L48.3488 72.9771C48.9797 73.4739 49.6007 73.926 50.2316 74.4427L52.7505 76.4647L53.0983 76.7926L53.3666 77.0509C53.3666 77.0509 53.4163 77.1006 53.4361 77.1056V77.036V76.8721C53.4309 76.6359 53.3696 76.4043 53.2572 76.1964L53.2474 76.261Z" fill="#7900DF"/>
</svg>
