<svg width="51" height="51" viewBox="0 0 51 51" fill="none" xmlns="http://www.w3.org/2000/svg">
<path d="M37.3418 45.2609L37.3568 45.2533L37.3418 45.2609Z" fill="#75A7F5"/>
<path d="M28.8965 44.3751L28.9179 44.3966L28.9323 44.411L28.8965 44.3751Z" fill="#75A7F5"/>
<path d="M21.7815 14.5344C21.4461 14.2948 21.4382 13.8996 22.4203 13.0332C25.0994 10.7494 28.2775 9.3081 31.5075 8.17819L31.6992 8.10633C33.8392 7.43557 36.0071 6.7648 38.243 6.57316C39.2292 6.49331 40.2154 6.45737 41.2055 6.44939C42.3314 6.43069 43.4523 6.6049 44.5194 6.96445C45.0455 7.14863 45.5556 7.37562 46.0446 7.64317C46.1643 7.70306 46.2761 7.77095 46.3919 7.83483C46.5077 7.89872 46.6634 8.0105 46.7912 8.09833C46.9315 8.18511 47.065 8.28256 47.1904 8.38981C47.3102 8.48963 47.434 8.59342 47.5498 8.69722C48.369 9.49559 49.0265 10.4445 49.4862 11.492C49.9871 12.5952 50.3311 13.7631 50.5083 14.9616C50.6039 15.5984 50.6266 16.2441 50.5761 16.886L50.5562 17.1376L50.5322 17.3332L50.4843 17.7325L50.3805 18.531C50.0993 20.6638 49.6697 22.7743 49.0949 24.8473C48.3722 27.2748 47.7973 29.6384 47.1904 32.1098C46.883 33.3396 46.5636 34.5573 46.2322 35.779C45.9008 37.0008 45.5335 38.2465 45.0943 39.4802C44.3757 41.677 43.2963 43.7388 41.9002 45.5809C40.3791 47.4574 38.1871 49.0384 35.588 49.4896C33.4496 49.8464 31.2532 49.5195 29.3116 48.5554L28.7446 48.2519L28.4691 48.0802L28.3334 48.0044C28.2815 47.9605 28.2296 47.9125 28.1737 47.8566L28.0938 47.7688C28.0699 47.7448 28.0339 47.677 28.026 47.7329C28.0281 47.7474 28.0281 47.7622 28.026 47.7768C28.0025 47.8277 27.9758 47.877 27.9461 47.9245C27.9461 47.9525 27.9142 47.9724 27.8982 47.9964L27.8103 48.1122C27.3488 48.6319 26.8102 49.0776 26.2133 49.4337C25.5166 49.8577 24.7522 50.1589 23.9535 50.3241C23.1725 50.4843 22.3651 50.4624 21.5939 50.2602C20.9431 50.0885 20.1525 49.9568 19.3341 49.7491C18.9348 49.6453 18.5116 49.5295 18.1124 49.3898C17.723 49.2516 17.3418 49.0917 16.9705 48.9107C14.9742 47.9245 13.3212 46.4752 11.812 45.0019C10.3028 43.5287 9.09703 41.6202 7.69963 40.0551C7.02488 39.025 6.42998 37.935 5.75124 36.9609C4.25506 34.7174 2.98709 32.3299 1.96626 29.834C1.15597 28.0723 0.559515 26.2198 0.189574 24.3163C0.0167954 23.3254 -0.0381656 22.3176 0.0258639 21.3139C0.0701235 20.8039 0.146158 20.2972 0.253469 19.7966C0.373378 19.3006 0.528108 18.8136 0.716576 18.3394C1.09366 17.4004 1.59594 16.5166 2.2098 15.7122C3.43843 14.1261 5.02202 12.8502 6.83326 11.9871C7.73174 11.5452 8.68109 11.2154 9.66 11.005C12.6545 10.3795 15.7638 10.5951 18.6434 11.6278C19.5693 11.9547 20.4013 12.503 21.0669 13.2248C21.326 13.5125 21.561 13.821 21.7696 14.1471C21.9652 14.4665 22.1369 14.77 22.2966 15.0774C22.6439 15.7522 22.6 16.0915 22.2966 16.1514C21.9931 16.2113 21.4182 15.9757 20.6077 15.5445C17.5294 13.9156 14.0718 13.149 10.8698 13.6321C10.5025 13.672 10.1551 13.7599 9.80373 13.8277C9.45238 13.8956 9.10504 14.0074 8.76966 14.1431C8.08063 14.3816 7.42039 14.6963 6.80129 15.0814C6.17369 15.458 5.59449 15.9098 5.07651 16.4269C4.55532 16.9253 4.10768 17.4953 3.74699 18.1198C3.55135 18.4312 3.40762 18.7666 3.24392 19.09C3.10723 19.4209 2.98991 19.7595 2.89257 20.1041L2.81269 20.3596L2.76478 20.6231C2.73683 20.7988 2.68892 20.9665 2.66896 21.1501C2.62282 21.5129 2.6028 21.8785 2.60906 22.2441C2.54518 22.304 2.55716 22.3559 2.60906 22.4078C2.57241 23.4938 2.739 24.5771 3.10019 25.6019C3.47843 26.6919 3.92104 27.7585 4.42571 28.796C4.95274 29.9419 5.48375 31.0917 6.02275 32.2815C6.38209 33.08 7.18059 34.0622 7.75553 34.9965C9.53623 37.8871 11.3489 40.7139 13.5568 43.0416C14.0627 43.577 14.5957 44.086 15.1538 44.5667C15.7407 45.2894 16.5912 45.6607 17.3577 46.0919C17.5973 46.2117 17.8209 46.3594 18.0604 46.4912C18.3 46.6229 18.5395 46.7267 18.7831 46.8345C19.3702 47.0935 19.9914 47.2669 20.6277 47.3496C21.8534 47.5158 23.1003 47.4247 24.2889 47.0821C24.4135 47.0172 24.5246 46.9291 24.6163 46.8226C24.8079 46.6797 24.9894 46.5236 25.1593 46.3554C25.1696 46.3407 25.1777 46.3246 25.1832 46.3075L25.2391 46.3355C25.369 46.2454 25.4882 46.141 25.5945 46.024L25.8859 45.6448C25.9698 45.4731 26.0456 45.2894 26.1255 45.1097C26.4249 44.3511 26.7324 43.4448 26.9799 42.6583C27.0515 42.6939 27.1208 42.7339 27.1875 42.778L27.4271 42.9977L27.9062 43.4448C28.2416 43.7443 28.5969 44.0756 28.9443 44.3791L29.6949 45.1576H29.7188L29.6829 45.1337L29.7188 45.1616C29.7347 45.1588 29.7509 45.1588 29.7667 45.1616L29.8106 45.2056C29.8501 45.2349 29.8915 45.2616 29.9344 45.2854L30.0342 45.3413L30.154 45.4132C30.2326 45.4605 30.314 45.5032 30.3976 45.5409C30.5693 45.6128 30.7289 45.7006 30.9046 45.7605C31.251 45.8897 31.6059 45.9951 31.9666 46.0759C32.6874 46.2272 33.419 46.3206 34.1546 46.3554C35.0239 46.348 35.8825 46.1632 36.6779 45.8124C36.8376 45.8124 37.0093 45.8124 37.0772 45.6208C37.1791 45.5426 37.2764 45.4586 37.3686 45.3693L37.3926 45.2215C37.5163 45.1417 37.6481 45.0738 37.7679 44.986C37.8877 44.8981 38.0035 44.8103 38.1272 44.7264C38.3661 44.5588 38.6155 44.4068 38.8739 44.2713C38.9417 44.1435 38.9777 43.9918 39.1653 43.9679V43.9399L39.5167 43.5406L39.84 43.0935C40.0636 42.806 40.2393 42.4666 40.4429 42.1592C40.5771 41.6939 40.857 41.2839 41.2414 40.9894C41.5888 40.7538 41.3892 40.091 41.7844 39.6998C41.8081 39.6581 41.8268 39.6139 41.8403 39.568C42.6742 37.449 43.3639 35.2761 43.9045 33.0641C44.4722 31.6958 44.921 30.2812 45.246 28.8359C45.6014 27.3746 45.9208 25.8854 46.3081 24.444C46.708 22.9021 47.0266 21.3402 47.2623 19.7647C47.3821 18.9662 47.4819 18.1677 47.5697 17.3692L47.6336 16.7743C47.6336 16.5986 47.6336 16.4708 47.6336 16.3071C47.6285 15.979 47.5965 15.6518 47.5378 15.3289C47.3331 14.2354 46.9138 13.1932 46.3041 12.2626C46.2393 12.2269 46.1843 12.1758 46.1439 12.1139C46.1035 12.0519 46.079 11.981 46.0725 11.9073H46.0925C45.8603 11.5529 45.5794 11.233 45.258 10.957C45.1239 10.8441 44.9796 10.7438 44.8268 10.6576C44.6462 10.5629 44.4594 10.4802 44.2679 10.4101C43.1368 9.95909 41.9149 9.78257 40.7025 9.895C37.7922 10.0086 34.9228 10.619 32.2182 11.6997C31.791 11.8674 31.3837 12.0989 30.9765 12.2906C30.5692 12.4822 30.178 12.7537 29.8226 13.0013C29.1838 13.4564 28.8684 13.4005 28.6248 13.1969C28.1298 12.7976 27.5149 12.6898 26.2293 13.704C25.8477 14.0368 25.4282 14.3235 24.9796 14.5584C24.5803 14.758 24.213 14.754 24.1492 14.227C24.1172 13.9635 23.7778 14.2829 23.5543 14.4506C22.1569 15.6004 22.1289 14.7979 21.7815 14.5344ZM25.4587 46.2995C25.3829 46.2995 25.299 46.3315 25.2191 46.3474C25.2729 46.3619 25.3276 46.3726 25.3829 46.3794C25.3829 46.3794 25.4388 46.3275 25.4587 46.2995ZM34.0428 46.4712L34.1107 46.3914L33.9789 46.4353L34.0428 46.4712ZM37.5922 45.2734L37.3567 45.4012L37.6082 45.3214L37.5922 45.2734ZM40.6985 41.8837L40.435 42.1951L40.7104 41.9716L40.6985 41.8837ZM46.2642 12.2586V12.3105C46.2693 12.2882 46.2693 12.265 46.2642 12.2427V12.2586Z" fill="#75A7F5"/>
<path d="M14.8526 1.69027C15.2519 1.69027 15.5513 1.72222 15.5673 1.97375C15.5678 2.31945 15.5464 2.66482 15.5034 3.00782C15.5034 3.1835 15.4675 3.35918 15.4555 3.53885C15.4529 3.71536 15.4662 3.89176 15.4954 4.06587V4.10579C15.4954 4.58091 15.8268 4.97218 15.8947 5.42334C16.0663 6.22186 16.5016 6.9126 16.7212 7.71511C16.9487 8.63341 17.5995 9.34409 18.0946 10.1107C18.2442 10.3481 18.4082 10.5761 18.5857 10.7934C18.7733 11.001 18.961 11.1927 19.1566 11.4083C19.3523 11.6239 19.5559 11.7756 19.7914 11.9552C19.8975 12.0448 20.0081 12.1287 20.1229 12.2068C20.1504 12.2301 20.1814 12.2489 20.2147 12.2627H20.2586C20.3496 12.3047 20.4503 12.3212 20.55 12.3106C20.6259 12.3106 20.6658 12.2707 20.7217 12.2786C20.7422 12.2875 20.7611 12.2996 20.7776 12.3146C20.8215 12.3146 20.9214 12.3146 20.9693 12.2387C21.0172 12.1628 20.9413 12.107 20.9693 12.063C20.9972 12.0191 20.8974 11.9552 21.2408 11.9073C21.3845 11.8794 21.3845 11.7836 21.3606 11.6997C21.2998 11.5728 21.2555 11.4386 21.2288 11.3005C21.209 10.844 21.1257 10.3924 20.9812 9.95895C20.7896 9.55969 20.7976 9.01668 20.3464 8.72123C20.2824 8.46043 20.17 8.21395 20.015 7.99457C19.6158 7.5514 19.504 6.93254 19.2165 6.39754C18.8389 5.67853 18.3148 5.04664 17.678 4.54258C17.0412 4.03851 16.3059 3.67347 15.5194 3.47098C14.9324 3.37929 14.3328 3.41056 13.7586 3.5628C13.535 3.60672 13.3594 3.43902 13.1517 3.20346C12.9441 2.96789 12.7525 2.66445 12.5529 2.37699C12.0857 1.75813 12.0977 1.23113 12.6487 1.02351C13.7231 0.585877 14.905 0.484238 16.0384 0.732039C17.0424 1.04759 17.9869 1.52793 18.8332 2.1534C19.2588 2.44803 19.651 2.78809 20.0031 3.16754C19.9711 3.23142 20.003 3.2354 20.043 3.20745C20.4023 3.84228 20.9573 4.25751 21.3526 4.80449C21.5647 5.10763 21.7153 5.44948 21.7957 5.81064C21.8476 6.06217 22.195 6.2538 22.3387 6.5253C22.7955 7.34083 23.1675 8.20108 23.4487 9.09254C23.5205 9.29616 23.5605 9.51176 23.6164 9.71938C23.5245 10.0188 23.7361 10.2344 23.808 10.4939C23.8439 10.6497 23.836 10.8134 23.8679 10.9731C23.9033 11.2307 23.9567 11.4855 24.0276 11.7356C24.138 12.0372 24.1908 12.3568 24.1833 12.6779C24.1913 12.9694 24.1535 13.2604 24.0715 13.5403C24.0715 13.5962 24.1194 13.704 24.1474 13.7918C24.1734 13.9238 24.1921 14.0571 24.2033 14.1911V14.231L24.1434 14.2031C24.0812 14.4441 24.0569 14.6933 24.0715 14.9417C24.0715 15.2052 24.0715 15.4887 24.0715 15.7602L23.9557 15.864C23.9575 15.8719 23.9575 15.8801 23.9557 15.8879C23.9278 16.1874 23.9278 16.5188 23.9158 16.8541C23.9158 17.0258 23.8958 17.1935 23.8799 17.3532C23.8737 17.4296 23.863 17.5056 23.8479 17.5808C23.8457 17.6453 23.8279 17.7083 23.796 17.7645C23.7162 17.7166 23.6323 17.6607 23.5445 17.6008L22.3906 16.966C22.2988 16.8502 22.207 16.7264 22.211 16.8821H22.0872V17.0139C21.7882 16.8902 21.5248 16.6939 21.3206 16.4429C21.2807 16.4829 21.2368 16.5507 21.1609 16.3671L20.7617 16.2034L20.3344 15.9838C20.1428 15.9638 19.9352 15.9159 19.8234 15.5406C19.7436 15.2651 19.4241 15.6085 19.3004 15.2851C19.2856 15.2707 19.2679 15.2598 19.2485 15.2531C19.0488 15.1094 18.8492 14.9856 18.6536 14.8219L18.1345 14.4227C17.875 14.235 17.6554 14.0234 17.4159 13.7998C17.2706 13.414 17.0478 13.062 16.7611 12.7657C16.4816 12.4863 16.1901 12.2068 15.9346 11.8993C15.3735 11.2276 14.8484 10.5265 14.3615 9.79924C14.1659 9.51177 13.9862 9.21234 13.7946 8.91289C13.7187 8.91289 13.6748 8.87297 13.7347 8.78912C13.6392 8.52068 13.5046 8.26776 13.3354 8.03851C13.1977 7.88503 13.0821 7.713 12.992 7.52745L12.7525 6.97247C12.6647 6.77683 12.5768 6.57322 12.501 6.38157L12.3053 5.77069C12.1656 5.37144 12.0738 4.94823 11.962 4.529C11.8725 4.26172 11.7575 4.00368 11.6186 3.75843C11.4948 3.53485 11.6705 3.43503 11.978 3.35917C12.5768 3.21544 12.9082 3.05973 12.7765 2.63652C12.7046 2.40494 12.6846 1.96975 13.575 2.08154C13.7986 2.10549 13.7626 1.99769 13.7666 1.92982C13.8026 1.58246 14.4254 1.71023 14.8526 1.69027ZM23.9797 14.271H24.1115C24.0672 14.2545 24.0218 14.2412 23.9757 14.231C23.9757 14.231 23.9797 14.247 23.9797 14.267V14.271ZM23.5046 17.5569L23.5365 17.6567L23.5605 17.6247L23.5046 17.5569ZM21.9475 16.8621L22.0593 16.934L21.9315 16.7983L21.9475 16.8621ZM20.1468 15.844L20.2945 16.0157L20.1787 15.7961L20.1468 15.844ZM13.7906 8.92486V8.94881C13.7906 8.94881 13.7986 8.94481 13.8025 8.94082L13.7906 8.92486Z" fill="#75A7F5"/>
<path d="M21.6245 12.3145C21.2252 12.2466 20.9498 12.1428 20.9897 11.9152C21.0975 11.3483 21.5087 10.8532 21.6565 10.3182V10.2823C21.8202 9.93092 21.7004 9.52366 21.8321 9.16832C22.0637 8.54548 22.0318 7.87074 22.3552 7.25987C22.7105 6.58512 22.7185 5.81854 22.966 5.11185C23.2341 4.26152 23.4094 3.38471 23.4891 2.4967L23.521 2.21322C23.521 2.10941 23.521 2.04952 23.5569 1.88582C23.5957 1.64729 23.6696 1.41585 23.7765 1.19911C23.9656 0.83092 24.2549 0.523647 24.611 0.312738C24.9307 0.12959 25.2891 0.0242897 25.6571 0.00532405C25.8894 -0.00859354 26.1226 0.00479706 26.3518 0.0452403C26.5314 0.0731885 26.6911 0.117103 26.7909 0.141059L27.0664 0.212923C27.1926 0.249715 27.3166 0.293712 27.4377 0.344685C27.4817 0.344685 27.5975 0.404561 27.7612 0.48042C28.0121 0.59335 28.2417 0.748681 28.4399 0.939579C28.6655 1.16093 28.8369 1.4314 28.9408 1.72989C29.0446 2.02837 29.0782 2.34681 29.0388 2.66039C29.0388 2.78815 29.0068 2.82011 28.9949 2.89996L28.9549 3.10756C28.923 3.31118 28.9549 3.50683 28.903 3.72243C28.8511 3.93803 28.903 4.20952 28.5317 4.41315C28.2203 4.58483 28.38 4.93618 28.3121 5.21167C28.174 5.56804 28.0658 5.9353 27.9887 6.30963C27.9488 6.70889 27.6653 7.02829 27.833 7.47147C27.7257 7.67251 27.6515 7.8896 27.6134 8.11429C27.6134 8.64132 27.2142 9.02859 26.9507 9.4558C26.2562 10.581 25.6757 11.7727 25.2178 13.0132C25.1129 13.4455 25.0858 13.893 25.138 14.3347C25.138 14.6342 24.3874 14.734 23.7526 14.9376C23.1178 15.1413 22.5548 15.1053 22.443 14.6382C22.2551 13.8148 22.2979 12.9555 22.5668 12.1548C22.8223 11.492 23.2375 10.957 23.4731 10.398C23.6037 10.1243 23.7491 9.85773 23.9083 9.59953C23.9762 9.61949 23.9682 9.59953 23.9083 9.57158C24.2716 9.29609 24.3076 8.86091 24.4593 8.4896C24.5604 8.2796 24.7061 8.09424 24.8865 7.94659C25.0182 7.83479 24.9144 7.57528 24.9663 7.3996C25.134 6.85661 25.2937 6.30962 25.4255 5.75465C25.4574 5.62689 25.4973 5.49913 25.5293 5.35539C25.7329 5.23162 25.6011 5.03598 25.6291 4.87628C25.657 4.71657 25.697 4.68864 25.713 4.58882C25.745 4.46847 25.745 4.34186 25.713 4.22151C25.6765 4.09174 25.6735 3.95484 25.7042 3.82359C25.7349 3.69234 25.7984 3.57102 25.8886 3.4709C25.8886 3.44295 25.8487 3.40302 25.8247 3.37108L25.7728 3.20338H25.8327C25.9565 2.99177 25.8327 2.76021 25.8327 2.54062C25.848 2.52601 25.8655 2.51388 25.8846 2.50467H26.204C26.4153 2.52287 26.6276 2.52287 26.8388 2.50467C26.9018 2.49861 26.9636 2.48383 27.0225 2.46076C26.9501 2.52549 26.8917 2.60429 26.8508 2.69234C26.7549 2.88118 26.6708 3.07585 26.5993 3.27524L26.5035 3.53477H26.4715C26.3956 3.50589 26.3254 3.464 26.2639 3.411L25.7649 3.18741C25.7649 3.12353 25.7648 3.04767 25.7169 3.18741C25.7001 3.20426 25.6854 3.22303 25.673 3.24332L25.6411 3.3551L25.673 3.19541C25.693 3.06365 25.705 2.96383 25.713 2.86801C25.7273 2.72731 25.7273 2.5855 25.713 2.4448C25.7085 2.40425 25.7004 2.36418 25.689 2.32502C25.665 2.24517 25.6411 2.22521 25.6611 2.24916C25.7313 2.30328 25.8076 2.34883 25.8886 2.3849C26.0565 2.46092 26.23 2.52367 26.4077 2.57256L26.6392 2.64043H26.6711H26.6392H26.5035C26.3118 2.64043 26.7271 2.84006 26.5035 2.89197C26.501 2.89621 26.4997 2.90102 26.4997 2.90593C26.4997 2.91084 26.501 2.91567 26.5035 2.91992L26.2799 4.15362C25.7608 4.57683 25.8607 5.14777 25.7569 5.6708C25.6531 6.19383 25.5852 6.82068 25.5053 7.3996C25.4774 7.62718 25.4654 7.86274 25.4454 8.09431C25.4973 8.13823 25.5173 8.17418 25.4215 8.18216C25.3521 8.35842 25.3301 8.54974 25.3576 8.73714C25.4087 9.00086 25.4087 9.27193 25.3576 9.53566C25.3217 10.0906 25.1979 10.6296 25.142 11.1846C25.1333 11.3734 25.1674 11.5618 25.2418 11.7356C25.3057 11.9032 25.1101 11.9112 24.7986 11.8713C24.1958 11.7915 23.8244 11.7994 23.8763 12.1149C23.9043 12.2865 23.8404 12.574 22.978 12.2905C22.7664 12.2187 22.7784 12.2905 22.7584 12.3504C22.6307 12.61 22.0477 12.3904 21.6245 12.3145ZM26.0163 3.17145L25.8886 3.20338H26.0243C26.0243 3.20338 26.0124 3.17944 26.0084 3.17145H26.0163ZM26.3238 3.30319L26.2839 3.37506L26.3238 3.34713V3.30319ZM25.681 3.19141V3.12752V3.19141ZM26.1681 2.46475L25.9205 2.36494L26.1162 2.4448L26.1681 2.46475Z" fill="#75A7F5"/>
</svg>
