<svg width="90" height="90" viewBox="0 0 90 90" fill="none" xmlns="http://www.w3.org/2000/svg">
<path d="M66.2119 80.2588L66.2269 80.2512L66.2119 80.2588Z" fill="#FFCA28"/>
<path d="M51.251 78.6936L51.2724 78.7152L51.2868 78.7295L51.251 78.6936Z" fill="#FFCA28"/>
<path d="M38.6268 25.775C38.0321 25.3502 38.0179 24.6492 39.7597 23.1128C44.5106 19.0628 50.1466 16.5068 55.8746 14.503L56.2145 14.3756C60.0096 13.1861 63.8542 11.9966 67.8192 11.6567C69.568 11.5151 71.3169 11.4514 73.0728 11.4372C75.0695 11.4041 77.0572 11.713 78.9496 12.3506C79.8825 12.6772 80.7871 13.0798 81.6543 13.5543C81.8667 13.6605 82.0649 13.7809 82.2702 13.8941C82.4756 14.0074 82.7517 14.2057 82.9783 14.3614C83.2272 14.5153 83.4639 14.6881 83.6863 14.8783C83.8987 15.0553 84.1182 15.2394 84.3236 15.4235C85.7764 16.8393 86.9424 18.5221 87.7575 20.3797C88.6458 22.3361 89.256 24.4071 89.5702 26.5326C89.7397 27.6619 89.78 28.8069 89.6905 29.9453L89.6551 30.3914L89.6126 30.7383L89.5276 31.4464L89.3435 32.8624C88.8449 36.6446 88.0831 40.3874 87.0637 44.0636C85.7821 48.3685 84.7625 52.5601 83.6863 56.9428C83.1411 59.1236 82.5747 61.2831 81.987 63.4497C81.3993 65.6163 80.748 67.8254 79.9691 70.0132C78.6948 73.909 76.7805 77.5652 74.3048 80.832C71.6072 84.1598 67.7201 86.9636 63.1108 87.7636C59.3188 88.3963 55.4237 87.8166 51.9804 86.1069L50.975 85.5687L50.4864 85.2643L50.2457 85.1298C50.1537 85.0519 50.0616 84.9669 49.9625 84.8678L49.8209 84.712C49.7784 84.6695 49.7147 84.5492 49.7005 84.6483C49.7044 84.6741 49.7044 84.7004 49.7005 84.7262C49.6589 84.8164 49.6116 84.9039 49.559 84.9882C49.559 85.0377 49.5023 85.0731 49.474 85.1156L49.3182 85.3209C48.4997 86.2426 47.5445 87.033 46.486 87.6646C45.2504 88.4164 43.895 88.9505 42.4786 89.2435C41.0936 89.5276 39.6617 89.4888 38.2941 89.1302C37.14 88.8257 35.738 88.5921 34.2865 88.2239C33.5785 88.0398 32.828 87.8344 32.12 87.5866C31.4296 87.3416 30.7535 87.058 30.095 86.737C26.5548 84.9882 23.6235 82.418 20.9471 79.8053C18.2708 77.1926 16.1325 73.8083 13.6543 71.0328C12.4577 69.206 11.4028 67.2731 10.1991 65.5455C7.54581 61.567 5.29723 57.3331 3.48692 52.907C2.04998 49.7827 0.99223 46.4976 0.336186 43.1219C0.0297845 41.3647 -0.067682 39.5775 0.0458664 37.7975C0.124355 36.8931 0.259192 35.9945 0.449496 35.1069C0.662139 34.2272 0.936533 33.3637 1.27076 32.5226C1.93946 30.8574 2.83021 29.2902 3.91881 27.8637C6.09763 25.0508 8.90592 22.7882 12.1179 21.2577C13.7113 20.474 15.3948 19.8891 17.1308 19.516C22.4413 18.4068 27.9551 18.7891 33.0616 20.6205C34.7036 21.2002 36.1791 22.1725 37.3595 23.4526C37.819 23.9627 38.2358 24.5098 38.6056 25.0882C38.9526 25.6546 39.257 26.1928 39.5402 26.7379C40.1562 27.9345 40.0783 28.5363 39.5402 28.6425C39.0021 28.7487 37.9825 28.331 36.5452 27.5663C31.0863 24.6775 24.9546 23.3181 19.2762 24.1748C18.6248 24.2456 18.0088 24.4014 17.3857 24.5218C16.7626 24.6422 16.1467 24.8404 15.5519 25.0811C14.33 25.5039 13.1591 26.062 12.0612 26.745C10.9483 27.4128 9.92112 28.2141 9.00256 29.1311C8.07829 30.0149 7.28445 31.0258 6.64482 32.1332C6.29788 32.6855 6.04298 33.2802 5.75269 33.8537C5.51028 34.4406 5.30223 35.0411 5.12961 35.6521L4.98795 36.1053L4.90299 36.5726C4.85343 36.8841 4.76847 37.1815 4.73307 37.5072C4.65125 38.1505 4.61574 38.7988 4.62685 39.4472C4.51356 39.5534 4.5348 39.6455 4.62685 39.7375C4.56185 41.6634 4.85728 43.5844 5.49781 45.4018C6.16856 47.3348 6.95347 49.2262 7.84845 51.0661C8.78306 53.0982 9.72475 55.1373 10.6806 57.2473C11.3178 58.6633 12.7339 60.4051 13.7535 62.0619C16.9113 67.1881 20.1258 72.201 24.0413 76.3289C24.9384 77.2783 25.8837 78.1811 26.8734 79.0336C27.9142 80.3151 29.4224 80.9736 30.7818 81.7383C31.2066 81.9507 31.6031 82.2127 32.0279 82.4463C32.4528 82.68 32.8775 82.8641 33.3094 83.0552C34.3506 83.5144 35.4522 83.822 36.5806 83.9686C38.7543 84.2634 40.9656 84.1018 43.0733 83.4942C43.2943 83.3791 43.4913 83.2229 43.6539 83.034C43.9937 82.7806 44.3156 82.5038 44.6169 82.2056C44.6352 82.1795 44.6495 82.1509 44.6593 82.1206L44.7584 82.1702C44.9887 82.0105 45.2001 81.8252 45.3886 81.6179L45.9055 80.9453C46.0541 80.6408 46.1887 80.3151 46.3303 79.9965C46.8613 78.6512 47.4065 77.044 47.8455 75.6491C47.9725 75.7123 48.0954 75.7832 48.2137 75.8615L48.6385 76.251L49.4882 77.044C50.0829 77.575 50.7131 78.1627 51.329 78.7008L52.6602 80.0815H52.7026L52.6389 80.039L52.7026 80.0885C52.7307 80.0835 52.7595 80.0835 52.7876 80.0885L52.8654 80.1664C52.9354 80.2184 53.0088 80.2657 53.085 80.308L53.262 80.4072L53.4744 80.5346C53.6138 80.6185 53.758 80.6942 53.9063 80.7612C54.2108 80.8886 54.4939 81.0444 54.8055 81.1506C55.4198 81.3797 56.0491 81.5666 56.6889 81.7099C57.967 81.9781 59.2644 82.1439 60.5689 82.2056C62.1105 82.1924 63.6332 81.8648 65.0437 81.2426C65.3269 81.2426 65.6314 81.2427 65.7518 80.9028C65.9324 80.7641 66.105 80.6152 66.2686 80.4567L66.3111 80.1948C66.5305 80.0532 66.7642 79.9328 66.9767 79.777C67.1891 79.6212 67.3944 79.4655 67.6139 79.3168C68.0374 79.0195 68.4797 78.7499 68.9379 78.5096C69.0583 78.2831 69.122 78.014 69.4548 77.9715V77.922L70.0779 77.2139L70.6513 76.4209C71.0478 75.9111 71.3594 75.3093 71.7205 74.7641C71.9585 73.9389 72.4548 73.2118 73.1365 72.6895C73.7525 72.2718 73.3985 71.0965 74.0995 70.4026C74.1414 70.3288 74.1746 70.2504 74.1986 70.1689C75.6774 66.4112 76.9004 62.5578 77.8592 58.635C78.8658 56.2085 79.6618 53.6999 80.2382 51.1369C80.8683 48.5455 81.4348 45.9045 82.1216 43.3485C82.8309 40.614 83.3957 37.8441 83.8138 35.0503C84.0262 33.6342 84.2032 32.2181 84.359 30.8021L84.4722 29.7471C84.4722 29.4356 84.4722 29.209 84.4722 28.9187C84.4632 28.3368 84.4064 27.7566 84.3023 27.184C83.9394 25.2447 83.1958 23.3965 82.1145 21.7462C81.9996 21.6829 81.9021 21.5923 81.8305 21.4825C81.7589 21.3726 81.7154 21.2468 81.7039 21.1161H81.7392C81.3276 20.4877 80.8294 19.9204 80.2594 19.431C80.0216 19.2306 79.7656 19.0528 79.4948 18.9C79.1744 18.732 78.8432 18.5854 78.5035 18.461C76.4977 17.6612 74.3309 17.3482 72.1807 17.5476C67.0197 17.7491 61.9311 18.8315 57.1349 20.7479C56.3773 21.0453 55.6551 21.456 54.9329 21.7958C54.2107 22.1357 53.5168 22.6172 52.8867 23.0561C51.7538 23.8633 51.1945 23.7642 50.7626 23.4031C49.8846 22.695 48.7942 22.5039 46.5144 24.3023C45.8376 24.8925 45.0938 25.401 44.2982 25.8175C43.5902 26.1715 42.9388 26.1644 42.8255 25.2298C42.7689 24.7625 42.167 25.3289 41.7705 25.6263C39.2924 27.6655 39.2428 26.2423 38.6268 25.775ZM45.1479 82.1064C45.0134 82.1064 44.8646 82.1631 44.723 82.1914C44.8183 82.217 44.9154 82.2359 45.0133 82.248C45.0133 82.248 45.1125 82.156 45.1479 82.1064ZM60.3707 82.4109L60.491 82.2693L60.2574 82.3472L60.3707 82.4109ZM66.6651 80.2868L66.2474 80.5134L66.6934 80.3718L66.6651 80.2868ZM72.1736 74.2755L71.7064 74.8278L72.1949 74.4313L72.1736 74.2755ZM82.0437 21.7392V21.8312C82.0528 21.7916 82.0528 21.7505 82.0437 21.7109V21.7392Z" fill="#FFCA28"/>
<path d="M26.3353 2.99733C27.0433 2.99733 27.5744 3.05399 27.6027 3.50005C27.6036 4.1131 27.5657 4.72557 27.4894 5.33385C27.4894 5.64538 27.4257 5.95693 27.4044 6.27555C27.3999 6.58858 27.4235 6.90139 27.4752 7.21016V7.28095C27.4752 8.12351 28.0629 8.81738 28.1833 9.61746C28.4877 11.0335 29.2595 12.2585 29.649 13.6816C30.0525 15.3101 31.2066 16.5704 32.0846 17.9299C32.3499 18.3508 32.6407 18.7552 32.9554 19.1406C33.2882 19.5088 33.621 19.8486 33.968 20.231C34.3149 20.6133 34.676 20.8824 35.0937 21.201C35.2818 21.3597 35.478 21.5086 35.6814 21.6471C35.7303 21.6883 35.7852 21.7218 35.8443 21.7461H35.9222C36.0836 21.8206 36.2622 21.85 36.439 21.8311C36.5735 21.8311 36.6444 21.7603 36.7435 21.7745C36.7798 21.7902 36.8132 21.8117 36.8426 21.8382C36.9204 21.8382 37.0975 21.8382 37.1825 21.7037C37.2674 21.5691 37.1329 21.47 37.1825 21.3921C37.232 21.3142 37.055 21.201 37.6639 21.116C37.9188 21.0665 37.9188 20.8965 37.8763 20.7478C37.7686 20.5228 37.69 20.2848 37.6426 20.0398C37.6076 19.2302 37.4599 18.4295 37.2037 17.6608C36.8638 16.9528 36.878 15.9898 36.0779 15.4659C35.9643 15.0034 35.765 14.5663 35.4903 14.1772C34.7822 13.3913 34.584 12.2938 34.0742 11.3451C33.4045 10.07 32.475 8.94943 31.3458 8.05554C30.2165 7.16164 28.9125 6.51429 27.5178 6.15519C26.4769 5.9926 25.4136 6.04804 24.3953 6.31803C23.9988 6.39591 23.6872 6.09852 23.3191 5.68078C22.9509 5.26304 22.611 4.72492 22.257 4.21513C21.4286 3.11768 21.4498 2.1831 22.4269 1.81492C24.3323 1.03883 26.4282 0.858582 28.4382 1.29802C30.2186 1.85762 31.8935 2.70944 33.3944 3.81864C34.1491 4.34113 34.8447 4.94417 35.469 5.61708C35.4124 5.73036 35.469 5.73743 35.5398 5.68786C36.177 6.81364 37.1612 7.55 37.8622 8.52001C38.2384 9.0576 38.5054 9.66383 38.6481 10.3043C38.7401 10.7503 39.3561 11.0902 39.611 11.5717C40.4211 13.0179 41.0807 14.5434 41.5794 16.1243C41.7068 16.4854 41.7777 16.8678 41.8768 17.236C41.7139 17.767 42.0892 18.1493 42.2166 18.6095C42.2803 18.8857 42.2662 19.176 42.3228 19.4592C42.3857 19.916 42.4802 20.3679 42.606 20.8115C42.8017 21.3463 42.8954 21.9132 42.8821 22.4825C42.8963 22.9995 42.8293 23.5156 42.6839 24.0119C42.6839 24.111 42.7689 24.3022 42.8184 24.4579C42.8646 24.6919 42.8977 24.9283 42.9176 25.166V25.2368L42.8113 25.1872C42.7011 25.6146 42.658 26.0565 42.6839 26.4971C42.6839 26.9644 42.6839 27.4671 42.6839 27.9486L42.4786 28.1327C42.4817 28.1467 42.4817 28.1611 42.4786 28.1751C42.429 28.7062 42.429 29.2938 42.4078 29.8886C42.4078 30.193 42.3723 30.4904 42.344 30.7736C42.3331 30.9091 42.3142 31.0439 42.2874 31.1772C42.2835 31.2916 42.2519 31.4034 42.1954 31.5029C42.0537 31.418 41.9051 31.3188 41.7493 31.2126L39.7031 30.0868C39.5402 29.8815 39.3774 29.662 39.3845 29.9381H39.1649V30.1718C38.6348 29.9524 38.1676 29.6045 37.8056 29.1593C37.7348 29.2301 37.6569 29.3505 37.5223 29.0248L36.8143 28.7345L36.0566 28.3451C35.7168 28.3097 35.3487 28.2247 35.1504 27.5591C35.0088 27.0706 34.4423 27.6795 34.2229 27.106C34.1967 27.0806 34.1653 27.0612 34.1308 27.0493C33.7768 26.7944 33.4228 26.575 33.0758 26.2847L32.1554 25.5767C31.6951 25.2439 31.3058 24.8686 30.8809 24.4721C30.6234 23.7879 30.2281 23.1637 29.7197 22.6383C29.2241 22.1427 28.7072 21.647 28.2541 21.1018C27.2591 19.9105 26.3279 18.6674 25.4644 17.3776C25.1175 16.8678 24.7988 16.3368 24.459 15.8057C24.3245 15.8057 24.2466 15.7349 24.3529 15.5863C24.1835 15.1102 23.9449 14.6617 23.6448 14.2551C23.4005 13.983 23.1955 13.6779 23.0358 13.3488L22.611 12.3647C22.4553 12.0177 22.2995 11.6566 22.165 11.3168L21.818 10.2335C21.5702 9.52541 21.4074 8.77491 21.2091 8.03147C21.0505 7.55748 20.8466 7.09987 20.6002 6.66496C20.3807 6.26846 20.6923 6.09145 21.2375 5.95692C22.2995 5.70203 22.8872 5.4259 22.6535 4.67538C22.5261 4.26471 22.4907 3.49294 24.0696 3.69119C24.4661 3.73368 24.4024 3.5425 24.4095 3.42214C24.4732 2.80614 25.5777 3.03273 26.3353 2.99733ZM42.521 25.3076H42.7547C42.6762 25.2785 42.5957 25.2548 42.5139 25.2368C42.5139 25.2368 42.521 25.2651 42.521 25.3005V25.3076ZM41.6785 31.1347L41.7351 31.3117L41.7776 31.2551L41.6785 31.1347ZM38.9171 29.9027L39.1154 30.0302L38.8888 29.7895L38.9171 29.9027ZM35.7239 28.0973L35.9859 28.4017L35.7805 28.0123L35.7239 28.0973ZM24.4519 15.827V15.8694C24.4519 15.8694 24.4661 15.8623 24.4732 15.8553L24.4519 15.827Z" fill="#FFCA28"/>
<path d="M38.3435 21.8382C37.6355 21.7178 37.1469 21.5337 37.2177 21.1302C37.4089 20.1248 38.1382 19.2468 38.4002 18.298V18.2343C38.6905 17.6112 38.478 16.889 38.7117 16.2589C39.1224 15.1543 39.0658 13.9578 39.6393 12.8745C40.2694 11.6779 40.2836 10.3184 40.7226 9.06522C41.1979 7.55726 41.5088 6.00236 41.6501 4.42759L41.7067 3.92487C41.7067 3.74078 41.7067 3.63456 41.7705 3.34427C41.8391 2.92126 41.9703 2.51084 42.1598 2.12647C42.4951 1.47353 43.0082 0.928621 43.6397 0.554601C44.2067 0.229811 44.8422 0.0430748 45.4947 0.00944153C45.9068 -0.0152396 46.3202 0.00850698 46.7267 0.080228C47.0453 0.129791 47.3285 0.207668 47.5056 0.25015L47.9941 0.377592C48.2178 0.442838 48.4377 0.520862 48.6526 0.611256C48.7305 0.611256 48.9358 0.717437 49.2261 0.851964C49.6711 1.05223 50.0783 1.32769 50.4297 1.66622C50.8298 2.05876 51.1338 2.53841 51.318 3.06774C51.5022 3.59707 51.5617 4.16177 51.4918 4.71786C51.4918 4.94444 51.4352 5.0011 51.4139 5.14271L51.3431 5.51086C51.2865 5.87196 51.3431 6.21893 51.2511 6.60127C51.159 6.98361 51.2511 7.46506 50.5926 7.82616C50.0403 8.13061 50.3235 8.75369 50.2031 9.24223C49.9582 9.87422 49.7664 10.5255 49.6297 11.1893C49.5589 11.8974 49.0561 12.4638 49.3535 13.2497C49.1632 13.6062 49.0316 13.9912 48.9641 14.3897C48.9641 15.3243 48.2561 16.0111 47.7888 16.7687C46.5572 18.7641 45.5277 20.8774 44.7158 23.0773C44.5297 23.8438 44.4818 24.6375 44.5743 25.4209C44.5743 25.9519 43.2432 26.1289 42.1174 26.49C40.9916 26.8511 39.9933 26.7874 39.795 25.959C39.4617 24.4987 39.5377 22.9749 40.0145 21.555C40.4677 20.3797 41.204 19.4309 41.6217 18.4396C41.8535 17.9541 42.1111 17.4814 42.3935 17.0236C42.5139 17.059 42.4997 17.0236 42.3935 16.974C43.0379 16.4854 43.1016 15.7137 43.3706 15.0552C43.5499 14.6828 43.8084 14.3541 44.1282 14.0923C44.3619 13.894 44.1778 13.4338 44.2699 13.1223C44.5672 12.1593 44.8504 11.1893 45.084 10.2052C45.1407 9.97858 45.2115 9.75201 45.2681 9.49712C45.6292 9.27762 45.3956 8.93068 45.4451 8.64746C45.4947 8.36425 45.5656 8.31471 45.5939 8.1377C45.6506 7.92427 45.6506 7.69974 45.5939 7.48631C45.5292 7.25618 45.5239 7.0134 45.5783 6.78065C45.6328 6.5479 45.7453 6.33275 45.9054 6.1552C45.9054 6.10564 45.8346 6.03483 45.7921 5.97819L45.7 5.68078H45.8062C46.0257 5.30552 45.8062 4.89488 45.8062 4.50546C45.8334 4.47956 45.8645 4.45805 45.8983 4.44172H46.4648C46.8393 4.474 47.2159 4.474 47.5905 4.44172C47.7022 4.43097 47.8117 4.40477 47.9162 4.36384C47.7879 4.47863 47.6843 4.61837 47.6118 4.77452C47.4416 5.1094 47.2926 5.45463 47.1657 5.80823L46.9958 6.26847H46.9391C46.8045 6.21725 46.68 6.14297 46.571 6.04898L45.6859 5.65248C45.6859 5.53919 45.6859 5.40466 45.6009 5.65248C45.5711 5.68235 45.545 5.71563 45.523 5.75161L45.4664 5.94984L45.523 5.66665C45.5584 5.433 45.5797 5.25599 45.5939 5.08606C45.6194 4.83653 45.6194 4.58506 45.5939 4.33554C45.5859 4.26364 45.5717 4.19257 45.5514 4.12314C45.5089 3.98153 45.4664 3.94613 45.5018 3.98861C45.6263 4.08457 45.7618 4.16536 45.9054 4.22932C46.203 4.36412 46.5108 4.47541 46.8259 4.56212L47.2365 4.68247H47.2931H47.2365H46.9958C46.6559 4.68247 47.3923 5.03649 46.9958 5.12854C46.9914 5.13607 46.9891 5.1446 46.9891 5.1533C46.9891 5.162 46.9914 5.17057 46.9958 5.17811L46.5992 7.36592C45.6788 8.11644 45.8558 9.12892 45.6718 10.0564C45.4877 10.984 45.3673 12.0956 45.2257 13.1223C45.1761 13.5258 45.1549 13.9436 45.1195 14.3542C45.2115 14.4321 45.2469 14.4959 45.0769 14.51C44.954 14.8226 44.915 15.1619 44.9637 15.4942C45.0543 15.9619 45.0543 16.4426 44.9637 16.9103C44.9 17.8945 44.6805 18.8503 44.5814 19.8345C44.5659 20.1694 44.6264 20.5034 44.7584 20.8115C44.8716 21.1089 44.5247 21.1231 43.9725 21.0523C42.9033 20.9107 42.2448 20.9248 42.3368 21.4842C42.3864 21.7886 42.2731 22.2984 40.7438 21.7957C40.3685 21.6683 40.3898 21.7957 40.3544 21.9019C40.1278 22.3622 39.094 21.9727 38.3435 21.8382ZM46.1319 5.62417L45.9054 5.68078H46.1461C46.1461 5.68078 46.1249 5.63833 46.1178 5.62417H46.1319ZM46.6771 5.85779L46.6063 5.98524L46.6771 5.93571V5.85779ZM45.5372 5.65957V5.54626V5.65957ZM46.401 4.37093L45.962 4.19392L46.3089 4.33554L46.401 4.37093Z" fill="#FFCA28"/>
</svg>
