<svg width="69" height="77" viewBox="0 0 69 77" fill="none" xmlns="http://www.w3.org/2000/svg">
<path d="M49.7831 16.835C57.9831 24.535 67.4331 31.585 68.3331 39.535C69.2331 47.485 61.5831 56.285 53.3331 63.435C45.0831 70.535 36.2831 75.985 27.1831 76.235C18.0831 76.485 8.68313 71.635 4.08313 64.485C-0.466871 57.385 -0.26687 47.985 0.28313 39.185C0.83313 30.385 1.73313 22.085 6.28313 14.335C10.8831 6.63504 19.1831 -0.564958 26.8331 0.0350424C34.4831 0.685042 41.5331 9.08504 49.7831 16.835Z" fill="#F25C54"/>
<path fill-rule="evenodd" clip-rule="evenodd" d="M45.1001 40.1351C45.1001 32.3111 38.7571 25.9684 30.9331 25.9684C23.1093 25.9684 16.7666 32.3111 16.7666 40.1351C16.7666 47.9591 23.1093 54.3016 30.9331 54.3016C31.1191 54.3016 31.2851 54.2336 31.4451 54.0496C31.6226 53.8451 31.7666 53.5116 31.7666 53.1126V50.1351C31.7666 45.0726 35.8706 40.9686 40.9331 40.9686H43.9111C44.3101 40.9686 44.6431 40.8246 44.8481 40.6466C45.0321 40.4866 45.1001 40.3206 45.1001 40.1351ZM47.6001 40.1351C47.6001 42.0876 45.8636 43.4686 43.9111 43.4686H40.9331C37.2516 43.4686 34.2666 46.4531 34.2666 50.1351V53.1126C34.2666 55.0651 32.8856 56.8016 30.9331 56.8016C21.7285 56.8016 14.2666 49.3396 14.2666 40.1351C14.2666 30.9303 21.7285 23.4684 30.9331 23.4684C40.1381 23.4684 47.6001 30.9303 47.6001 40.1351Z" fill="#FEF1F1"/>
<path fill-rule="evenodd" clip-rule="evenodd" d="M30.9331 34.3017C32.3136 34.3017 33.4331 33.1824 33.4331 31.8017C33.4331 30.421 32.3136 29.3017 30.9331 29.3017C29.5526 29.3017 28.4331 30.421 28.4331 31.8017C28.4331 33.1824 29.5526 34.3017 30.9331 34.3017Z" fill="#FEF1F1"/>
<path fill-rule="evenodd" clip-rule="evenodd" d="M38.4331 38.4684C39.8136 38.4684 40.9331 37.3491 40.9331 35.9684C40.9331 34.5877 39.8136 33.4684 38.4331 33.4684C37.0526 33.4684 35.9331 34.5877 35.9331 35.9684C35.9331 37.3491 37.0526 38.4684 38.4331 38.4684Z" fill="#FEF1F1"/>
<path fill-rule="evenodd" clip-rule="evenodd" d="M23.4331 39.3015C24.8138 39.3015 25.9331 38.1823 25.9331 36.8017C25.9331 35.421 24.8138 34.3017 23.4331 34.3017C22.0524 34.3017 20.9331 35.421 20.9331 36.8017C20.9331 38.1823 22.0524 39.3015 23.4331 39.3015Z" fill="#FEF1F1"/>
<path fill-rule="evenodd" clip-rule="evenodd" d="M25.0996 48.4686C26.4803 48.4686 27.5996 47.3491 27.5996 45.9686C27.5996 44.5876 26.4803 43.4686 25.0996 43.4686C23.7189 43.4686 22.5996 44.5876 22.5996 45.9686C22.5996 47.3491 23.7189 48.4686 25.0996 48.4686Z" fill="#FEF1F1"/>
</svg>
